M48
METRIC,0000.00
T01C1.317
T02C3.0
T03C3.5
T04C4.0
T05C5.0
T06C6.0
%
T01
X+014592Y+017901
X+014196Y+017901
X+014988Y+017901
X+015384Y+017901
X+015781Y+017901
X+016177Y+017901
X+016573Y+017901
X+016969Y+017901
X+017360Y+017901
X+017756Y+017901
X+018152Y+017901
X+018548Y+017901
X+018945Y+017901
X+019341Y+017901
X+019737Y+017901
X+020133Y+017901
X+020533Y+017901
X+020929Y+017901
X+021325Y+017901
X+021721Y+017901
X+022118Y+017901
X+022514Y+017901
X+022910Y+017901
X+023306Y+017901
X+023697Y+017901
X+024092Y+017901
X+024489Y+017901
X+024885Y+017901
X+025282Y+017901
X+025678Y+017901
T02
X+023905Y+009697
T03
X+009561Y+015989
X+014335Y+015991
X+019124Y+013939
X+016299Y+009700
X+017753Y+005532
X+017207Y+003403
X+013906Y+005526
X+011102Y+007600
X+009104Y+007599
X+008645Y+009726
X+006305Y+005487
X+004407Y+003390
X+024402Y+007601
X+025361Y+005504
X+028608Y+013935
X+028684Y+015995
X+035306Y+013938
X+035304Y+003400
T04
X+001953Y+015990
X+003821Y+013966
X+003821Y+011850
X+002199Y+009713
X+002199Y+007604
X+001983Y+001295
X+006333Y+001298
X+011455Y+003401
X+013932Y+001298
X+016803Y+007605
X+015313Y+011850
X+013405Y+013938
X+009582Y+011850
X+007611Y+013940
X+021052Y+011850
X+024853Y+013938
X+022931Y+015990
X+028707Y+011846
X+031504Y+009709
X+031506Y+007606
X+031506Y+005503
X+031500Y+003406
X+031500Y+001292
X+028252Y+003401
X+025603Y+001301
X+021063Y+001297
X+021554Y+003401
X+035304Y+007601
X+037204Y+007601
X+035306Y+011849
X+037205Y+015990
X+037253Y+001298
T05
X+006859Y+017697
T06
X+002101Y+017701
X+001901Y+017701
X+001701Y+017701
X+037101Y+017701
X+037301Y+017701
X+037501Y+017701
T00
M30
