G04 DipTrace 2.4.0.2*
%INTopMask.gbr*%
%MOMM*%
%ADD19R,2.867X6.607*%
%ADD20C,4.0*%
%ADD21C,3.5*%
%ADD22C,5.0*%
%ADD23C,6.0*%
%ADD24C,3.0*%
%ADD29C,2.704*%
%FSLAX53Y53*%
G04*
G71*
G90*
G75*
G01*
%LNTopMask*%
%LPD*%
D20*
X19535Y159899D3*
X38208Y139665D3*
X76108Y139401D3*
D21*
X95606Y159890D3*
D20*
X134048Y139381D3*
D21*
X143354Y159912D3*
X191240Y139391D3*
D20*
X153130Y118502D3*
X95821Y118503D3*
X38208Y118500D3*
X21987Y97127D3*
Y76043D3*
D21*
X86448Y97256D3*
X91038Y75988D3*
X111020Y76001D3*
X162994Y96995D3*
D20*
X168031Y76046D3*
D21*
X44067Y33902D3*
D20*
X63331Y12976D3*
X19828Y12946D3*
X139316Y12976D3*
X114555Y34008D3*
D21*
X139056Y55256D3*
X172066Y34029D3*
X177526Y55325D3*
D20*
X210626Y12971D3*
X215542Y34008D3*
X256027Y13010D3*
X282517Y34008D3*
D21*
X253611Y55044D3*
X244018Y76009D3*
D20*
X315000Y12915D3*
Y34058D3*
X372528Y12979D3*
D21*
X353036Y33997D3*
D20*
X315061Y55028D3*
X315058Y76056D3*
X353036Y76014D3*
X372037D3*
X315036Y97093D3*
X210523Y118498D3*
X229314Y159905D3*
X248529Y139377D3*
D21*
X286076Y139354D3*
D20*
X287069Y118463D3*
D21*
X286839Y159945D3*
D20*
X353061Y118489D3*
D21*
X353062Y139382D3*
D20*
X372050Y159905D3*
D21*
X63053Y54866D3*
D22*
X68588Y176975D3*
D29*
X145921Y179008D3*
X149883D3*
X153843D3*
X157814D3*
X141963D3*
X161773D3*
X165734D3*
X169694D3*
X173597D3*
X177556D3*
X181517D3*
X185477D3*
X189449D3*
X193407D3*
X197369D3*
X201329D3*
X205332D3*
X209290D3*
X213252D3*
X217212D3*
X221183D3*
X225141D3*
X229103D3*
X233063D3*
X236966D3*
X240924D3*
X244886D3*
X248846D3*
X252817D3*
X256776D3*
D23*
X21008Y177008D3*
X17008D3*
X19008D3*
X373008D3*
X371008D3*
X375008D3*
D19*
X173653Y175781D3*
X177613D3*
X181573D3*
X185533D3*
X189493D3*
X193453D3*
X197413D3*
X201373D3*
X205333D3*
X209293D3*
X213253D3*
X217213D3*
X221173D3*
X225133D3*
X229093D3*
X233053D3*
X237013D3*
X240973D3*
X244933D3*
X248893D3*
X252853D3*
X256813D3*
X169693D3*
X165733D3*
X161773D3*
X157813D3*
X153853D3*
X149893D3*
X145933D3*
X141973D3*
D24*
X239049Y96967D3*
M02*
