999
"DXF R12 Output" (www.mydxf.blogspot.com)
 0 
SECTION
 2 
HEADER
 9 
$ACADVER
 1 
AC1009
 9 
$EXTMIN
 10 
 0 
 20 
 0 
 9 
$EXTMAX
 10 
 8.5 
 20 
 11 
 0 
ENDSEC
 0 
SECTION
 2 
ENTITIES
0
POLYLINE
8
OUTLINE
62
10
70
0
10
0.000000
20
0.000000
66
1
0
VERTEX
8
OUTLINE
10
388.343740
20
10.802740
70
0
0
VERTEX
8
OUTLINE
10
390.938990
20
13.397980
70
0
0
VERTEX
8
OUTLINE
10
390.569150
20
170.751990
70
0
0
VERTEX
8
OUTLINE
10
387.478160
20
173.943360
70
0
0
VERTEX
8
OUTLINE
10
349.329610
20
173.943360
70
0
0
VERTEX
8
OUTLINE
10
341.279820
20
181.993160
70
0
0
VERTEX
8
OUTLINE
10
271.734590
20
181.993160
70
0
0
VERTEX
8
OUTLINE
10
271.734590
20
173.814730
70
0
0
VERTEX
8
OUTLINE
10
245.653270
20
173.814730
70
0
0
VERTEX
8
OUTLINE
10
245.653270
20
177.574050
70
0
0
VERTEX
8
OUTLINE
10
234.889820
20
177.574050
70
0
0
VERTEX
8
OUTLINE
10
234.889820
20
181.976480
70
0
0
VERTEX
8
OUTLINE
10
155.844860
20
181.976480
70
0
0
VERTEX
8
OUTLINE
10
155.844860
20
177.907300
70
0
0
VERTEX
8
OUTLINE
10
135.966690
20
177.907300
70
0
0
VERTEX
8
OUTLINE
10
135.966690
20
170.657610
70
0
0
VERTEX
8
OUTLINE
10
101.823010
20
170.657610
70
0
0
VERTEX
8
OUTLINE
10
101.823010
20
183.099010
70
0
0
VERTEX
8
OUTLINE
10
86.715596
20
183.099010
70
0
0
VERTEX
8
OUTLINE
10
77.596164
20
173.869080
70
0
0
VERTEX
8
OUTLINE
10
16.721049
20
173.791380
70
0
0
VERTEX
8
OUTLINE
10
13.283295
20
170.569940
70
0
0
VERTEX
8
OUTLINE
10
13.493770
20
11.608900
70
0
0
VERTEX
8
OUTLINE
10
388.343740
20
10.802740
70
0
0
SEQEND
8
OUTLINE
0
POLYLINE
8
KEY_HOLES
62
10
70
0
10
0.000000
20
0.000000
66
1
0
VERTEX
8
KEY_HOLES
10
366.718660
20
118.279163
70
0
0
VERTEX
8
KEY_HOLES
10
365.120948
20
118.039919
70
0
0
VERTEX
8
KEY_HOLES
10
363.691467
20
117.360874
70
0
0
VERTEX
8
KEY_HOLES
10
362.517073
20
116.300066
70
0
0
VERTEX
8
KEY_HOLES
10
361.684622
20
114.915527
70
0
0
VERTEX
8
KEY_HOLES
10
361.294237
20
113.347878
70
0
0
VERTEX
8
KEY_HOLES
10
361.374554
20
111.767351
70
0
0
VERTEX
8
KEY_HOLES
10
361.905192
20
110.276399
70
0
0
VERTEX
8
KEY_HOLES
10
362.865774
20
108.977474
70
0
0
VERTEX
8
KEY_HOLES
10
364.164699
20
108.016892
70
0
0
VERTEX
8
KEY_HOLES
10
365.655651
20
107.486254
70
0
0
VERTEX
8
KEY_HOLES
10
367.236178
20
107.405937
70
0
0
VERTEX
8
KEY_HOLES
10
368.803827
20
107.796322
70
0
0
VERTEX
8
KEY_HOLES
10
370.188366
20
108.628773
70
0
0
VERTEX
8
KEY_HOLES
10
371.249174
20
109.803167
70
0
0
VERTEX
8
KEY_HOLES
10
371.928219
20
111.232648
70
0
0
VERTEX
8
KEY_HOLES
10
372.167463
20
112.830360
70
0
0
VERTEX
8
KEY_HOLES
10
372.056763
20
113.928484
70
0
0
VERTEX
8
KEY_HOLES
10
371.739269
20
114.951280
70
0
0
VERTEX
8
KEY_HOLES
10
371.236893
20
115.876838
70
0
0
VERTEX
8
KEY_HOLES
10
370.571546
20
116.683246
70
0
0
VERTEX
8
KEY_HOLES
10
369.765138
20
117.348593
70
0
0
VERTEX
8
KEY_HOLES
10
368.839580
20
117.850969
70
0
0
VERTEX
8
KEY_HOLES
10
367.816784
20
118.168463
70
0
0
VERTEX
8
KEY_HOLES
10
366.718660
20
118.279163
70
0
0
VERTEX
8
KEY_HOLES
10
366.718660
20
118.279163
70
0
0
SEQEND
8
KEY_HOLES
0
POLYLINE
8
KEY_HOLES
62
10
70
0
10
0.000000
20
0.000000
66
1
0
VERTEX
8
KEY_HOLES
10
347.639310
20
118.308503
70
0
0
VERTEX
8
KEY_HOLES
10
346.041598
20
118.069259
70
0
0
VERTEX
8
KEY_HOLES
10
344.612117
20
117.390214
70
0
0
VERTEX
8
KEY_HOLES
10
343.437723
20
116.329406
70
0
0
VERTEX
8
KEY_HOLES
10
342.605272
20
114.944867
70
0
0
VERTEX
8
KEY_HOLES
10
342.214887
20
113.377218
70
0
0
VERTEX
8
KEY_HOLES
10
342.295204
20
111.796691
70
0
0
VERTEX
8
KEY_HOLES
10
342.825842
20
110.305739
70
0
0
VERTEX
8
KEY_HOLES
10
343.786424
20
109.006814
70
0
0
VERTEX
8
KEY_HOLES
10
345.085349
20
108.046232
70
0
0
VERTEX
8
KEY_HOLES
10
346.576301
20
107.515594
70
0
0
VERTEX
8
KEY_HOLES
10
348.156828
20
107.435277
70
0
0
VERTEX
8
KEY_HOLES
10
349.724477
20
107.825662
70
0
0
VERTEX
8
KEY_HOLES
10
351.109016
20
108.658113
70
0
0
VERTEX
8
KEY_HOLES
10
352.169824
20
109.832507
70
0
0
VERTEX
8
KEY_HOLES
10
352.848869
20
111.261988
70
0
0
VERTEX
8
KEY_HOLES
10
353.088113
20
112.859700
70
0
0
VERTEX
8
KEY_HOLES
10
352.977413
20
113.957824
70
0
0
VERTEX
8
KEY_HOLES
10
352.659919
20
114.980620
70
0
0
VERTEX
8
KEY_HOLES
10
352.157543
20
115.906178
70
0
0
VERTEX
8
KEY_HOLES
10
351.492196
20
116.712586
70
0
0
VERTEX
8
KEY_HOLES
10
350.685788
20
117.377933
70
0
0
VERTEX
8
KEY_HOLES
10
349.760230
20
117.880309
70
0
0
VERTEX
8
KEY_HOLES
10
348.737434
20
118.197803
70
0
0
VERTEX
8
KEY_HOLES
10
347.639310
20
118.308503
70
0
0
VERTEX
8
KEY_HOLES
10
347.639310
20
118.308503
70
0
0
SEQEND
8
KEY_HOLES
0
POLYLINE
8
KEY_HOLES
62
10
70
0
10
0.000000
20
0.000000
66
1
0
VERTEX
8
KEY_HOLES
10
328.628690
20
118.266023
70
0
0
VERTEX
8
KEY_HOLES
10
327.030978
20
118.026779
70
0
0
VERTEX
8
KEY_HOLES
10
325.601497
20
117.347734
70
0
0
VERTEX
8
KEY_HOLES
10
324.427103
20
116.286926
70
0
0
VERTEX
8
KEY_HOLES
10
323.594652
20
114.902387
70
0
0
VERTEX
8
KEY_HOLES
10
323.204267
20
113.334738
70
0
0
VERTEX
8
KEY_HOLES
10
323.284584
20
111.754211
70
0
0
VERTEX
8
KEY_HOLES
10
323.815222
20
110.263259
70
0
0
VERTEX
8
KEY_HOLES
10
324.775804
20
108.964334
70
0
0
VERTEX
8
KEY_HOLES
10
326.074729
20
108.003752
70
0
0
VERTEX
8
KEY_HOLES
10
327.565681
20
107.473114
70
0
0
VERTEX
8
KEY_HOLES
10
329.146208
20
107.392797
70
0
0
VERTEX
8
KEY_HOLES
10
330.713857
20
107.783182
70
0
0
VERTEX
8
KEY_HOLES
10
332.098396
20
108.615633
70
0
0
VERTEX
8
KEY_HOLES
10
333.159204
20
109.790027
70
0
0
VERTEX
8
KEY_HOLES
10
333.838249
20
111.219508
70
0
0
VERTEX
8
KEY_HOLES
10
334.077493
20
112.817220
70
0
0
VERTEX
8
KEY_HOLES
10
333.966793
20
113.915344
70
0
0
VERTEX
8
KEY_HOLES
10
333.649299
20
114.938140
70
0
0
VERTEX
8
KEY_HOLES
10
333.146923
20
115.863698
70
0
0
VERTEX
8
KEY_HOLES
10
332.481576
20
116.670106
70
0
0
VERTEX
8
KEY_HOLES
10
331.675168
20
117.335453
70
0
0
VERTEX
8
KEY_HOLES
10
330.749610
20
117.837829
70
0
0
VERTEX
8
KEY_HOLES
10
329.726814
20
118.155323
70
0
0
VERTEX
8
KEY_HOLES
10
328.628690
20
118.266023
70
0
0
VERTEX
8
KEY_HOLES
10
328.628690
20
118.266023
70
0
0
SEQEND
8
KEY_HOLES
0
POLYLINE
8
KEY_HOLES
62
10
70
0
10
0.000000
20
0.000000
66
1
0
VERTEX
8
KEY_HOLES
10
328.584200
20
160.177933
70
0
0
VERTEX
8
KEY_HOLES
10
326.986488
20
159.938689
70
0
0
VERTEX
8
KEY_HOLES
10
325.557007
20
159.259644
70
0
0
VERTEX
8
KEY_HOLES
10
324.382613
20
158.198836
70
0
0
VERTEX
8
KEY_HOLES
10
323.550162
20
156.814297
70
0
0
VERTEX
8
KEY_HOLES
10
323.159777
20
155.246648
70
0
0
VERTEX
8
KEY_HOLES
10
323.240094
20
153.666121
70
0
0
VERTEX
8
KEY_HOLES
10
323.770732
20
152.175169
70
0
0
VERTEX
8
KEY_HOLES
10
324.731314
20
150.876244
70
0
0
VERTEX
8
KEY_HOLES
10
326.030239
20
149.915662
70
0
0
VERTEX
8
KEY_HOLES
10
327.521191
20
149.385024
70
0
0
VERTEX
8
KEY_HOLES
10
329.101718
20
149.304707
70
0
0
VERTEX
8
KEY_HOLES
10
330.669367
20
149.695092
70
0
0
VERTEX
8
KEY_HOLES
10
332.053906
20
150.527543
70
0
0
VERTEX
8
KEY_HOLES
10
333.114714
20
151.701937
70
0
0
VERTEX
8
KEY_HOLES
10
333.793759
20
153.131418
70
0
0
VERTEX
8
KEY_HOLES
10
334.033003
20
154.729130
70
0
0
VERTEX
8
KEY_HOLES
10
333.927339
20
155.797103
70
0
0
VERTEX
8
KEY_HOLES
10
333.618238
20
156.814297
70
0
0
VERTEX
8
KEY_HOLES
10
333.117540
20
157.752129
70
0
0
VERTEX
8
KEY_HOLES
10
332.437086
20
158.582016
70
0
0
VERTEX
8
KEY_HOLES
10
331.607199
20
159.262470
70
0
0
VERTEX
8
KEY_HOLES
10
330.669367
20
159.763168
70
0
0
VERTEX
8
KEY_HOLES
10
329.652173
20
160.072269
70
0
0
VERTEX
8
KEY_HOLES
10
328.584200
20
160.177933
70
0
0
VERTEX
8
KEY_HOLES
10
328.584200
20
160.177933
70
0
0
SEQEND
8
KEY_HOLES
0
POLYLINE
8
KEY_HOLES
62
10
70
0
10
0.000000
20
0.000000
66
1
0
VERTEX
8
KEY_HOLES
10
347.625030
20
160.135763
70
0
0
VERTEX
8
KEY_HOLES
10
346.027318
20
159.896519
70
0
0
VERTEX
8
KEY_HOLES
10
344.597837
20
159.217474
70
0
0
VERTEX
8
KEY_HOLES
10
343.423443
20
158.156666
70
0
0
VERTEX
8
KEY_HOLES
10
342.590992
20
156.772127
70
0
0
VERTEX
8
KEY_HOLES
10
342.200607
20
155.204478
70
0
0
VERTEX
8
KEY_HOLES
10
342.280924
20
153.623951
70
0
0
VERTEX
8
KEY_HOLES
10
342.811562
20
152.132999
70
0
0
VERTEX
8
KEY_HOLES
10
343.772144
20
150.834074
70
0
0
VERTEX
8
KEY_HOLES
10
345.071069
20
149.873492
70
0
0
VERTEX
8
KEY_HOLES
10
346.562021
20
149.342854
70
0
0
VERTEX
8
KEY_HOLES
10
348.142548
20
149.262537
70
0
0
VERTEX
8
KEY_HOLES
10
349.710197
20
149.652922
70
0
0
VERTEX
8
KEY_HOLES
10
351.094736
20
150.485373
70
0
0
VERTEX
8
KEY_HOLES
10
352.155544
20
151.659767
70
0
0
VERTEX
8
KEY_HOLES
10
352.834589
20
153.089248
70
0
0
VERTEX
8
KEY_HOLES
10
353.073833
20
154.686960
70
0
0
VERTEX
8
KEY_HOLES
10
352.963133
20
155.785084
70
0
0
VERTEX
8
KEY_HOLES
10
352.645639
20
156.807880
70
0
0
VERTEX
8
KEY_HOLES
10
352.143263
20
157.733438
70
0
0
VERTEX
8
KEY_HOLES
10
351.477916
20
158.539846
70
0
0
VERTEX
8
KEY_HOLES
10
350.671508
20
159.205193
70
0
0
VERTEX
8
KEY_HOLES
10
349.745950
20
159.707569
70
0
0
VERTEX
8
KEY_HOLES
10
348.723154
20
160.025063
70
0
0
VERTEX
8
KEY_HOLES
10
347.625030
20
160.135763
70
0
0
VERTEX
8
KEY_HOLES
10
347.625030
20
160.135763
70
0
0
SEQEND
8
KEY_HOLES
0
POLYLINE
8
KEY_HOLES
62
10
70
0
10
0.000000
20
0.000000
66
1
0
VERTEX
8
KEY_HOLES
10
366.675050
20
160.153183
70
0
0
VERTEX
8
KEY_HOLES
10
365.077338
20
159.913939
70
0
0
VERTEX
8
KEY_HOLES
10
363.647857
20
159.234894
70
0
0
VERTEX
8
KEY_HOLES
10
362.473463
20
158.174086
70
0
0
VERTEX
8
KEY_HOLES
10
361.641012
20
156.789547
70
0
0
VERTEX
8
KEY_HOLES
10
361.250627
20
155.221898
70
0
0
VERTEX
8
KEY_HOLES
10
361.330944
20
153.641371
70
0
0
VERTEX
8
KEY_HOLES
10
361.861582
20
152.150419
70
0
0
VERTEX
8
KEY_HOLES
10
362.822164
20
150.851494
70
0
0
VERTEX
8
KEY_HOLES
10
364.121089
20
149.890912
70
0
0
VERTEX
8
KEY_HOLES
10
365.612041
20
149.360274
70
0
0
VERTEX
8
KEY_HOLES
10
367.192568
20
149.279957
70
0
0
VERTEX
8
KEY_HOLES
10
368.760217
20
149.670342
70
0
0
VERTEX
8
KEY_HOLES
10
370.144756
20
150.502793
70
0
0
VERTEX
8
KEY_HOLES
10
371.205564
20
151.677187
70
0
0
VERTEX
8
KEY_HOLES
10
371.884609
20
153.106668
70
0
0
VERTEX
8
KEY_HOLES
10
372.123853
20
154.704380
70
0
0
VERTEX
8
KEY_HOLES
10
372.018189
20
155.772353
70
0
0
VERTEX
8
KEY_HOLES
10
371.709088
20
156.789547
70
0
0
VERTEX
8
KEY_HOLES
10
371.208390
20
157.727379
70
0
0
VERTEX
8
KEY_HOLES
10
370.527936
20
158.557266
70
0
0
VERTEX
8
KEY_HOLES
10
369.698049
20
159.237720
70
0
0
VERTEX
8
KEY_HOLES
10
368.760217
20
159.738418
70
0
0
VERTEX
8
KEY_HOLES
10
367.743023
20
160.047519
70
0
0
VERTEX
8
KEY_HOLES
10
366.675050
20
160.153183
70
0
0
VERTEX
8
KEY_HOLES
10
366.675050
20
160.153183
70
0
0
SEQEND
8
KEY_HOLES
0
POLYLINE
8
KEY_HOLES
62
10
70
0
10
0.000000
20
0.000000
66
1
0
VERTEX
8
KEY_HOLES
10
328.620850
20
97.282323
70
0
0
VERTEX
8
KEY_HOLES
10
327.023138
20
97.043079
70
0
0
VERTEX
8
KEY_HOLES
10
325.593657
20
96.364034
70
0
0
VERTEX
8
KEY_HOLES
10
324.419263
20
95.303226
70
0
0
VERTEX
8
KEY_HOLES
10
323.586812
20
93.918687
70
0
0
VERTEX
8
KEY_HOLES
10
323.196427
20
92.351038
70
0
0
VERTEX
8
KEY_HOLES
10
323.276744
20
90.770511
70
0
0
VERTEX
8
KEY_HOLES
10
323.807382
20
89.279559
70
0
0
VERTEX
8
KEY_HOLES
10
324.767964
20
87.980634
70
0
0
VERTEX
8
KEY_HOLES
10
326.066889
20
87.020052
70
0
0
VERTEX
8
KEY_HOLES
10
327.557841
20
86.489414
70
0
0
VERTEX
8
KEY_HOLES
10
329.138368
20
86.409097
70
0
0
VERTEX
8
KEY_HOLES
10
330.706017
20
86.799482
70
0
0
VERTEX
8
KEY_HOLES
10
332.090556
20
87.631933
70
0
0
VERTEX
8
KEY_HOLES
10
333.151364
20
88.806327
70
0
0
VERTEX
8
KEY_HOLES
10
333.830409
20
90.235808
70
0
0
VERTEX
8
KEY_HOLES
10
334.069653
20
91.833520
70
0
0
VERTEX
8
KEY_HOLES
10
333.958953
20
92.931644
70
0
0
VERTEX
8
KEY_HOLES
10
333.641459
20
93.954440
70
0
0
VERTEX
8
KEY_HOLES
10
333.139083
20
94.879998
70
0
0
VERTEX
8
KEY_HOLES
10
332.473736
20
95.686406
70
0
0
VERTEX
8
KEY_HOLES
10
331.667328
20
96.351753
70
0
0
VERTEX
8
KEY_HOLES
10
330.741770
20
96.854129
70
0
0
VERTEX
8
KEY_HOLES
10
329.718974
20
97.171623
70
0
0
VERTEX
8
KEY_HOLES
10
328.620850
20
97.282323
70
0
0
VERTEX
8
KEY_HOLES
10
328.620850
20
97.282323
70
0
0
SEQEND
8
KEY_HOLES
0
POLYLINE
8
KEY_HOLES
62
10
70
0
10
0.000000
20
0.000000
66
1
0
VERTEX
8
KEY_HOLES
10
347.761230
20
97.319923
70
0
0
VERTEX
8
KEY_HOLES
10
346.163518
20
97.080679
70
0
0
VERTEX
8
KEY_HOLES
10
344.734037
20
96.401634
70
0
0
VERTEX
8
KEY_HOLES
10
343.559643
20
95.340826
70
0
0
VERTEX
8
KEY_HOLES
10
342.727192
20
93.956287
70
0
0
VERTEX
8
KEY_HOLES
10
342.336807
20
92.388638
70
0
0
VERTEX
8
KEY_HOLES
10
342.417124
20
90.808111
70
0
0
VERTEX
8
KEY_HOLES
10
342.947762
20
89.317159
70
0
0
VERTEX
8
KEY_HOLES
10
343.908344
20
88.018234
70
0
0
VERTEX
8
KEY_HOLES
10
345.207269
20
87.057652
70
0
0
VERTEX
8
KEY_HOLES
10
346.698221
20
86.527014
70
0
0
VERTEX
8
KEY_HOLES
10
348.278748
20
86.446697
70
0
0
VERTEX
8
KEY_HOLES
10
349.846397
20
86.837082
70
0
0
VERTEX
8
KEY_HOLES
10
351.230936
20
87.669533
70
0
0
VERTEX
8
KEY_HOLES
10
352.291744
20
88.843927
70
0
0
VERTEX
8
KEY_HOLES
10
352.970789
20
90.273408
70
0
0
VERTEX
8
KEY_HOLES
10
353.210033
20
91.871120
70
0
0
VERTEX
8
KEY_HOLES
10
353.099333
20
92.969244
70
0
0
VERTEX
8
KEY_HOLES
10
352.781839
20
93.992040
70
0
0
VERTEX
8
KEY_HOLES
10
352.279463
20
94.917598
70
0
0
VERTEX
8
KEY_HOLES
10
351.614116
20
95.724006
70
0
0
VERTEX
8
KEY_HOLES
10
350.807708
20
96.389353
70
0
0
VERTEX
8
KEY_HOLES
10
349.882150
20
96.891729
70
0
0
VERTEX
8
KEY_HOLES
10
348.859354
20
97.209223
70
0
0
VERTEX
8
KEY_HOLES
10
347.761230
20
97.319923
70
0
0
VERTEX
8
KEY_HOLES
10
347.761230
20
97.319923
70
0
0
SEQEND
8
KEY_HOLES
0
POLYLINE
8
KEY_HOLES
62
10
70
0
10
0.000000
20
0.000000
66
1
0
VERTEX
8
KEY_HOLES
10
366.745640
20
97.319923
70
0
0
VERTEX
8
KEY_HOLES
10
365.147928
20
97.080679
70
0
0
VERTEX
8
KEY_HOLES
10
363.718447
20
96.401634
70
0
0
VERTEX
8
KEY_HOLES
10
362.544053
20
95.340826
70
0
0
VERTEX
8
KEY_HOLES
10
361.711602
20
93.956287
70
0
0
VERTEX
8
KEY_HOLES
10
361.321217
20
92.388638
70
0
0
VERTEX
8
KEY_HOLES
10
361.401534
20
90.808111
70
0
0
VERTEX
8
KEY_HOLES
10
361.932172
20
89.317159
70
0
0
VERTEX
8
KEY_HOLES
10
362.892754
20
88.018234
70
0
0
VERTEX
8
KEY_HOLES
10
364.191679
20
87.057652
70
0
0
VERTEX
8
KEY_HOLES
10
365.682631
20
86.527014
70
0
0
VERTEX
8
KEY_HOLES
10
367.263158
20
86.446697
70
0
0
VERTEX
8
KEY_HOLES
10
368.830807
20
86.837082
70
0
0
VERTEX
8
KEY_HOLES
10
370.215346
20
87.669533
70
0
0
VERTEX
8
KEY_HOLES
10
371.276154
20
88.843927
70
0
0
VERTEX
8
KEY_HOLES
10
371.955199
20
90.273408
70
0
0
VERTEX
8
KEY_HOLES
10
372.194443
20
91.871120
70
0
0
VERTEX
8
KEY_HOLES
10
372.083743
20
92.969244
70
0
0
VERTEX
8
KEY_HOLES
10
371.766249
20
93.992040
70
0
0
VERTEX
8
KEY_HOLES
10
371.263873
20
94.917598
70
0
0
VERTEX
8
KEY_HOLES
10
370.598526
20
95.724006
70
0
0
VERTEX
8
KEY_HOLES
10
369.792118
20
96.389353
70
0
0
VERTEX
8
KEY_HOLES
10
368.866560
20
96.891729
70
0
0
VERTEX
8
KEY_HOLES
10
367.843764
20
97.209223
70
0
0
VERTEX
8
KEY_HOLES
10
366.745640
20
97.319923
70
0
0
VERTEX
8
KEY_HOLES
10
366.745640
20
97.319923
70
0
0
SEQEND
8
KEY_HOLES
0
POLYLINE
8
KEY_HOLES
62
10
70
0
10
0.000000
20
0.000000
66
1
0
VERTEX
8
KEY_HOLES
10
347.804690
20
55.304583
70
0
0
VERTEX
8
KEY_HOLES
10
346.206978
20
55.065339
70
0
0
VERTEX
8
KEY_HOLES
10
344.777497
20
54.386294
70
0
0
VERTEX
8
KEY_HOLES
10
343.603103
20
53.325486
70
0
0
VERTEX
8
KEY_HOLES
10
342.770652
20
51.940947
70
0
0
VERTEX
8
KEY_HOLES
10
342.380267
20
50.373298
70
0
0
VERTEX
8
KEY_HOLES
10
342.460584
20
48.792771
70
0
0
VERTEX
8
KEY_HOLES
10
342.991222
20
47.301819
70
0
0
VERTEX
8
KEY_HOLES
10
343.951804
20
46.002894
70
0
0
VERTEX
8
KEY_HOLES
10
345.250729
20
45.042312
70
0
0
VERTEX
8
KEY_HOLES
10
346.741681
20
44.511674
70
0
0
VERTEX
8
KEY_HOLES
10
348.322208
20
44.431357
70
0
0
VERTEX
8
KEY_HOLES
10
349.889857
20
44.821742
70
0
0
VERTEX
8
KEY_HOLES
10
351.274396
20
45.654193
70
0
0
VERTEX
8
KEY_HOLES
10
352.335204
20
46.828587
70
0
0
VERTEX
8
KEY_HOLES
10
353.014249
20
48.258068
70
0
0
VERTEX
8
KEY_HOLES
10
353.253493
20
49.855780
70
0
0
VERTEX
8
KEY_HOLES
10
353.147829
20
50.923753
70
0
0
VERTEX
8
KEY_HOLES
10
352.838728
20
51.940947
70
0
0
VERTEX
8
KEY_HOLES
10
352.338030
20
52.878779
70
0
0
VERTEX
8
KEY_HOLES
10
351.657576
20
53.708666
70
0
0
VERTEX
8
KEY_HOLES
10
350.827689
20
54.389120
70
0
0
VERTEX
8
KEY_HOLES
10
349.889857
20
54.889818
70
0
0
VERTEX
8
KEY_HOLES
10
348.872663
20
55.198919
70
0
0
VERTEX
8
KEY_HOLES
10
347.804690
20
55.304583
70
0
0
VERTEX
8
KEY_HOLES
10
347.804690
20
55.304583
70
0
0
SEQEND
8
KEY_HOLES
0
POLYLINE
8
KEY_HOLES
62
10
70
0
10
0.000000
20
0.000000
66
1
0
VERTEX
8
KEY_HOLES
10
367.091860
20
34.363763
70
0
0
VERTEX
8
KEY_HOLES
10
365.494148
20
34.124519
70
0
0
VERTEX
8
KEY_HOLES
10
364.064667
20
33.445474
70
0
0
VERTEX
8
KEY_HOLES
10
362.890273
20
32.384666
70
0
0
VERTEX
8
KEY_HOLES
10
362.057822
20
31.000127
70
0
0
VERTEX
8
KEY_HOLES
10
361.667437
20
29.432478
70
0
0
VERTEX
8
KEY_HOLES
10
361.747754
20
27.851951
70
0
0
VERTEX
8
KEY_HOLES
10
362.278392
20
26.360999
70
0
0
VERTEX
8
KEY_HOLES
10
363.238974
20
25.062074
70
0
0
VERTEX
8
KEY_HOLES
10
364.537899
20
24.101492
70
0
0
VERTEX
8
KEY_HOLES
10
366.028851
20
23.570854
70
0
0
VERTEX
8
KEY_HOLES
10
367.609378
20
23.490537
70
0
0
VERTEX
8
KEY_HOLES
10
369.177027
20
23.880922
70
0
0
VERTEX
8
KEY_HOLES
10
370.561566
20
24.713373
70
0
0
VERTEX
8
KEY_HOLES
10
371.622374
20
25.887767
70
0
0
VERTEX
8
KEY_HOLES
10
372.301419
20
27.317248
70
0
0
VERTEX
8
KEY_HOLES
10
372.540663
20
28.914960
70
0
0
VERTEX
8
KEY_HOLES
10
372.429963
20
30.013084
70
0
0
VERTEX
8
KEY_HOLES
10
372.112469
20
31.035880
70
0
0
VERTEX
8
KEY_HOLES
10
371.610093
20
31.961438
70
0
0
VERTEX
8
KEY_HOLES
10
370.944746
20
32.767846
70
0
0
VERTEX
8
KEY_HOLES
10
370.138338
20
33.433193
70
0
0
VERTEX
8
KEY_HOLES
10
369.212780
20
33.935569
70
0
0
VERTEX
8
KEY_HOLES
10
368.189984
20
34.253063
70
0
0
VERTEX
8
KEY_HOLES
10
367.091860
20
34.363763
70
0
0
VERTEX
8
KEY_HOLES
10
367.091860
20
34.363763
70
0
0
SEQEND
8
KEY_HOLES
0
POLYLINE
8
KEY_HOLES
62
10
70
0
10
0.000000
20
0.000000
66
1
0
VERTEX
8
KEY_HOLES
10
347.920810
20
34.269763
70
0
0
VERTEX
8
KEY_HOLES
10
346.323098
20
34.030519
70
0
0
VERTEX
8
KEY_HOLES
10
344.893617
20
33.351474
70
0
0
VERTEX
8
KEY_HOLES
10
343.719223
20
32.290666
70
0
0
VERTEX
8
KEY_HOLES
10
342.886772
20
30.906127
70
0
0
VERTEX
8
KEY_HOLES
10
342.496387
20
29.338478
70
0
0
VERTEX
8
KEY_HOLES
10
342.576704
20
27.757951
70
0
0
VERTEX
8
KEY_HOLES
10
343.107342
20
26.266999
70
0
0
VERTEX
8
KEY_HOLES
10
344.067924
20
24.968074
70
0
0
VERTEX
8
KEY_HOLES
10
345.366849
20
24.007492
70
0
0
VERTEX
8
KEY_HOLES
10
346.857801
20
23.476854
70
0
0
VERTEX
8
KEY_HOLES
10
348.438328
20
23.396537
70
0
0
VERTEX
8
KEY_HOLES
10
350.005977
20
23.786922
70
0
0
VERTEX
8
KEY_HOLES
10
351.390516
20
24.619373
70
0
0
VERTEX
8
KEY_HOLES
10
352.451324
20
25.793767
70
0
0
VERTEX
8
KEY_HOLES
10
353.130369
20
27.223248
70
0
0
VERTEX
8
KEY_HOLES
10
353.369613
20
28.820960
70
0
0
VERTEX
8
KEY_HOLES
10
353.258913
20
29.919084
70
0
0
VERTEX
8
KEY_HOLES
10
352.941419
20
30.941880
70
0
0
VERTEX
8
KEY_HOLES
10
352.439043
20
31.867438
70
0
0
VERTEX
8
KEY_HOLES
10
351.773696
20
32.673846
70
0
0
VERTEX
8
KEY_HOLES
10
350.967288
20
33.339193
70
0
0
VERTEX
8
KEY_HOLES
10
350.041730
20
33.841569
70
0
0
VERTEX
8
KEY_HOLES
10
349.018934
20
34.159063
70
0
0
VERTEX
8
KEY_HOLES
10
347.920810
20
34.269763
70
0
0
VERTEX
8
KEY_HOLES
10
347.920810
20
34.269763
70
0
0
SEQEND
8
KEY_HOLES
0
POLYLINE
8
KEY_HOLES
62
10
70
0
10
0.000000
20
0.000000
66
1
0
VERTEX
8
KEY_HOLES
10
328.852940
20
34.341753
70
0
0
VERTEX
8
KEY_HOLES
10
327.255228
20
34.102509
70
0
0
VERTEX
8
KEY_HOLES
10
325.825747
20
33.423464
70
0
0
VERTEX
8
KEY_HOLES
10
324.651353
20
32.362656
70
0
0
VERTEX
8
KEY_HOLES
10
323.818902
20
30.978117
70
0
0
VERTEX
8
KEY_HOLES
10
323.428517
20
29.410468
70
0
0
VERTEX
8
KEY_HOLES
10
323.508834
20
27.829941
70
0
0
VERTEX
8
KEY_HOLES
10
324.039472
20
26.338989
70
0
0
VERTEX
8
KEY_HOLES
10
325.000054
20
25.040064
70
0
0
VERTEX
8
KEY_HOLES
10
326.298979
20
24.079482
70
0
0
VERTEX
8
KEY_HOLES
10
327.789931
20
23.548844
70
0
0
VERTEX
8
KEY_HOLES
10
329.370458
20
23.468527
70
0
0
VERTEX
8
KEY_HOLES
10
330.938107
20
23.858912
70
0
0
VERTEX
8
KEY_HOLES
10
332.322646
20
24.691363
70
0
0
VERTEX
8
KEY_HOLES
10
333.383454
20
25.865757
70
0
0
VERTEX
8
KEY_HOLES
10
334.062499
20
27.295238
70
0
0
VERTEX
8
KEY_HOLES
10
334.301743
20
28.892950
70
0
0
VERTEX
8
KEY_HOLES
10
334.191043
20
29.991074
70
0
0
VERTEX
8
KEY_HOLES
10
333.873549
20
31.013870
70
0
0
VERTEX
8
KEY_HOLES
10
333.371173
20
31.939428
70
0
0
VERTEX
8
KEY_HOLES
10
332.705826
20
32.745836
70
0
0
VERTEX
8
KEY_HOLES
10
331.899418
20
33.411183
70
0
0
VERTEX
8
KEY_HOLES
10
330.973860
20
33.913559
70
0
0
VERTEX
8
KEY_HOLES
10
329.951064
20
34.231053
70
0
0
VERTEX
8
KEY_HOLES
10
328.852940
20
34.341753
70
0
0
VERTEX
8
KEY_HOLES
10
328.852940
20
34.341753
70
0
0
SEQEND
8
KEY_HOLES
0
POLYLINE
8
KEY_HOLES
62
10
70
0
10
0.000000
20
0.000000
66
1
0
VERTEX
8
KEY_HOLES
10
296.541660
20
34.303303
70
0
0
VERTEX
8
KEY_HOLES
10
294.943948
20
34.064059
70
0
0
VERTEX
8
KEY_HOLES
10
293.514467
20
33.385014
70
0
0
VERTEX
8
KEY_HOLES
10
292.340073
20
32.324206
70
0
0
VERTEX
8
KEY_HOLES
10
291.507622
20
30.939667
70
0
0
VERTEX
8
KEY_HOLES
10
291.117237
20
29.372018
70
0
0
VERTEX
8
KEY_HOLES
10
291.197554
20
27.791491
70
0
0
VERTEX
8
KEY_HOLES
10
291.728192
20
26.300539
70
0
0
VERTEX
8
KEY_HOLES
10
292.688774
20
25.001614
70
0
0
VERTEX
8
KEY_HOLES
10
293.987699
20
24.041032
70
0
0
VERTEX
8
KEY_HOLES
10
295.478651
20
23.510394
70
0
0
VERTEX
8
KEY_HOLES
10
297.059178
20
23.430077
70
0
0
VERTEX
8
KEY_HOLES
10
298.626827
20
23.820462
70
0
0
VERTEX
8
KEY_HOLES
10
300.011366
20
24.652913
70
0
0
VERTEX
8
KEY_HOLES
10
301.072174
20
25.827307
70
0
0
VERTEX
8
KEY_HOLES
10
301.751219
20
27.256788
70
0
0
VERTEX
8
KEY_HOLES
10
301.990463
20
28.854500
70
0
0
VERTEX
8
KEY_HOLES
10
301.879763
20
29.952624
70
0
0
VERTEX
8
KEY_HOLES
10
301.562269
20
30.975420
70
0
0
VERTEX
8
KEY_HOLES
10
301.059893
20
31.900978
70
0
0
VERTEX
8
KEY_HOLES
10
300.394546
20
32.707386
70
0
0
VERTEX
8
KEY_HOLES
10
299.588138
20
33.372733
70
0
0
VERTEX
8
KEY_HOLES
10
298.662580
20
33.875109
70
0
0
VERTEX
8
KEY_HOLES
10
297.639784
20
34.192603
70
0
0
VERTEX
8
KEY_HOLES
10
296.541660
20
34.303303
70
0
0
VERTEX
8
KEY_HOLES
10
296.541660
20
34.303303
70
0
0
SEQEND
8
KEY_HOLES
0
POLYLINE
8
KEY_HOLES
62
10
70
0
10
0.000000
20
0.000000
66
1
0
VERTEX
8
KEY_HOLES
10
249.015870
20
34.270223
70
0
0
VERTEX
8
KEY_HOLES
10
247.418158
20
34.030979
70
0
0
VERTEX
8
KEY_HOLES
10
245.988677
20
33.351934
70
0
0
VERTEX
8
KEY_HOLES
10
244.814283
20
32.291126
70
0
0
VERTEX
8
KEY_HOLES
10
243.981832
20
30.906587
70
0
0
VERTEX
8
KEY_HOLES
10
243.591447
20
29.338938
70
0
0
VERTEX
8
KEY_HOLES
10
243.671764
20
27.758411
70
0
0
VERTEX
8
KEY_HOLES
10
244.202402
20
26.267459
70
0
0
VERTEX
8
KEY_HOLES
10
245.162984
20
24.968534
70
0
0
VERTEX
8
KEY_HOLES
10
246.461909
20
24.007952
70
0
0
VERTEX
8
KEY_HOLES
10
247.952861
20
23.477314
70
0
0
VERTEX
8
KEY_HOLES
10
249.533388
20
23.396997
70
0
0
VERTEX
8
KEY_HOLES
10
251.101037
20
23.787382
70
0
0
VERTEX
8
KEY_HOLES
10
252.485576
20
24.619833
70
0
0
VERTEX
8
KEY_HOLES
10
253.546384
20
25.794227
70
0
0
VERTEX
8
KEY_HOLES
10
254.225429
20
27.223708
70
0
0
VERTEX
8
KEY_HOLES
10
254.464673
20
28.821420
70
0
0
VERTEX
8
KEY_HOLES
10
254.359009
20
29.889393
70
0
0
VERTEX
8
KEY_HOLES
10
254.049908
20
30.906587
70
0
0
VERTEX
8
KEY_HOLES
10
253.549210
20
31.844419
70
0
0
VERTEX
8
KEY_HOLES
10
252.868756
20
32.674306
70
0
0
VERTEX
8
KEY_HOLES
10
252.038869
20
33.354760
70
0
0
VERTEX
8
KEY_HOLES
10
251.101037
20
33.855458
70
0
0
VERTEX
8
KEY_HOLES
10
250.083843
20
34.164559
70
0
0
VERTEX
8
KEY_HOLES
10
249.015870
20
34.270223
70
0
0
VERTEX
8
KEY_HOLES
10
249.015870
20
34.270223
70
0
0
SEQEND
8
KEY_HOLES
0
POLYLINE
8
KEY_HOLES
62
10
70
0
10
0.000000
20
0.000000
66
1
0
VERTEX
8
KEY_HOLES
10
167.689580
20
34.303303
70
0
0
VERTEX
8
KEY_HOLES
10
166.091868
20
34.064059
70
0
0
VERTEX
8
KEY_HOLES
10
164.662387
20
33.385014
70
0
0
VERTEX
8
KEY_HOLES
10
163.487993
20
32.324206
70
0
0
VERTEX
8
KEY_HOLES
10
162.655542
20
30.939667
70
0
0
VERTEX
8
KEY_HOLES
10
162.265157
20
29.372018
70
0
0
VERTEX
8
KEY_HOLES
10
162.345474
20
27.791491
70
0
0
VERTEX
8
KEY_HOLES
10
162.876112
20
26.300539
70
0
0
VERTEX
8
KEY_HOLES
10
163.836694
20
25.001614
70
0
0
VERTEX
8
KEY_HOLES
10
165.135619
20
24.041032
70
0
0
VERTEX
8
KEY_HOLES
10
166.626571
20
23.510394
70
0
0
VERTEX
8
KEY_HOLES
10
168.207098
20
23.430077
70
0
0
VERTEX
8
KEY_HOLES
10
169.774747
20
23.820462
70
0
0
VERTEX
8
KEY_HOLES
10
171.159286
20
24.652913
70
0
0
VERTEX
8
KEY_HOLES
10
172.220094
20
25.827307
70
0
0
VERTEX
8
KEY_HOLES
10
172.899139
20
27.256788
70
0
0
VERTEX
8
KEY_HOLES
10
173.138383
20
28.854500
70
0
0
VERTEX
8
KEY_HOLES
10
173.032719
20
29.922473
70
0
0
VERTEX
8
KEY_HOLES
10
172.723618
20
30.939667
70
0
0
VERTEX
8
KEY_HOLES
10
172.222920
20
31.877499
70
0
0
VERTEX
8
KEY_HOLES
10
171.542466
20
32.707386
70
0
0
VERTEX
8
KEY_HOLES
10
170.712579
20
33.387840
70
0
0
VERTEX
8
KEY_HOLES
10
169.774747
20
33.888538
70
0
0
VERTEX
8
KEY_HOLES
10
168.757553
20
34.197639
70
0
0
VERTEX
8
KEY_HOLES
10
167.689580
20
34.303303
70
0
0
VERTEX
8
KEY_HOLES
10
167.689580
20
34.303303
70
0
0
SEQEND
8
KEY_HOLES
0
POLYLINE
8
KEY_HOLES
62
10
70
0
10
0.000000
20
0.000000
66
1
0
VERTEX
8
KEY_HOLES
10
87.123947
20
34.369433
70
0
0
VERTEX
8
KEY_HOLES
10
85.526235
20
34.130189
70
0
0
VERTEX
8
KEY_HOLES
10
84.096754
20
33.451144
70
0
0
VERTEX
8
KEY_HOLES
10
82.922360
20
32.390336
70
0
0
VERTEX
8
KEY_HOLES
10
82.089909
20
31.005797
70
0
0
VERTEX
8
KEY_HOLES
10
81.699524
20
29.438148
70
0
0
VERTEX
8
KEY_HOLES
10
81.779841
20
27.857621
70
0
0
VERTEX
8
KEY_HOLES
10
82.310479
20
26.366669
70
0
0
VERTEX
8
KEY_HOLES
10
83.271061
20
25.067744
70
0
0
VERTEX
8
KEY_HOLES
10
84.569986
20
24.107162
70
0
0
VERTEX
8
KEY_HOLES
10
86.060938
20
23.576524
70
0
0
VERTEX
8
KEY_HOLES
10
87.641465
20
23.496207
70
0
0
VERTEX
8
KEY_HOLES
10
89.209114
20
23.886592
70
0
0
VERTEX
8
KEY_HOLES
10
90.593653
20
24.719043
70
0
0
VERTEX
8
KEY_HOLES
10
91.654461
20
25.893437
70
0
0
VERTEX
8
KEY_HOLES
10
92.333506
20
27.322918
70
0
0
VERTEX
8
KEY_HOLES
10
92.572750
20
28.920630
70
0
0
VERTEX
8
KEY_HOLES
10
92.467086
20
29.988603
70
0
0
VERTEX
8
KEY_HOLES
10
92.157985
20
31.005797
70
0
0
VERTEX
8
KEY_HOLES
10
91.657287
20
31.943629
70
0
0
VERTEX
8
KEY_HOLES
10
90.976833
20
32.773516
70
0
0
VERTEX
8
KEY_HOLES
10
90.146946
20
33.453970
70
0
0
VERTEX
8
KEY_HOLES
10
89.209114
20
33.954668
70
0
0
VERTEX
8
KEY_HOLES
10
88.191920
20
34.263769
70
0
0
VERTEX
8
KEY_HOLES
10
87.123947
20
34.369433
70
0
0
VERTEX
8
KEY_HOLES
10
87.123947
20
34.369433
70
0
0
SEQEND
8
KEY_HOLES
0
POLYLINE
8
KEY_HOLES
62
10
70
0
10
0.000000
20
0.000000
66
1
0
VERTEX
8
KEY_HOLES
10
39.664310
20
34.402513
70
0
0
VERTEX
8
KEY_HOLES
10
38.566186
20
34.291813
70
0
0
VERTEX
8
KEY_HOLES
10
37.543390
20
33.974319
70
0
0
VERTEX
8
KEY_HOLES
10
36.617832
20
33.471943
70
0
0
VERTEX
8
KEY_HOLES
10
35.811424
20
32.806596
70
0
0
VERTEX
8
KEY_HOLES
10
35.146077
20
32.000188
70
0
0
VERTEX
8
KEY_HOLES
10
34.643701
20
31.074630
70
0
0
VERTEX
8
KEY_HOLES
10
34.326207
20
30.051834
70
0
0
VERTEX
8
KEY_HOLES
10
34.215507
20
28.953710
70
0
0
VERTEX
8
KEY_HOLES
10
34.326207
20
27.855586
70
0
0
VERTEX
8
KEY_HOLES
10
34.643701
20
26.832790
70
0
0
VERTEX
8
KEY_HOLES
10
35.146077
20
25.907232
70
0
0
VERTEX
8
KEY_HOLES
10
35.811424
20
25.100824
70
0
0
VERTEX
8
KEY_HOLES
10
36.617832
20
24.435477
70
0
0
VERTEX
8
KEY_HOLES
10
37.543390
20
23.933101
70
0
0
VERTEX
8
KEY_HOLES
10
38.566186
20
23.615607
70
0
0
VERTEX
8
KEY_HOLES
10
39.664310
20
23.504907
70
0
0
VERTEX
8
KEY_HOLES
10
40.762434
20
23.615607
70
0
0
VERTEX
8
KEY_HOLES
10
41.785230
20
23.933101
70
0
0
VERTEX
8
KEY_HOLES
10
42.710788
20
24.435477
70
0
0
VERTEX
8
KEY_HOLES
10
43.517196
20
25.100824
70
0
0
VERTEX
8
KEY_HOLES
10
44.182543
20
25.907232
70
0
0
VERTEX
8
KEY_HOLES
10
44.684919
20
26.832790
70
0
0
VERTEX
8
KEY_HOLES
10
45.002413
20
27.855586
70
0
0
VERTEX
8
KEY_HOLES
10
45.113113
20
28.953710
70
0
0
VERTEX
8
KEY_HOLES
10
45.007449
20
30.021683
70
0
0
VERTEX
8
KEY_HOLES
10
44.698348
20
31.038877
70
0
0
VERTEX
8
KEY_HOLES
10
44.197650
20
31.976709
70
0
0
VERTEX
8
KEY_HOLES
10
43.517196
20
32.806596
70
0
0
VERTEX
8
KEY_HOLES
10
42.687309
20
33.487050
70
0
0
VERTEX
8
KEY_HOLES
10
41.749477
20
33.987748
70
0
0
VERTEX
8
KEY_HOLES
10
40.732283
20
34.296849
70
0
0
VERTEX
8
KEY_HOLES
10
39.664310
20
34.402513
70
0
0
VERTEX
8
KEY_HOLES
10
39.664310
20
34.402513
70
0
0
SEQEND
8
KEY_HOLES
0
POLYLINE
8
KEY_HOLES
62
10
70
0
10
0.000000
20
0.000000
66
1
0
VERTEX
8
KEY_HOLES
10
292.043730
20
55.304583
70
0
0
VERTEX
8
KEY_HOLES
10
290.446018
20
55.065339
70
0
0
VERTEX
8
KEY_HOLES
10
289.016537
20
54.386294
70
0
0
VERTEX
8
KEY_HOLES
10
287.842143
20
53.325486
70
0
0
VERTEX
8
KEY_HOLES
10
287.009692
20
51.940947
70
0
0
VERTEX
8
KEY_HOLES
10
286.619307
20
50.373298
70
0
0
VERTEX
8
KEY_HOLES
10
286.699624
20
48.792771
70
0
0
VERTEX
8
KEY_HOLES
10
287.230262
20
47.301819
70
0
0
VERTEX
8
KEY_HOLES
10
288.190844
20
46.002894
70
0
0
VERTEX
8
KEY_HOLES
10
289.489769
20
45.042312
70
0
0
VERTEX
8
KEY_HOLES
10
290.980721
20
44.511674
70
0
0
VERTEX
8
KEY_HOLES
10
292.561248
20
44.431357
70
0
0
VERTEX
8
KEY_HOLES
10
294.128897
20
44.821742
70
0
0
VERTEX
8
KEY_HOLES
10
295.513436
20
45.654193
70
0
0
VERTEX
8
KEY_HOLES
10
296.574244
20
46.828587
70
0
0
VERTEX
8
KEY_HOLES
10
297.253289
20
48.258068
70
0
0
VERTEX
8
KEY_HOLES
10
297.492533
20
49.855780
70
0
0
VERTEX
8
KEY_HOLES
10
297.386869
20
50.923753
70
0
0
VERTEX
8
KEY_HOLES
10
297.077768
20
51.940947
70
0
0
VERTEX
8
KEY_HOLES
10
296.577070
20
52.878779
70
0
0
VERTEX
8
KEY_HOLES
10
295.896616
20
53.708666
70
0
0
VERTEX
8
KEY_HOLES
10
295.066729
20
54.389120
70
0
0
VERTEX
8
KEY_HOLES
10
294.128897
20
54.889818
70
0
0
VERTEX
8
KEY_HOLES
10
293.111703
20
55.198919
70
0
0
VERTEX
8
KEY_HOLES
10
292.043730
20
55.304583
70
0
0
VERTEX
8
KEY_HOLES
10
292.043730
20
55.304583
70
0
0
SEQEND
8
KEY_HOLES
0
POLYLINE
8
KEY_HOLES
62
10
70
0
10
0.000000
20
0.000000
66
1
0
VERTEX
8
KEY_HOLES
10
267.768220
20
55.370733
70
0
0
VERTEX
8
KEY_HOLES
10
266.170508
20
55.131489
70
0
0
VERTEX
8
KEY_HOLES
10
264.741027
20
54.452444
70
0
0
VERTEX
8
KEY_HOLES
10
263.566633
20
53.391636
70
0
0
VERTEX
8
KEY_HOLES
10
262.734182
20
52.007097
70
0
0
VERTEX
8
KEY_HOLES
10
262.343797
20
50.439448
70
0
0
VERTEX
8
KEY_HOLES
10
262.424114
20
48.858921
70
0
0
VERTEX
8
KEY_HOLES
10
262.954752
20
47.367969
70
0
0
VERTEX
8
KEY_HOLES
10
263.915334
20
46.069044
70
0
0
VERTEX
8
KEY_HOLES
10
265.214259
20
45.108462
70
0
0
VERTEX
8
KEY_HOLES
10
266.705211
20
44.577824
70
0
0
VERTEX
8
KEY_HOLES
10
268.285738
20
44.497507
70
0
0
VERTEX
8
KEY_HOLES
10
269.853387
20
44.887892
70
0
0
VERTEX
8
KEY_HOLES
10
271.237926
20
45.720343
70
0
0
VERTEX
8
KEY_HOLES
10
272.298734
20
46.894737
70
0
0
VERTEX
8
KEY_HOLES
10
272.977779
20
48.324218
70
0
0
VERTEX
8
KEY_HOLES
10
273.217023
20
49.921930
70
0
0
VERTEX
8
KEY_HOLES
10
273.111359
20
50.989903
70
0
0
VERTEX
8
KEY_HOLES
10
272.802258
20
52.007097
70
0
0
VERTEX
8
KEY_HOLES
10
272.301560
20
52.944929
70
0
0
VERTEX
8
KEY_HOLES
10
271.621106
20
53.774816
70
0
0
VERTEX
8
KEY_HOLES
10
270.791219
20
54.455270
70
0
0
VERTEX
8
KEY_HOLES
10
269.853387
20
54.955968
70
0
0
VERTEX
8
KEY_HOLES
10
268.836193
20
55.265069
70
0
0
VERTEX
8
KEY_HOLES
10
267.768220
20
55.370733
70
0
0
VERTEX
8
KEY_HOLES
10
267.768220
20
55.370733
70
0
0
SEQEND
8
KEY_HOLES
0
POLYLINE
8
KEY_HOLES
62
10
70
0
10
0.000000
20
0.000000
66
1
0
VERTEX
8
KEY_HOLES
10
248.982800
20
55.172303
70
0
0
VERTEX
8
KEY_HOLES
10
247.385088
20
54.933059
70
0
0
VERTEX
8
KEY_HOLES
10
245.955607
20
54.254014
70
0
0
VERTEX
8
KEY_HOLES
10
244.781213
20
53.193206
70
0
0
VERTEX
8
KEY_HOLES
10
243.948762
20
51.808667
70
0
0
VERTEX
8
KEY_HOLES
10
243.558377
20
50.241018
70
0
0
VERTEX
8
KEY_HOLES
10
243.638694
20
48.660491
70
0
0
VERTEX
8
KEY_HOLES
10
244.169332
20
47.169539
70
0
0
VERTEX
8
KEY_HOLES
10
245.129914
20
45.870614
70
0
0
VERTEX
8
KEY_HOLES
10
246.428839
20
44.910032
70
0
0
VERTEX
8
KEY_HOLES
10
247.919791
20
44.379394
70
0
0
VERTEX
8
KEY_HOLES
10
249.500318
20
44.299077
70
0
0
VERTEX
8
KEY_HOLES
10
251.067967
20
44.689462
70
0
0
VERTEX
8
KEY_HOLES
10
252.452506
20
45.521913
70
0
0
VERTEX
8
KEY_HOLES
10
253.513314
20
46.696307
70
0
0
VERTEX
8
KEY_HOLES
10
254.192359
20
48.125788
70
0
0
VERTEX
8
KEY_HOLES
10
254.431603
20
49.723500
70
0
0
VERTEX
8
KEY_HOLES
10
254.325939
20
50.791473
70
0
0
VERTEX
8
KEY_HOLES
10
254.016838
20
51.808667
70
0
0
VERTEX
8
KEY_HOLES
10
253.516140
20
52.746499
70
0
0
VERTEX
8
KEY_HOLES
10
252.835686
20
53.576386
70
0
0
VERTEX
8
KEY_HOLES
10
252.005799
20
54.256840
70
0
0
VERTEX
8
KEY_HOLES
10
251.067967
20
54.757538
70
0
0
VERTEX
8
KEY_HOLES
10
250.050773
20
55.066639
70
0
0
VERTEX
8
KEY_HOLES
10
248.982800
20
55.172303
70
0
0
VERTEX
8
KEY_HOLES
10
248.982800
20
55.172303
70
0
0
SEQEND
8
KEY_HOLES
0
POLYLINE
8
KEY_HOLES
62
10
70
0
10
0.000000
20
0.000000
66
1
0
VERTEX
8
KEY_HOLES
10
229.866650
20
55.304583
70
0
0
VERTEX
8
KEY_HOLES
10
228.268938
20
55.065339
70
0
0
VERTEX
8
KEY_HOLES
10
226.839457
20
54.386294
70
0
0
VERTEX
8
KEY_HOLES
10
225.665063
20
53.325486
70
0
0
VERTEX
8
KEY_HOLES
10
224.832612
20
51.940947
70
0
0
VERTEX
8
KEY_HOLES
10
224.442227
20
50.373298
70
0
0
VERTEX
8
KEY_HOLES
10
224.522544
20
48.792771
70
0
0
VERTEX
8
KEY_HOLES
10
225.053182
20
47.301819
70
0
0
VERTEX
8
KEY_HOLES
10
226.013764
20
46.002894
70
0
0
VERTEX
8
KEY_HOLES
10
227.312689
20
45.042312
70
0
0
VERTEX
8
KEY_HOLES
10
228.803641
20
44.511674
70
0
0
VERTEX
8
KEY_HOLES
10
230.384168
20
44.431357
70
0
0
VERTEX
8
KEY_HOLES
10
231.951817
20
44.821742
70
0
0
VERTEX
8
KEY_HOLES
10
233.336356
20
45.654193
70
0
0
VERTEX
8
KEY_HOLES
10
234.397164
20
46.828587
70
0
0
VERTEX
8
KEY_HOLES
10
235.076209
20
48.258068
70
0
0
VERTEX
8
KEY_HOLES
10
235.315453
20
49.855780
70
0
0
VERTEX
8
KEY_HOLES
10
235.209789
20
50.923753
70
0
0
VERTEX
8
KEY_HOLES
10
234.900688
20
51.940947
70
0
0
VERTEX
8
KEY_HOLES
10
234.399990
20
52.878779
70
0
0
VERTEX
8
KEY_HOLES
10
233.719536
20
53.708666
70
0
0
VERTEX
8
KEY_HOLES
10
232.889649
20
54.389120
70
0
0
VERTEX
8
KEY_HOLES
10
231.951817
20
54.889818
70
0
0
VERTEX
8
KEY_HOLES
10
230.934623
20
55.198919
70
0
0
VERTEX
8
KEY_HOLES
10
229.866650
20
55.304583
70
0
0
VERTEX
8
KEY_HOLES
10
229.866650
20
55.304583
70
0
0
SEQEND
8
KEY_HOLES
0
POLYLINE
8
KEY_HOLES
62
10
70
0
10
0.000000
20
0.000000
66
1
0
VERTEX
8
KEY_HOLES
10
210.882800
20
55.304583
70
0
0
VERTEX
8
KEY_HOLES
10
209.285088
20
55.065339
70
0
0
VERTEX
8
KEY_HOLES
10
207.855607
20
54.386294
70
0
0
VERTEX
8
KEY_HOLES
10
206.681213
20
53.325486
70
0
0
VERTEX
8
KEY_HOLES
10
205.848762
20
51.940947
70
0
0
VERTEX
8
KEY_HOLES
10
205.458377
20
50.373298
70
0
0
VERTEX
8
KEY_HOLES
10
205.538694
20
48.792771
70
0
0
VERTEX
8
KEY_HOLES
10
206.069332
20
47.301819
70
0
0
VERTEX
8
KEY_HOLES
10
207.029914
20
46.002894
70
0
0
VERTEX
8
KEY_HOLES
10
208.328839
20
45.042312
70
0
0
VERTEX
8
KEY_HOLES
10
209.819791
20
44.511674
70
0
0
VERTEX
8
KEY_HOLES
10
211.400318
20
44.431357
70
0
0
VERTEX
8
KEY_HOLES
10
212.967967
20
44.821742
70
0
0
VERTEX
8
KEY_HOLES
10
214.352506
20
45.654193
70
0
0
VERTEX
8
KEY_HOLES
10
215.413314
20
46.828587
70
0
0
VERTEX
8
KEY_HOLES
10
216.092359
20
48.258068
70
0
0
VERTEX
8
KEY_HOLES
10
216.331603
20
49.855780
70
0
0
VERTEX
8
KEY_HOLES
10
216.225939
20
50.923753
70
0
0
VERTEX
8
KEY_HOLES
10
215.916838
20
51.940947
70
0
0
VERTEX
8
KEY_HOLES
10
215.416140
20
52.878779
70
0
0
VERTEX
8
KEY_HOLES
10
214.735686
20
53.708666
70
0
0
VERTEX
8
KEY_HOLES
10
213.905799
20
54.389120
70
0
0
VERTEX
8
KEY_HOLES
10
212.967967
20
54.889818
70
0
0
VERTEX
8
KEY_HOLES
10
211.950773
20
55.198919
70
0
0
VERTEX
8
KEY_HOLES
10
210.882800
20
55.304583
70
0
0
VERTEX
8
KEY_HOLES
10
210.882800
20
55.304583
70
0
0
SEQEND
8
KEY_HOLES
0
POLYLINE
8
KEY_HOLES
62
10
70
0
10
0.000000
20
0.000000
66
1
0
VERTEX
8
KEY_HOLES
10
191.733580
20
55.271533
70
0
0
VERTEX
8
KEY_HOLES
10
190.135868
20
55.032289
70
0
0
VERTEX
8
KEY_HOLES
10
188.706387
20
54.353244
70
0
0
VERTEX
8
KEY_HOLES
10
187.531993
20
53.292436
70
0
0
VERTEX
8
KEY_HOLES
10
186.699542
20
51.907897
70
0
0
VERTEX
8
KEY_HOLES
10
186.309157
20
50.340248
70
0
0
VERTEX
8
KEY_HOLES
10
186.389474
20
48.759721
70
0
0
VERTEX
8
KEY_HOLES
10
186.920112
20
47.268769
70
0
0
VERTEX
8
KEY_HOLES
10
187.880694
20
45.969844
70
0
0
VERTEX
8
KEY_HOLES
10
189.179619
20
45.009262
70
0
0
VERTEX
8
KEY_HOLES
10
190.670571
20
44.478624
70
0
0
VERTEX
8
KEY_HOLES
10
192.251098
20
44.398307
70
0
0
VERTEX
8
KEY_HOLES
10
193.818747
20
44.788692
70
0
0
VERTEX
8
KEY_HOLES
10
195.203286
20
45.621143
70
0
0
VERTEX
8
KEY_HOLES
10
196.264094
20
46.795537
70
0
0
VERTEX
8
KEY_HOLES
10
196.943139
20
48.225018
70
0
0
VERTEX
8
KEY_HOLES
10
197.182383
20
49.822730
70
0
0
VERTEX
8
KEY_HOLES
10
197.076719
20
50.890703
70
0
0
VERTEX
8
KEY_HOLES
10
196.767618
20
51.907897
70
0
0
VERTEX
8
KEY_HOLES
10
196.266920
20
52.845729
70
0
0
VERTEX
8
KEY_HOLES
10
195.586466
20
53.675616
70
0
0
VERTEX
8
KEY_HOLES
10
194.756579
20
54.356070
70
0
0
VERTEX
8
KEY_HOLES
10
193.818747
20
54.856768
70
0
0
VERTEX
8
KEY_HOLES
10
192.801553
20
55.165869
70
0
0
VERTEX
8
KEY_HOLES
10
191.733580
20
55.271533
70
0
0
VERTEX
8
KEY_HOLES
10
191.733580
20
55.271533
70
0
0
SEQEND
8
KEY_HOLES
0
POLYLINE
8
KEY_HOLES
62
10
70
0
10
0.000000
20
0.000000
66
1
0
VERTEX
8
KEY_HOLES
10
172.716640
20
55.238453
70
0
0
VERTEX
8
KEY_HOLES
10
171.118928
20
54.999209
70
0
0
VERTEX
8
KEY_HOLES
10
169.689447
20
54.320164
70
0
0
VERTEX
8
KEY_HOLES
10
168.515053
20
53.259356
70
0
0
VERTEX
8
KEY_HOLES
10
167.682602
20
51.874817
70
0
0
VERTEX
8
KEY_HOLES
10
167.292217
20
50.307168
70
0
0
VERTEX
8
KEY_HOLES
10
167.372534
20
48.726641
70
0
0
VERTEX
8
KEY_HOLES
10
167.903172
20
47.235689
70
0
0
VERTEX
8
KEY_HOLES
10
168.863754
20
45.936764
70
0
0
VERTEX
8
KEY_HOLES
10
170.162679
20
44.976182
70
0
0
VERTEX
8
KEY_HOLES
10
171.653631
20
44.445544
70
0
0
VERTEX
8
KEY_HOLES
10
173.234158
20
44.365227
70
0
0
VERTEX
8
KEY_HOLES
10
174.801807
20
44.755612
70
0
0
VERTEX
8
KEY_HOLES
10
176.186346
20
45.588063
70
0
0
VERTEX
8
KEY_HOLES
10
177.247154
20
46.762457
70
0
0
VERTEX
8
KEY_HOLES
10
177.926199
20
48.191938
70
0
0
VERTEX
8
KEY_HOLES
10
178.165443
20
49.789650
70
0
0
VERTEX
8
KEY_HOLES
10
178.059779
20
50.857623
70
0
0
VERTEX
8
KEY_HOLES
10
177.750678
20
51.874817
70
0
0
VERTEX
8
KEY_HOLES
10
177.249980
20
52.812649
70
0
0
VERTEX
8
KEY_HOLES
10
176.569526
20
53.642536
70
0
0
VERTEX
8
KEY_HOLES
10
175.739639
20
54.322990
70
0
0
VERTEX
8
KEY_HOLES
10
174.801807
20
54.823688
70
0
0
VERTEX
8
KEY_HOLES
10
173.784613
20
55.132789
70
0
0
VERTEX
8
KEY_HOLES
10
172.716640
20
55.238453
70
0
0
VERTEX
8
KEY_HOLES
10
172.716640
20
55.238453
70
0
0
SEQEND
8
KEY_HOLES
0
POLYLINE
8
KEY_HOLES
62
10
70
0
10
0.000000
20
0.000000
66
1
0
VERTEX
8
KEY_HOLES
10
153.666640
20
55.271523
70
0
0
VERTEX
8
KEY_HOLES
10
152.068928
20
55.032279
70
0
0
VERTEX
8
KEY_HOLES
10
150.639447
20
54.353234
70
0
0
VERTEX
8
KEY_HOLES
10
149.465053
20
53.292426
70
0
0
VERTEX
8
KEY_HOLES
10
148.632602
20
51.907887
70
0
0
VERTEX
8
KEY_HOLES
10
148.242217
20
50.340238
70
0
0
VERTEX
8
KEY_HOLES
10
148.322534
20
48.759711
70
0
0
VERTEX
8
KEY_HOLES
10
148.853172
20
47.268759
70
0
0
VERTEX
8
KEY_HOLES
10
149.813754
20
45.969834
70
0
0
VERTEX
8
KEY_HOLES
10
151.112679
20
45.009252
70
0
0
VERTEX
8
KEY_HOLES
10
152.603631
20
44.478614
70
0
0
VERTEX
8
KEY_HOLES
10
154.184158
20
44.398297
70
0
0
VERTEX
8
KEY_HOLES
10
155.751807
20
44.788682
70
0
0
VERTEX
8
KEY_HOLES
10
157.136346
20
45.621133
70
0
0
VERTEX
8
KEY_HOLES
10
158.197154
20
46.795527
70
0
0
VERTEX
8
KEY_HOLES
10
158.876199
20
48.225008
70
0
0
VERTEX
8
KEY_HOLES
10
159.115443
20
49.822720
70
0
0
VERTEX
8
KEY_HOLES
10
159.009779
20
50.890693
70
0
0
VERTEX
8
KEY_HOLES
10
158.700678
20
51.907887
70
0
0
VERTEX
8
KEY_HOLES
10
158.199980
20
52.845719
70
0
0
VERTEX
8
KEY_HOLES
10
157.519526
20
53.675606
70
0
0
VERTEX
8
KEY_HOLES
10
156.689639
20
54.356060
70
0
0
VERTEX
8
KEY_HOLES
10
155.751807
20
54.856758
70
0
0
VERTEX
8
KEY_HOLES
10
154.734613
20
55.165859
70
0
0
VERTEX
8
KEY_HOLES
10
153.666640
20
55.271523
70
0
0
VERTEX
8
KEY_HOLES
10
153.666640
20
55.271523
70
0
0
SEQEND
8
KEY_HOLES
0
POLYLINE
8
KEY_HOLES
62
10
70
0
10
0.000000
20
0.000000
66
1
0
VERTEX
8
KEY_HOLES
10
134.649720
20
55.304603
70
0
0
VERTEX
8
KEY_HOLES
10
133.052008
20
55.065359
70
0
0
VERTEX
8
KEY_HOLES
10
131.622527
20
54.386314
70
0
0
VERTEX
8
KEY_HOLES
10
130.448133
20
53.325506
70
0
0
VERTEX
8
KEY_HOLES
10
129.615682
20
51.940967
70
0
0
VERTEX
8
KEY_HOLES
10
129.225297
20
50.373318
70
0
0
VERTEX
8
KEY_HOLES
10
129.305614
20
48.792791
70
0
0
VERTEX
8
KEY_HOLES
10
129.836252
20
47.301839
70
0
0
VERTEX
8
KEY_HOLES
10
130.796834
20
46.002914
70
0
0
VERTEX
8
KEY_HOLES
10
132.095759
20
45.042332
70
0
0
VERTEX
8
KEY_HOLES
10
133.586711
20
44.511694
70
0
0
VERTEX
8
KEY_HOLES
10
135.167238
20
44.431377
70
0
0
VERTEX
8
KEY_HOLES
10
136.734887
20
44.821762
70
0
0
VERTEX
8
KEY_HOLES
10
138.119426
20
45.654213
70
0
0
VERTEX
8
KEY_HOLES
10
139.180234
20
46.828607
70
0
0
VERTEX
8
KEY_HOLES
10
139.859279
20
48.258088
70
0
0
VERTEX
8
KEY_HOLES
10
140.098523
20
49.855800
70
0
0
VERTEX
8
KEY_HOLES
10
139.992859
20
50.923773
70
0
0
VERTEX
8
KEY_HOLES
10
139.683758
20
51.940967
70
0
0
VERTEX
8
KEY_HOLES
10
139.183060
20
52.878799
70
0
0
VERTEX
8
KEY_HOLES
10
138.502606
20
53.708686
70
0
0
VERTEX
8
KEY_HOLES
10
137.672719
20
54.389140
70
0
0
VERTEX
8
KEY_HOLES
10
136.734887
20
54.889838
70
0
0
VERTEX
8
KEY_HOLES
10
135.717693
20
55.198939
70
0
0
VERTEX
8
KEY_HOLES
10
134.649720
20
55.304603
70
0
0
VERTEX
8
KEY_HOLES
10
134.649720
20
55.304603
70
0
0
SEQEND
8
KEY_HOLES
0
POLYLINE
8
KEY_HOLES
62
10
70
0
10
0.000000
20
0.000000
66
1
0
VERTEX
8
KEY_HOLES
10
115.698940
20
55.271523
70
0
0
VERTEX
8
KEY_HOLES
10
114.600816
20
55.160823
70
0
0
VERTEX
8
KEY_HOLES
10
113.578020
20
54.843329
70
0
0
VERTEX
8
KEY_HOLES
10
112.652462
20
54.340953
70
0
0
VERTEX
8
KEY_HOLES
10
111.846054
20
53.675606
70
0
0
VERTEX
8
KEY_HOLES
10
111.180707
20
52.869198
70
0
0
VERTEX
8
KEY_HOLES
10
110.678331
20
51.943640
70
0
0
VERTEX
8
KEY_HOLES
10
110.360837
20
50.920844
70
0
0
VERTEX
8
KEY_HOLES
10
110.250137
20
49.822720
70
0
0
VERTEX
8
KEY_HOLES
10
110.360837
20
48.724596
70
0
0
VERTEX
8
KEY_HOLES
10
110.678331
20
47.701800
70
0
0
VERTEX
8
KEY_HOLES
10
111.180707
20
46.776242
70
0
0
VERTEX
8
KEY_HOLES
10
111.846054
20
45.969834
70
0
0
VERTEX
8
KEY_HOLES
10
112.652462
20
45.304487
70
0
0
VERTEX
8
KEY_HOLES
10
113.578020
20
44.802111
70
0
0
VERTEX
8
KEY_HOLES
10
114.600816
20
44.484617
70
0
0
VERTEX
8
KEY_HOLES
10
115.698940
20
44.373917
70
0
0
VERTEX
8
KEY_HOLES
10
116.797064
20
44.484617
70
0
0
VERTEX
8
KEY_HOLES
10
117.819860
20
44.802111
70
0
0
VERTEX
8
KEY_HOLES
10
118.745418
20
45.304487
70
0
0
VERTEX
8
KEY_HOLES
10
119.551826
20
45.969834
70
0
0
VERTEX
8
KEY_HOLES
10
120.217173
20
46.776242
70
0
0
VERTEX
8
KEY_HOLES
10
120.719549
20
47.701800
70
0
0
VERTEX
8
KEY_HOLES
10
121.037043
20
48.724596
70
0
0
VERTEX
8
KEY_HOLES
10
121.147743
20
49.822720
70
0
0
VERTEX
8
KEY_HOLES
10
121.042079
20
50.890693
70
0
0
VERTEX
8
KEY_HOLES
10
120.732978
20
51.907887
70
0
0
VERTEX
8
KEY_HOLES
10
120.232280
20
52.845719
70
0
0
VERTEX
8
KEY_HOLES
10
119.551826
20
53.675606
70
0
0
VERTEX
8
KEY_HOLES
10
118.721939
20
54.356060
70
0
0
VERTEX
8
KEY_HOLES
10
117.784107
20
54.856758
70
0
0
VERTEX
8
KEY_HOLES
10
116.766913
20
55.165859
70
0
0
VERTEX
8
KEY_HOLES
10
115.698940
20
55.271523
70
0
0
VERTEX
8
KEY_HOLES
10
115.698940
20
55.271523
70
0
0
SEQEND
8
KEY_HOLES
0
POLYLINE
8
KEY_HOLES
62
10
70
0
10
0.000000
20
0.000000
66
1
0
VERTEX
8
KEY_HOLES
10
96.648949
20
55.205373
70
0
0
VERTEX
8
KEY_HOLES
10
95.051237
20
54.966129
70
0
0
VERTEX
8
KEY_HOLES
10
93.621756
20
54.287084
70
0
0
VERTEX
8
KEY_HOLES
10
92.447362
20
53.226276
70
0
0
VERTEX
8
KEY_HOLES
10
91.614911
20
51.841737
70
0
0
VERTEX
8
KEY_HOLES
10
91.224526
20
50.274088
70
0
0
VERTEX
8
KEY_HOLES
10
91.304843
20
48.693561
70
0
0
VERTEX
8
KEY_HOLES
10
91.835481
20
47.202609
70
0
0
VERTEX
8
KEY_HOLES
10
92.796063
20
45.903684
70
0
0
VERTEX
8
KEY_HOLES
10
94.094988
20
44.943102
70
0
0
VERTEX
8
KEY_HOLES
10
95.585940
20
44.412464
70
0
0
VERTEX
8
KEY_HOLES
10
97.166467
20
44.332147
70
0
0
VERTEX
8
KEY_HOLES
10
98.734116
20
44.722532
70
0
0
VERTEX
8
KEY_HOLES
10
100.118655
20
45.554983
70
0
0
VERTEX
8
KEY_HOLES
10
101.179463
20
46.729377
70
0
0
VERTEX
8
KEY_HOLES
10
101.858508
20
48.158858
70
0
0
VERTEX
8
KEY_HOLES
10
102.097752
20
49.756570
70
0
0
VERTEX
8
KEY_HOLES
10
101.992088
20
50.824543
70
0
0
VERTEX
8
KEY_HOLES
10
101.682987
20
51.841737
70
0
0
VERTEX
8
KEY_HOLES
10
101.182289
20
52.779569
70
0
0
VERTEX
8
KEY_HOLES
10
100.501835
20
53.609456
70
0
0
VERTEX
8
KEY_HOLES
10
99.671948
20
54.289910
70
0
0
VERTEX
8
KEY_HOLES
10
98.734116
20
54.790608
70
0
0
VERTEX
8
KEY_HOLES
10
97.716922
20
55.099709
70
0
0
VERTEX
8
KEY_HOLES
10
96.648949
20
55.205373
70
0
0
VERTEX
8
KEY_HOLES
10
96.648949
20
55.205373
70
0
0
SEQEND
8
KEY_HOLES
0
POLYLINE
8
KEY_HOLES
62
10
70
0
10
0.000000
20
0.000000
66
1
0
VERTEX
8
KEY_HOLES
10
77.665092
20
55.271533
70
0
0
VERTEX
8
KEY_HOLES
10
76.566968
20
55.160833
70
0
0
VERTEX
8
KEY_HOLES
10
75.544172
20
54.843339
70
0
0
VERTEX
8
KEY_HOLES
10
74.618614
20
54.340963
70
0
0
VERTEX
8
KEY_HOLES
10
73.812206
20
53.675616
70
0
0
VERTEX
8
KEY_HOLES
10
73.146859
20
52.869208
70
0
0
VERTEX
8
KEY_HOLES
10
72.644483
20
51.943650
70
0
0
VERTEX
8
KEY_HOLES
10
72.326989
20
50.920854
70
0
0
VERTEX
8
KEY_HOLES
10
72.216289
20
49.822730
70
0
0
VERTEX
8
KEY_HOLES
10
72.326989
20
48.724606
70
0
0
VERTEX
8
KEY_HOLES
10
72.644483
20
47.701810
70
0
0
VERTEX
8
KEY_HOLES
10
73.146859
20
46.776252
70
0
0
VERTEX
8
KEY_HOLES
10
73.812206
20
45.969844
70
0
0
VERTEX
8
KEY_HOLES
10
74.618614
20
45.304497
70
0
0
VERTEX
8
KEY_HOLES
10
75.544172
20
44.802121
70
0
0
VERTEX
8
KEY_HOLES
10
76.566968
20
44.484627
70
0
0
VERTEX
8
KEY_HOLES
10
77.665092
20
44.373927
70
0
0
VERTEX
8
KEY_HOLES
10
78.763216
20
44.484627
70
0
0
VERTEX
8
KEY_HOLES
10
79.786012
20
44.802121
70
0
0
VERTEX
8
KEY_HOLES
10
80.711570
20
45.304497
70
0
0
VERTEX
8
KEY_HOLES
10
81.517978
20
45.969844
70
0
0
VERTEX
8
KEY_HOLES
10
82.183325
20
46.776252
70
0
0
VERTEX
8
KEY_HOLES
10
82.685701
20
47.701810
70
0
0
VERTEX
8
KEY_HOLES
10
83.003195
20
48.724606
70
0
0
VERTEX
8
KEY_HOLES
10
83.113895
20
49.822730
70
0
0
VERTEX
8
KEY_HOLES
10
83.008231
20
50.890703
70
0
0
VERTEX
8
KEY_HOLES
10
82.699130
20
51.907897
70
0
0
VERTEX
8
KEY_HOLES
10
82.198432
20
52.845729
70
0
0
VERTEX
8
KEY_HOLES
10
81.517978
20
53.675616
70
0
0
VERTEX
8
KEY_HOLES
10
80.688091
20
54.356070
70
0
0
VERTEX
8
KEY_HOLES
10
79.750259
20
54.856768
70
0
0
VERTEX
8
KEY_HOLES
10
78.733065
20
55.165869
70
0
0
VERTEX
8
KEY_HOLES
10
77.665092
20
55.271533
70
0
0
VERTEX
8
KEY_HOLES
10
77.665092
20
55.271533
70
0
0
SEQEND
8
KEY_HOLES
0
POLYLINE
8
KEY_HOLES
62
10
70
0
10
0.000000
20
0.000000
66
1
0
VERTEX
8
KEY_HOLES
10
58.515873
20
55.337663
70
0
0
VERTEX
8
KEY_HOLES
10
56.918161
20
55.098419
70
0
0
VERTEX
8
KEY_HOLES
10
55.488680
20
54.419374
70
0
0
VERTEX
8
KEY_HOLES
10
54.314286
20
53.358566
70
0
0
VERTEX
8
KEY_HOLES
10
53.481835
20
51.974027
70
0
0
VERTEX
8
KEY_HOLES
10
53.091450
20
50.406378
70
0
0
VERTEX
8
KEY_HOLES
10
53.171767
20
48.825851
70
0
0
VERTEX
8
KEY_HOLES
10
53.702405
20
47.334899
70
0
0
VERTEX
8
KEY_HOLES
10
54.662987
20
46.035974
70
0
0
VERTEX
8
KEY_HOLES
10
55.961912
20
45.075392
70
0
0
VERTEX
8
KEY_HOLES
10
57.452864
20
44.544754
70
0
0
VERTEX
8
KEY_HOLES
10
59.033391
20
44.464437
70
0
0
VERTEX
8
KEY_HOLES
10
60.601040
20
44.854822
70
0
0
VERTEX
8
KEY_HOLES
10
61.985579
20
45.687273
70
0
0
VERTEX
8
KEY_HOLES
10
63.046387
20
46.861667
70
0
0
VERTEX
8
KEY_HOLES
10
63.725432
20
48.291148
70
0
0
VERTEX
8
KEY_HOLES
10
63.964676
20
49.888860
70
0
0
VERTEX
8
KEY_HOLES
10
63.859012
20
50.956833
70
0
0
VERTEX
8
KEY_HOLES
10
63.549911
20
51.974027
70
0
0
VERTEX
8
KEY_HOLES
10
63.049213
20
52.911859
70
0
0
VERTEX
8
KEY_HOLES
10
62.368759
20
53.741746
70
0
0
VERTEX
8
KEY_HOLES
10
61.538872
20
54.422200
70
0
0
VERTEX
8
KEY_HOLES
10
60.601040
20
54.922898
70
0
0
VERTEX
8
KEY_HOLES
10
59.583846
20
55.231999
70
0
0
VERTEX
8
KEY_HOLES
10
58.515873
20
55.337663
70
0
0
VERTEX
8
KEY_HOLES
10
58.515873
20
55.337663
70
0
0
SEQEND
8
KEY_HOLES
0
POLYLINE
8
KEY_HOLES
62
10
70
0
10
0.000000
20
0.000000
66
1
0
VERTEX
8
KEY_HOLES
10
36.919254
20
55.304603
70
0
0
VERTEX
8
KEY_HOLES
10
35.821130
20
55.193903
70
0
0
VERTEX
8
KEY_HOLES
10
34.798334
20
54.876409
70
0
0
VERTEX
8
KEY_HOLES
10
33.872776
20
54.374033
70
0
0
VERTEX
8
KEY_HOLES
10
33.066368
20
53.708686
70
0
0
VERTEX
8
KEY_HOLES
10
32.401021
20
52.902278
70
0
0
VERTEX
8
KEY_HOLES
10
31.898645
20
51.976720
70
0
0
VERTEX
8
KEY_HOLES
10
31.581151
20
50.953924
70
0
0
VERTEX
8
KEY_HOLES
10
31.470451
20
49.855800
70
0
0
VERTEX
8
KEY_HOLES
10
31.581151
20
48.757676
70
0
0
VERTEX
8
KEY_HOLES
10
31.898645
20
47.734880
70
0
0
VERTEX
8
KEY_HOLES
10
32.401021
20
46.809322
70
0
0
VERTEX
8
KEY_HOLES
10
33.066368
20
46.002914
70
0
0
VERTEX
8
KEY_HOLES
10
33.872776
20
45.337567
70
0
0
VERTEX
8
KEY_HOLES
10
34.798334
20
44.835191
70
0
0
VERTEX
8
KEY_HOLES
10
35.821130
20
44.517697
70
0
0
VERTEX
8
KEY_HOLES
10
36.919254
20
44.406997
70
0
0
VERTEX
8
KEY_HOLES
10
38.017378
20
44.517697
70
0
0
VERTEX
8
KEY_HOLES
10
39.040174
20
44.835191
70
0
0
VERTEX
8
KEY_HOLES
10
39.965732
20
45.337567
70
0
0
VERTEX
8
KEY_HOLES
10
40.772140
20
46.002914
70
0
0
VERTEX
8
KEY_HOLES
10
41.437487
20
46.809322
70
0
0
VERTEX
8
KEY_HOLES
10
41.939863
20
47.734880
70
0
0
VERTEX
8
KEY_HOLES
10
42.257357
20
48.757676
70
0
0
VERTEX
8
KEY_HOLES
10
42.368057
20
49.855800
70
0
0
VERTEX
8
KEY_HOLES
10
42.262393
20
50.923773
70
0
0
VERTEX
8
KEY_HOLES
10
41.953292
20
51.940967
70
0
0
VERTEX
8
KEY_HOLES
10
41.452594
20
52.878799
70
0
0
VERTEX
8
KEY_HOLES
10
40.772140
20
53.708686
70
0
0
VERTEX
8
KEY_HOLES
10
39.942253
20
54.389140
70
0
0
VERTEX
8
KEY_HOLES
10
39.004421
20
54.889838
70
0
0
VERTEX
8
KEY_HOLES
10
37.987227
20
55.198939
70
0
0
VERTEX
8
KEY_HOLES
10
36.919254
20
55.304603
70
0
0
VERTEX
8
KEY_HOLES
10
36.919254
20
55.304603
70
0
0
SEQEND
8
KEY_HOLES
0
POLYLINE
8
KEY_HOLES
62
10
70
0
10
0.000000
20
0.000000
66
1
0
VERTEX
8
KEY_HOLES
10
298.301540
20
76.315583
70
0
0
VERTEX
8
KEY_HOLES
10
296.703828
20
76.076339
70
0
0
VERTEX
8
KEY_HOLES
10
295.274347
20
75.397294
70
0
0
VERTEX
8
KEY_HOLES
10
294.099953
20
74.336486
70
0
0
VERTEX
8
KEY_HOLES
10
293.267502
20
72.951947
70
0
0
VERTEX
8
KEY_HOLES
10
292.877117
20
71.384298
70
0
0
VERTEX
8
KEY_HOLES
10
292.957434
20
69.803771
70
0
0
VERTEX
8
KEY_HOLES
10
293.488072
20
68.312819
70
0
0
VERTEX
8
KEY_HOLES
10
294.448654
20
67.013894
70
0
0
VERTEX
8
KEY_HOLES
10
295.747579
20
66.053312
70
0
0
VERTEX
8
KEY_HOLES
10
297.238531
20
65.522674
70
0
0
VERTEX
8
KEY_HOLES
10
298.819058
20
65.442357
70
0
0
VERTEX
8
KEY_HOLES
10
300.386707
20
65.832742
70
0
0
VERTEX
8
KEY_HOLES
10
301.771246
20
66.665193
70
0
0
VERTEX
8
KEY_HOLES
10
302.832054
20
67.839587
70
0
0
VERTEX
8
KEY_HOLES
10
303.511099
20
69.269068
70
0
0
VERTEX
8
KEY_HOLES
10
303.750343
20
70.866780
70
0
0
VERTEX
8
KEY_HOLES
10
303.644679
20
71.934753
70
0
0
VERTEX
8
KEY_HOLES
10
303.335578
20
72.951947
70
0
0
VERTEX
8
KEY_HOLES
10
302.834880
20
73.889779
70
0
0
VERTEX
8
KEY_HOLES
10
302.154426
20
74.719666
70
0
0
VERTEX
8
KEY_HOLES
10
301.324539
20
75.400120
70
0
0
VERTEX
8
KEY_HOLES
10
300.386707
20
75.900818
70
0
0
VERTEX
8
KEY_HOLES
10
299.369513
20
76.209919
70
0
0
VERTEX
8
KEY_HOLES
10
298.301540
20
76.315583
70
0
0
VERTEX
8
KEY_HOLES
10
298.301540
20
76.315583
70
0
0
SEQEND
8
KEY_HOLES
0
POLYLINE
8
KEY_HOLES
62
10
70
0
10
0.000000
20
0.000000
66
1
0
VERTEX
8
KEY_HOLES
10
277.446260
20
76.343093
70
0
0
VERTEX
8
KEY_HOLES
10
275.848548
20
76.103849
70
0
0
VERTEX
8
KEY_HOLES
10
274.419067
20
75.424804
70
0
0
VERTEX
8
KEY_HOLES
10
273.244673
20
74.363996
70
0
0
VERTEX
8
KEY_HOLES
10
272.412222
20
72.979457
70
0
0
VERTEX
8
KEY_HOLES
10
272.021837
20
71.411808
70
0
0
VERTEX
8
KEY_HOLES
10
272.102154
20
69.831281
70
0
0
VERTEX
8
KEY_HOLES
10
272.632792
20
68.340329
70
0
0
VERTEX
8
KEY_HOLES
10
273.593374
20
67.041404
70
0
0
VERTEX
8
KEY_HOLES
10
274.892299
20
66.080822
70
0
0
VERTEX
8
KEY_HOLES
10
276.383251
20
65.550184
70
0
0
VERTEX
8
KEY_HOLES
10
277.963778
20
65.469867
70
0
0
VERTEX
8
KEY_HOLES
10
279.531427
20
65.860252
70
0
0
VERTEX
8
KEY_HOLES
10
280.915966
20
66.692703
70
0
0
VERTEX
8
KEY_HOLES
10
281.976774
20
67.867097
70
0
0
VERTEX
8
KEY_HOLES
10
282.655819
20
69.296578
70
0
0
VERTEX
8
KEY_HOLES
10
282.895063
20
70.894290
70
0
0
VERTEX
8
KEY_HOLES
10
282.784363
20
71.992414
70
0
0
VERTEX
8
KEY_HOLES
10
282.466869
20
73.015210
70
0
0
VERTEX
8
KEY_HOLES
10
281.964493
20
73.940768
70
0
0
VERTEX
8
KEY_HOLES
10
281.299146
20
74.747176
70
0
0
VERTEX
8
KEY_HOLES
10
280.492738
20
75.412523
70
0
0
VERTEX
8
KEY_HOLES
10
279.567180
20
75.914899
70
0
0
VERTEX
8
KEY_HOLES
10
278.544384
20
76.232393
70
0
0
VERTEX
8
KEY_HOLES
10
277.446260
20
76.343093
70
0
0
VERTEX
8
KEY_HOLES
10
277.446260
20
76.343093
70
0
0
SEQEND
8
KEY_HOLES
0
POLYLINE
8
KEY_HOLES
62
10
70
0
10
0.000000
20
0.000000
66
1
0
VERTEX
8
KEY_HOLES
10
258.393520
20
76.327063
70
0
0
VERTEX
8
KEY_HOLES
10
256.795808
20
76.087819
70
0
0
VERTEX
8
KEY_HOLES
10
255.366327
20
75.408774
70
0
0
VERTEX
8
KEY_HOLES
10
254.191933
20
74.347966
70
0
0
VERTEX
8
KEY_HOLES
10
253.359482
20
72.963427
70
0
0
VERTEX
8
KEY_HOLES
10
252.969097
20
71.395778
70
0
0
VERTEX
8
KEY_HOLES
10
253.049414
20
69.815251
70
0
0
VERTEX
8
KEY_HOLES
10
253.580052
20
68.324299
70
0
0
VERTEX
8
KEY_HOLES
10
254.540634
20
67.025374
70
0
0
VERTEX
8
KEY_HOLES
10
255.839559
20
66.064792
70
0
0
VERTEX
8
KEY_HOLES
10
257.330511
20
65.534154
70
0
0
VERTEX
8
KEY_HOLES
10
258.911038
20
65.453837
70
0
0
VERTEX
8
KEY_HOLES
10
260.478687
20
65.844222
70
0
0
VERTEX
8
KEY_HOLES
10
261.863226
20
66.676673
70
0
0
VERTEX
8
KEY_HOLES
10
262.924034
20
67.851067
70
0
0
VERTEX
8
KEY_HOLES
10
263.603079
20
69.280548
70
0
0
VERTEX
8
KEY_HOLES
10
263.842323
20
70.878260
70
0
0
VERTEX
8
KEY_HOLES
10
263.736659
20
71.946233
70
0
0
VERTEX
8
KEY_HOLES
10
263.427558
20
72.963427
70
0
0
VERTEX
8
KEY_HOLES
10
262.926860
20
73.901259
70
0
0
VERTEX
8
KEY_HOLES
10
262.246406
20
74.731146
70
0
0
VERTEX
8
KEY_HOLES
10
261.416519
20
75.411600
70
0
0
VERTEX
8
KEY_HOLES
10
260.478687
20
75.912298
70
0
0
VERTEX
8
KEY_HOLES
10
259.461493
20
76.221399
70
0
0
VERTEX
8
KEY_HOLES
10
258.393520
20
76.327063
70
0
0
VERTEX
8
KEY_HOLES
10
258.393520
20
76.327063
70
0
0
SEQEND
8
KEY_HOLES
0
POLYLINE
8
KEY_HOLES
62
10
70
0
10
0.000000
20
0.000000
66
1
0
VERTEX
8
KEY_HOLES
10
239.340740
20
76.293563
70
0
0
VERTEX
8
KEY_HOLES
10
237.743028
20
76.054319
70
0
0
VERTEX
8
KEY_HOLES
10
236.313547
20
75.375274
70
0
0
VERTEX
8
KEY_HOLES
10
235.139153
20
74.314466
70
0
0
VERTEX
8
KEY_HOLES
10
234.306702
20
72.929927
70
0
0
VERTEX
8
KEY_HOLES
10
233.916317
20
71.362278
70
0
0
VERTEX
8
KEY_HOLES
10
233.996634
20
69.781751
70
0
0
VERTEX
8
KEY_HOLES
10
234.527272
20
68.290799
70
0
0
VERTEX
8
KEY_HOLES
10
235.487854
20
66.991874
70
0
0
VERTEX
8
KEY_HOLES
10
236.786779
20
66.031292
70
0
0
VERTEX
8
KEY_HOLES
10
238.277731
20
65.500654
70
0
0
VERTEX
8
KEY_HOLES
10
239.858258
20
65.420337
70
0
0
VERTEX
8
KEY_HOLES
10
241.425907
20
65.810722
70
0
0
VERTEX
8
KEY_HOLES
10
242.810446
20
66.643173
70
0
0
VERTEX
8
KEY_HOLES
10
243.871254
20
67.817567
70
0
0
VERTEX
8
KEY_HOLES
10
244.550299
20
69.247048
70
0
0
VERTEX
8
KEY_HOLES
10
244.789543
20
70.844760
70
0
0
VERTEX
8
KEY_HOLES
10
244.683879
20
71.912733
70
0
0
VERTEX
8
KEY_HOLES
10
244.374778
20
72.929927
70
0
0
VERTEX
8
KEY_HOLES
10
243.874080
20
73.867759
70
0
0
VERTEX
8
KEY_HOLES
10
243.193626
20
74.697646
70
0
0
VERTEX
8
KEY_HOLES
10
242.363739
20
75.378100
70
0
0
VERTEX
8
KEY_HOLES
10
241.425907
20
75.878798
70
0
0
VERTEX
8
KEY_HOLES
10
240.408713
20
76.187899
70
0
0
VERTEX
8
KEY_HOLES
10
239.340740
20
76.293563
70
0
0
VERTEX
8
KEY_HOLES
10
239.340740
20
76.293563
70
0
0
SEQEND
8
KEY_HOLES
0
POLYLINE
8
KEY_HOLES
62
10
70
0
10
0.000000
20
0.000000
66
1
0
VERTEX
8
KEY_HOLES
10
220.248110
20
76.324303
70
0
0
VERTEX
8
KEY_HOLES
10
218.650398
20
76.085059
70
0
0
VERTEX
8
KEY_HOLES
10
217.220917
20
75.406014
70
0
0
VERTEX
8
KEY_HOLES
10
216.046523
20
74.345206
70
0
0
VERTEX
8
KEY_HOLES
10
215.214072
20
72.960667
70
0
0
VERTEX
8
KEY_HOLES
10
214.823687
20
71.393018
70
0
0
VERTEX
8
KEY_HOLES
10
214.904004
20
69.812491
70
0
0
VERTEX
8
KEY_HOLES
10
215.434642
20
68.321539
70
0
0
VERTEX
8
KEY_HOLES
10
216.395224
20
67.022614
70
0
0
VERTEX
8
KEY_HOLES
10
217.694149
20
66.062032
70
0
0
VERTEX
8
KEY_HOLES
10
219.185101
20
65.531394
70
0
0
VERTEX
8
KEY_HOLES
10
220.765628
20
65.451077
70
0
0
VERTEX
8
KEY_HOLES
10
222.333277
20
65.841462
70
0
0
VERTEX
8
KEY_HOLES
10
223.717816
20
66.673913
70
0
0
VERTEX
8
KEY_HOLES
10
224.778624
20
67.848307
70
0
0
VERTEX
8
KEY_HOLES
10
225.457669
20
69.277788
70
0
0
VERTEX
8
KEY_HOLES
10
225.696913
20
70.875500
70
0
0
VERTEX
8
KEY_HOLES
10
225.591249
20
71.943473
70
0
0
VERTEX
8
KEY_HOLES
10
225.282148
20
72.960667
70
0
0
VERTEX
8
KEY_HOLES
10
224.781450
20
73.898499
70
0
0
VERTEX
8
KEY_HOLES
10
224.100996
20
74.728386
70
0
0
VERTEX
8
KEY_HOLES
10
223.271109
20
75.408840
70
0
0
VERTEX
8
KEY_HOLES
10
222.333277
20
75.909538
70
0
0
VERTEX
8
KEY_HOLES
10
221.316083
20
76.218639
70
0
0
VERTEX
8
KEY_HOLES
10
220.248110
20
76.324303
70
0
0
VERTEX
8
KEY_HOLES
10
220.248110
20
76.324303
70
0
0
SEQEND
8
KEY_HOLES
0
POLYLINE
8
KEY_HOLES
62
10
70
0
10
0.000000
20
0.000000
66
1
0
VERTEX
8
KEY_HOLES
10
201.196730
20
76.230743
70
0
0
VERTEX
8
KEY_HOLES
10
199.599018
20
75.991499
70
0
0
VERTEX
8
KEY_HOLES
10
198.169537
20
75.312454
70
0
0
VERTEX
8
KEY_HOLES
10
196.995143
20
74.251646
70
0
0
VERTEX
8
KEY_HOLES
10
196.162692
20
72.867107
70
0
0
VERTEX
8
KEY_HOLES
10
195.772307
20
71.299458
70
0
0
VERTEX
8
KEY_HOLES
10
195.852624
20
69.718931
70
0
0
VERTEX
8
KEY_HOLES
10
196.383262
20
68.227979
70
0
0
VERTEX
8
KEY_HOLES
10
197.343844
20
66.929054
70
0
0
VERTEX
8
KEY_HOLES
10
198.642769
20
65.968472
70
0
0
VERTEX
8
KEY_HOLES
10
200.133721
20
65.437834
70
0
0
VERTEX
8
KEY_HOLES
10
201.714248
20
65.357517
70
0
0
VERTEX
8
KEY_HOLES
10
203.281897
20
65.747902
70
0
0
VERTEX
8
KEY_HOLES
10
204.666436
20
66.580353
70
0
0
VERTEX
8
KEY_HOLES
10
205.727244
20
67.754747
70
0
0
VERTEX
8
KEY_HOLES
10
206.406289
20
69.184228
70
0
0
VERTEX
8
KEY_HOLES
10
206.645533
20
70.781940
70
0
0
VERTEX
8
KEY_HOLES
10
206.539869
20
71.849913
70
0
0
VERTEX
8
KEY_HOLES
10
206.230768
20
72.867107
70
0
0
VERTEX
8
KEY_HOLES
10
205.730070
20
73.804939
70
0
0
VERTEX
8
KEY_HOLES
10
205.049616
20
74.634826
70
0
0
VERTEX
8
KEY_HOLES
10
204.219729
20
75.315280
70
0
0
VERTEX
8
KEY_HOLES
10
203.281897
20
75.815978
70
0
0
VERTEX
8
KEY_HOLES
10
202.264703
20
76.125079
70
0
0
VERTEX
8
KEY_HOLES
10
201.196730
20
76.230743
70
0
0
VERTEX
8
KEY_HOLES
10
201.196730
20
76.230743
70
0
0
SEQEND
8
KEY_HOLES
0
POLYLINE
8
KEY_HOLES
62
10
70
0
10
0.000000
20
0.000000
66
1
0
VERTEX
8
KEY_HOLES
10
182.133440
20
76.388493
70
0
0
VERTEX
8
KEY_HOLES
10
180.535728
20
76.149249
70
0
0
VERTEX
8
KEY_HOLES
10
179.106247
20
75.470204
70
0
0
VERTEX
8
KEY_HOLES
10
177.931853
20
74.409396
70
0
0
VERTEX
8
KEY_HOLES
10
177.099402
20
73.024857
70
0
0
VERTEX
8
KEY_HOLES
10
176.709017
20
71.457208
70
0
0
VERTEX
8
KEY_HOLES
10
176.789334
20
69.876681
70
0
0
VERTEX
8
KEY_HOLES
10
177.319972
20
68.385729
70
0
0
VERTEX
8
KEY_HOLES
10
178.280554
20
67.086804
70
0
0
VERTEX
8
KEY_HOLES
10
179.579479
20
66.126222
70
0
0
VERTEX
8
KEY_HOLES
10
181.070431
20
65.595584
70
0
0
VERTEX
8
KEY_HOLES
10
182.650958
20
65.515267
70
0
0
VERTEX
8
KEY_HOLES
10
184.218607
20
65.905652
70
0
0
VERTEX
8
KEY_HOLES
10
185.603146
20
66.738103
70
0
0
VERTEX
8
KEY_HOLES
10
186.663954
20
67.912497
70
0
0
VERTEX
8
KEY_HOLES
10
187.342999
20
69.341978
70
0
0
VERTEX
8
KEY_HOLES
10
187.582243
20
70.939690
70
0
0
VERTEX
8
KEY_HOLES
10
187.476579
20
72.007663
70
0
0
VERTEX
8
KEY_HOLES
10
187.167478
20
73.024857
70
0
0
VERTEX
8
KEY_HOLES
10
186.666780
20
73.962689
70
0
0
VERTEX
8
KEY_HOLES
10
185.986326
20
74.792576
70
0
0
VERTEX
8
KEY_HOLES
10
185.156439
20
75.473030
70
0
0
VERTEX
8
KEY_HOLES
10
184.218607
20
75.973728
70
0
0
VERTEX
8
KEY_HOLES
10
183.201413
20
76.282829
70
0
0
VERTEX
8
KEY_HOLES
10
182.133440
20
76.388493
70
0
0
VERTEX
8
KEY_HOLES
10
182.133440
20
76.388493
70
0
0
SEQEND
8
KEY_HOLES
0
POLYLINE
8
KEY_HOLES
62
10
70
0
10
0.000000
20
0.000000
66
1
0
VERTEX
8
KEY_HOLES
10
163.287950
20
76.216083
70
0
0
VERTEX
8
KEY_HOLES
10
162.189826
20
76.105383
70
0
0
VERTEX
8
KEY_HOLES
10
161.167030
20
75.787889
70
0
0
VERTEX
8
KEY_HOLES
10
160.241472
20
75.285513
70
0
0
VERTEX
8
KEY_HOLES
10
159.435064
20
74.620166
70
0
0
VERTEX
8
KEY_HOLES
10
158.769717
20
73.813758
70
0
0
VERTEX
8
KEY_HOLES
10
158.267341
20
72.888200
70
0
0
VERTEX
8
KEY_HOLES
10
157.949847
20
71.865404
70
0
0
VERTEX
8
KEY_HOLES
10
157.839147
20
70.767280
70
0
0
VERTEX
8
KEY_HOLES
10
157.949847
20
69.669156
70
0
0
VERTEX
8
KEY_HOLES
10
158.267341
20
68.646360
70
0
0
VERTEX
8
KEY_HOLES
10
158.769717
20
67.720802
70
0
0
VERTEX
8
KEY_HOLES
10
159.435064
20
66.914394
70
0
0
VERTEX
8
KEY_HOLES
10
160.241472
20
66.249047
70
0
0
VERTEX
8
KEY_HOLES
10
161.167030
20
65.746671
70
0
0
VERTEX
8
KEY_HOLES
10
162.189826
20
65.429177
70
0
0
VERTEX
8
KEY_HOLES
10
163.287950
20
65.318477
70
0
0
VERTEX
8
KEY_HOLES
10
164.386074
20
65.429177
70
0
0
VERTEX
8
KEY_HOLES
10
165.408870
20
65.746671
70
0
0
VERTEX
8
KEY_HOLES
10
166.334428
20
66.249047
70
0
0
VERTEX
8
KEY_HOLES
10
167.140836
20
66.914394
70
0
0
VERTEX
8
KEY_HOLES
10
167.806183
20
67.720802
70
0
0
VERTEX
8
KEY_HOLES
10
168.308559
20
68.646360
70
0
0
VERTEX
8
KEY_HOLES
10
168.626053
20
69.669156
70
0
0
VERTEX
8
KEY_HOLES
10
168.736753
20
70.767280
70
0
0
VERTEX
8
KEY_HOLES
10
168.631089
20
71.835253
70
0
0
VERTEX
8
KEY_HOLES
10
168.321988
20
72.852447
70
0
0
VERTEX
8
KEY_HOLES
10
167.821290
20
73.790279
70
0
0
VERTEX
8
KEY_HOLES
10
167.140836
20
74.620166
70
0
0
VERTEX
8
KEY_HOLES
10
166.310949
20
75.300620
70
0
0
VERTEX
8
KEY_HOLES
10
165.373117
20
75.801318
70
0
0
VERTEX
8
KEY_HOLES
10
164.355923
20
76.110419
70
0
0
VERTEX
8
KEY_HOLES
10
163.287950
20
76.216083
70
0
0
VERTEX
8
KEY_HOLES
10
163.287950
20
76.216083
70
0
0
SEQEND
8
KEY_HOLES
0
POLYLINE
8
KEY_HOLES
62
10
70
0
10
0.000000
20
0.000000
66
1
0
VERTEX
8
KEY_HOLES
10
144.060030
20
76.200033
70
0
0
VERTEX
8
KEY_HOLES
10
142.462318
20
75.960789
70
0
0
VERTEX
8
KEY_HOLES
10
141.032837
20
75.281744
70
0
0
VERTEX
8
KEY_HOLES
10
139.858443
20
74.220936
70
0
0
VERTEX
8
KEY_HOLES
10
139.025992
20
72.836397
70
0
0
VERTEX
8
KEY_HOLES
10
138.635607
20
71.268748
70
0
0
VERTEX
8
KEY_HOLES
10
138.715924
20
69.688221
70
0
0
VERTEX
8
KEY_HOLES
10
139.246562
20
68.197269
70
0
0
VERTEX
8
KEY_HOLES
10
140.207144
20
66.898344
70
0
0
VERTEX
8
KEY_HOLES
10
141.506069
20
65.937762
70
0
0
VERTEX
8
KEY_HOLES
10
142.997021
20
65.407124
70
0
0
VERTEX
8
KEY_HOLES
10
144.577548
20
65.326807
70
0
0
VERTEX
8
KEY_HOLES
10
146.145197
20
65.717192
70
0
0
VERTEX
8
KEY_HOLES
10
147.529736
20
66.549643
70
0
0
VERTEX
8
KEY_HOLES
10
148.590544
20
67.724037
70
0
0
VERTEX
8
KEY_HOLES
10
149.269589
20
69.153518
70
0
0
VERTEX
8
KEY_HOLES
10
149.508833
20
70.751230
70
0
0
VERTEX
8
KEY_HOLES
10
149.403169
20
71.819203
70
0
0
VERTEX
8
KEY_HOLES
10
149.094068
20
72.836397
70
0
0
VERTEX
8
KEY_HOLES
10
148.593370
20
73.774229
70
0
0
VERTEX
8
KEY_HOLES
10
147.912916
20
74.604116
70
0
0
VERTEX
8
KEY_HOLES
10
147.083029
20
75.284570
70
0
0
VERTEX
8
KEY_HOLES
10
146.145197
20
75.785268
70
0
0
VERTEX
8
KEY_HOLES
10
145.128003
20
76.094369
70
0
0
VERTEX
8
KEY_HOLES
10
144.060030
20
76.200033
70
0
0
VERTEX
8
KEY_HOLES
10
144.060030
20
76.200033
70
0
0
SEQEND
8
KEY_HOLES
0
POLYLINE
8
KEY_HOLES
62
10
70
0
10
0.000000
20
0.000000
66
1
0
VERTEX
8
KEY_HOLES
10
125.217290
20
76.200033
70
0
0
VERTEX
8
KEY_HOLES
10
123.619578
20
75.960789
70
0
0
VERTEX
8
KEY_HOLES
10
122.190097
20
75.281744
70
0
0
VERTEX
8
KEY_HOLES
10
121.015703
20
74.220936
70
0
0
VERTEX
8
KEY_HOLES
10
120.183252
20
72.836397
70
0
0
VERTEX
8
KEY_HOLES
10
119.792867
20
71.268748
70
0
0
VERTEX
8
KEY_HOLES
10
119.873184
20
69.688221
70
0
0
VERTEX
8
KEY_HOLES
10
120.403822
20
68.197269
70
0
0
VERTEX
8
KEY_HOLES
10
121.364404
20
66.898344
70
0
0
VERTEX
8
KEY_HOLES
10
122.663329
20
65.937762
70
0
0
VERTEX
8
KEY_HOLES
10
124.154281
20
65.407124
70
0
0
VERTEX
8
KEY_HOLES
10
125.734808
20
65.326807
70
0
0
VERTEX
8
KEY_HOLES
10
127.302457
20
65.717192
70
0
0
VERTEX
8
KEY_HOLES
10
128.686996
20
66.549643
70
0
0
VERTEX
8
KEY_HOLES
10
129.747804
20
67.724037
70
0
0
VERTEX
8
KEY_HOLES
10
130.426849
20
69.153518
70
0
0
VERTEX
8
KEY_HOLES
10
130.666093
20
70.751230
70
0
0
VERTEX
8
KEY_HOLES
10
130.560429
20
71.819203
70
0
0
VERTEX
8
KEY_HOLES
10
130.251328
20
72.836397
70
0
0
VERTEX
8
KEY_HOLES
10
129.750630
20
73.774229
70
0
0
VERTEX
8
KEY_HOLES
10
129.070176
20
74.604116
70
0
0
VERTEX
8
KEY_HOLES
10
128.240289
20
75.284570
70
0
0
VERTEX
8
KEY_HOLES
10
127.302457
20
75.785268
70
0
0
VERTEX
8
KEY_HOLES
10
126.285263
20
76.094369
70
0
0
VERTEX
8
KEY_HOLES
10
125.217290
20
76.200033
70
0
0
VERTEX
8
KEY_HOLES
10
125.217290
20
76.200033
70
0
0
SEQEND
8
KEY_HOLES
0
POLYLINE
8
KEY_HOLES
62
10
70
0
10
0.000000
20
0.000000
66
1
0
VERTEX
8
KEY_HOLES
10
106.104480
20
76.325673
70
0
0
VERTEX
8
KEY_HOLES
10
104.506768
20
76.086429
70
0
0
VERTEX
8
KEY_HOLES
10
103.077287
20
75.407384
70
0
0
VERTEX
8
KEY_HOLES
10
101.902893
20
74.346576
70
0
0
VERTEX
8
KEY_HOLES
10
101.070442
20
72.962037
70
0
0
VERTEX
8
KEY_HOLES
10
100.680057
20
71.394388
70
0
0
VERTEX
8
KEY_HOLES
10
100.760374
20
69.813861
70
0
0
VERTEX
8
KEY_HOLES
10
101.291012
20
68.322909
70
0
0
VERTEX
8
KEY_HOLES
10
102.251594
20
67.023984
70
0
0
VERTEX
8
KEY_HOLES
10
103.550519
20
66.063402
70
0
0
VERTEX
8
KEY_HOLES
10
105.041471
20
65.532764
70
0
0
VERTEX
8
KEY_HOLES
10
106.621998
20
65.452447
70
0
0
VERTEX
8
KEY_HOLES
10
108.189647
20
65.842832
70
0
0
VERTEX
8
KEY_HOLES
10
109.574186
20
66.675283
70
0
0
VERTEX
8
KEY_HOLES
10
110.634994
20
67.849677
70
0
0
VERTEX
8
KEY_HOLES
10
111.314039
20
69.279158
70
0
0
VERTEX
8
KEY_HOLES
10
111.553283
20
70.876870
70
0
0
VERTEX
8
KEY_HOLES
10
111.447619
20
71.944843
70
0
0
VERTEX
8
KEY_HOLES
10
111.138518
20
72.962037
70
0
0
VERTEX
8
KEY_HOLES
10
110.637820
20
73.899869
70
0
0
VERTEX
8
KEY_HOLES
10
109.957366
20
74.729756
70
0
0
VERTEX
8
KEY_HOLES
10
109.127479
20
75.410210
70
0
0
VERTEX
8
KEY_HOLES
10
108.189647
20
75.910908
70
0
0
VERTEX
8
KEY_HOLES
10
107.172453
20
76.220009
70
0
0
VERTEX
8
KEY_HOLES
10
106.104480
20
76.325673
70
0
0
VERTEX
8
KEY_HOLES
10
106.104480
20
76.325673
70
0
0
SEQEND
8
KEY_HOLES
0
POLYLINE
8
KEY_HOLES
62
10
70
0
10
0.000000
20
0.000000
66
1
0
VERTEX
8
KEY_HOLES
10
87.054474
20
76.246803
70
0
0
VERTEX
8
KEY_HOLES
10
85.956350
20
76.136103
70
0
0
VERTEX
8
KEY_HOLES
10
84.933554
20
75.818609
70
0
0
VERTEX
8
KEY_HOLES
10
84.007996
20
75.316233
70
0
0
VERTEX
8
KEY_HOLES
10
83.201588
20
74.650886
70
0
0
VERTEX
8
KEY_HOLES
10
82.536241
20
73.844478
70
0
0
VERTEX
8
KEY_HOLES
10
82.033865
20
72.918920
70
0
0
VERTEX
8
KEY_HOLES
10
81.716371
20
71.896124
70
0
0
VERTEX
8
KEY_HOLES
10
81.605671
20
70.798000
70
0
0
VERTEX
8
KEY_HOLES
10
81.716371
20
69.699876
70
0
0
VERTEX
8
KEY_HOLES
10
82.033865
20
68.677080
70
0
0
VERTEX
8
KEY_HOLES
10
82.536241
20
67.751522
70
0
0
VERTEX
8
KEY_HOLES
10
83.201588
20
66.945114
70
0
0
VERTEX
8
KEY_HOLES
10
84.007996
20
66.279767
70
0
0
VERTEX
8
KEY_HOLES
10
84.933554
20
65.777391
70
0
0
VERTEX
8
KEY_HOLES
10
85.956350
20
65.459897
70
0
0
VERTEX
8
KEY_HOLES
10
87.054474
20
65.349197
70
0
0
VERTEX
8
KEY_HOLES
10
88.152598
20
65.459897
70
0
0
VERTEX
8
KEY_HOLES
10
89.175394
20
65.777391
70
0
0
VERTEX
8
KEY_HOLES
10
90.100952
20
66.279767
70
0
0
VERTEX
8
KEY_HOLES
10
90.907360
20
66.945114
70
0
0
VERTEX
8
KEY_HOLES
10
91.572707
20
67.751522
70
0
0
VERTEX
8
KEY_HOLES
10
92.075083
20
68.677080
70
0
0
VERTEX
8
KEY_HOLES
10
92.392577
20
69.699876
70
0
0
VERTEX
8
KEY_HOLES
10
92.503277
20
70.798000
70
0
0
VERTEX
8
KEY_HOLES
10
92.397613
20
71.865973
70
0
0
VERTEX
8
KEY_HOLES
10
92.088512
20
72.883167
70
0
0
VERTEX
8
KEY_HOLES
10
91.587814
20
73.820999
70
0
0
VERTEX
8
KEY_HOLES
10
90.907360
20
74.650886
70
0
0
VERTEX
8
KEY_HOLES
10
90.077473
20
75.331340
70
0
0
VERTEX
8
KEY_HOLES
10
89.139641
20
75.832038
70
0
0
VERTEX
8
KEY_HOLES
10
88.122447
20
76.141139
70
0
0
VERTEX
8
KEY_HOLES
10
87.054474
20
76.246803
70
0
0
VERTEX
8
KEY_HOLES
10
87.054474
20
76.246803
70
0
0
SEQEND
8
KEY_HOLES
0
POLYLINE
8
KEY_HOLES
62
10
70
0
10
0.000000
20
0.000000
66
1
0
VERTEX
8
KEY_HOLES
10
68.033821
20
76.138583
70
0
0
VERTEX
8
KEY_HOLES
10
66.935697
20
76.027883
70
0
0
VERTEX
8
KEY_HOLES
10
65.912901
20
75.710389
70
0
0
VERTEX
8
KEY_HOLES
10
64.987343
20
75.208013
70
0
0
VERTEX
8
KEY_HOLES
10
64.180935
20
74.542666
70
0
0
VERTEX
8
KEY_HOLES
10
63.515588
20
73.736258
70
0
0
VERTEX
8
KEY_HOLES
10
63.013212
20
72.810700
70
0
0
VERTEX
8
KEY_HOLES
10
62.695718
20
71.787904
70
0
0
VERTEX
8
KEY_HOLES
10
62.585018
20
70.689780
70
0
0
VERTEX
8
KEY_HOLES
10
62.695718
20
69.591656
70
0
0
VERTEX
8
KEY_HOLES
10
63.013212
20
68.568860
70
0
0
VERTEX
8
KEY_HOLES
10
63.515588
20
67.643302
70
0
0
VERTEX
8
KEY_HOLES
10
64.180935
20
66.836894
70
0
0
VERTEX
8
KEY_HOLES
10
64.987343
20
66.171547
70
0
0
VERTEX
8
KEY_HOLES
10
65.912901
20
65.669171
70
0
0
VERTEX
8
KEY_HOLES
10
66.935697
20
65.351677
70
0
0
VERTEX
8
KEY_HOLES
10
68.033821
20
65.240977
70
0
0
VERTEX
8
KEY_HOLES
10
69.131945
20
65.351677
70
0
0
VERTEX
8
KEY_HOLES
10
70.154741
20
65.669171
70
0
0
VERTEX
8
KEY_HOLES
10
71.080299
20
66.171547
70
0
0
VERTEX
8
KEY_HOLES
10
71.886707
20
66.836894
70
0
0
VERTEX
8
KEY_HOLES
10
72.552054
20
67.643302
70
0
0
VERTEX
8
KEY_HOLES
10
73.054430
20
68.568860
70
0
0
VERTEX
8
KEY_HOLES
10
73.371924
20
69.591656
70
0
0
VERTEX
8
KEY_HOLES
10
73.482624
20
70.689780
70
0
0
VERTEX
8
KEY_HOLES
10
73.376960
20
71.757753
70
0
0
VERTEX
8
KEY_HOLES
10
73.067859
20
72.774947
70
0
0
VERTEX
8
KEY_HOLES
10
72.567161
20
73.712779
70
0
0
VERTEX
8
KEY_HOLES
10
71.886707
20
74.542666
70
0
0
VERTEX
8
KEY_HOLES
10
71.056820
20
75.223120
70
0
0
VERTEX
8
KEY_HOLES
10
70.118988
20
75.723818
70
0
0
VERTEX
8
KEY_HOLES
10
69.101794
20
76.032919
70
0
0
VERTEX
8
KEY_HOLES
10
68.033821
20
76.138583
70
0
0
VERTEX
8
KEY_HOLES
10
68.033821
20
76.138583
70
0
0
SEQEND
8
KEY_HOLES
0
POLYLINE
8
KEY_HOLES
62
10
70
0
10
0.000000
20
0.000000
66
1
0
VERTEX
8
KEY_HOLES
10
39.476246
20
76.183983
70
0
0
VERTEX
8
KEY_HOLES
10
38.378122
20
76.073283
70
0
0
VERTEX
8
KEY_HOLES
10
37.355326
20
75.755789
70
0
0
VERTEX
8
KEY_HOLES
10
36.429768
20
75.253413
70
0
0
VERTEX
8
KEY_HOLES
10
35.623360
20
74.588066
70
0
0
VERTEX
8
KEY_HOLES
10
34.958013
20
73.781658
70
0
0
VERTEX
8
KEY_HOLES
10
34.455637
20
72.856100
70
0
0
VERTEX
8
KEY_HOLES
10
34.138143
20
71.833304
70
0
0
VERTEX
8
KEY_HOLES
10
34.027443
20
70.735180
70
0
0
VERTEX
8
KEY_HOLES
10
34.138143
20
69.637056
70
0
0
VERTEX
8
KEY_HOLES
10
34.455637
20
68.614260
70
0
0
VERTEX
8
KEY_HOLES
10
34.958013
20
67.688702
70
0
0
VERTEX
8
KEY_HOLES
10
35.623360
20
66.882294
70
0
0
VERTEX
8
KEY_HOLES
10
36.429768
20
66.216947
70
0
0
VERTEX
8
KEY_HOLES
10
37.355326
20
65.714571
70
0
0
VERTEX
8
KEY_HOLES
10
38.378122
20
65.397077
70
0
0
VERTEX
8
KEY_HOLES
10
39.476246
20
65.286377
70
0
0
VERTEX
8
KEY_HOLES
10
40.574370
20
65.397077
70
0
0
VERTEX
8
KEY_HOLES
10
41.597166
20
65.714571
70
0
0
VERTEX
8
KEY_HOLES
10
42.522724
20
66.216947
70
0
0
VERTEX
8
KEY_HOLES
10
43.329132
20
66.882294
70
0
0
VERTEX
8
KEY_HOLES
10
43.994479
20
67.688702
70
0
0
VERTEX
8
KEY_HOLES
10
44.496855
20
68.614260
70
0
0
VERTEX
8
KEY_HOLES
10
44.814349
20
69.637056
70
0
0
VERTEX
8
KEY_HOLES
10
44.925049
20
70.735180
70
0
0
VERTEX
8
KEY_HOLES
10
44.819385
20
71.803153
70
0
0
VERTEX
8
KEY_HOLES
10
44.510284
20
72.820347
70
0
0
VERTEX
8
KEY_HOLES
10
44.009586
20
73.758179
70
0
0
VERTEX
8
KEY_HOLES
10
43.329132
20
74.588066
70
0
0
VERTEX
8
KEY_HOLES
10
42.499245
20
75.268520
70
0
0
VERTEX
8
KEY_HOLES
10
41.561413
20
75.769218
70
0
0
VERTEX
8
KEY_HOLES
10
40.544219
20
76.078319
70
0
0
VERTEX
8
KEY_HOLES
10
39.476246
20
76.183983
70
0
0
VERTEX
8
KEY_HOLES
10
39.476246
20
76.183983
70
0
0
SEQEND
8
KEY_HOLES
0
POLYLINE
8
KEY_HOLES
62
10
70
0
10
0.000000
20
0.000000
66
1
0
VERTEX
8
KEY_HOLES
10
39.303833
20
97.273153
70
0
0
VERTEX
8
KEY_HOLES
10
38.205709
20
97.162453
70
0
0
VERTEX
8
KEY_HOLES
10
37.182913
20
96.844959
70
0
0
VERTEX
8
KEY_HOLES
10
36.257355
20
96.342583
70
0
0
VERTEX
8
KEY_HOLES
10
35.450947
20
95.677236
70
0
0
VERTEX
8
KEY_HOLES
10
34.785600
20
94.870828
70
0
0
VERTEX
8
KEY_HOLES
10
34.283224
20
93.945270
70
0
0
VERTEX
8
KEY_HOLES
10
33.965730
20
92.922474
70
0
0
VERTEX
8
KEY_HOLES
10
33.855030
20
91.824350
70
0
0
VERTEX
8
KEY_HOLES
10
33.965730
20
90.726226
70
0
0
VERTEX
8
KEY_HOLES
10
34.283224
20
89.703430
70
0
0
VERTEX
8
KEY_HOLES
10
34.785600
20
88.777872
70
0
0
VERTEX
8
KEY_HOLES
10
35.450947
20
87.971464
70
0
0
VERTEX
8
KEY_HOLES
10
36.257355
20
87.306117
70
0
0
VERTEX
8
KEY_HOLES
10
37.182913
20
86.803741
70
0
0
VERTEX
8
KEY_HOLES
10
38.205709
20
86.486247
70
0
0
VERTEX
8
KEY_HOLES
10
39.303833
20
86.375547
70
0
0
VERTEX
8
KEY_HOLES
10
40.401957
20
86.486247
70
0
0
VERTEX
8
KEY_HOLES
10
41.424753
20
86.803741
70
0
0
VERTEX
8
KEY_HOLES
10
42.350311
20
87.306117
70
0
0
VERTEX
8
KEY_HOLES
10
43.156719
20
87.971464
70
0
0
VERTEX
8
KEY_HOLES
10
43.822066
20
88.777872
70
0
0
VERTEX
8
KEY_HOLES
10
44.324442
20
89.703430
70
0
0
VERTEX
8
KEY_HOLES
10
44.641936
20
90.726226
70
0
0
VERTEX
8
KEY_HOLES
10
44.752636
20
91.824350
70
0
0
VERTEX
8
KEY_HOLES
10
44.646972
20
92.892323
70
0
0
VERTEX
8
KEY_HOLES
10
44.337871
20
93.909517
70
0
0
VERTEX
8
KEY_HOLES
10
43.837173
20
94.847349
70
0
0
VERTEX
8
KEY_HOLES
10
43.156719
20
95.677236
70
0
0
VERTEX
8
KEY_HOLES
10
42.326832
20
96.357690
70
0
0
VERTEX
8
KEY_HOLES
10
41.389000
20
96.858388
70
0
0
VERTEX
8
KEY_HOLES
10
40.371806
20
97.167489
70
0
0
VERTEX
8
KEY_HOLES
10
39.303833
20
97.273153
70
0
0
VERTEX
8
KEY_HOLES
10
39.303833
20
97.273153
70
0
0
SEQEND
8
KEY_HOLES
0
POLYLINE
8
KEY_HOLES
62
10
70
0
10
0.000000
20
0.000000
66
1
0
VERTEX
8
KEY_HOLES
10
62.990692
20
97.226383
70
0
0
VERTEX
8
KEY_HOLES
10
61.392980
20
96.987139
70
0
0
VERTEX
8
KEY_HOLES
10
59.963499
20
96.308094
70
0
0
VERTEX
8
KEY_HOLES
10
58.789105
20
95.247286
70
0
0
VERTEX
8
KEY_HOLES
10
57.956654
20
93.862747
70
0
0
VERTEX
8
KEY_HOLES
10
57.566269
20
92.295098
70
0
0
VERTEX
8
KEY_HOLES
10
57.646586
20
90.714571
70
0
0
VERTEX
8
KEY_HOLES
10
58.177224
20
89.223619
70
0
0
VERTEX
8
KEY_HOLES
10
59.137806
20
87.924694
70
0
0
VERTEX
8
KEY_HOLES
10
60.436731
20
86.964112
70
0
0
VERTEX
8
KEY_HOLES
10
61.927683
20
86.433474
70
0
0
VERTEX
8
KEY_HOLES
10
63.508210
20
86.353157
70
0
0
VERTEX
8
KEY_HOLES
10
65.075859
20
86.743542
70
0
0
VERTEX
8
KEY_HOLES
10
66.460398
20
87.575993
70
0
0
VERTEX
8
KEY_HOLES
10
67.521206
20
88.750387
70
0
0
VERTEX
8
KEY_HOLES
10
68.200251
20
90.179868
70
0
0
VERTEX
8
KEY_HOLES
10
68.439495
20
91.777580
70
0
0
VERTEX
8
KEY_HOLES
10
68.333831
20
92.845553
70
0
0
VERTEX
8
KEY_HOLES
10
68.024730
20
93.862747
70
0
0
VERTEX
8
KEY_HOLES
10
67.524032
20
94.800579
70
0
0
VERTEX
8
KEY_HOLES
10
66.843578
20
95.630466
70
0
0
VERTEX
8
KEY_HOLES
10
66.013691
20
96.310920
70
0
0
VERTEX
8
KEY_HOLES
10
65.075859
20
96.811618
70
0
0
VERTEX
8
KEY_HOLES
10
64.058665
20
97.120719
70
0
0
VERTEX
8
KEY_HOLES
10
62.990692
20
97.226383
70
0
0
VERTEX
8
KEY_HOLES
10
62.990692
20
97.226383
70
0
0
SEQEND
8
KEY_HOLES
0
POLYLINE
8
KEY_HOLES
62
10
70
0
10
0.000000
20
0.000000
66
1
0
VERTEX
8
KEY_HOLES
10
81.932472
20
97.258483
70
0
0
VERTEX
8
KEY_HOLES
10
80.334760
20
97.019239
70
0
0
VERTEX
8
KEY_HOLES
10
78.905279
20
96.340194
70
0
0
VERTEX
8
KEY_HOLES
10
77.730885
20
95.279386
70
0
0
VERTEX
8
KEY_HOLES
10
76.898434
20
93.894847
70
0
0
VERTEX
8
KEY_HOLES
10
76.508049
20
92.327198
70
0
0
VERTEX
8
KEY_HOLES
10
76.588366
20
90.746671
70
0
0
VERTEX
8
KEY_HOLES
10
77.119004
20
89.255719
70
0
0
VERTEX
8
KEY_HOLES
10
78.079586
20
87.956794
70
0
0
VERTEX
8
KEY_HOLES
10
79.378511
20
86.996212
70
0
0
VERTEX
8
KEY_HOLES
10
80.869463
20
86.465574
70
0
0
VERTEX
8
KEY_HOLES
10
82.449990
20
86.385257
70
0
0
VERTEX
8
KEY_HOLES
10
84.017639
20
86.775642
70
0
0
VERTEX
8
KEY_HOLES
10
85.402178
20
87.608093
70
0
0
VERTEX
8
KEY_HOLES
10
86.462986
20
88.782487
70
0
0
VERTEX
8
KEY_HOLES
10
87.142031
20
90.211968
70
0
0
VERTEX
8
KEY_HOLES
10
87.381275
20
91.809680
70
0
0
VERTEX
8
KEY_HOLES
10
87.275611
20
92.877653
70
0
0
VERTEX
8
KEY_HOLES
10
86.966510
20
93.894847
70
0
0
VERTEX
8
KEY_HOLES
10
86.465812
20
94.832679
70
0
0
VERTEX
8
KEY_HOLES
10
85.785358
20
95.662566
70
0
0
VERTEX
8
KEY_HOLES
10
84.955471
20
96.343020
70
0
0
VERTEX
8
KEY_HOLES
10
84.017639
20
96.843718
70
0
0
VERTEX
8
KEY_HOLES
10
83.000445
20
97.152819
70
0
0
VERTEX
8
KEY_HOLES
10
81.932472
20
97.258483
70
0
0
VERTEX
8
KEY_HOLES
10
81.932472
20
97.258483
70
0
0
SEQEND
8
KEY_HOLES
0
POLYLINE
8
KEY_HOLES
62
10
70
0
10
0.000000
20
0.000000
66
1
0
VERTEX
8
KEY_HOLES
10
100.949010
20
97.242423
70
0
0
VERTEX
8
KEY_HOLES
10
99.351298
20
97.003179
70
0
0
VERTEX
8
KEY_HOLES
10
97.921817
20
96.324134
70
0
0
VERTEX
8
KEY_HOLES
10
96.747423
20
95.263326
70
0
0
VERTEX
8
KEY_HOLES
10
95.914972
20
93.878787
70
0
0
VERTEX
8
KEY_HOLES
10
95.524587
20
92.311138
70
0
0
VERTEX
8
KEY_HOLES
10
95.604904
20
90.730611
70
0
0
VERTEX
8
KEY_HOLES
10
96.135542
20
89.239659
70
0
0
VERTEX
8
KEY_HOLES
10
97.096124
20
87.940734
70
0
0
VERTEX
8
KEY_HOLES
10
98.395049
20
86.980152
70
0
0
VERTEX
8
KEY_HOLES
10
99.886001
20
86.449514
70
0
0
VERTEX
8
KEY_HOLES
10
101.466528
20
86.369197
70
0
0
VERTEX
8
KEY_HOLES
10
103.034177
20
86.759582
70
0
0
VERTEX
8
KEY_HOLES
10
104.418716
20
87.592033
70
0
0
VERTEX
8
KEY_HOLES
10
105.479524
20
88.766427
70
0
0
VERTEX
8
KEY_HOLES
10
106.158569
20
90.195908
70
0
0
VERTEX
8
KEY_HOLES
10
106.397813
20
91.793620
70
0
0
VERTEX
8
KEY_HOLES
10
106.292149
20
92.861593
70
0
0
VERTEX
8
KEY_HOLES
10
105.983048
20
93.878787
70
0
0
VERTEX
8
KEY_HOLES
10
105.482350
20
94.816619
70
0
0
VERTEX
8
KEY_HOLES
10
104.801896
20
95.646506
70
0
0
VERTEX
8
KEY_HOLES
10
103.972009
20
96.326960
70
0
0
VERTEX
8
KEY_HOLES
10
103.034177
20
96.827658
70
0
0
VERTEX
8
KEY_HOLES
10
102.016983
20
97.136759
70
0
0
VERTEX
8
KEY_HOLES
10
100.949010
20
97.242423
70
0
0
VERTEX
8
KEY_HOLES
10
100.949010
20
97.242423
70
0
0
SEQEND
8
KEY_HOLES
0
POLYLINE
8
KEY_HOLES
62
10
70
0
10
0.000000
20
0.000000
66
1
0
VERTEX
8
KEY_HOLES
10
120.032460
20
97.197043
70
0
0
VERTEX
8
KEY_HOLES
10
118.434748
20
96.957799
70
0
0
VERTEX
8
KEY_HOLES
10
117.005267
20
96.278754
70
0
0
VERTEX
8
KEY_HOLES
10
115.830873
20
95.217946
70
0
0
VERTEX
8
KEY_HOLES
10
114.998422
20
93.833407
70
0
0
VERTEX
8
KEY_HOLES
10
114.608037
20
92.265758
70
0
0
VERTEX
8
KEY_HOLES
10
114.688354
20
90.685231
70
0
0
VERTEX
8
KEY_HOLES
10
115.218992
20
89.194279
70
0
0
VERTEX
8
KEY_HOLES
10
116.179574
20
87.895354
70
0
0
VERTEX
8
KEY_HOLES
10
117.478499
20
86.934772
70
0
0
VERTEX
8
KEY_HOLES
10
118.969451
20
86.404134
70
0
0
VERTEX
8
KEY_HOLES
10
120.549978
20
86.323817
70
0
0
VERTEX
8
KEY_HOLES
10
122.117627
20
86.714202
70
0
0
VERTEX
8
KEY_HOLES
10
123.502166
20
87.546653
70
0
0
VERTEX
8
KEY_HOLES
10
124.562974
20
88.721047
70
0
0
VERTEX
8
KEY_HOLES
10
125.242019
20
90.150528
70
0
0
VERTEX
8
KEY_HOLES
10
125.481263
20
91.748240
70
0
0
VERTEX
8
KEY_HOLES
10
125.375599
20
92.816213
70
0
0
VERTEX
8
KEY_HOLES
10
125.066498
20
93.833407
70
0
0
VERTEX
8
KEY_HOLES
10
124.565800
20
94.771239
70
0
0
VERTEX
8
KEY_HOLES
10
123.885346
20
95.601126
70
0
0
VERTEX
8
KEY_HOLES
10
123.055459
20
96.281580
70
0
0
VERTEX
8
KEY_HOLES
10
122.117627
20
96.782278
70
0
0
VERTEX
8
KEY_HOLES
10
121.100433
20
97.091379
70
0
0
VERTEX
8
KEY_HOLES
10
120.032460
20
97.197043
70
0
0
VERTEX
8
KEY_HOLES
10
120.032460
20
97.197043
70
0
0
SEQEND
8
KEY_HOLES
0
POLYLINE
8
KEY_HOLES
62
10
70
0
10
0.000000
20
0.000000
66
1
0
VERTEX
8
KEY_HOLES
10
138.975630
20
97.353393
70
0
0
VERTEX
8
KEY_HOLES
10
137.377918
20
97.114149
70
0
0
VERTEX
8
KEY_HOLES
10
135.948437
20
96.435104
70
0
0
VERTEX
8
KEY_HOLES
10
134.774043
20
95.374296
70
0
0
VERTEX
8
KEY_HOLES
10
133.941592
20
93.989757
70
0
0
VERTEX
8
KEY_HOLES
10
133.551207
20
92.422108
70
0
0
VERTEX
8
KEY_HOLES
10
133.631524
20
90.841581
70
0
0
VERTEX
8
KEY_HOLES
10
134.162162
20
89.350629
70
0
0
VERTEX
8
KEY_HOLES
10
135.122744
20
88.051704
70
0
0
VERTEX
8
KEY_HOLES
10
136.421669
20
87.091122
70
0
0
VERTEX
8
KEY_HOLES
10
137.912621
20
86.560484
70
0
0
VERTEX
8
KEY_HOLES
10
139.493148
20
86.480167
70
0
0
VERTEX
8
KEY_HOLES
10
141.060797
20
86.870552
70
0
0
VERTEX
8
KEY_HOLES
10
142.445336
20
87.703003
70
0
0
VERTEX
8
KEY_HOLES
10
143.506144
20
88.877397
70
0
0
VERTEX
8
KEY_HOLES
10
144.185189
20
90.306878
70
0
0
VERTEX
8
KEY_HOLES
10
144.424433
20
91.904590
70
0
0
VERTEX
8
KEY_HOLES
10
144.318769
20
92.972563
70
0
0
VERTEX
8
KEY_HOLES
10
144.009668
20
93.989757
70
0
0
VERTEX
8
KEY_HOLES
10
143.508970
20
94.927589
70
0
0
VERTEX
8
KEY_HOLES
10
142.828516
20
95.757476
70
0
0
VERTEX
8
KEY_HOLES
10
141.998629
20
96.437930
70
0
0
VERTEX
8
KEY_HOLES
10
141.060797
20
96.938628
70
0
0
VERTEX
8
KEY_HOLES
10
140.043603
20
97.247729
70
0
0
VERTEX
8
KEY_HOLES
10
138.975630
20
97.353393
70
0
0
VERTEX
8
KEY_HOLES
10
138.975630
20
97.353393
70
0
0
SEQEND
8
KEY_HOLES
0
POLYLINE
8
KEY_HOLES
62
10
70
0
10
0.000000
20
0.000000
66
1
0
VERTEX
8
KEY_HOLES
10
158.025630
20
97.150253
70
0
0
VERTEX
8
KEY_HOLES
10
156.427918
20
96.911009
70
0
0
VERTEX
8
KEY_HOLES
10
154.998437
20
96.231964
70
0
0
VERTEX
8
KEY_HOLES
10
153.824043
20
95.171156
70
0
0
VERTEX
8
KEY_HOLES
10
152.991592
20
93.786617
70
0
0
VERTEX
8
KEY_HOLES
10
152.601207
20
92.218968
70
0
0
VERTEX
8
KEY_HOLES
10
152.681524
20
90.638441
70
0
0
VERTEX
8
KEY_HOLES
10
153.212162
20
89.147489
70
0
0
VERTEX
8
KEY_HOLES
10
154.172744
20
87.848564
70
0
0
VERTEX
8
KEY_HOLES
10
155.471669
20
86.887982
70
0
0
VERTEX
8
KEY_HOLES
10
156.962621
20
86.357344
70
0
0
VERTEX
8
KEY_HOLES
10
158.543148
20
86.277027
70
0
0
VERTEX
8
KEY_HOLES
10
160.110797
20
86.667412
70
0
0
VERTEX
8
KEY_HOLES
10
161.495336
20
87.499863
70
0
0
VERTEX
8
KEY_HOLES
10
162.556144
20
88.674257
70
0
0
VERTEX
8
KEY_HOLES
10
163.235189
20
90.103738
70
0
0
VERTEX
8
KEY_HOLES
10
163.474433
20
91.701450
70
0
0
VERTEX
8
KEY_HOLES
10
163.368769
20
92.769423
70
0
0
VERTEX
8
KEY_HOLES
10
163.059668
20
93.786617
70
0
0
VERTEX
8
KEY_HOLES
10
162.558970
20
94.724449
70
0
0
VERTEX
8
KEY_HOLES
10
161.878516
20
95.554336
70
0
0
VERTEX
8
KEY_HOLES
10
161.048629
20
96.234790
70
0
0
VERTEX
8
KEY_HOLES
10
160.110797
20
96.735488
70
0
0
VERTEX
8
KEY_HOLES
10
159.093603
20
97.044589
70
0
0
VERTEX
8
KEY_HOLES
10
158.025630
20
97.150253
70
0
0
VERTEX
8
KEY_HOLES
10
158.025630
20
97.150253
70
0
0
SEQEND
8
KEY_HOLES
0
POLYLINE
8
KEY_HOLES
62
10
70
0
10
0.000000
20
0.000000
66
1
0
VERTEX
8
KEY_HOLES
10
177.055470
20
97.257113
70
0
0
VERTEX
8
KEY_HOLES
10
175.457758
20
97.017869
70
0
0
VERTEX
8
KEY_HOLES
10
174.028277
20
96.338824
70
0
0
VERTEX
8
KEY_HOLES
10
172.853883
20
95.278016
70
0
0
VERTEX
8
KEY_HOLES
10
172.021432
20
93.893477
70
0
0
VERTEX
8
KEY_HOLES
10
171.631047
20
92.325828
70
0
0
VERTEX
8
KEY_HOLES
10
171.711364
20
90.745301
70
0
0
VERTEX
8
KEY_HOLES
10
172.242002
20
89.254349
70
0
0
VERTEX
8
KEY_HOLES
10
173.202584
20
87.955424
70
0
0
VERTEX
8
KEY_HOLES
10
174.501509
20
86.994842
70
0
0
VERTEX
8
KEY_HOLES
10
175.992461
20
86.464204
70
0
0
VERTEX
8
KEY_HOLES
10
177.572988
20
86.383887
70
0
0
VERTEX
8
KEY_HOLES
10
179.140637
20
86.774272
70
0
0
VERTEX
8
KEY_HOLES
10
180.525176
20
87.606723
70
0
0
VERTEX
8
KEY_HOLES
10
181.585984
20
88.781117
70
0
0
VERTEX
8
KEY_HOLES
10
182.265029
20
90.210598
70
0
0
VERTEX
8
KEY_HOLES
10
182.504273
20
91.808310
70
0
0
VERTEX
8
KEY_HOLES
10
182.398609
20
92.876283
70
0
0
VERTEX
8
KEY_HOLES
10
182.089508
20
93.893477
70
0
0
VERTEX
8
KEY_HOLES
10
181.588810
20
94.831309
70
0
0
VERTEX
8
KEY_HOLES
10
180.908356
20
95.661196
70
0
0
VERTEX
8
KEY_HOLES
10
180.078469
20
96.341650
70
0
0
VERTEX
8
KEY_HOLES
10
179.140637
20
96.842348
70
0
0
VERTEX
8
KEY_HOLES
10
178.123443
20
97.151449
70
0
0
VERTEX
8
KEY_HOLES
10
177.055470
20
97.257113
70
0
0
VERTEX
8
KEY_HOLES
10
177.055470
20
97.257113
70
0
0
SEQEND
8
KEY_HOLES
0
POLYLINE
8
KEY_HOLES
62
10
70
0
10
0.000000
20
0.000000
66
1
0
VERTEX
8
KEY_HOLES
10
196.106830
20
97.274543
70
0
0
VERTEX
8
KEY_HOLES
10
194.509118
20
97.035299
70
0
0
VERTEX
8
KEY_HOLES
10
193.079637
20
96.356254
70
0
0
VERTEX
8
KEY_HOLES
10
191.905243
20
95.295446
70
0
0
VERTEX
8
KEY_HOLES
10
191.072792
20
93.910907
70
0
0
VERTEX
8
KEY_HOLES
10
190.682407
20
92.343258
70
0
0
VERTEX
8
KEY_HOLES
10
190.762724
20
90.762731
70
0
0
VERTEX
8
KEY_HOLES
10
191.293362
20
89.271779
70
0
0
VERTEX
8
KEY_HOLES
10
192.253944
20
87.972854
70
0
0
VERTEX
8
KEY_HOLES
10
193.552869
20
87.012272
70
0
0
VERTEX
8
KEY_HOLES
10
195.043821
20
86.481634
70
0
0
VERTEX
8
KEY_HOLES
10
196.624348
20
86.401317
70
0
0
VERTEX
8
KEY_HOLES
10
198.191997
20
86.791702
70
0
0
VERTEX
8
KEY_HOLES
10
199.576536
20
87.624153
70
0
0
VERTEX
8
KEY_HOLES
10
200.637344
20
88.798547
70
0
0
VERTEX
8
KEY_HOLES
10
201.316389
20
90.228028
70
0
0
VERTEX
8
KEY_HOLES
10
201.555633
20
91.825740
70
0
0
VERTEX
8
KEY_HOLES
10
201.449969
20
92.893713
70
0
0
VERTEX
8
KEY_HOLES
10
201.140868
20
93.910907
70
0
0
VERTEX
8
KEY_HOLES
10
200.640170
20
94.848739
70
0
0
VERTEX
8
KEY_HOLES
10
199.959716
20
95.678626
70
0
0
VERTEX
8
KEY_HOLES
10
199.129829
20
96.359080
70
0
0
VERTEX
8
KEY_HOLES
10
198.191997
20
96.859778
70
0
0
VERTEX
8
KEY_HOLES
10
197.174803
20
97.168879
70
0
0
VERTEX
8
KEY_HOLES
10
196.106830
20
97.274543
70
0
0
VERTEX
8
KEY_HOLES
10
196.106830
20
97.274543
70
0
0
SEQEND
8
KEY_HOLES
0
POLYLINE
8
KEY_HOLES
62
10
70
0
10
0.000000
20
0.000000
66
1
0
VERTEX
8
KEY_HOLES
10
215.160960
20
97.226383
70
0
0
VERTEX
8
KEY_HOLES
10
213.563248
20
96.987139
70
0
0
VERTEX
8
KEY_HOLES
10
212.133767
20
96.308094
70
0
0
VERTEX
8
KEY_HOLES
10
210.959373
20
95.247286
70
0
0
VERTEX
8
KEY_HOLES
10
210.126922
20
93.862747
70
0
0
VERTEX
8
KEY_HOLES
10
209.736537
20
92.295098
70
0
0
VERTEX
8
KEY_HOLES
10
209.816854
20
90.714571
70
0
0
VERTEX
8
KEY_HOLES
10
210.347492
20
89.223619
70
0
0
VERTEX
8
KEY_HOLES
10
211.308074
20
87.924694
70
0
0
VERTEX
8
KEY_HOLES
10
212.606999
20
86.964112
70
0
0
VERTEX
8
KEY_HOLES
10
214.097951
20
86.433474
70
0
0
VERTEX
8
KEY_HOLES
10
215.678478
20
86.353157
70
0
0
VERTEX
8
KEY_HOLES
10
217.246127
20
86.743542
70
0
0
VERTEX
8
KEY_HOLES
10
218.630666
20
87.575993
70
0
0
VERTEX
8
KEY_HOLES
10
219.691474
20
88.750387
70
0
0
VERTEX
8
KEY_HOLES
10
220.370519
20
90.179868
70
0
0
VERTEX
8
KEY_HOLES
10
220.609763
20
91.777580
70
0
0
VERTEX
8
KEY_HOLES
10
220.504099
20
92.845553
70
0
0
VERTEX
8
KEY_HOLES
10
220.194998
20
93.862747
70
0
0
VERTEX
8
KEY_HOLES
10
219.694300
20
94.800579
70
0
0
VERTEX
8
KEY_HOLES
10
219.013846
20
95.630466
70
0
0
VERTEX
8
KEY_HOLES
10
218.183959
20
96.310920
70
0
0
VERTEX
8
KEY_HOLES
10
217.246127
20
96.811618
70
0
0
VERTEX
8
KEY_HOLES
10
216.228933
20
97.120719
70
0
0
VERTEX
8
KEY_HOLES
10
215.160960
20
97.226383
70
0
0
VERTEX
8
KEY_HOLES
10
215.160960
20
97.226383
70
0
0
SEQEND
8
KEY_HOLES
0
POLYLINE
8
KEY_HOLES
62
10
70
0
10
0.000000
20
0.000000
66
1
0
VERTEX
8
KEY_HOLES
10
234.083920
20
97.214463
70
0
0
VERTEX
8
KEY_HOLES
10
232.486208
20
96.975219
70
0
0
VERTEX
8
KEY_HOLES
10
231.056727
20
96.296174
70
0
0
VERTEX
8
KEY_HOLES
10
229.882333
20
95.235366
70
0
0
VERTEX
8
KEY_HOLES
10
229.049882
20
93.850827
70
0
0
VERTEX
8
KEY_HOLES
10
228.659497
20
92.283178
70
0
0
VERTEX
8
KEY_HOLES
10
228.739814
20
90.702651
70
0
0
VERTEX
8
KEY_HOLES
10
229.270452
20
89.211699
70
0
0
VERTEX
8
KEY_HOLES
10
230.231034
20
87.912774
70
0
0
VERTEX
8
KEY_HOLES
10
231.529959
20
86.952192
70
0
0
VERTEX
8
KEY_HOLES
10
233.020911
20
86.421554
70
0
0
VERTEX
8
KEY_HOLES
10
234.601438
20
86.341237
70
0
0
VERTEX
8
KEY_HOLES
10
236.169087
20
86.731622
70
0
0
VERTEX
8
KEY_HOLES
10
237.553626
20
87.564073
70
0
0
VERTEX
8
KEY_HOLES
10
238.614434
20
88.738467
70
0
0
VERTEX
8
KEY_HOLES
10
239.293479
20
90.167948
70
0
0
VERTEX
8
KEY_HOLES
10
239.532723
20
91.765660
70
0
0
VERTEX
8
KEY_HOLES
10
239.427059
20
92.833633
70
0
0
VERTEX
8
KEY_HOLES
10
239.117958
20
93.850827
70
0
0
VERTEX
8
KEY_HOLES
10
238.617260
20
94.788659
70
0
0
VERTEX
8
KEY_HOLES
10
237.936806
20
95.618546
70
0
0
VERTEX
8
KEY_HOLES
10
237.106919
20
96.299000
70
0
0
VERTEX
8
KEY_HOLES
10
236.169087
20
96.799698
70
0
0
VERTEX
8
KEY_HOLES
10
235.151893
20
97.108799
70
0
0
VERTEX
8
KEY_HOLES
10
234.083920
20
97.214463
70
0
0
VERTEX
8
KEY_HOLES
10
234.083920
20
97.214463
70
0
0
SEQEND
8
KEY_HOLES
0
POLYLINE
8
KEY_HOLES
62
10
70
0
10
0.000000
20
0.000000
66
1
0
VERTEX
8
KEY_HOLES
10
253.274250
20
97.321313
70
0
0
VERTEX
8
KEY_HOLES
10
251.676538
20
97.082069
70
0
0
VERTEX
8
KEY_HOLES
10
250.247057
20
96.403024
70
0
0
VERTEX
8
KEY_HOLES
10
249.072663
20
95.342216
70
0
0
VERTEX
8
KEY_HOLES
10
248.240212
20
93.957677
70
0
0
VERTEX
8
KEY_HOLES
10
247.849827
20
92.390028
70
0
0
VERTEX
8
KEY_HOLES
10
247.930144
20
90.809501
70
0
0
VERTEX
8
KEY_HOLES
10
248.460782
20
89.318549
70
0
0
VERTEX
8
KEY_HOLES
10
249.421364
20
88.019624
70
0
0
VERTEX
8
KEY_HOLES
10
250.720289
20
87.059042
70
0
0
VERTEX
8
KEY_HOLES
10
252.211241
20
86.528404
70
0
0
VERTEX
8
KEY_HOLES
10
253.791768
20
86.448087
70
0
0
VERTEX
8
KEY_HOLES
10
255.359417
20
86.838472
70
0
0
VERTEX
8
KEY_HOLES
10
256.743956
20
87.670923
70
0
0
VERTEX
8
KEY_HOLES
10
257.804764
20
88.845317
70
0
0
VERTEX
8
KEY_HOLES
10
258.483809
20
90.274798
70
0
0
VERTEX
8
KEY_HOLES
10
258.723053
20
91.872510
70
0
0
VERTEX
8
KEY_HOLES
10
258.617389
20
92.940483
70
0
0
VERTEX
8
KEY_HOLES
10
258.308288
20
93.957677
70
0
0
VERTEX
8
KEY_HOLES
10
257.807590
20
94.895509
70
0
0
VERTEX
8
KEY_HOLES
10
257.127136
20
95.725396
70
0
0
VERTEX
8
KEY_HOLES
10
256.297249
20
96.405850
70
0
0
VERTEX
8
KEY_HOLES
10
255.359417
20
96.906548
70
0
0
VERTEX
8
KEY_HOLES
10
254.342223
20
97.215649
70
0
0
VERTEX
8
KEY_HOLES
10
253.274250
20
97.321313
70
0
0
VERTEX
8
KEY_HOLES
10
253.274250
20
97.321313
70
0
0
SEQEND
8
KEY_HOLES
0
POLYLINE
8
KEY_HOLES
62
10
70
0
10
0.000000
20
0.000000
66
1
0
VERTEX
8
KEY_HOLES
10
272.324250
20
97.229143
70
0
0
VERTEX
8
KEY_HOLES
10
270.726538
20
96.989899
70
0
0
VERTEX
8
KEY_HOLES
10
269.297057
20
96.310854
70
0
0
VERTEX
8
KEY_HOLES
10
268.122663
20
95.250046
70
0
0
VERTEX
8
KEY_HOLES
10
267.290212
20
93.865507
70
0
0
VERTEX
8
KEY_HOLES
10
266.899827
20
92.297858
70
0
0
VERTEX
8
KEY_HOLES
10
266.980144
20
90.717331
70
0
0
VERTEX
8
KEY_HOLES
10
267.510782
20
89.226379
70
0
0
VERTEX
8
KEY_HOLES
10
268.471364
20
87.927454
70
0
0
VERTEX
8
KEY_HOLES
10
269.770289
20
86.966872
70
0
0
VERTEX
8
KEY_HOLES
10
271.261241
20
86.436234
70
0
0
VERTEX
8
KEY_HOLES
10
272.841768
20
86.355917
70
0
0
VERTEX
8
KEY_HOLES
10
274.409417
20
86.746302
70
0
0
VERTEX
8
KEY_HOLES
10
275.793956
20
87.578753
70
0
0
VERTEX
8
KEY_HOLES
10
276.854764
20
88.753147
70
0
0
VERTEX
8
KEY_HOLES
10
277.533809
20
90.182628
70
0
0
VERTEX
8
KEY_HOLES
10
277.773053
20
91.780340
70
0
0
VERTEX
8
KEY_HOLES
10
277.667389
20
92.848313
70
0
0
VERTEX
8
KEY_HOLES
10
277.358288
20
93.865507
70
0
0
VERTEX
8
KEY_HOLES
10
276.857590
20
94.803339
70
0
0
VERTEX
8
KEY_HOLES
10
276.177136
20
95.633226
70
0
0
VERTEX
8
KEY_HOLES
10
275.347249
20
96.313680
70
0
0
VERTEX
8
KEY_HOLES
10
274.409417
20
96.814378
70
0
0
VERTEX
8
KEY_HOLES
10
273.392223
20
97.123479
70
0
0
VERTEX
8
KEY_HOLES
10
272.324250
20
97.229143
70
0
0
VERTEX
8
KEY_HOLES
10
272.324250
20
97.229143
70
0
0
SEQEND
8
KEY_HOLES
0
POLYLINE
8
KEY_HOLES
62
10
70
0
10
0.000000
20
0.000000
66
1
0
VERTEX
8
KEY_HOLES
10
296.360080
20
97.294693
70
0
0
VERTEX
8
KEY_HOLES
10
294.762368
20
97.055449
70
0
0
VERTEX
8
KEY_HOLES
10
293.332887
20
96.376404
70
0
0
VERTEX
8
KEY_HOLES
10
292.158493
20
95.315596
70
0
0
VERTEX
8
KEY_HOLES
10
291.326042
20
93.931057
70
0
0
VERTEX
8
KEY_HOLES
10
290.935657
20
92.363408
70
0
0
VERTEX
8
KEY_HOLES
10
291.015974
20
90.782881
70
0
0
VERTEX
8
KEY_HOLES
10
291.546612
20
89.291929
70
0
0
VERTEX
8
KEY_HOLES
10
292.507194
20
87.993004
70
0
0
VERTEX
8
KEY_HOLES
10
293.806119
20
87.032422
70
0
0
VERTEX
8
KEY_HOLES
10
295.297071
20
86.501784
70
0
0
VERTEX
8
KEY_HOLES
10
296.877598
20
86.421467
70
0
0
VERTEX
8
KEY_HOLES
10
298.445247
20
86.811852
70
0
0
VERTEX
8
KEY_HOLES
10
299.829786
20
87.644303
70
0
0
VERTEX
8
KEY_HOLES
10
300.890594
20
88.818697
70
0
0
VERTEX
8
KEY_HOLES
10
301.569639
20
90.248178
70
0
0
VERTEX
8
KEY_HOLES
10
301.808883
20
91.845890
70
0
0
VERTEX
8
KEY_HOLES
10
301.698183
20
92.944014
70
0
0
VERTEX
8
KEY_HOLES
10
301.380689
20
93.966810
70
0
0
VERTEX
8
KEY_HOLES
10
300.878313
20
94.892368
70
0
0
VERTEX
8
KEY_HOLES
10
300.212966
20
95.698776
70
0
0
VERTEX
8
KEY_HOLES
10
299.406558
20
96.364123
70
0
0
VERTEX
8
KEY_HOLES
10
298.481000
20
96.866499
70
0
0
VERTEX
8
KEY_HOLES
10
297.458204
20
97.183993
70
0
0
VERTEX
8
KEY_HOLES
10
296.360080
20
97.294693
70
0
0
VERTEX
8
KEY_HOLES
10
296.360080
20
97.294693
70
0
0
SEQEND
8
KEY_HOLES
0
POLYLINE
8
KEY_HOLES
62
10
70
0
10
0.000000
20
0.000000
66
1
0
VERTEX
8
KEY_HOLES
10
34.471863
20
118.242363
70
0
0
VERTEX
8
KEY_HOLES
10
32.874151
20
118.003119
70
0
0
VERTEX
8
KEY_HOLES
10
31.444670
20
117.324074
70
0
0
VERTEX
8
KEY_HOLES
10
30.270276
20
116.263266
70
0
0
VERTEX
8
KEY_HOLES
10
29.437825
20
114.878727
70
0
0
VERTEX
8
KEY_HOLES
10
29.047440
20
113.311078
70
0
0
VERTEX
8
KEY_HOLES
10
29.127757
20
111.730551
70
0
0
VERTEX
8
KEY_HOLES
10
29.658395
20
110.239599
70
0
0
VERTEX
8
KEY_HOLES
10
30.618977
20
108.940674
70
0
0
VERTEX
8
KEY_HOLES
10
31.917902
20
107.980092
70
0
0
VERTEX
8
KEY_HOLES
10
33.408854
20
107.449454
70
0
0
VERTEX
8
KEY_HOLES
10
34.989381
20
107.369137
70
0
0
VERTEX
8
KEY_HOLES
10
36.557030
20
107.759522
70
0
0
VERTEX
8
KEY_HOLES
10
37.941569
20
108.591973
70
0
0
VERTEX
8
KEY_HOLES
10
39.002377
20
109.766367
70
0
0
VERTEX
8
KEY_HOLES
10
39.681422
20
111.195848
70
0
0
VERTEX
8
KEY_HOLES
10
39.920666
20
112.793560
70
0
0
VERTEX
8
KEY_HOLES
10
39.815002
20
113.861533
70
0
0
VERTEX
8
KEY_HOLES
10
39.505901
20
114.878727
70
0
0
VERTEX
8
KEY_HOLES
10
39.005203
20
115.816559
70
0
0
VERTEX
8
KEY_HOLES
10
38.324749
20
116.646446
70
0
0
VERTEX
8
KEY_HOLES
10
37.494862
20
117.326900
70
0
0
VERTEX
8
KEY_HOLES
10
36.557030
20
117.827598
70
0
0
VERTEX
8
KEY_HOLES
10
35.539836
20
118.136699
70
0
0
VERTEX
8
KEY_HOLES
10
34.471863
20
118.242363
70
0
0
VERTEX
8
KEY_HOLES
10
34.471863
20
118.242363
70
0
0
SEQEND
8
KEY_HOLES
0
POLYLINE
8
KEY_HOLES
62
10
70
0
10
0.000000
20
0.000000
66
1
0
VERTEX
8
KEY_HOLES
10
53.374905
20
118.176623
70
0
0
VERTEX
8
KEY_HOLES
10
51.777193
20
117.937379
70
0
0
VERTEX
8
KEY_HOLES
10
50.347712
20
117.258334
70
0
0
VERTEX
8
KEY_HOLES
10
49.173318
20
116.197526
70
0
0
VERTEX
8
KEY_HOLES
10
48.340867
20
114.812987
70
0
0
VERTEX
8
KEY_HOLES
10
47.950482
20
113.245338
70
0
0
VERTEX
8
KEY_HOLES
10
48.030799
20
111.664811
70
0
0
VERTEX
8
KEY_HOLES
10
48.561437
20
110.173859
70
0
0
VERTEX
8
KEY_HOLES
10
49.522019
20
108.874934
70
0
0
VERTEX
8
KEY_HOLES
10
50.820944
20
107.914352
70
0
0
VERTEX
8
KEY_HOLES
10
52.311896
20
107.383714
70
0
0
VERTEX
8
KEY_HOLES
10
53.892423
20
107.303397
70
0
0
VERTEX
8
KEY_HOLES
10
55.460072
20
107.693782
70
0
0
VERTEX
8
KEY_HOLES
10
56.844611
20
108.526233
70
0
0
VERTEX
8
KEY_HOLES
10
57.905419
20
109.700627
70
0
0
VERTEX
8
KEY_HOLES
10
58.584464
20
111.130108
70
0
0
VERTEX
8
KEY_HOLES
10
58.823708
20
112.727820
70
0
0
VERTEX
8
KEY_HOLES
10
58.718044
20
113.795793
70
0
0
VERTEX
8
KEY_HOLES
10
58.408943
20
114.812987
70
0
0
VERTEX
8
KEY_HOLES
10
57.908245
20
115.750819
70
0
0
VERTEX
8
KEY_HOLES
10
57.227791
20
116.580706
70
0
0
VERTEX
8
KEY_HOLES
10
56.397904
20
117.261160
70
0
0
VERTEX
8
KEY_HOLES
10
55.460072
20
117.761858
70
0
0
VERTEX
8
KEY_HOLES
10
54.442878
20
118.070959
70
0
0
VERTEX
8
KEY_HOLES
10
53.374905
20
118.176623
70
0
0
VERTEX
8
KEY_HOLES
10
53.374905
20
118.176623
70
0
0
SEQEND
8
KEY_HOLES
0
POLYLINE
8
KEY_HOLES
62
10
70
0
10
0.000000
20
0.000000
66
1
0
VERTEX
8
KEY_HOLES
10
72.468925
20
118.199543
70
0
0
VERTEX
8
KEY_HOLES
10
70.871213
20
117.960299
70
0
0
VERTEX
8
KEY_HOLES
10
69.441732
20
117.281254
70
0
0
VERTEX
8
KEY_HOLES
10
68.267338
20
116.220446
70
0
0
VERTEX
8
KEY_HOLES
10
67.434887
20
114.835907
70
0
0
VERTEX
8
KEY_HOLES
10
67.044502
20
113.268258
70
0
0
VERTEX
8
KEY_HOLES
10
67.124819
20
111.687731
70
0
0
VERTEX
8
KEY_HOLES
10
67.655457
20
110.196779
70
0
0
VERTEX
8
KEY_HOLES
10
68.616039
20
108.897854
70
0
0
VERTEX
8
KEY_HOLES
10
69.914964
20
107.937272
70
0
0
VERTEX
8
KEY_HOLES
10
71.405916
20
107.406634
70
0
0
VERTEX
8
KEY_HOLES
10
72.986443
20
107.326317
70
0
0
VERTEX
8
KEY_HOLES
10
74.554092
20
107.716702
70
0
0
VERTEX
8
KEY_HOLES
10
75.938631
20
108.549153
70
0
0
VERTEX
8
KEY_HOLES
10
76.999439
20
109.723547
70
0
0
VERTEX
8
KEY_HOLES
10
77.678484
20
111.153028
70
0
0
VERTEX
8
KEY_HOLES
10
77.917728
20
112.750740
70
0
0
VERTEX
8
KEY_HOLES
10
77.812064
20
113.818713
70
0
0
VERTEX
8
KEY_HOLES
10
77.502963
20
114.835907
70
0
0
VERTEX
8
KEY_HOLES
10
77.002265
20
115.773739
70
0
0
VERTEX
8
KEY_HOLES
10
76.321811
20
116.603626
70
0
0
VERTEX
8
KEY_HOLES
10
75.491924
20
117.284080
70
0
0
VERTEX
8
KEY_HOLES
10
74.554092
20
117.784778
70
0
0
VERTEX
8
KEY_HOLES
10
73.536898
20
118.093879
70
0
0
VERTEX
8
KEY_HOLES
10
72.468925
20
118.199543
70
0
0
VERTEX
8
KEY_HOLES
10
72.468925
20
118.199543
70
0
0
SEQEND
8
KEY_HOLES
0
POLYLINE
8
KEY_HOLES
62
10
70
0
10
0.000000
20
0.000000
66
1
0
VERTEX
8
KEY_HOLES
10
91.387764
20
118.256853
70
0
0
VERTEX
8
KEY_HOLES
10
89.790052
20
118.017609
70
0
0
VERTEX
8
KEY_HOLES
10
88.360571
20
117.338564
70
0
0
VERTEX
8
KEY_HOLES
10
87.186177
20
116.277756
70
0
0
VERTEX
8
KEY_HOLES
10
86.353726
20
114.893217
70
0
0
VERTEX
8
KEY_HOLES
10
85.963341
20
113.325568
70
0
0
VERTEX
8
KEY_HOLES
10
86.043658
20
111.745041
70
0
0
VERTEX
8
KEY_HOLES
10
86.574296
20
110.254089
70
0
0
VERTEX
8
KEY_HOLES
10
87.534878
20
108.955164
70
0
0
VERTEX
8
KEY_HOLES
10
88.833803
20
107.994582
70
0
0
VERTEX
8
KEY_HOLES
10
90.324755
20
107.463944
70
0
0
VERTEX
8
KEY_HOLES
10
91.905282
20
107.383627
70
0
0
VERTEX
8
KEY_HOLES
10
93.472931
20
107.774012
70
0
0
VERTEX
8
KEY_HOLES
10
94.857470
20
108.606463
70
0
0
VERTEX
8
KEY_HOLES
10
95.918278
20
109.780857
70
0
0
VERTEX
8
KEY_HOLES
10
96.597323
20
111.210338
70
0
0
VERTEX
8
KEY_HOLES
10
96.836567
20
112.808050
70
0
0
VERTEX
8
KEY_HOLES
10
96.730903
20
113.876023
70
0
0
VERTEX
8
KEY_HOLES
10
96.421802
20
114.893217
70
0
0
VERTEX
8
KEY_HOLES
10
95.921104
20
115.831049
70
0
0
VERTEX
8
KEY_HOLES
10
95.240650
20
116.660936
70
0
0
VERTEX
8
KEY_HOLES
10
94.410763
20
117.341390
70
0
0
VERTEX
8
KEY_HOLES
10
93.472931
20
117.842088
70
0
0
VERTEX
8
KEY_HOLES
10
92.455737
20
118.151189
70
0
0
VERTEX
8
KEY_HOLES
10
91.387764
20
118.256853
70
0
0
VERTEX
8
KEY_HOLES
10
91.387764
20
118.256853
70
0
0
SEQEND
8
KEY_HOLES
0
POLYLINE
8
KEY_HOLES
62
10
70
0
10
0.000000
20
0.000000
66
1
0
VERTEX
8
KEY_HOLES
10
129.556090
20
118.271533
70
0
0
VERTEX
8
KEY_HOLES
10
127.958378
20
118.032289
70
0
0
VERTEX
8
KEY_HOLES
10
126.528897
20
117.353244
70
0
0
VERTEX
8
KEY_HOLES
10
125.354503
20
116.292436
70
0
0
VERTEX
8
KEY_HOLES
10
124.522052
20
114.907897
70
0
0
VERTEX
8
KEY_HOLES
10
124.131667
20
113.340248
70
0
0
VERTEX
8
KEY_HOLES
10
124.211984
20
111.759721
70
0
0
VERTEX
8
KEY_HOLES
10
124.742622
20
110.268769
70
0
0
VERTEX
8
KEY_HOLES
10
125.703204
20
108.969844
70
0
0
VERTEX
8
KEY_HOLES
10
127.002129
20
108.009262
70
0
0
VERTEX
8
KEY_HOLES
10
128.493081
20
107.478624
70
0
0
VERTEX
8
KEY_HOLES
10
130.073608
20
107.398307
70
0
0
VERTEX
8
KEY_HOLES
10
131.641257
20
107.788692
70
0
0
VERTEX
8
KEY_HOLES
10
133.025796
20
108.621143
70
0
0
VERTEX
8
KEY_HOLES
10
134.086604
20
109.795537
70
0
0
VERTEX
8
KEY_HOLES
10
134.765649
20
111.225018
70
0
0
VERTEX
8
KEY_HOLES
10
135.004893
20
112.822730
70
0
0
VERTEX
8
KEY_HOLES
10
134.899229
20
113.890703
70
0
0
VERTEX
8
KEY_HOLES
10
134.590128
20
114.907897
70
0
0
VERTEX
8
KEY_HOLES
10
134.089430
20
115.845729
70
0
0
VERTEX
8
KEY_HOLES
10
133.408976
20
116.675616
70
0
0
VERTEX
8
KEY_HOLES
10
132.579089
20
117.356070
70
0
0
VERTEX
8
KEY_HOLES
10
131.641257
20
117.856768
70
0
0
VERTEX
8
KEY_HOLES
10
130.624063
20
118.165869
70
0
0
VERTEX
8
KEY_HOLES
10
129.556090
20
118.271533
70
0
0
VERTEX
8
KEY_HOLES
10
129.556090
20
118.271533
70
0
0
SEQEND
8
KEY_HOLES
0
POLYLINE
8
KEY_HOLES
62
10
70
0
10
0.000000
20
0.000000
66
1
0
VERTEX
8
KEY_HOLES
10
110.491420
20
118.274283
70
0
0
VERTEX
8
KEY_HOLES
10
108.893708
20
118.035039
70
0
0
VERTEX
8
KEY_HOLES
10
107.464227
20
117.355994
70
0
0
VERTEX
8
KEY_HOLES
10
106.289833
20
116.295186
70
0
0
VERTEX
8
KEY_HOLES
10
105.457382
20
114.910647
70
0
0
VERTEX
8
KEY_HOLES
10
105.066997
20
113.342998
70
0
0
VERTEX
8
KEY_HOLES
10
105.147314
20
111.762471
70
0
0
VERTEX
8
KEY_HOLES
10
105.677952
20
110.271519
70
0
0
VERTEX
8
KEY_HOLES
10
106.638534
20
108.972594
70
0
0
VERTEX
8
KEY_HOLES
10
107.937459
20
108.012012
70
0
0
VERTEX
8
KEY_HOLES
10
109.428411
20
107.481374
70
0
0
VERTEX
8
KEY_HOLES
10
111.008938
20
107.401057
70
0
0
VERTEX
8
KEY_HOLES
10
112.576587
20
107.791442
70
0
0
VERTEX
8
KEY_HOLES
10
113.961126
20
108.623893
70
0
0
VERTEX
8
KEY_HOLES
10
115.021934
20
109.798287
70
0
0
VERTEX
8
KEY_HOLES
10
115.700979
20
111.227768
70
0
0
VERTEX
8
KEY_HOLES
10
115.940223
20
112.825480
70
0
0
VERTEX
8
KEY_HOLES
10
115.834559
20
113.893453
70
0
0
VERTEX
8
KEY_HOLES
10
115.525458
20
114.910647
70
0
0
VERTEX
8
KEY_HOLES
10
115.024760
20
115.848479
70
0
0
VERTEX
8
KEY_HOLES
10
114.344306
20
116.678366
70
0
0
VERTEX
8
KEY_HOLES
10
113.514419
20
117.358820
70
0
0
VERTEX
8
KEY_HOLES
10
112.576587
20
117.859518
70
0
0
VERTEX
8
KEY_HOLES
10
111.559393
20
118.168619
70
0
0
VERTEX
8
KEY_HOLES
10
110.491420
20
118.274283
70
0
0
VERTEX
8
KEY_HOLES
10
110.491420
20
118.274283
70
0
0
SEQEND
8
KEY_HOLES
0
POLYLINE
8
KEY_HOLES
62
10
70
0
10
0.000000
20
0.000000
66
1
0
VERTEX
8
KEY_HOLES
10
148.537770
20
118.194053
70
0
0
VERTEX
8
KEY_HOLES
10
146.940058
20
117.954809
70
0
0
VERTEX
8
KEY_HOLES
10
145.510577
20
117.275764
70
0
0
VERTEX
8
KEY_HOLES
10
144.336183
20
116.214956
70
0
0
VERTEX
8
KEY_HOLES
10
143.503732
20
114.830417
70
0
0
VERTEX
8
KEY_HOLES
10
143.113347
20
113.262768
70
0
0
VERTEX
8
KEY_HOLES
10
143.193664
20
111.682241
70
0
0
VERTEX
8
KEY_HOLES
10
143.724302
20
110.191289
70
0
0
VERTEX
8
KEY_HOLES
10
144.684884
20
108.892364
70
0
0
VERTEX
8
KEY_HOLES
10
145.983809
20
107.931782
70
0
0
VERTEX
8
KEY_HOLES
10
147.474761
20
107.401144
70
0
0
VERTEX
8
KEY_HOLES
10
149.055288
20
107.320827
70
0
0
VERTEX
8
KEY_HOLES
10
150.622937
20
107.711212
70
0
0
VERTEX
8
KEY_HOLES
10
152.007476
20
108.543663
70
0
0
VERTEX
8
KEY_HOLES
10
153.068284
20
109.718057
70
0
0
VERTEX
8
KEY_HOLES
10
153.747329
20
111.147538
70
0
0
VERTEX
8
KEY_HOLES
10
153.986573
20
112.745250
70
0
0
VERTEX
8
KEY_HOLES
10
153.880909
20
113.813223
70
0
0
VERTEX
8
KEY_HOLES
10
153.571808
20
114.830417
70
0
0
VERTEX
8
KEY_HOLES
10
153.071110
20
115.768249
70
0
0
VERTEX
8
KEY_HOLES
10
152.390656
20
116.598136
70
0
0
VERTEX
8
KEY_HOLES
10
151.560769
20
117.278590
70
0
0
VERTEX
8
KEY_HOLES
10
150.622937
20
117.779288
70
0
0
VERTEX
8
KEY_HOLES
10
149.605743
20
118.088389
70
0
0
VERTEX
8
KEY_HOLES
10
148.537770
20
118.194053
70
0
0
VERTEX
8
KEY_HOLES
10
148.537770
20
118.194053
70
0
0
SEQEND
8
KEY_HOLES
0
POLYLINE
8
KEY_HOLES
62
10
70
0
10
0.000000
20
0.000000
66
1
0
VERTEX
8
KEY_HOLES
10
167.485060
20
118.290333
70
0
0
VERTEX
8
KEY_HOLES
10
165.887348
20
118.051089
70
0
0
VERTEX
8
KEY_HOLES
10
164.457867
20
117.372044
70
0
0
VERTEX
8
KEY_HOLES
10
163.283473
20
116.311236
70
0
0
VERTEX
8
KEY_HOLES
10
162.451022
20
114.926697
70
0
0
VERTEX
8
KEY_HOLES
10
162.060637
20
113.359048
70
0
0
VERTEX
8
KEY_HOLES
10
162.140954
20
111.778521
70
0
0
VERTEX
8
KEY_HOLES
10
162.671592
20
110.287569
70
0
0
VERTEX
8
KEY_HOLES
10
163.632174
20
108.988644
70
0
0
VERTEX
8
KEY_HOLES
10
164.931099
20
108.028062
70
0
0
VERTEX
8
KEY_HOLES
10
166.422051
20
107.497424
70
0
0
VERTEX
8
KEY_HOLES
10
168.002578
20
107.417107
70
0
0
VERTEX
8
KEY_HOLES
10
169.570227
20
107.807492
70
0
0
VERTEX
8
KEY_HOLES
10
170.954766
20
108.639943
70
0
0
VERTEX
8
KEY_HOLES
10
172.015574
20
109.814337
70
0
0
VERTEX
8
KEY_HOLES
10
172.694619
20
111.243818
70
0
0
VERTEX
8
KEY_HOLES
10
172.933863
20
112.841530
70
0
0
VERTEX
8
KEY_HOLES
10
172.828199
20
113.909503
70
0
0
VERTEX
8
KEY_HOLES
10
172.519098
20
114.926697
70
0
0
VERTEX
8
KEY_HOLES
10
172.018400
20
115.864529
70
0
0
VERTEX
8
KEY_HOLES
10
171.337946
20
116.694416
70
0
0
VERTEX
8
KEY_HOLES
10
170.508059
20
117.374870
70
0
0
VERTEX
8
KEY_HOLES
10
169.570227
20
117.875568
70
0
0
VERTEX
8
KEY_HOLES
10
168.553033
20
118.184669
70
0
0
VERTEX
8
KEY_HOLES
10
167.485060
20
118.290333
70
0
0
VERTEX
8
KEY_HOLES
10
167.485060
20
118.290333
70
0
0
SEQEND
8
KEY_HOLES
0
POLYLINE
8
KEY_HOLES
62
10
70
0
10
0.000000
20
0.000000
66
1
0
VERTEX
8
KEY_HOLES
10
186.627230
20
118.258243
70
0
0
VERTEX
8
KEY_HOLES
10
185.029518
20
118.018999
70
0
0
VERTEX
8
KEY_HOLES
10
183.600037
20
117.339954
70
0
0
VERTEX
8
KEY_HOLES
10
182.425643
20
116.279146
70
0
0
VERTEX
8
KEY_HOLES
10
181.593192
20
114.894607
70
0
0
VERTEX
8
KEY_HOLES
10
181.202807
20
113.326958
70
0
0
VERTEX
8
KEY_HOLES
10
181.283124
20
111.746431
70
0
0
VERTEX
8
KEY_HOLES
10
181.813762
20
110.255479
70
0
0
VERTEX
8
KEY_HOLES
10
182.774344
20
108.956554
70
0
0
VERTEX
8
KEY_HOLES
10
184.073269
20
107.995972
70
0
0
VERTEX
8
KEY_HOLES
10
185.564221
20
107.465334
70
0
0
VERTEX
8
KEY_HOLES
10
187.144748
20
107.385017
70
0
0
VERTEX
8
KEY_HOLES
10
188.712397
20
107.775402
70
0
0
VERTEX
8
KEY_HOLES
10
190.096936
20
108.607853
70
0
0
VERTEX
8
KEY_HOLES
10
191.157744
20
109.782247
70
0
0
VERTEX
8
KEY_HOLES
10
191.836789
20
111.211728
70
0
0
VERTEX
8
KEY_HOLES
10
192.076033
20
112.809440
70
0
0
VERTEX
8
KEY_HOLES
10
191.970369
20
113.877413
70
0
0
VERTEX
8
KEY_HOLES
10
191.661268
20
114.894607
70
0
0
VERTEX
8
KEY_HOLES
10
191.160570
20
115.832439
70
0
0
VERTEX
8
KEY_HOLES
10
190.480116
20
116.662326
70
0
0
VERTEX
8
KEY_HOLES
10
189.650229
20
117.342780
70
0
0
VERTEX
8
KEY_HOLES
10
188.712397
20
117.843478
70
0
0
VERTEX
8
KEY_HOLES
10
187.695203
20
118.152579
70
0
0
VERTEX
8
KEY_HOLES
10
186.627230
20
118.258243
70
0
0
VERTEX
8
KEY_HOLES
10
186.627230
20
118.258243
70
0
0
SEQEND
8
KEY_HOLES
0
POLYLINE
8
KEY_HOLES
62
10
70
0
10
0.000000
20
0.000000
66
1
0
VERTEX
8
KEY_HOLES
10
205.630460
20
118.226143
70
0
0
VERTEX
8
KEY_HOLES
10
204.032748
20
117.986899
70
0
0
VERTEX
8
KEY_HOLES
10
202.603267
20
117.307854
70
0
0
VERTEX
8
KEY_HOLES
10
201.428873
20
116.247046
70
0
0
VERTEX
8
KEY_HOLES
10
200.596422
20
114.862507
70
0
0
VERTEX
8
KEY_HOLES
10
200.206037
20
113.294858
70
0
0
VERTEX
8
KEY_HOLES
10
200.286354
20
111.714331
70
0
0
VERTEX
8
KEY_HOLES
10
200.816992
20
110.223379
70
0
0
VERTEX
8
KEY_HOLES
10
201.777574
20
108.924454
70
0
0
VERTEX
8
KEY_HOLES
10
203.076499
20
107.963872
70
0
0
VERTEX
8
KEY_HOLES
10
204.567451
20
107.433234
70
0
0
VERTEX
8
KEY_HOLES
10
206.147978
20
107.352917
70
0
0
VERTEX
8
KEY_HOLES
10
207.715627
20
107.743302
70
0
0
VERTEX
8
KEY_HOLES
10
209.100166
20
108.575753
70
0
0
VERTEX
8
KEY_HOLES
10
210.160974
20
109.750147
70
0
0
VERTEX
8
KEY_HOLES
10
210.840019
20
111.179628
70
0
0
VERTEX
8
KEY_HOLES
10
211.079263
20
112.777340
70
0
0
VERTEX
8
KEY_HOLES
10
210.973599
20
113.845313
70
0
0
VERTEX
8
KEY_HOLES
10
210.664498
20
114.862507
70
0
0
VERTEX
8
KEY_HOLES
10
210.163800
20
115.800339
70
0
0
VERTEX
8
KEY_HOLES
10
209.483346
20
116.630226
70
0
0
VERTEX
8
KEY_HOLES
10
208.653459
20
117.310680
70
0
0
VERTEX
8
KEY_HOLES
10
207.715627
20
117.811378
70
0
0
VERTEX
8
KEY_HOLES
10
206.698433
20
118.120479
70
0
0
VERTEX
8
KEY_HOLES
10
205.630460
20
118.226143
70
0
0
VERTEX
8
KEY_HOLES
10
205.630460
20
118.226143
70
0
0
SEQEND
8
KEY_HOLES
0
POLYLINE
8
KEY_HOLES
62
10
70
0
10
0.000000
20
0.000000
66
1
0
VERTEX
8
KEY_HOLES
10
224.661640
20
118.270163
70
0
0
VERTEX
8
KEY_HOLES
10
223.063928
20
118.030919
70
0
0
VERTEX
8
KEY_HOLES
10
221.634447
20
117.351874
70
0
0
VERTEX
8
KEY_HOLES
10
220.460053
20
116.291066
70
0
0
VERTEX
8
KEY_HOLES
10
219.627602
20
114.906527
70
0
0
VERTEX
8
KEY_HOLES
10
219.237217
20
113.338878
70
0
0
VERTEX
8
KEY_HOLES
10
219.317534
20
111.758351
70
0
0
VERTEX
8
KEY_HOLES
10
219.848172
20
110.267399
70
0
0
VERTEX
8
KEY_HOLES
10
220.808754
20
108.968474
70
0
0
VERTEX
8
KEY_HOLES
10
222.107679
20
108.007892
70
0
0
VERTEX
8
KEY_HOLES
10
223.598631
20
107.477254
70
0
0
VERTEX
8
KEY_HOLES
10
225.179158
20
107.396937
70
0
0
VERTEX
8
KEY_HOLES
10
226.746807
20
107.787322
70
0
0
VERTEX
8
KEY_HOLES
10
228.131346
20
108.619773
70
0
0
VERTEX
8
KEY_HOLES
10
229.192154
20
109.794167
70
0
0
VERTEX
8
KEY_HOLES
10
229.871199
20
111.223648
70
0
0
VERTEX
8
KEY_HOLES
10
230.110443
20
112.821360
70
0
0
VERTEX
8
KEY_HOLES
10
230.004779
20
113.889333
70
0
0
VERTEX
8
KEY_HOLES
10
229.695678
20
114.906527
70
0
0
VERTEX
8
KEY_HOLES
10
229.194980
20
115.844359
70
0
0
VERTEX
8
KEY_HOLES
10
228.514526
20
116.674246
70
0
0
VERTEX
8
KEY_HOLES
10
227.684639
20
117.354700
70
0
0
VERTEX
8
KEY_HOLES
10
226.746807
20
117.855398
70
0
0
VERTEX
8
KEY_HOLES
10
225.729613
20
118.164499
70
0
0
VERTEX
8
KEY_HOLES
10
224.661640
20
118.270163
70
0
0
VERTEX
8
KEY_HOLES
10
224.661640
20
118.270163
70
0
0
SEQEND
8
KEY_HOLES
0
POLYLINE
8
KEY_HOLES
62
10
70
0
10
0.000000
20
0.000000
66
1
0
VERTEX
8
KEY_HOLES
10
243.695600
20
118.272903
70
0
0
VERTEX
8
KEY_HOLES
10
242.097888
20
118.033659
70
0
0
VERTEX
8
KEY_HOLES
10
240.668407
20
117.354614
70
0
0
VERTEX
8
KEY_HOLES
10
239.494013
20
116.293806
70
0
0
VERTEX
8
KEY_HOLES
10
238.661562
20
114.909267
70
0
0
VERTEX
8
KEY_HOLES
10
238.271177
20
113.341618
70
0
0
VERTEX
8
KEY_HOLES
10
238.351494
20
111.761091
70
0
0
VERTEX
8
KEY_HOLES
10
238.882132
20
110.270139
70
0
0
VERTEX
8
KEY_HOLES
10
239.842714
20
108.971214
70
0
0
VERTEX
8
KEY_HOLES
10
241.141639
20
108.010632
70
0
0
VERTEX
8
KEY_HOLES
10
242.632591
20
107.479994
70
0
0
VERTEX
8
KEY_HOLES
10
244.213118
20
107.399677
70
0
0
VERTEX
8
KEY_HOLES
10
245.780767
20
107.790062
70
0
0
VERTEX
8
KEY_HOLES
10
247.165306
20
108.622513
70
0
0
VERTEX
8
KEY_HOLES
10
248.226114
20
109.796907
70
0
0
VERTEX
8
KEY_HOLES
10
248.905159
20
111.226388
70
0
0
VERTEX
8
KEY_HOLES
10
249.144403
20
112.824100
70
0
0
VERTEX
8
KEY_HOLES
10
249.038739
20
113.892073
70
0
0
VERTEX
8
KEY_HOLES
10
248.729638
20
114.909267
70
0
0
VERTEX
8
KEY_HOLES
10
248.228940
20
115.847099
70
0
0
VERTEX
8
KEY_HOLES
10
247.548486
20
116.676986
70
0
0
VERTEX
8
KEY_HOLES
10
246.718599
20
117.357440
70
0
0
VERTEX
8
KEY_HOLES
10
245.780767
20
117.858138
70
0
0
VERTEX
8
KEY_HOLES
10
244.763573
20
118.167239
70
0
0
VERTEX
8
KEY_HOLES
10
243.695600
20
118.272903
70
0
0
VERTEX
8
KEY_HOLES
10
243.695600
20
118.272903
70
0
0
SEQEND
8
KEY_HOLES
0
POLYLINE
8
KEY_HOLES
62
10
70
0
10
0.000000
20
0.000000
66
1
0
VERTEX
8
KEY_HOLES
10
262.708470
20
118.335743
70
0
0
VERTEX
8
KEY_HOLES
10
261.110758
20
118.096499
70
0
0
VERTEX
8
KEY_HOLES
10
259.681277
20
117.417454
70
0
0
VERTEX
8
KEY_HOLES
10
258.506883
20
116.356646
70
0
0
VERTEX
8
KEY_HOLES
10
257.674432
20
114.972107
70
0
0
VERTEX
8
KEY_HOLES
10
257.284047
20
113.404458
70
0
0
VERTEX
8
KEY_HOLES
10
257.364364
20
111.823931
70
0
0
VERTEX
8
KEY_HOLES
10
257.895002
20
110.332979
70
0
0
VERTEX
8
KEY_HOLES
10
258.855584
20
109.034054
70
0
0
VERTEX
8
KEY_HOLES
10
260.154509
20
108.073472
70
0
0
VERTEX
8
KEY_HOLES
10
261.645461
20
107.542834
70
0
0
VERTEX
8
KEY_HOLES
10
263.225988
20
107.462517
70
0
0
VERTEX
8
KEY_HOLES
10
264.793637
20
107.852902
70
0
0
VERTEX
8
KEY_HOLES
10
266.178176
20
108.685353
70
0
0
VERTEX
8
KEY_HOLES
10
267.238984
20
109.859747
70
0
0
VERTEX
8
KEY_HOLES
10
267.918029
20
111.289228
70
0
0
VERTEX
8
KEY_HOLES
10
268.157273
20
112.886940
70
0
0
VERTEX
8
KEY_HOLES
10
268.051609
20
113.954913
70
0
0
VERTEX
8
KEY_HOLES
10
267.742508
20
114.972107
70
0
0
VERTEX
8
KEY_HOLES
10
267.241810
20
115.909939
70
0
0
VERTEX
8
KEY_HOLES
10
266.561356
20
116.739826
70
0
0
VERTEX
8
KEY_HOLES
10
265.731469
20
117.420280
70
0
0
VERTEX
8
KEY_HOLES
10
264.793637
20
117.920978
70
0
0
VERTEX
8
KEY_HOLES
10
263.776443
20
118.230079
70
0
0
VERTEX
8
KEY_HOLES
10
262.708470
20
118.335743
70
0
0
VERTEX
8
KEY_HOLES
10
262.708470
20
118.335743
70
0
0
SEQEND
8
KEY_HOLES
0
POLYLINE
8
KEY_HOLES
62
10
70
0
10
0.000000
20
0.000000
66
1
0
VERTEX
8
KEY_HOLES
10
281.797000
20
118.208713
70
0
0
VERTEX
8
KEY_HOLES
10
280.199288
20
117.969469
70
0
0
VERTEX
8
KEY_HOLES
10
278.769807
20
117.290424
70
0
0
VERTEX
8
KEY_HOLES
10
277.595413
20
116.229616
70
0
0
VERTEX
8
KEY_HOLES
10
276.762962
20
114.845077
70
0
0
VERTEX
8
KEY_HOLES
10
276.372577
20
113.277428
70
0
0
VERTEX
8
KEY_HOLES
10
276.452894
20
111.696901
70
0
0
VERTEX
8
KEY_HOLES
10
276.983532
20
110.205949
70
0
0
VERTEX
8
KEY_HOLES
10
277.944114
20
108.907024
70
0
0
VERTEX
8
KEY_HOLES
10
279.243039
20
107.946442
70
0
0
VERTEX
8
KEY_HOLES
10
280.733991
20
107.415804
70
0
0
VERTEX
8
KEY_HOLES
10
282.314518
20
107.335487
70
0
0
VERTEX
8
KEY_HOLES
10
283.882167
20
107.725872
70
0
0
VERTEX
8
KEY_HOLES
10
285.266706
20
108.558323
70
0
0
VERTEX
8
KEY_HOLES
10
286.327514
20
109.732717
70
0
0
VERTEX
8
KEY_HOLES
10
287.006559
20
111.162198
70
0
0
VERTEX
8
KEY_HOLES
10
287.245803
20
112.759910
70
0
0
VERTEX
8
KEY_HOLES
10
287.140139
20
113.827883
70
0
0
VERTEX
8
KEY_HOLES
10
286.831038
20
114.845077
70
0
0
VERTEX
8
KEY_HOLES
10
286.330340
20
115.782909
70
0
0
VERTEX
8
KEY_HOLES
10
285.649886
20
116.612796
70
0
0
VERTEX
8
KEY_HOLES
10
284.819999
20
117.293250
70
0
0
VERTEX
8
KEY_HOLES
10
283.882167
20
117.793948
70
0
0
VERTEX
8
KEY_HOLES
10
282.864973
20
118.103049
70
0
0
VERTEX
8
KEY_HOLES
10
281.797000
20
118.208713
70
0
0
VERTEX
8
KEY_HOLES
10
281.797000
20
118.208713
70
0
0
SEQEND
8
KEY_HOLES
0
POLYLINE
8
KEY_HOLES
62
10
70
0
10
0.000000
20
0.000000
66
1
0
VERTEX
8
KEY_HOLES
10
300.754790
20
118.256853
70
0
0
VERTEX
8
KEY_HOLES
10
299.157078
20
118.017609
70
0
0
VERTEX
8
KEY_HOLES
10
297.727597
20
117.338564
70
0
0
VERTEX
8
KEY_HOLES
10
296.553203
20
116.277756
70
0
0
VERTEX
8
KEY_HOLES
10
295.720752
20
114.893217
70
0
0
VERTEX
8
KEY_HOLES
10
295.330367
20
113.325568
70
0
0
VERTEX
8
KEY_HOLES
10
295.410684
20
111.745041
70
0
0
VERTEX
8
KEY_HOLES
10
295.941322
20
110.254089
70
0
0
VERTEX
8
KEY_HOLES
10
296.901904
20
108.955164
70
0
0
VERTEX
8
KEY_HOLES
10
298.200829
20
107.994582
70
0
0
VERTEX
8
KEY_HOLES
10
299.691781
20
107.463944
70
0
0
VERTEX
8
KEY_HOLES
10
301.272308
20
107.383627
70
0
0
VERTEX
8
KEY_HOLES
10
302.839957
20
107.774012
70
0
0
VERTEX
8
KEY_HOLES
10
304.224496
20
108.606463
70
0
0
VERTEX
8
KEY_HOLES
10
305.285304
20
109.780857
70
0
0
VERTEX
8
KEY_HOLES
10
305.964349
20
111.210338
70
0
0
VERTEX
8
KEY_HOLES
10
306.203593
20
112.808050
70
0
0
VERTEX
8
KEY_HOLES
10
306.097929
20
113.876023
70
0
0
VERTEX
8
KEY_HOLES
10
305.788828
20
114.893217
70
0
0
VERTEX
8
KEY_HOLES
10
305.288130
20
115.831049
70
0
0
VERTEX
8
KEY_HOLES
10
304.607676
20
116.660936
70
0
0
VERTEX
8
KEY_HOLES
10
303.777789
20
117.341390
70
0
0
VERTEX
8
KEY_HOLES
10
302.839957
20
117.842088
70
0
0
VERTEX
8
KEY_HOLES
10
301.822763
20
118.151189
70
0
0
VERTEX
8
KEY_HOLES
10
300.754790
20
118.256853
70
0
0
VERTEX
8
KEY_HOLES
10
300.754790
20
118.256853
70
0
0
SEQEND
8
KEY_HOLES
0
POLYLINE
8
KEY_HOLES
62
10
70
0
10
0.000000
20
0.000000
66
1
0
VERTEX
8
KEY_HOLES
10
300.708830
20
160.344183
70
0
0
VERTEX
8
KEY_HOLES
10
299.111118
20
160.104939
70
0
0
VERTEX
8
KEY_HOLES
10
297.681637
20
159.425894
70
0
0
VERTEX
8
KEY_HOLES
10
296.507243
20
158.365086
70
0
0
VERTEX
8
KEY_HOLES
10
295.674792
20
156.980547
70
0
0
VERTEX
8
KEY_HOLES
10
295.284407
20
155.412898
70
0
0
VERTEX
8
KEY_HOLES
10
295.364724
20
153.832371
70
0
0
VERTEX
8
KEY_HOLES
10
295.895362
20
152.341419
70
0
0
VERTEX
8
KEY_HOLES
10
296.855944
20
151.042494
70
0
0
VERTEX
8
KEY_HOLES
10
298.154869
20
150.081912
70
0
0
VERTEX
8
KEY_HOLES
10
299.645821
20
149.551274
70
0
0
VERTEX
8
KEY_HOLES
10
301.226348
20
149.470957
70
0
0
VERTEX
8
KEY_HOLES
10
302.793997
20
149.861342
70
0
0
VERTEX
8
KEY_HOLES
10
304.178536
20
150.693793
70
0
0
VERTEX
8
KEY_HOLES
10
305.239344
20
151.868187
70
0
0
VERTEX
8
KEY_HOLES
10
305.918389
20
153.297668
70
0
0
VERTEX
8
KEY_HOLES
10
306.157633
20
154.895380
70
0
0
VERTEX
8
KEY_HOLES
10
306.051969
20
155.963353
70
0
0
VERTEX
8
KEY_HOLES
10
305.742868
20
156.980547
70
0
0
VERTEX
8
KEY_HOLES
10
305.242170
20
157.918379
70
0
0
VERTEX
8
KEY_HOLES
10
304.561716
20
158.748266
70
0
0
VERTEX
8
KEY_HOLES
10
303.731829
20
159.428720
70
0
0
VERTEX
8
KEY_HOLES
10
302.793997
20
159.929418
70
0
0
VERTEX
8
KEY_HOLES
10
301.776803
20
160.238519
70
0
0
VERTEX
8
KEY_HOLES
10
300.708830
20
160.344183
70
0
0
VERTEX
8
KEY_HOLES
10
300.708830
20
160.344183
70
0
0
SEQEND
8
KEY_HOLES
0
POLYLINE
8
KEY_HOLES
62
10
70
0
10
0.000000
20
0.000000
66
1
0
VERTEX
8
KEY_HOLES
10
281.791140
20
160.145743
70
0
0
VERTEX
8
KEY_HOLES
10
280.193428
20
159.906499
70
0
0
VERTEX
8
KEY_HOLES
10
278.763947
20
159.227454
70
0
0
VERTEX
8
KEY_HOLES
10
277.589553
20
158.166646
70
0
0
VERTEX
8
KEY_HOLES
10
276.757102
20
156.782107
70
0
0
VERTEX
8
KEY_HOLES
10
276.366717
20
155.214458
70
0
0
VERTEX
8
KEY_HOLES
10
276.447034
20
153.633931
70
0
0
VERTEX
8
KEY_HOLES
10
276.977672
20
152.142979
70
0
0
VERTEX
8
KEY_HOLES
10
277.938254
20
150.844054
70
0
0
VERTEX
8
KEY_HOLES
10
279.237179
20
149.883472
70
0
0
VERTEX
8
KEY_HOLES
10
280.728131
20
149.352834
70
0
0
VERTEX
8
KEY_HOLES
10
282.308658
20
149.272517
70
0
0
VERTEX
8
KEY_HOLES
10
283.876307
20
149.662902
70
0
0
VERTEX
8
KEY_HOLES
10
285.260846
20
150.495353
70
0
0
VERTEX
8
KEY_HOLES
10
286.321654
20
151.669747
70
0
0
VERTEX
8
KEY_HOLES
10
287.000699
20
153.099228
70
0
0
VERTEX
8
KEY_HOLES
10
287.239943
20
154.696940
70
0
0
VERTEX
8
KEY_HOLES
10
287.129243
20
155.795064
70
0
0
VERTEX
8
KEY_HOLES
10
286.811749
20
156.817860
70
0
0
VERTEX
8
KEY_HOLES
10
286.309373
20
157.743418
70
0
0
VERTEX
8
KEY_HOLES
10
285.644026
20
158.549826
70
0
0
VERTEX
8
KEY_HOLES
10
284.837618
20
159.215173
70
0
0
VERTEX
8
KEY_HOLES
10
283.912060
20
159.717549
70
0
0
VERTEX
8
KEY_HOLES
10
282.889264
20
160.035043
70
0
0
VERTEX
8
KEY_HOLES
10
281.791140
20
160.145743
70
0
0
VERTEX
8
KEY_HOLES
10
281.791140
20
160.145743
70
0
0
SEQEND
8
KEY_HOLES
0
POLYLINE
8
KEY_HOLES
62
10
70
0
10
0.000000
20
0.000000
66
1
0
VERTEX
8
KEY_HOLES
10
262.674990
20
160.211883
70
0
0
VERTEX
8
KEY_HOLES
10
261.077278
20
159.972639
70
0
0
VERTEX
8
KEY_HOLES
10
259.647797
20
159.293594
70
0
0
VERTEX
8
KEY_HOLES
10
258.473403
20
158.232786
70
0
0
VERTEX
8
KEY_HOLES
10
257.640952
20
156.848247
70
0
0
VERTEX
8
KEY_HOLES
10
257.250567
20
155.280598
70
0
0
VERTEX
8
KEY_HOLES
10
257.330884
20
153.700071
70
0
0
VERTEX
8
KEY_HOLES
10
257.861522
20
152.209119
70
0
0
VERTEX
8
KEY_HOLES
10
258.822104
20
150.910194
70
0
0
VERTEX
8
KEY_HOLES
10
260.121029
20
149.949612
70
0
0
VERTEX
8
KEY_HOLES
10
261.611981
20
149.418974
70
0
0
VERTEX
8
KEY_HOLES
10
263.192508
20
149.338657
70
0
0
VERTEX
8
KEY_HOLES
10
264.760157
20
149.729042
70
0
0
VERTEX
8
KEY_HOLES
10
266.144696
20
150.561493
70
0
0
VERTEX
8
KEY_HOLES
10
267.205504
20
151.735887
70
0
0
VERTEX
8
KEY_HOLES
10
267.884549
20
153.165368
70
0
0
VERTEX
8
KEY_HOLES
10
268.123793
20
154.763080
70
0
0
VERTEX
8
KEY_HOLES
10
268.018129
20
155.831053
70
0
0
VERTEX
8
KEY_HOLES
10
267.709028
20
156.848247
70
0
0
VERTEX
8
KEY_HOLES
10
267.208330
20
157.786079
70
0
0
VERTEX
8
KEY_HOLES
10
266.527876
20
158.615966
70
0
0
VERTEX
8
KEY_HOLES
10
265.697989
20
159.296420
70
0
0
VERTEX
8
KEY_HOLES
10
264.760157
20
159.797118
70
0
0
VERTEX
8
KEY_HOLES
10
263.742963
20
160.106219
70
0
0
VERTEX
8
KEY_HOLES
10
262.674990
20
160.211883
70
0
0
VERTEX
8
KEY_HOLES
10
262.674990
20
160.211883
70
0
0
SEQEND
8
KEY_HOLES
0
POLYLINE
8
KEY_HOLES
62
10
70
0
10
0.000000
20
0.000000
66
1
0
VERTEX
8
KEY_HOLES
10
243.691130
20
160.211883
70
0
0
VERTEX
8
KEY_HOLES
10
242.093418
20
159.972639
70
0
0
VERTEX
8
KEY_HOLES
10
240.663937
20
159.293594
70
0
0
VERTEX
8
KEY_HOLES
10
239.489543
20
158.232786
70
0
0
VERTEX
8
KEY_HOLES
10
238.657092
20
156.848247
70
0
0
VERTEX
8
KEY_HOLES
10
238.266707
20
155.280598
70
0
0
VERTEX
8
KEY_HOLES
10
238.347024
20
153.700071
70
0
0
VERTEX
8
KEY_HOLES
10
238.877662
20
152.209119
70
0
0
VERTEX
8
KEY_HOLES
10
239.838244
20
150.910194
70
0
0
VERTEX
8
KEY_HOLES
10
241.137169
20
149.949612
70
0
0
VERTEX
8
KEY_HOLES
10
242.628121
20
149.418974
70
0
0
VERTEX
8
KEY_HOLES
10
244.208648
20
149.338657
70
0
0
VERTEX
8
KEY_HOLES
10
245.776297
20
149.729042
70
0
0
VERTEX
8
KEY_HOLES
10
247.160836
20
150.561493
70
0
0
VERTEX
8
KEY_HOLES
10
248.221644
20
151.735887
70
0
0
VERTEX
8
KEY_HOLES
10
248.900689
20
153.165368
70
0
0
VERTEX
8
KEY_HOLES
10
249.139933
20
154.763080
70
0
0
VERTEX
8
KEY_HOLES
10
249.034269
20
155.831053
70
0
0
VERTEX
8
KEY_HOLES
10
248.725168
20
156.848247
70
0
0
VERTEX
8
KEY_HOLES
10
248.224470
20
157.786079
70
0
0
VERTEX
8
KEY_HOLES
10
247.544016
20
158.615966
70
0
0
VERTEX
8
KEY_HOLES
10
246.714129
20
159.296420
70
0
0
VERTEX
8
KEY_HOLES
10
245.776297
20
159.797118
70
0
0
VERTEX
8
KEY_HOLES
10
244.759103
20
160.106219
70
0
0
VERTEX
8
KEY_HOLES
10
243.691130
20
160.211883
70
0
0
VERTEX
8
KEY_HOLES
10
243.691130
20
160.211883
70
0
0
SEQEND
8
KEY_HOLES
0
POLYLINE
8
KEY_HOLES
62
10
70
0
10
0.000000
20
0.000000
66
1
0
VERTEX
8
KEY_HOLES
10
215.116130
20
160.278033
70
0
0
VERTEX
8
KEY_HOLES
10
213.518418
20
160.038789
70
0
0
VERTEX
8
KEY_HOLES
10
212.088937
20
159.359744
70
0
0
VERTEX
8
KEY_HOLES
10
210.914543
20
158.298936
70
0
0
VERTEX
8
KEY_HOLES
10
210.082092
20
156.914397
70
0
0
VERTEX
8
KEY_HOLES
10
209.691707
20
155.346748
70
0
0
VERTEX
8
KEY_HOLES
10
209.772024
20
153.766221
70
0
0
VERTEX
8
KEY_HOLES
10
210.302662
20
152.275269
70
0
0
VERTEX
8
KEY_HOLES
10
211.263244
20
150.976344
70
0
0
VERTEX
8
KEY_HOLES
10
212.562169
20
150.015762
70
0
0
VERTEX
8
KEY_HOLES
10
214.053121
20
149.485124
70
0
0
VERTEX
8
KEY_HOLES
10
215.633648
20
149.404807
70
0
0
VERTEX
8
KEY_HOLES
10
217.201297
20
149.795192
70
0
0
VERTEX
8
KEY_HOLES
10
218.585836
20
150.627643
70
0
0
VERTEX
8
KEY_HOLES
10
219.646644
20
151.802037
70
0
0
VERTEX
8
KEY_HOLES
10
220.325689
20
153.231518
70
0
0
VERTEX
8
KEY_HOLES
10
220.564933
20
154.829230
70
0
0
VERTEX
8
KEY_HOLES
10
220.459269
20
155.897203
70
0
0
VERTEX
8
KEY_HOLES
10
220.150168
20
156.914397
70
0
0
VERTEX
8
KEY_HOLES
10
219.649470
20
157.852229
70
0
0
VERTEX
8
KEY_HOLES
10
218.969016
20
158.682116
70
0
0
VERTEX
8
KEY_HOLES
10
218.139129
20
159.362570
70
0
0
VERTEX
8
KEY_HOLES
10
217.201297
20
159.863268
70
0
0
VERTEX
8
KEY_HOLES
10
216.184103
20
160.172369
70
0
0
VERTEX
8
KEY_HOLES
10
215.116130
20
160.278033
70
0
0
VERTEX
8
KEY_HOLES
10
215.116130
20
160.278033
70
0
0
SEQEND
8
KEY_HOLES
0
POLYLINE
8
KEY_HOLES
62
10
70
0
10
0.000000
20
0.000000
66
1
0
VERTEX
8
KEY_HOLES
10
196.132280
20
160.211883
70
0
0
VERTEX
8
KEY_HOLES
10
194.534568
20
159.972639
70
0
0
VERTEX
8
KEY_HOLES
10
193.105087
20
159.293594
70
0
0
VERTEX
8
KEY_HOLES
10
191.930693
20
158.232786
70
0
0
VERTEX
8
KEY_HOLES
10
191.098242
20
156.848247
70
0
0
VERTEX
8
KEY_HOLES
10
190.707857
20
155.280598
70
0
0
VERTEX
8
KEY_HOLES
10
190.788174
20
153.700071
70
0
0
VERTEX
8
KEY_HOLES
10
191.318812
20
152.209119
70
0
0
VERTEX
8
KEY_HOLES
10
192.279394
20
150.910194
70
0
0
VERTEX
8
KEY_HOLES
10
193.578319
20
149.949612
70
0
0
VERTEX
8
KEY_HOLES
10
195.069271
20
149.418974
70
0
0
VERTEX
8
KEY_HOLES
10
196.649798
20
149.338657
70
0
0
VERTEX
8
KEY_HOLES
10
198.217447
20
149.729042
70
0
0
VERTEX
8
KEY_HOLES
10
199.601986
20
150.561493
70
0
0
VERTEX
8
KEY_HOLES
10
200.662794
20
151.735887
70
0
0
VERTEX
8
KEY_HOLES
10
201.341839
20
153.165368
70
0
0
VERTEX
8
KEY_HOLES
10
201.581083
20
154.763080
70
0
0
VERTEX
8
KEY_HOLES
10
201.475419
20
155.831053
70
0
0
VERTEX
8
KEY_HOLES
10
201.166318
20
156.848247
70
0
0
VERTEX
8
KEY_HOLES
10
200.665620
20
157.786079
70
0
0
VERTEX
8
KEY_HOLES
10
199.985166
20
158.615966
70
0
0
VERTEX
8
KEY_HOLES
10
199.155279
20
159.296420
70
0
0
VERTEX
8
KEY_HOLES
10
198.217447
20
159.797118
70
0
0
VERTEX
8
KEY_HOLES
10
197.200253
20
160.106219
70
0
0
VERTEX
8
KEY_HOLES
10
196.132280
20
160.211883
70
0
0
VERTEX
8
KEY_HOLES
10
196.132280
20
160.211883
70
0
0
SEQEND
8
KEY_HOLES
0
POLYLINE
8
KEY_HOLES
62
10
70
0
10
0.000000
20
0.000000
66
1
0
VERTEX
8
KEY_HOLES
10
177.016130
20
160.278033
70
0
0
VERTEX
8
KEY_HOLES
10
175.418418
20
160.038789
70
0
0
VERTEX
8
KEY_HOLES
10
173.988937
20
159.359744
70
0
0
VERTEX
8
KEY_HOLES
10
172.814543
20
158.298936
70
0
0
VERTEX
8
KEY_HOLES
10
171.982092
20
156.914397
70
0
0
VERTEX
8
KEY_HOLES
10
171.591707
20
155.346748
70
0
0
VERTEX
8
KEY_HOLES
10
171.672024
20
153.766221
70
0
0
VERTEX
8
KEY_HOLES
10
172.202662
20
152.275269
70
0
0
VERTEX
8
KEY_HOLES
10
173.163244
20
150.976344
70
0
0
VERTEX
8
KEY_HOLES
10
174.462169
20
150.015762
70
0
0
VERTEX
8
KEY_HOLES
10
175.953121
20
149.485124
70
0
0
VERTEX
8
KEY_HOLES
10
177.533648
20
149.404807
70
0
0
VERTEX
8
KEY_HOLES
10
179.101297
20
149.795192
70
0
0
VERTEX
8
KEY_HOLES
10
180.485836
20
150.627643
70
0
0
VERTEX
8
KEY_HOLES
10
181.546644
20
151.802037
70
0
0
VERTEX
8
KEY_HOLES
10
182.225689
20
153.231518
70
0
0
VERTEX
8
KEY_HOLES
10
182.464933
20
154.829230
70
0
0
VERTEX
8
KEY_HOLES
10
182.359269
20
155.897203
70
0
0
VERTEX
8
KEY_HOLES
10
182.050168
20
156.914397
70
0
0
VERTEX
8
KEY_HOLES
10
181.549470
20
157.852229
70
0
0
VERTEX
8
KEY_HOLES
10
180.869016
20
158.682116
70
0
0
VERTEX
8
KEY_HOLES
10
180.039129
20
159.362570
70
0
0
VERTEX
8
KEY_HOLES
10
179.101297
20
159.863268
70
0
0
VERTEX
8
KEY_HOLES
10
178.084103
20
160.172369
70
0
0
VERTEX
8
KEY_HOLES
10
177.016130
20
160.278033
70
0
0
VERTEX
8
KEY_HOLES
10
177.016130
20
160.278033
70
0
0
SEQEND
8
KEY_HOLES
0
POLYLINE
8
KEY_HOLES
62
10
70
0
10
0.000000
20
0.000000
66
1
0
VERTEX
8
KEY_HOLES
10
158.032270
20
160.211883
70
0
0
VERTEX
8
KEY_HOLES
10
156.434558
20
159.972639
70
0
0
VERTEX
8
KEY_HOLES
10
155.005077
20
159.293594
70
0
0
VERTEX
8
KEY_HOLES
10
153.830683
20
158.232786
70
0
0
VERTEX
8
KEY_HOLES
10
152.998232
20
156.848247
70
0
0
VERTEX
8
KEY_HOLES
10
152.607847
20
155.280598
70
0
0
VERTEX
8
KEY_HOLES
10
152.688164
20
153.700071
70
0
0
VERTEX
8
KEY_HOLES
10
153.218802
20
152.209119
70
0
0
VERTEX
8
KEY_HOLES
10
154.179384
20
150.910194
70
0
0
VERTEX
8
KEY_HOLES
10
155.478309
20
149.949612
70
0
0
VERTEX
8
KEY_HOLES
10
156.969261
20
149.418974
70
0
0
VERTEX
8
KEY_HOLES
10
158.549788
20
149.338657
70
0
0
VERTEX
8
KEY_HOLES
10
160.117437
20
149.729042
70
0
0
VERTEX
8
KEY_HOLES
10
161.501976
20
150.561493
70
0
0
VERTEX
8
KEY_HOLES
10
162.562784
20
151.735887
70
0
0
VERTEX
8
KEY_HOLES
10
163.241829
20
153.165368
70
0
0
VERTEX
8
KEY_HOLES
10
163.481073
20
154.763080
70
0
0
VERTEX
8
KEY_HOLES
10
163.375409
20
155.831053
70
0
0
VERTEX
8
KEY_HOLES
10
163.066308
20
156.848247
70
0
0
VERTEX
8
KEY_HOLES
10
162.565610
20
157.786079
70
0
0
VERTEX
8
KEY_HOLES
10
161.885156
20
158.615966
70
0
0
VERTEX
8
KEY_HOLES
10
161.055269
20
159.296420
70
0
0
VERTEX
8
KEY_HOLES
10
160.117437
20
159.797118
70
0
0
VERTEX
8
KEY_HOLES
10
159.100243
20
160.106219
70
0
0
VERTEX
8
KEY_HOLES
10
158.032270
20
160.211883
70
0
0
VERTEX
8
KEY_HOLES
10
158.032270
20
160.211883
70
0
0
SEQEND
8
KEY_HOLES
0
POLYLINE
8
KEY_HOLES
62
10
70
0
10
0.000000
20
0.000000
66
1
0
VERTEX
8
KEY_HOLES
10
129.457290
20
160.278033
70
0
0
VERTEX
8
KEY_HOLES
10
128.359166
20
160.167333
70
0
0
VERTEX
8
KEY_HOLES
10
127.336370
20
159.849839
70
0
0
VERTEX
8
KEY_HOLES
10
126.410812
20
159.347463
70
0
0
VERTEX
8
KEY_HOLES
10
125.604404
20
158.682116
70
0
0
VERTEX
8
KEY_HOLES
10
124.939057
20
157.875708
70
0
0
VERTEX
8
KEY_HOLES
10
124.436681
20
156.950150
70
0
0
VERTEX
8
KEY_HOLES
10
124.119187
20
155.927354
70
0
0
VERTEX
8
KEY_HOLES
10
124.008487
20
154.829230
70
0
0
VERTEX
8
KEY_HOLES
10
124.119187
20
153.731106
70
0
0
VERTEX
8
KEY_HOLES
10
124.436681
20
152.708310
70
0
0
VERTEX
8
KEY_HOLES
10
124.939057
20
151.782752
70
0
0
VERTEX
8
KEY_HOLES
10
125.604404
20
150.976344
70
0
0
VERTEX
8
KEY_HOLES
10
126.410812
20
150.310997
70
0
0
VERTEX
8
KEY_HOLES
10
127.336370
20
149.808621
70
0
0
VERTEX
8
KEY_HOLES
10
128.359166
20
149.491127
70
0
0
VERTEX
8
KEY_HOLES
10
129.457290
20
149.380427
70
0
0
VERTEX
8
KEY_HOLES
10
130.555414
20
149.491127
70
0
0
VERTEX
8
KEY_HOLES
10
131.578210
20
149.808621
70
0
0
VERTEX
8
KEY_HOLES
10
132.503768
20
150.310997
70
0
0
VERTEX
8
KEY_HOLES
10
133.310176
20
150.976344
70
0
0
VERTEX
8
KEY_HOLES
10
133.975523
20
151.782752
70
0
0
VERTEX
8
KEY_HOLES
10
134.477899
20
152.708310
70
0
0
VERTEX
8
KEY_HOLES
10
134.795393
20
153.731106
70
0
0
VERTEX
8
KEY_HOLES
10
134.906093
20
154.829230
70
0
0
VERTEX
8
KEY_HOLES
10
134.800429
20
155.897203
70
0
0
VERTEX
8
KEY_HOLES
10
134.491328
20
156.914397
70
0
0
VERTEX
8
KEY_HOLES
10
133.990630
20
157.852229
70
0
0
VERTEX
8
KEY_HOLES
10
133.310176
20
158.682116
70
0
0
VERTEX
8
KEY_HOLES
10
132.480289
20
159.362570
70
0
0
VERTEX
8
KEY_HOLES
10
131.542457
20
159.863268
70
0
0
VERTEX
8
KEY_HOLES
10
130.525263
20
160.172369
70
0
0
VERTEX
8
KEY_HOLES
10
129.457290
20
160.278033
70
0
0
VERTEX
8
KEY_HOLES
10
129.457290
20
160.278033
70
0
0
SEQEND
8
KEY_HOLES
0
POLYLINE
8
KEY_HOLES
62
10
70
0
10
0.000000
20
0.000000
66
1
0
VERTEX
8
KEY_HOLES
10
110.407280
20
160.211883
70
0
0
VERTEX
8
KEY_HOLES
10
108.809568
20
159.972639
70
0
0
VERTEX
8
KEY_HOLES
10
107.380087
20
159.293594
70
0
0
VERTEX
8
KEY_HOLES
10
106.205693
20
158.232786
70
0
0
VERTEX
8
KEY_HOLES
10
105.373242
20
156.848247
70
0
0
VERTEX
8
KEY_HOLES
10
104.982857
20
155.280598
70
0
0
VERTEX
8
KEY_HOLES
10
105.063174
20
153.700071
70
0
0
VERTEX
8
KEY_HOLES
10
105.593812
20
152.209119
70
0
0
VERTEX
8
KEY_HOLES
10
106.554394
20
150.910194
70
0
0
VERTEX
8
KEY_HOLES
10
107.853319
20
149.949612
70
0
0
VERTEX
8
KEY_HOLES
10
109.344271
20
149.418974
70
0
0
VERTEX
8
KEY_HOLES
10
110.924798
20
149.338657
70
0
0
VERTEX
8
KEY_HOLES
10
112.492447
20
149.729042
70
0
0
VERTEX
8
KEY_HOLES
10
113.876986
20
150.561493
70
0
0
VERTEX
8
KEY_HOLES
10
114.937794
20
151.735887
70
0
0
VERTEX
8
KEY_HOLES
10
115.616839
20
153.165368
70
0
0
VERTEX
8
KEY_HOLES
10
115.856083
20
154.763080
70
0
0
VERTEX
8
KEY_HOLES
10
115.750419
20
155.831053
70
0
0
VERTEX
8
KEY_HOLES
10
115.441318
20
156.848247
70
0
0
VERTEX
8
KEY_HOLES
10
114.940620
20
157.786079
70
0
0
VERTEX
8
KEY_HOLES
10
114.260166
20
158.615966
70
0
0
VERTEX
8
KEY_HOLES
10
113.430279
20
159.296420
70
0
0
VERTEX
8
KEY_HOLES
10
112.492447
20
159.797118
70
0
0
VERTEX
8
KEY_HOLES
10
111.475253
20
160.106219
70
0
0
VERTEX
8
KEY_HOLES
10
110.407280
20
160.211883
70
0
0
VERTEX
8
KEY_HOLES
10
110.407280
20
160.211883
70
0
0
SEQEND
8
KEY_HOLES
0
POLYLINE
8
KEY_HOLES
62
10
70
0
10
0.000000
20
0.000000
66
1
0
VERTEX
8
KEY_HOLES
10
91.357285
20
160.145743
70
0
0
VERTEX
8
KEY_HOLES
10
89.759573
20
159.906499
70
0
0
VERTEX
8
KEY_HOLES
10
88.330092
20
159.227454
70
0
0
VERTEX
8
KEY_HOLES
10
87.155698
20
158.166646
70
0
0
VERTEX
8
KEY_HOLES
10
86.323247
20
156.782107
70
0
0
VERTEX
8
KEY_HOLES
10
85.932862
20
155.214458
70
0
0
VERTEX
8
KEY_HOLES
10
86.013179
20
153.633931
70
0
0
VERTEX
8
KEY_HOLES
10
86.543817
20
152.142979
70
0
0
VERTEX
8
KEY_HOLES
10
87.504399
20
150.844054
70
0
0
VERTEX
8
KEY_HOLES
10
88.803324
20
149.883472
70
0
0
VERTEX
8
KEY_HOLES
10
90.294276
20
149.352834
70
0
0
VERTEX
8
KEY_HOLES
10
91.874803
20
149.272517
70
0
0
VERTEX
8
KEY_HOLES
10
93.442452
20
149.662902
70
0
0
VERTEX
8
KEY_HOLES
10
94.826991
20
150.495353
70
0
0
VERTEX
8
KEY_HOLES
10
95.887799
20
151.669747
70
0
0
VERTEX
8
KEY_HOLES
10
96.566844
20
153.099228
70
0
0
VERTEX
8
KEY_HOLES
10
96.806088
20
154.696940
70
0
0
VERTEX
8
KEY_HOLES
10
96.700424
20
155.764913
70
0
0
VERTEX
8
KEY_HOLES
10
96.391323
20
156.782107
70
0
0
VERTEX
8
KEY_HOLES
10
95.890625
20
157.719939
70
0
0
VERTEX
8
KEY_HOLES
10
95.210171
20
158.549826
70
0
0
VERTEX
8
KEY_HOLES
10
94.380284
20
159.230280
70
0
0
VERTEX
8
KEY_HOLES
10
93.442452
20
159.730978
70
0
0
VERTEX
8
KEY_HOLES
10
92.425258
20
160.040079
70
0
0
VERTEX
8
KEY_HOLES
10
91.357285
20
160.145743
70
0
0
VERTEX
8
KEY_HOLES
10
91.357285
20
160.145743
70
0
0
SEQEND
8
KEY_HOLES
0
POLYLINE
8
KEY_HOLES
62
10
70
0
10
0.000000
20
0.000000
66
1
0
VERTEX
8
KEY_HOLES
10
72.373428
20
160.145743
70
0
0
VERTEX
8
KEY_HOLES
10
70.775716
20
159.906499
70
0
0
VERTEX
8
KEY_HOLES
10
69.346235
20
159.227454
70
0
0
VERTEX
8
KEY_HOLES
10
68.171841
20
158.166646
70
0
0
VERTEX
8
KEY_HOLES
10
67.339390
20
156.782107
70
0
0
VERTEX
8
KEY_HOLES
10
66.949005
20
155.214458
70
0
0
VERTEX
8
KEY_HOLES
10
67.029322
20
153.633931
70
0
0
VERTEX
8
KEY_HOLES
10
67.559960
20
152.142979
70
0
0
VERTEX
8
KEY_HOLES
10
68.520542
20
150.844054
70
0
0
VERTEX
8
KEY_HOLES
10
69.819467
20
149.883472
70
0
0
VERTEX
8
KEY_HOLES
10
71.310419
20
149.352834
70
0
0
VERTEX
8
KEY_HOLES
10
72.890946
20
149.272517
70
0
0
VERTEX
8
KEY_HOLES
10
74.458595
20
149.662902
70
0
0
VERTEX
8
KEY_HOLES
10
75.843134
20
150.495353
70
0
0
VERTEX
8
KEY_HOLES
10
76.903942
20
151.669747
70
0
0
VERTEX
8
KEY_HOLES
10
77.582987
20
153.099228
70
0
0
VERTEX
8
KEY_HOLES
10
77.822231
20
154.696940
70
0
0
VERTEX
8
KEY_HOLES
10
77.716567
20
155.764913
70
0
0
VERTEX
8
KEY_HOLES
10
77.407466
20
156.782107
70
0
0
VERTEX
8
KEY_HOLES
10
76.906768
20
157.719939
70
0
0
VERTEX
8
KEY_HOLES
10
76.226314
20
158.549826
70
0
0
VERTEX
8
KEY_HOLES
10
75.396427
20
159.230280
70
0
0
VERTEX
8
KEY_HOLES
10
74.458595
20
159.730978
70
0
0
VERTEX
8
KEY_HOLES
10
73.441401
20
160.040079
70
0
0
VERTEX
8
KEY_HOLES
10
72.373428
20
160.145743
70
0
0
VERTEX
8
KEY_HOLES
10
72.373428
20
160.145743
70
0
0
SEQEND
8
KEY_HOLES
0
POLYLINE
8
KEY_HOLES
62
10
70
0
10
0.000000
20
0.000000
66
1
0
VERTEX
8
KEY_HOLES
10
34.471867
20
160.145743
70
0
0
VERTEX
8
KEY_HOLES
10
32.874155
20
159.906499
70
0
0
VERTEX
8
KEY_HOLES
10
31.444674
20
159.227454
70
0
0
VERTEX
8
KEY_HOLES
10
30.270280
20
158.166646
70
0
0
VERTEX
8
KEY_HOLES
10
29.437829
20
156.782107
70
0
0
VERTEX
8
KEY_HOLES
10
29.047444
20
155.214458
70
0
0
VERTEX
8
KEY_HOLES
10
29.127761
20
153.633931
70
0
0
VERTEX
8
KEY_HOLES
10
29.658399
20
152.142979
70
0
0
VERTEX
8
KEY_HOLES
10
30.618981
20
150.844054
70
0
0
VERTEX
8
KEY_HOLES
10
31.917906
20
149.883472
70
0
0
VERTEX
8
KEY_HOLES
10
33.408858
20
149.352834
70
0
0
VERTEX
8
KEY_HOLES
10
34.989385
20
149.272517
70
0
0
VERTEX
8
KEY_HOLES
10
36.557034
20
149.662902
70
0
0
VERTEX
8
KEY_HOLES
10
37.941573
20
150.495353
70
0
0
VERTEX
8
KEY_HOLES
10
39.002381
20
151.669747
70
0
0
VERTEX
8
KEY_HOLES
10
39.681426
20
153.099228
70
0
0
VERTEX
8
KEY_HOLES
10
39.920670
20
154.696940
70
0
0
VERTEX
8
KEY_HOLES
10
39.815006
20
155.764913
70
0
0
VERTEX
8
KEY_HOLES
10
39.505905
20
156.782107
70
0
0
VERTEX
8
KEY_HOLES
10
39.005207
20
157.719939
70
0
0
VERTEX
8
KEY_HOLES
10
38.324753
20
158.549826
70
0
0
VERTEX
8
KEY_HOLES
10
37.494866
20
159.230280
70
0
0
VERTEX
8
KEY_HOLES
10
36.557034
20
159.730978
70
0
0
VERTEX
8
KEY_HOLES
10
35.539840
20
160.040079
70
0
0
VERTEX
8
KEY_HOLES
10
34.471867
20
160.145743
70
0
0
VERTEX
8
KEY_HOLES
10
34.471867
20
160.145743
70
0
0
SEQEND
8
KEY_HOLES
0
POLYLINE
8
HOLES_BIG
62
10
70
0
10
0.000000
20
0.000000
66
1
0
VERTEX
8
HOLES_BIG
10
357.186710
20
144.063216
70
0
0
VERTEX
8
HOLES_BIG
10
356.283331
20
143.927942
70
0
0
VERTEX
8
HOLES_BIG
10
355.475073
20
143.543996
70
0
0
VERTEX
8
HOLES_BIG
10
354.811046
20
142.944193
70
0
0
VERTEX
8
HOLES_BIG
10
354.340361
20
142.161346
70
0
0
VERTEX
8
HOLES_BIG
10
354.119630
20
141.274965
70
0
0
VERTEX
8
HOLES_BIG
10
354.165042
20
140.381303
70
0
0
VERTEX
8
HOLES_BIG
10
354.465076
20
139.538288
70
0
0
VERTEX
8
HOLES_BIG
10
355.008209
20
138.803849
70
0
0
VERTEX
8
HOLES_BIG
10
355.742648
20
138.260716
70
0
0
VERTEX
8
HOLES_BIG
10
356.585663
20
137.960682
70
0
0
VERTEX
8
HOLES_BIG
10
357.479325
20
137.915270
70
0
0
VERTEX
8
HOLES_BIG
10
358.365706
20
138.136001
70
0
0
VERTEX
8
HOLES_BIG
10
359.148553
20
138.606686
70
0
0
VERTEX
8
HOLES_BIG
10
359.748356
20
139.270713
70
0
0
VERTEX
8
HOLES_BIG
10
360.132302
20
140.078971
70
0
0
VERTEX
8
HOLES_BIG
10
360.267576
20
140.982350
70
0
0
VERTEX
8
HOLES_BIG
10
360.033059
20
142.161346
70
0
0
VERTEX
8
HOLES_BIG
10
359.365211
20
143.160851
70
0
0
VERTEX
8
HOLES_BIG
10
358.365706
20
143.828699
70
0
0
VERTEX
8
HOLES_BIG
10
357.186710
20
144.063216
70
0
0
VERTEX
8
HOLES_BIG
10
357.186710
20
144.063216
70
0
0
SEQEND
8
HOLES_BIG
0
POLYLINE
8
HOLES_BIG
62
10
70
0
10
0.000000
20
0.000000
66
1
0
VERTEX
8
HOLES_BIG
10
376.121340
20
165.146806
70
0
0
VERTEX
8
HOLES_BIG
10
375.217961
20
165.011532
70
0
0
VERTEX
8
HOLES_BIG
10
374.409703
20
164.627586
70
0
0
VERTEX
8
HOLES_BIG
10
373.745676
20
164.027783
70
0
0
VERTEX
8
HOLES_BIG
10
373.274991
20
163.244936
70
0
0
VERTEX
8
HOLES_BIG
10
373.054260
20
162.358555
70
0
0
VERTEX
8
HOLES_BIG
10
373.099672
20
161.464893
70
0
0
VERTEX
8
HOLES_BIG
10
373.399706
20
160.621878
70
0
0
VERTEX
8
HOLES_BIG
10
373.942839
20
159.887439
70
0
0
VERTEX
8
HOLES_BIG
10
374.677278
20
159.344306
70
0
0
VERTEX
8
HOLES_BIG
10
375.520293
20
159.044272
70
0
0
VERTEX
8
HOLES_BIG
10
376.413955
20
158.998860
70
0
0
VERTEX
8
HOLES_BIG
10
377.300336
20
159.219591
70
0
0
VERTEX
8
HOLES_BIG
10
378.083183
20
159.690276
70
0
0
VERTEX
8
HOLES_BIG
10
378.682986
20
160.354303
70
0
0
VERTEX
8
HOLES_BIG
10
379.066932
20
161.162561
70
0
0
VERTEX
8
HOLES_BIG
10
379.202206
20
162.065940
70
0
0
VERTEX
8
HOLES_BIG
10
378.967689
20
163.244936
70
0
0
VERTEX
8
HOLES_BIG
10
378.299841
20
164.244441
70
0
0
VERTEX
8
HOLES_BIG
10
377.300336
20
164.912289
70
0
0
VERTEX
8
HOLES_BIG
10
376.121340
20
165.146806
70
0
0
VERTEX
8
HOLES_BIG
10
376.121340
20
165.146806
70
0
0
SEQEND
8
HOLES_BIG
0
POLYLINE
8
HOLES_BIG
62
10
70
0
10
0.000000
20
0.000000
66
1
0
VERTEX
8
HOLES_BIG
10
357.203610
20
123.144216
70
0
0
VERTEX
8
HOLES_BIG
10
356.300231
20
123.008942
70
0
0
VERTEX
8
HOLES_BIG
10
355.491973
20
122.624996
70
0
0
VERTEX
8
HOLES_BIG
10
354.827946
20
122.025193
70
0
0
VERTEX
8
HOLES_BIG
10
354.357261
20
121.242346
70
0
0
VERTEX
8
HOLES_BIG
10
354.136530
20
120.355965
70
0
0
VERTEX
8
HOLES_BIG
10
354.181942
20
119.462303
70
0
0
VERTEX
8
HOLES_BIG
10
354.481976
20
118.619288
70
0
0
VERTEX
8
HOLES_BIG
10
355.025109
20
117.884849
70
0
0
VERTEX
8
HOLES_BIG
10
355.759548
20
117.341716
70
0
0
VERTEX
8
HOLES_BIG
10
356.602563
20
117.041682
70
0
0
VERTEX
8
HOLES_BIG
10
357.496225
20
116.996270
70
0
0
VERTEX
8
HOLES_BIG
10
358.382606
20
117.217001
70
0
0
VERTEX
8
HOLES_BIG
10
359.165453
20
117.687686
70
0
0
VERTEX
8
HOLES_BIG
10
359.765256
20
118.351713
70
0
0
VERTEX
8
HOLES_BIG
10
360.149202
20
119.159971
70
0
0
VERTEX
8
HOLES_BIG
10
360.284476
20
120.063350
70
0
0
VERTEX
8
HOLES_BIG
10
360.049959
20
121.242346
70
0
0
VERTEX
8
HOLES_BIG
10
359.382111
20
122.241851
70
0
0
VERTEX
8
HOLES_BIG
10
358.382606
20
122.909699
70
0
0
VERTEX
8
HOLES_BIG
10
357.203610
20
123.144216
70
0
0
VERTEX
8
HOLES_BIG
10
357.203610
20
123.144216
70
0
0
SEQEND
8
HOLES_BIG
0
POLYLINE
8
HOLES_BIG
62
10
70
0
10
0.000000
20
0.000000
66
1
0
VERTEX
8
HOLES_BIG
10
291.256260
20
165.246046
70
0
0
VERTEX
8
HOLES_BIG
10
290.352881
20
165.110772
70
0
0
VERTEX
8
HOLES_BIG
10
289.544623
20
164.726826
70
0
0
VERTEX
8
HOLES_BIG
10
288.880596
20
164.127023
70
0
0
VERTEX
8
HOLES_BIG
10
288.409911
20
163.344176
70
0
0
VERTEX
8
HOLES_BIG
10
288.189180
20
162.457795
70
0
0
VERTEX
8
HOLES_BIG
10
288.234592
20
161.564133
70
0
0
VERTEX
8
HOLES_BIG
10
288.534626
20
160.721118
70
0
0
VERTEX
8
HOLES_BIG
10
289.077759
20
159.986679
70
0
0
VERTEX
8
HOLES_BIG
10
289.812198
20
159.443546
70
0
0
VERTEX
8
HOLES_BIG
10
290.655213
20
159.143512
70
0
0
VERTEX
8
HOLES_BIG
10
291.548875
20
159.098100
70
0
0
VERTEX
8
HOLES_BIG
10
292.435256
20
159.318831
70
0
0
VERTEX
8
HOLES_BIG
10
293.218103
20
159.789516
70
0
0
VERTEX
8
HOLES_BIG
10
293.817906
20
160.453543
70
0
0
VERTEX
8
HOLES_BIG
10
294.201852
20
161.261801
70
0
0
VERTEX
8
HOLES_BIG
10
294.337126
20
162.165180
70
0
0
VERTEX
8
HOLES_BIG
10
294.102609
20
163.344176
70
0
0
VERTEX
8
HOLES_BIG
10
293.434761
20
164.343681
70
0
0
VERTEX
8
HOLES_BIG
10
292.435256
20
165.011529
70
0
0
VERTEX
8
HOLES_BIG
10
291.256260
20
165.246046
70
0
0
VERTEX
8
HOLES_BIG
10
291.256260
20
165.246046
70
0
0
SEQEND
8
HOLES_BIG
0
POLYLINE
8
HOLES_BIG
62
10
70
0
10
0.000000
20
0.000000
66
1
0
VERTEX
8
HOLES_BIG
10
290.197940
20
144.013236
70
0
0
VERTEX
8
HOLES_BIG
10
289.294561
20
143.877962
70
0
0
VERTEX
8
HOLES_BIG
10
288.486303
20
143.494016
70
0
0
VERTEX
8
HOLES_BIG
10
287.822276
20
142.894213
70
0
0
VERTEX
8
HOLES_BIG
10
287.351591
20
142.111366
70
0
0
VERTEX
8
HOLES_BIG
10
287.130860
20
141.224985
70
0
0
VERTEX
8
HOLES_BIG
10
287.176272
20
140.331323
70
0
0
VERTEX
8
HOLES_BIG
10
287.476306
20
139.488308
70
0
0
VERTEX
8
HOLES_BIG
10
288.019439
20
138.753869
70
0
0
VERTEX
8
HOLES_BIG
10
288.753878
20
138.210736
70
0
0
VERTEX
8
HOLES_BIG
10
289.596893
20
137.910702
70
0
0
VERTEX
8
HOLES_BIG
10
290.490555
20
137.865290
70
0
0
VERTEX
8
HOLES_BIG
10
291.376936
20
138.086021
70
0
0
VERTEX
8
HOLES_BIG
10
292.159783
20
138.556706
70
0
0
VERTEX
8
HOLES_BIG
10
292.759586
20
139.220733
70
0
0
VERTEX
8
HOLES_BIG
10
293.143532
20
140.028991
70
0
0
VERTEX
8
HOLES_BIG
10
293.278806
20
140.932370
70
0
0
VERTEX
8
HOLES_BIG
10
293.044289
20
142.111366
70
0
0
VERTEX
8
HOLES_BIG
10
292.376441
20
143.110871
70
0
0
VERTEX
8
HOLES_BIG
10
291.376936
20
143.778719
70
0
0
VERTEX
8
HOLES_BIG
10
290.197940
20
144.013236
70
0
0
VERTEX
8
HOLES_BIG
10
290.197940
20
144.013236
70
0
0
SEQEND
8
HOLES_BIG
0
POLYLINE
8
HOLES_BIG
62
10
70
0
10
0.000000
20
0.000000
66
1
0
VERTEX
8
HOLES_BIG
10
253.156270
20
144.079366
70
0
0
VERTEX
8
HOLES_BIG
10
252.252891
20
143.944092
70
0
0
VERTEX
8
HOLES_BIG
10
251.444633
20
143.560146
70
0
0
VERTEX
8
HOLES_BIG
10
250.780606
20
142.960343
70
0
0
VERTEX
8
HOLES_BIG
10
250.309921
20
142.177496
70
0
0
VERTEX
8
HOLES_BIG
10
250.089190
20
141.291115
70
0
0
VERTEX
8
HOLES_BIG
10
250.134602
20
140.397453
70
0
0
VERTEX
8
HOLES_BIG
10
250.434636
20
139.554438
70
0
0
VERTEX
8
HOLES_BIG
10
250.977769
20
138.819999
70
0
0
VERTEX
8
HOLES_BIG
10
251.712208
20
138.276866
70
0
0
VERTEX
8
HOLES_BIG
10
252.555223
20
137.976832
70
0
0
VERTEX
8
HOLES_BIG
10
253.448885
20
137.931420
70
0
0
VERTEX
8
HOLES_BIG
10
254.335266
20
138.152151
70
0
0
VERTEX
8
HOLES_BIG
10
255.118113
20
138.622836
70
0
0
VERTEX
8
HOLES_BIG
10
255.717916
20
139.286863
70
0
0
VERTEX
8
HOLES_BIG
10
256.101862
20
140.095121
70
0
0
VERTEX
8
HOLES_BIG
10
256.237136
20
140.998500
70
0
0
VERTEX
8
HOLES_BIG
10
256.002619
20
142.177496
70
0
0
VERTEX
8
HOLES_BIG
10
255.334771
20
143.177001
70
0
0
VERTEX
8
HOLES_BIG
10
254.335266
20
143.844849
70
0
0
VERTEX
8
HOLES_BIG
10
253.156270
20
144.079366
70
0
0
VERTEX
8
HOLES_BIG
10
253.156270
20
144.079366
70
0
0
SEQEND
8
HOLES_BIG
0
POLYLINE
8
HOLES_BIG
62
10
70
0
10
0.000000
20
0.000000
66
1
0
VERTEX
8
HOLES_BIG
10
234.172390
20
165.113756
70
0
0
VERTEX
8
HOLES_BIG
10
233.269011
20
164.978482
70
0
0
VERTEX
8
HOLES_BIG
10
232.460753
20
164.594536
70
0
0
VERTEX
8
HOLES_BIG
10
231.796726
20
163.994733
70
0
0
VERTEX
8
HOLES_BIG
10
231.326041
20
163.211886
70
0
0
VERTEX
8
HOLES_BIG
10
231.105310
20
162.325505
70
0
0
VERTEX
8
HOLES_BIG
10
231.150722
20
161.431843
70
0
0
VERTEX
8
HOLES_BIG
10
231.450756
20
160.588828
70
0
0
VERTEX
8
HOLES_BIG
10
231.993889
20
159.854389
70
0
0
VERTEX
8
HOLES_BIG
10
232.728328
20
159.311256
70
0
0
VERTEX
8
HOLES_BIG
10
233.571343
20
159.011222
70
0
0
VERTEX
8
HOLES_BIG
10
234.465005
20
158.965810
70
0
0
VERTEX
8
HOLES_BIG
10
235.351386
20
159.186541
70
0
0
VERTEX
8
HOLES_BIG
10
236.134233
20
159.657226
70
0
0
VERTEX
8
HOLES_BIG
10
236.734036
20
160.321253
70
0
0
VERTEX
8
HOLES_BIG
10
237.117982
20
161.129511
70
0
0
VERTEX
8
HOLES_BIG
10
237.253256
20
162.032890
70
0
0
VERTEX
8
HOLES_BIG
10
237.018739
20
163.211886
70
0
0
VERTEX
8
HOLES_BIG
10
236.350891
20
164.211391
70
0
0
VERTEX
8
HOLES_BIG
10
235.351386
20
164.879239
70
0
0
VERTEX
8
HOLES_BIG
10
234.172390
20
165.113756
70
0
0
VERTEX
8
HOLES_BIG
10
234.172390
20
165.113756
70
0
0
SEQEND
8
HOLES_BIG
0
POLYLINE
8
HOLES_BIG
62
10
70
0
10
0.000000
20
0.000000
66
1
0
VERTEX
8
HOLES_BIG
10
196.072390
20
144.013236
70
0
0
VERTEX
8
HOLES_BIG
10
195.169011
20
143.877962
70
0
0
VERTEX
8
HOLES_BIG
10
194.360753
20
143.494016
70
0
0
VERTEX
8
HOLES_BIG
10
193.696726
20
142.894213
70
0
0
VERTEX
8
HOLES_BIG
10
193.226041
20
142.111366
70
0
0
VERTEX
8
HOLES_BIG
10
193.005310
20
141.224985
70
0
0
VERTEX
8
HOLES_BIG
10
193.050722
20
140.331323
70
0
0
VERTEX
8
HOLES_BIG
10
193.350756
20
139.488308
70
0
0
VERTEX
8
HOLES_BIG
10
193.893889
20
138.753869
70
0
0
VERTEX
8
HOLES_BIG
10
194.628328
20
138.210736
70
0
0
VERTEX
8
HOLES_BIG
10
195.471343
20
137.910702
70
0
0
VERTEX
8
HOLES_BIG
10
196.365005
20
137.865290
70
0
0
VERTEX
8
HOLES_BIG
10
197.251386
20
138.086021
70
0
0
VERTEX
8
HOLES_BIG
10
198.034233
20
138.556706
70
0
0
VERTEX
8
HOLES_BIG
10
198.634036
20
139.220733
70
0
0
VERTEX
8
HOLES_BIG
10
199.017982
20
140.028991
70
0
0
VERTEX
8
HOLES_BIG
10
199.153256
20
140.932370
70
0
0
VERTEX
8
HOLES_BIG
10
198.918739
20
142.111366
70
0
0
VERTEX
8
HOLES_BIG
10
198.250891
20
143.110871
70
0
0
VERTEX
8
HOLES_BIG
10
197.251386
20
143.778719
70
0
0
VERTEX
8
HOLES_BIG
10
196.072390
20
144.013236
70
0
0
VERTEX
8
HOLES_BIG
10
196.072390
20
144.013236
70
0
0
SEQEND
8
HOLES_BIG
0
POLYLINE
8
HOLES_BIG
62
10
70
0
10
0.000000
20
0.000000
66
1
0
VERTEX
8
HOLES_BIG
10
139.054690
20
144.079366
70
0
0
VERTEX
8
HOLES_BIG
10
137.855478
20
143.837256
70
0
0
VERTEX
8
HOLES_BIG
10
136.876189
20
143.177001
70
0
0
VERTEX
8
HOLES_BIG
10
136.215934
20
142.197712
70
0
0
VERTEX
8
HOLES_BIG
10
135.973824
20
140.998500
70
0
0
VERTEX
8
HOLES_BIG
10
136.215934
20
139.799288
70
0
0
VERTEX
8
HOLES_BIG
10
136.876189
20
138.819999
70
0
0
VERTEX
8
HOLES_BIG
10
137.855478
20
138.159744
70
0
0
VERTEX
8
HOLES_BIG
10
139.054690
20
137.917634
70
0
0
VERTEX
8
HOLES_BIG
10
140.253902
20
138.159744
70
0
0
VERTEX
8
HOLES_BIG
10
141.233191
20
138.819999
70
0
0
VERTEX
8
HOLES_BIG
10
141.893446
20
139.799288
70
0
0
VERTEX
8
HOLES_BIG
10
142.135556
20
140.998500
70
0
0
VERTEX
8
HOLES_BIG
10
141.901039
20
142.177496
70
0
0
VERTEX
8
HOLES_BIG
10
141.233191
20
143.177001
70
0
0
VERTEX
8
HOLES_BIG
10
140.233686
20
143.844849
70
0
0
VERTEX
8
HOLES_BIG
10
139.054690
20
144.079366
70
0
0
VERTEX
8
HOLES_BIG
10
139.054690
20
144.079366
70
0
0
SEQEND
8
HOLES_BIG
0
POLYLINE
8
HOLES_BIG
62
10
70
0
10
0.000000
20
0.000000
66
1
0
VERTEX
8
HOLES_BIG
10
148.447390
20
165.113746
70
0
0
VERTEX
8
HOLES_BIG
10
147.544011
20
164.978472
70
0
0
VERTEX
8
HOLES_BIG
10
146.735753
20
164.594526
70
0
0
VERTEX
8
HOLES_BIG
10
146.071726
20
163.994723
70
0
0
VERTEX
8
HOLES_BIG
10
145.601041
20
163.211876
70
0
0
VERTEX
8
HOLES_BIG
10
145.380310
20
162.325495
70
0
0
VERTEX
8
HOLES_BIG
10
145.425722
20
161.431833
70
0
0
VERTEX
8
HOLES_BIG
10
145.725756
20
160.588818
70
0
0
VERTEX
8
HOLES_BIG
10
146.268889
20
159.854379
70
0
0
VERTEX
8
HOLES_BIG
10
147.003328
20
159.311246
70
0
0
VERTEX
8
HOLES_BIG
10
147.846343
20
159.011212
70
0
0
VERTEX
8
HOLES_BIG
10
148.740005
20
158.965800
70
0
0
VERTEX
8
HOLES_BIG
10
149.626386
20
159.186531
70
0
0
VERTEX
8
HOLES_BIG
10
150.409233
20
159.657216
70
0
0
VERTEX
8
HOLES_BIG
10
151.009036
20
160.321243
70
0
0
VERTEX
8
HOLES_BIG
10
151.392982
20
161.129501
70
0
0
VERTEX
8
HOLES_BIG
10
151.528256
20
162.032880
70
0
0
VERTEX
8
HOLES_BIG
10
151.293739
20
163.211876
70
0
0
VERTEX
8
HOLES_BIG
10
150.625891
20
164.211381
70
0
0
VERTEX
8
HOLES_BIG
10
149.626386
20
164.879229
70
0
0
VERTEX
8
HOLES_BIG
10
148.447390
20
165.113746
70
0
0
VERTEX
8
HOLES_BIG
10
148.447390
20
165.113746
70
0
0
SEQEND
8
HOLES_BIG
0
POLYLINE
8
HOLES_BIG
62
10
70
0
10
0.000000
20
0.000000
66
1
0
VERTEX
8
HOLES_BIG
10
100.954680
20
165.246036
70
0
0
VERTEX
8
HOLES_BIG
10
100.051301
20
165.110762
70
0
0
VERTEX
8
HOLES_BIG
10
99.243043
20
164.726816
70
0
0
VERTEX
8
HOLES_BIG
10
98.579016
20
164.127013
70
0
0
VERTEX
8
HOLES_BIG
10
98.108331
20
163.344166
70
0
0
VERTEX
8
HOLES_BIG
10
97.887600
20
162.457785
70
0
0
VERTEX
8
HOLES_BIG
10
97.933012
20
161.564123
70
0
0
VERTEX
8
HOLES_BIG
10
98.233046
20
160.721108
70
0
0
VERTEX
8
HOLES_BIG
10
98.776179
20
159.986669
70
0
0
VERTEX
8
HOLES_BIG
10
99.510618
20
159.443536
70
0
0
VERTEX
8
HOLES_BIG
10
100.353633
20
159.143502
70
0
0
VERTEX
8
HOLES_BIG
10
101.247295
20
159.098090
70
0
0
VERTEX
8
HOLES_BIG
10
102.133676
20
159.318821
70
0
0
VERTEX
8
HOLES_BIG
10
102.916523
20
159.789506
70
0
0
VERTEX
8
HOLES_BIG
10
103.516326
20
160.453533
70
0
0
VERTEX
8
HOLES_BIG
10
103.900272
20
161.261791
70
0
0
VERTEX
8
HOLES_BIG
10
104.035546
20
162.165170
70
0
0
VERTEX
8
HOLES_BIG
10
103.801029
20
163.344166
70
0
0
VERTEX
8
HOLES_BIG
10
103.133181
20
164.343671
70
0
0
VERTEX
8
HOLES_BIG
10
102.133676
20
165.011519
70
0
0
VERTEX
8
HOLES_BIG
10
100.954680
20
165.246036
70
0
0
VERTEX
8
HOLES_BIG
10
100.954680
20
165.246036
70
0
0
SEQEND
8
HOLES_BIG
0
POLYLINE
8
HOLES_BIG
62
10
70
0
10
0.000000
20
0.000000
66
1
0
VERTEX
8
HOLES_BIG
10
81.869598
20
143.829786
70
0
0
VERTEX
8
HOLES_BIG
10
80.966219
20
143.694512
70
0
0
VERTEX
8
HOLES_BIG
10
80.157961
20
143.310566
70
0
0
VERTEX
8
HOLES_BIG
10
79.493934
20
142.710763
70
0
0
VERTEX
8
HOLES_BIG
10
79.023249
20
141.927916
70
0
0
VERTEX
8
HOLES_BIG
10
78.802518
20
141.041535
70
0
0
VERTEX
8
HOLES_BIG
10
78.847930
20
140.147873
70
0
0
VERTEX
8
HOLES_BIG
10
79.147964
20
139.304858
70
0
0
VERTEX
8
HOLES_BIG
10
79.691097
20
138.570419
70
0
0
VERTEX
8
HOLES_BIG
10
80.425536
20
138.027286
70
0
0
VERTEX
8
HOLES_BIG
10
81.268551
20
137.727252
70
0
0
VERTEX
8
HOLES_BIG
10
82.162213
20
137.681840
70
0
0
VERTEX
8
HOLES_BIG
10
83.048594
20
137.902571
70
0
0
VERTEX
8
HOLES_BIG
10
83.831441
20
138.373256
70
0
0
VERTEX
8
HOLES_BIG
10
84.431244
20
139.037283
70
0
0
VERTEX
8
HOLES_BIG
10
84.815190
20
139.845541
70
0
0
VERTEX
8
HOLES_BIG
10
84.950464
20
140.748920
70
0
0
VERTEX
8
HOLES_BIG
10
84.715947
20
141.927916
70
0
0
VERTEX
8
HOLES_BIG
10
84.048099
20
142.927421
70
0
0
VERTEX
8
HOLES_BIG
10
83.048594
20
143.595269
70
0
0
VERTEX
8
HOLES_BIG
10
81.869598
20
143.829786
70
0
0
VERTEX
8
HOLES_BIG
10
81.869598
20
143.829786
70
0
0
SEQEND
8
HOLES_BIG
0
POLYLINE
8
HOLES_BIG
62
10
70
0
10
0.000000
20
0.000000
66
1
0
VERTEX
8
HOLES_BIG
10
44.003124
20
144.145506
70
0
0
VERTEX
8
HOLES_BIG
10
42.803912
20
143.903396
70
0
0
VERTEX
8
HOLES_BIG
10
41.824623
20
143.243141
70
0
0
VERTEX
8
HOLES_BIG
10
41.164368
20
142.263852
70
0
0
VERTEX
8
HOLES_BIG
10
40.922258
20
141.064640
70
0
0
VERTEX
8
HOLES_BIG
10
41.164368
20
139.865428
70
0
0
VERTEX
8
HOLES_BIG
10
41.824623
20
138.886139
70
0
0
VERTEX
8
HOLES_BIG
10
42.803912
20
138.225884
70
0
0
VERTEX
8
HOLES_BIG
10
44.003124
20
137.983774
70
0
0
VERTEX
8
HOLES_BIG
10
45.202336
20
138.225884
70
0
0
VERTEX
8
HOLES_BIG
10
46.181625
20
138.886139
70
0
0
VERTEX
8
HOLES_BIG
10
46.841880
20
139.865428
70
0
0
VERTEX
8
HOLES_BIG
10
47.083990
20
141.064640
70
0
0
VERTEX
8
HOLES_BIG
10
46.849473
20
142.243636
70
0
0
VERTEX
8
HOLES_BIG
10
46.181625
20
143.243141
70
0
0
VERTEX
8
HOLES_BIG
10
45.182120
20
143.910989
70
0
0
VERTEX
8
HOLES_BIG
10
44.003124
20
144.145506
70
0
0
VERTEX
8
HOLES_BIG
10
44.003124
20
144.145506
70
0
0
SEQEND
8
HOLES_BIG
0
POLYLINE
8
HOLES_BIG
62
10
70
0
10
0.000000
20
0.000000
66
1
0
VERTEX
8
HOLES_BIG
10
24.820833
20
165.047596
70
0
0
VERTEX
8
HOLES_BIG
10
23.917454
20
164.912322
70
0
0
VERTEX
8
HOLES_BIG
10
23.109196
20
164.528376
70
0
0
VERTEX
8
HOLES_BIG
10
22.445169
20
163.928573
70
0
0
VERTEX
8
HOLES_BIG
10
21.974484
20
163.145726
70
0
0
VERTEX
8
HOLES_BIG
10
21.753753
20
162.259345
70
0
0
VERTEX
8
HOLES_BIG
10
21.799165
20
161.365683
70
0
0
VERTEX
8
HOLES_BIG
10
22.099199
20
160.522668
70
0
0
VERTEX
8
HOLES_BIG
10
22.642332
20
159.788229
70
0
0
VERTEX
8
HOLES_BIG
10
23.376771
20
159.245096
70
0
0
VERTEX
8
HOLES_BIG
10
24.219786
20
158.945062
70
0
0
VERTEX
8
HOLES_BIG
10
25.113448
20
158.899650
70
0
0
VERTEX
8
HOLES_BIG
10
25.999829
20
159.120381
70
0
0
VERTEX
8
HOLES_BIG
10
26.782676
20
159.591066
70
0
0
VERTEX
8
HOLES_BIG
10
27.382479
20
160.255093
70
0
0
VERTEX
8
HOLES_BIG
10
27.766425
20
161.063351
70
0
0
VERTEX
8
HOLES_BIG
10
27.901699
20
161.966730
70
0
0
VERTEX
8
HOLES_BIG
10
27.667182
20
163.145726
70
0
0
VERTEX
8
HOLES_BIG
10
26.999334
20
164.145231
70
0
0
VERTEX
8
HOLES_BIG
10
25.999829
20
164.813079
70
0
0
VERTEX
8
HOLES_BIG
10
24.820833
20
165.047596
70
0
0
VERTEX
8
HOLES_BIG
10
24.820833
20
165.047596
70
0
0
SEQEND
8
HOLES_BIG
0
POLYLINE
8
HOLES_BIG
62
10
70
0
10
0.000000
20
0.000000
66
1
0
VERTEX
8
HOLES_BIG
10
291.272310
20
123.099796
70
0
0
VERTEX
8
HOLES_BIG
10
290.368931
20
122.964522
70
0
0
VERTEX
8
HOLES_BIG
10
289.560673
20
122.580576
70
0
0
VERTEX
8
HOLES_BIG
10
288.896646
20
121.980773
70
0
0
VERTEX
8
HOLES_BIG
10
288.425961
20
121.197926
70
0
0
VERTEX
8
HOLES_BIG
10
288.205230
20
120.311545
70
0
0
VERTEX
8
HOLES_BIG
10
288.250642
20
119.417883
70
0
0
VERTEX
8
HOLES_BIG
10
288.550676
20
118.574868
70
0
0
VERTEX
8
HOLES_BIG
10
289.093809
20
117.840429
70
0
0
VERTEX
8
HOLES_BIG
10
289.828248
20
117.297296
70
0
0
VERTEX
8
HOLES_BIG
10
290.671263
20
116.997262
70
0
0
VERTEX
8
HOLES_BIG
10
291.564925
20
116.951850
70
0
0
VERTEX
8
HOLES_BIG
10
292.451306
20
117.172581
70
0
0
VERTEX
8
HOLES_BIG
10
293.234153
20
117.643266
70
0
0
VERTEX
8
HOLES_BIG
10
293.833956
20
118.307293
70
0
0
VERTEX
8
HOLES_BIG
10
294.217902
20
119.115551
70
0
0
VERTEX
8
HOLES_BIG
10
294.353176
20
120.018930
70
0
0
VERTEX
8
HOLES_BIG
10
294.111066
20
121.218142
70
0
0
VERTEX
8
HOLES_BIG
10
293.450811
20
122.197431
70
0
0
VERTEX
8
HOLES_BIG
10
292.471522
20
122.857686
70
0
0
VERTEX
8
HOLES_BIG
10
291.272310
20
123.099796
70
0
0
VERTEX
8
HOLES_BIG
10
291.272310
20
123.099796
70
0
0
SEQEND
8
HOLES_BIG
0
POLYLINE
8
HOLES_BIG
62
10
70
0
10
0.000000
20
0.000000
66
1
0
VERTEX
8
HOLES_BIG
10
215.212620
20
123.115846
70
0
0
VERTEX
8
HOLES_BIG
10
214.309241
20
122.980572
70
0
0
VERTEX
8
HOLES_BIG
10
213.500983
20
122.596626
70
0
0
VERTEX
8
HOLES_BIG
10
212.836956
20
121.996823
70
0
0
VERTEX
8
HOLES_BIG
10
212.366271
20
121.213976
70
0
0
VERTEX
8
HOLES_BIG
10
212.145540
20
120.327595
70
0
0
VERTEX
8
HOLES_BIG
10
212.190952
20
119.433933
70
0
0
VERTEX
8
HOLES_BIG
10
212.490986
20
118.590918
70
0
0
VERTEX
8
HOLES_BIG
10
213.034119
20
117.856479
70
0
0
VERTEX
8
HOLES_BIG
10
213.768558
20
117.313346
70
0
0
VERTEX
8
HOLES_BIG
10
214.611573
20
117.013312
70
0
0
VERTEX
8
HOLES_BIG
10
215.505235
20
116.967900
70
0
0
VERTEX
8
HOLES_BIG
10
216.391616
20
117.188631
70
0
0
VERTEX
8
HOLES_BIG
10
217.174463
20
117.659316
70
0
0
VERTEX
8
HOLES_BIG
10
217.774266
20
118.323343
70
0
0
VERTEX
8
HOLES_BIG
10
218.158212
20
119.131601
70
0
0
VERTEX
8
HOLES_BIG
10
218.293486
20
120.034980
70
0
0
VERTEX
8
HOLES_BIG
10
218.058969
20
121.213976
70
0
0
VERTEX
8
HOLES_BIG
10
217.391121
20
122.213481
70
0
0
VERTEX
8
HOLES_BIG
10
216.391616
20
122.881329
70
0
0
VERTEX
8
HOLES_BIG
10
215.212620
20
123.115846
70
0
0
VERTEX
8
HOLES_BIG
10
215.212620
20
123.115846
70
0
0
SEQEND
8
HOLES_BIG
0
POLYLINE
8
HOLES_BIG
62
10
70
0
10
0.000000
20
0.000000
66
1
0
VERTEX
8
HOLES_BIG
10
157.939730
20
122.944796
70
0
0
VERTEX
8
HOLES_BIG
10
156.740518
20
122.702686
70
0
0
VERTEX
8
HOLES_BIG
10
155.761229
20
122.042431
70
0
0
VERTEX
8
HOLES_BIG
10
155.100974
20
121.063142
70
0
0
VERTEX
8
HOLES_BIG
10
154.858864
20
119.863930
70
0
0
VERTEX
8
HOLES_BIG
10
155.100974
20
118.664718
70
0
0
VERTEX
8
HOLES_BIG
10
155.761229
20
117.685429
70
0
0
VERTEX
8
HOLES_BIG
10
156.740518
20
117.025174
70
0
0
VERTEX
8
HOLES_BIG
10
157.939730
20
116.783064
70
0
0
VERTEX
8
HOLES_BIG
10
159.138942
20
117.025174
70
0
0
VERTEX
8
HOLES_BIG
10
160.118231
20
117.685429
70
0
0
VERTEX
8
HOLES_BIG
10
160.778486
20
118.664718
70
0
0
VERTEX
8
HOLES_BIG
10
161.020596
20
119.863930
70
0
0
VERTEX
8
HOLES_BIG
10
160.786079
20
121.042926
70
0
0
VERTEX
8
HOLES_BIG
10
160.118231
20
122.042431
70
0
0
VERTEX
8
HOLES_BIG
10
159.118726
20
122.710279
70
0
0
VERTEX
8
HOLES_BIG
10
157.939730
20
122.944796
70
0
0
VERTEX
8
HOLES_BIG
10
157.939730
20
122.944796
70
0
0
SEQEND
8
HOLES_BIG
0
POLYLINE
8
HOLES_BIG
62
10
70
0
10
0.000000
20
0.000000
66
1
0
VERTEX
8
HOLES_BIG
10
100.895200
20
123.163986
70
0
0
VERTEX
8
HOLES_BIG
10
99.991821
20
123.028712
70
0
0
VERTEX
8
HOLES_BIG
10
99.183563
20
122.644766
70
0
0
VERTEX
8
HOLES_BIG
10
98.519536
20
122.044963
70
0
0
VERTEX
8
HOLES_BIG
10
98.048851
20
121.262116
70
0
0
VERTEX
8
HOLES_BIG
10
97.828120
20
120.375735
70
0
0
VERTEX
8
HOLES_BIG
10
97.873532
20
119.482073
70
0
0
VERTEX
8
HOLES_BIG
10
98.173566
20
118.639058
70
0
0
VERTEX
8
HOLES_BIG
10
98.716699
20
117.904619
70
0
0
VERTEX
8
HOLES_BIG
10
99.451138
20
117.361486
70
0
0
VERTEX
8
HOLES_BIG
10
100.294153
20
117.061452
70
0
0
VERTEX
8
HOLES_BIG
10
101.187815
20
117.016040
70
0
0
VERTEX
8
HOLES_BIG
10
102.074196
20
117.236771
70
0
0
VERTEX
8
HOLES_BIG
10
102.857043
20
117.707456
70
0
0
VERTEX
8
HOLES_BIG
10
103.456846
20
118.371483
70
0
0
VERTEX
8
HOLES_BIG
10
103.840792
20
119.179741
70
0
0
VERTEX
8
HOLES_BIG
10
103.976066
20
120.083120
70
0
0
VERTEX
8
HOLES_BIG
10
103.741549
20
121.262116
70
0
0
VERTEX
8
HOLES_BIG
10
103.073701
20
122.261621
70
0
0
VERTEX
8
HOLES_BIG
10
102.074196
20
122.929469
70
0
0
VERTEX
8
HOLES_BIG
10
100.895200
20
123.163986
70
0
0
VERTEX
8
HOLES_BIG
10
100.895200
20
123.163986
70
0
0
SEQEND
8
HOLES_BIG
0
POLYLINE
8
HOLES_BIG
62
10
70
0
10
0.000000
20
0.000000
66
1
0
VERTEX
8
HOLES_BIG
10
43.852028
20
123.133276
70
0
0
VERTEX
8
HOLES_BIG
10
42.948649
20
122.998002
70
0
0
VERTEX
8
HOLES_BIG
10
42.140391
20
122.614056
70
0
0
VERTEX
8
HOLES_BIG
10
41.476364
20
122.014253
70
0
0
VERTEX
8
HOLES_BIG
10
41.005679
20
121.231406
70
0
0
VERTEX
8
HOLES_BIG
10
40.784948
20
120.345025
70
0
0
VERTEX
8
HOLES_BIG
10
40.830360
20
119.451363
70
0
0
VERTEX
8
HOLES_BIG
10
41.130394
20
118.608348
70
0
0
VERTEX
8
HOLES_BIG
10
41.673527
20
117.873909
70
0
0
VERTEX
8
HOLES_BIG
10
42.407966
20
117.330776
70
0
0
VERTEX
8
HOLES_BIG
10
43.250981
20
117.030742
70
0
0
VERTEX
8
HOLES_BIG
10
44.144643
20
116.985330
70
0
0
VERTEX
8
HOLES_BIG
10
45.031024
20
117.206061
70
0
0
VERTEX
8
HOLES_BIG
10
45.813871
20
117.676746
70
0
0
VERTEX
8
HOLES_BIG
10
46.413674
20
118.340773
70
0
0
VERTEX
8
HOLES_BIG
10
46.797620
20
119.149031
70
0
0
VERTEX
8
HOLES_BIG
10
46.932894
20
120.052410
70
0
0
VERTEX
8
HOLES_BIG
10
46.698377
20
121.231406
70
0
0
VERTEX
8
HOLES_BIG
10
46.030529
20
122.230911
70
0
0
VERTEX
8
HOLES_BIG
10
45.031024
20
122.898759
70
0
0
VERTEX
8
HOLES_BIG
10
43.852028
20
123.133276
70
0
0
VERTEX
8
HOLES_BIG
10
43.852028
20
123.133276
70
0
0
SEQEND
8
HOLES_BIG
0
POLYLINE
8
SLOT
62
10
70
0
10
0.000000
20
0.000000
66
1
0
VERTEX
8
SLOT
10
317.964270
20
79.231900
70
0
0
VERTEX
8
SLOT
10
320.564270
20
79.231900
70
0
0
VERTEX
8
SLOT
10
321.207677
20
79.102002
70
0
0
VERTEX
8
SLOT
10
321.733089
20
78.747759
70
0
0
VERTEX
8
SLOT
10
322.087332
20
78.222347
70
0
0
VERTEX
8
SLOT
10
322.217230
20
77.578940
70
0
0
VERTEX
8
SLOT
10
322.217230
20
77.578940
70
0
0
VERTEX
8
SLOT
10
322.087332
20
76.935533
70
0
0
VERTEX
8
SLOT
10
321.733089
20
76.410121
70
0
0
VERTEX
8
SLOT
10
321.207677
20
76.055878
70
0
0
VERTEX
8
SLOT
10
320.564270
20
75.925980
70
0
0
VERTEX
8
SLOT
10
317.964270
20
75.925980
70
0
0
VERTEX
8
SLOT
10
317.320863
20
76.055878
70
0
0
VERTEX
8
SLOT
10
316.795451
20
76.410121
70
0
0
VERTEX
8
SLOT
10
316.441208
20
76.935533
70
0
0
VERTEX
8
SLOT
10
316.311310
20
77.578940
70
0
0
VERTEX
8
SLOT
10
316.311310
20
77.578940
70
0
0
VERTEX
8
SLOT
10
316.441208
20
78.222347
70
0
0
VERTEX
8
SLOT
10
316.795451
20
78.747759
70
0
0
VERTEX
8
SLOT
10
317.320863
20
79.102002
70
0
0
VERTEX
8
SLOT
10
317.964270
20
79.231900
70
0
0
VERTEX
8
SLOT
10
317.964270
20
79.231900
70
0
0
SEQEND
8
SLOT
0
POLYLINE
8
SLOT
62
10
70
0
10
0.000000
20
0.000000
66
1
0
VERTEX
8
SLOT
10
356.010170
20
79.277610
70
0
0
VERTEX
8
SLOT
10
358.610170
20
79.277610
70
0
0
VERTEX
8
SLOT
10
359.242730
20
79.151786
70
0
0
VERTEX
8
SLOT
10
359.778989
20
78.793469
70
0
0
VERTEX
8
SLOT
10
360.137306
20
78.257210
70
0
0
VERTEX
8
SLOT
10
360.263130
20
77.624650
70
0
0
VERTEX
8
SLOT
10
360.263130
20
77.624650
70
0
0
VERTEX
8
SLOT
10
360.137306
20
76.992090
70
0
0
VERTEX
8
SLOT
10
359.778989
20
76.455831
70
0
0
VERTEX
8
SLOT
10
359.242730
20
76.097514
70
0
0
VERTEX
8
SLOT
10
358.610170
20
75.971690
70
0
0
VERTEX
8
SLOT
10
356.010170
20
75.971690
70
0
0
VERTEX
8
SLOT
10
355.377610
20
76.097514
70
0
0
VERTEX
8
SLOT
10
354.841351
20
76.455831
70
0
0
VERTEX
8
SLOT
10
354.483034
20
76.992090
70
0
0
VERTEX
8
SLOT
10
354.357210
20
77.624650
70
0
0
VERTEX
8
SLOT
10
354.357210
20
77.624650
70
0
0
VERTEX
8
SLOT
10
354.483034
20
78.257210
70
0
0
VERTEX
8
SLOT
10
354.841351
20
78.793469
70
0
0
VERTEX
8
SLOT
10
355.377610
20
79.151786
70
0
0
VERTEX
8
SLOT
10
356.010170
20
79.277610
70
0
0
VERTEX
8
SLOT
10
356.010170
20
79.277610
70
0
0
SEQEND
8
SLOT
0
POLYLINE
8
SLOT
62
10
70
0
10
0.000000
20
0.000000
66
1
0
VERTEX
8
SLOT
10
242.696728
20
100.995830
70
0
0
VERTEX
8
SLOT
10
244.817162
20
100.995830
70
0
0
VERTEX
8
SLOT
10
245.607024
20
100.838717
70
0
0
VERTEX
8
SLOT
10
246.276636
20
100.391296
70
0
0
VERTEX
8
SLOT
10
246.724057
20
99.721684
70
0
0
VERTEX
8
SLOT
10
246.881170
20
98.931822
70
0
0
VERTEX
8
SLOT
10
246.881170
20
98.931822
70
0
0
VERTEX
8
SLOT
10
246.724057
20
98.141960
70
0
0
VERTEX
8
SLOT
10
246.276636
20
97.472348
70
0
0
VERTEX
8
SLOT
10
245.607024
20
97.024927
70
0
0
VERTEX
8
SLOT
10
244.817162
20
96.867813
70
0
0
VERTEX
8
SLOT
10
242.696728
20
96.867813
70
0
0
VERTEX
8
SLOT
10
241.893323
20
97.030013
70
0
0
VERTEX
8
SLOT
10
241.237254
20
97.472348
70
0
0
VERTEX
8
SLOT
10
240.794920
20
98.128417
70
0
0
VERTEX
8
SLOT
10
240.632720
20
98.931822
70
0
0
VERTEX
8
SLOT
10
240.632720
20
98.931822
70
0
0
VERTEX
8
SLOT
10
240.794920
20
99.735227
70
0
0
VERTEX
8
SLOT
10
241.237254
20
100.391296
70
0
0
VERTEX
8
SLOT
10
241.893323
20
100.833630
70
0
0
VERTEX
8
SLOT
10
242.696728
20
100.995830
70
0
0
VERTEX
8
SLOT
10
242.696728
20
100.995830
70
0
0
SEQEND
8
SLOT
0
POLYLINE
8
SLOT
62
10
70
0
10
0.000000
20
0.000000
66
1
0
VERTEX
8
SLOT
10
166.497158
20
100.932350
70
0
0
VERTEX
8
SLOT
10
168.617592
20
100.932350
70
0
0
VERTEX
8
SLOT
10
169.420997
20
100.770150
70
0
0
VERTEX
8
SLOT
10
170.077066
20
100.327816
70
0
0
VERTEX
8
SLOT
10
170.519400
20
99.671747
70
0
0
VERTEX
8
SLOT
10
170.681600
20
98.868342
70
0
0
VERTEX
8
SLOT
10
170.681600
20
98.868342
70
0
0
VERTEX
8
SLOT
10
170.519400
20
98.064937
70
0
0
VERTEX
8
SLOT
10
170.077066
20
97.408868
70
0
0
VERTEX
8
SLOT
10
169.420997
20
96.966533
70
0
0
VERTEX
8
SLOT
10
168.617592
20
96.804333
70
0
0
VERTEX
8
SLOT
10
166.497158
20
96.804333
70
0
0
VERTEX
8
SLOT
10
165.707296
20
96.961447
70
0
0
VERTEX
8
SLOT
10
165.037684
20
97.408868
70
0
0
VERTEX
8
SLOT
10
164.590263
20
98.078480
70
0
0
VERTEX
8
SLOT
10
164.433150
20
98.868342
70
0
0
VERTEX
8
SLOT
10
164.433150
20
98.868342
70
0
0
VERTEX
8
SLOT
10
164.590263
20
99.658204
70
0
0
VERTEX
8
SLOT
10
165.037684
20
100.327816
70
0
0
VERTEX
8
SLOT
10
165.707296
20
100.775237
70
0
0
VERTEX
8
SLOT
10
166.497158
20
100.932350
70
0
0
VERTEX
8
SLOT
10
166.497158
20
100.932350
70
0
0
SEQEND
8
SLOT
0
POLYLINE
8
SLOT
62
10
70
0
10
0.000000
20
0.000000
66
1
0
VERTEX
8
SLOT
10
90.405370
20
100.980490
70
0
0
VERTEX
8
SLOT
10
92.525804
20
100.980490
70
0
0
VERTEX
8
SLOT
10
93.315666
20
100.823377
70
0
0
VERTEX
8
SLOT
10
93.985278
20
100.375956
70
0
0
VERTEX
8
SLOT
10
94.432699
20
99.706344
70
0
0
VERTEX
8
SLOT
10
94.589812
20
98.916482
70
0
0
VERTEX
8
SLOT
10
94.589812
20
98.916482
70
0
0
VERTEX
8
SLOT
10
94.432699
20
98.126620
70
0
0
VERTEX
8
SLOT
10
93.985278
20
97.457008
70
0
0
VERTEX
8
SLOT
10
93.315666
20
97.009587
70
0
0
VERTEX
8
SLOT
10
92.525804
20
96.852473
70
0
0
VERTEX
8
SLOT
10
90.405370
20
96.852474
70
0
0
VERTEX
8
SLOT
10
89.615508
20
97.009587
70
0
0
VERTEX
8
SLOT
10
88.945896
20
97.457008
70
0
0
VERTEX
8
SLOT
10
88.498475
20
98.126620
70
0
0
VERTEX
8
SLOT
10
88.341362
20
98.916482
70
0
0
VERTEX
8
SLOT
10
88.341362
20
98.916482
70
0
0
VERTEX
8
SLOT
10
88.498475
20
99.706344
70
0
0
VERTEX
8
SLOT
10
88.945896
20
100.375956
70
0
0
VERTEX
8
SLOT
10
89.615508
20
100.823377
70
0
0
VERTEX
8
SLOT
10
90.405370
20
100.980490
70
0
0
VERTEX
8
SLOT
10
90.405370
20
100.980490
70
0
0
SEQEND
8
SLOT
0
POLYLINE
8
SLOT
62
10
70
0
10
0.000000
20
0.000000
66
1
0
VERTEX
8
SLOT
10
318.189878
20
101.033420
70
0
0
VERTEX
8
SLOT
10
320.228612
20
101.033420
70
0
0
VERTEX
8
SLOT
10
321.019683
20
100.876066
70
0
0
VERTEX
8
SLOT
10
321.690321
20
100.427960
70
0
0
VERTEX
8
SLOT
10
322.138427
20
99.757323
70
0
0
VERTEX
8
SLOT
10
322.295780
20
98.966252
70
0
0
VERTEX
8
SLOT
10
322.295780
20
98.966252
70
0
0
VERTEX
8
SLOT
10
322.138427
20
98.175181
70
0
0
VERTEX
8
SLOT
10
321.690321
20
97.504543
70
0
0
VERTEX
8
SLOT
10
321.019683
20
97.056437
70
0
0
VERTEX
8
SLOT
10
320.228612
20
96.899083
70
0
0
VERTEX
8
SLOT
10
318.189878
20
96.899083
70
0
0
VERTEX
8
SLOT
10
317.398807
20
97.056437
70
0
0
VERTEX
8
SLOT
10
316.728170
20
97.504543
70
0
0
VERTEX
8
SLOT
10
316.280064
20
98.175181
70
0
0
VERTEX
8
SLOT
10
316.122710
20
98.966252
70
0
0
VERTEX
8
SLOT
10
316.122710
20
98.966252
70
0
0
VERTEX
8
SLOT
10
316.280064
20
99.757323
70
0
0
VERTEX
8
SLOT
10
316.728170
20
100.427960
70
0
0
VERTEX
8
SLOT
10
317.398807
20
100.876066
70
0
0
VERTEX
8
SLOT
10
318.189878
20
101.033420
70
0
0
VERTEX
8
SLOT
10
318.189878
20
101.033420
70
0
0
SEQEND
8
SLOT
0
POLYLINE
8
SLOT
62
10
70
0
10
0.000000
20
0.000000
66
1
0
VERTEX
8
SLOT
10
318.260008
20
58.889950
70
0
0
VERTEX
8
SLOT
10
320.298742
20
58.889950
70
0
0
VERTEX
8
SLOT
10
321.089813
20
58.732596
70
0
0
VERTEX
8
SLOT
10
321.760451
20
58.284490
70
0
0
VERTEX
8
SLOT
10
322.208557
20
57.613853
70
0
0
VERTEX
8
SLOT
10
322.365910
20
56.822782
70
0
0
VERTEX
8
SLOT
10
322.365910
20
56.822782
70
0
0
VERTEX
8
SLOT
10
322.208557
20
56.031711
70
0
0
VERTEX
8
SLOT
10
321.760451
20
55.361073
70
0
0
VERTEX
8
SLOT
10
321.089813
20
54.912967
70
0
0
VERTEX
8
SLOT
10
320.298742
20
54.755614
70
0
0
VERTEX
8
SLOT
10
318.260008
20
54.755614
70
0
0
VERTEX
8
SLOT
10
317.468937
20
54.912967
70
0
0
VERTEX
8
SLOT
10
316.798300
20
55.361073
70
0
0
VERTEX
8
SLOT
10
316.350194
20
56.031711
70
0
0
VERTEX
8
SLOT
10
316.192840
20
56.822782
70
0
0
VERTEX
8
SLOT
10
316.192840
20
56.822782
70
0
0
VERTEX
8
SLOT
10
316.350194
20
57.613853
70
0
0
VERTEX
8
SLOT
10
316.798300
20
58.284490
70
0
0
VERTEX
8
SLOT
10
317.468937
20
58.732596
70
0
0
VERTEX
8
SLOT
10
318.260008
20
58.889950
70
0
0
VERTEX
8
SLOT
10
318.260008
20
58.889950
70
0
0
SEQEND
8
SLOT
0
POLYLINE
8
SLOT
62
10
70
0
10
0.000000
20
0.000000
66
1
0
VERTEX
8
SLOT
10
318.406248
20
37.752170
70
0
0
VERTEX
8
SLOT
10
320.444982
20
37.752170
70
0
0
VERTEX
8
SLOT
10
321.236053
20
37.594816
70
0
0
VERTEX
8
SLOT
10
321.906691
20
37.146710
70
0
0
VERTEX
8
SLOT
10
322.354797
20
36.476073
70
0
0
VERTEX
8
SLOT
10
322.512150
20
35.685002
70
0
0
VERTEX
8
SLOT
10
322.512150
20
35.685002
70
0
0
VERTEX
8
SLOT
10
322.354797
20
34.893931
70
0
0
VERTEX
8
SLOT
10
321.906691
20
34.223293
70
0
0
VERTEX
8
SLOT
10
321.236053
20
33.775187
70
0
0
VERTEX
8
SLOT
10
320.444982
20
33.617833
70
0
0
VERTEX
8
SLOT
10
318.406248
20
33.617833
70
0
0
VERTEX
8
SLOT
10
317.615177
20
33.775187
70
0
0
VERTEX
8
SLOT
10
316.944540
20
34.223293
70
0
0
VERTEX
8
SLOT
10
316.496434
20
34.893931
70
0
0
VERTEX
8
SLOT
10
316.339080
20
35.685002
70
0
0
VERTEX
8
SLOT
10
316.339080
20
35.685002
70
0
0
VERTEX
8
SLOT
10
316.496434
20
36.476073
70
0
0
VERTEX
8
SLOT
10
316.944540
20
37.146710
70
0
0
VERTEX
8
SLOT
10
317.615177
20
37.594816
70
0
0
VERTEX
8
SLOT
10
318.406248
20
37.752170
70
0
0
VERTEX
8
SLOT
10
318.406248
20
37.752170
70
0
0
SEQEND
8
SLOT
0
POLYLINE
8
SLOT
62
10
70
0
10
0.000000
20
0.000000
66
1
0
VERTEX
8
SLOT
10
356.431118
20
37.773380
70
0
0
VERTEX
8
SLOT
10
358.469852
20
37.773380
70
0
0
VERTEX
8
SLOT
10
359.260923
20
37.616026
70
0
0
VERTEX
8
SLOT
10
359.931561
20
37.167920
70
0
0
VERTEX
8
SLOT
10
360.379667
20
36.497283
70
0
0
VERTEX
8
SLOT
10
360.537020
20
35.706212
70
0
0
VERTEX
8
SLOT
10
360.537020
20
35.706212
70
0
0
VERTEX
8
SLOT
10
360.379667
20
34.915141
70
0
0
VERTEX
8
SLOT
10
359.931561
20
34.244503
70
0
0
VERTEX
8
SLOT
10
359.260923
20
33.796397
70
0
0
VERTEX
8
SLOT
10
358.469852
20
33.639043
70
0
0
VERTEX
8
SLOT
10
356.431118
20
33.639043
70
0
0
VERTEX
8
SLOT
10
355.640047
20
33.796397
70
0
0
VERTEX
8
SLOT
10
354.969410
20
34.244503
70
0
0
VERTEX
8
SLOT
10
354.521304
20
34.915141
70
0
0
VERTEX
8
SLOT
10
354.363950
20
35.706212
70
0
0
VERTEX
8
SLOT
10
354.363950
20
35.706212
70
0
0
VERTEX
8
SLOT
10
354.521304
20
36.497283
70
0
0
VERTEX
8
SLOT
10
354.969410
20
37.167920
70
0
0
VERTEX
8
SLOT
10
355.640047
20
37.616026
70
0
0
VERTEX
8
SLOT
10
356.431118
20
37.773380
70
0
0
VERTEX
8
SLOT
10
356.431118
20
37.773380
70
0
0
SEQEND
8
SLOT
0
POLYLINE
8
SLOT
62
10
70
0
10
0.000000
20
0.000000
66
1
0
VERTEX
8
SLOT
10
286.050998
20
37.723270
70
0
0
VERTEX
8
SLOT
10
288.089732
20
37.723270
70
0
0
VERTEX
8
SLOT
10
288.880803
20
37.565916
70
0
0
VERTEX
8
SLOT
10
289.551441
20
37.117810
70
0
0
VERTEX
8
SLOT
10
289.999547
20
36.447173
70
0
0
VERTEX
8
SLOT
10
290.156900
20
35.656102
70
0
0
VERTEX
8
SLOT
10
290.156900
20
35.656102
70
0
0
VERTEX
8
SLOT
10
289.999547
20
34.865031
70
0
0
VERTEX
8
SLOT
10
289.551441
20
34.194393
70
0
0
VERTEX
8
SLOT
10
288.880803
20
33.746287
70
0
0
VERTEX
8
SLOT
10
288.089732
20
33.588933
70
0
0
VERTEX
8
SLOT
10
286.050998
20
33.588933
70
0
0
VERTEX
8
SLOT
10
285.259927
20
33.746287
70
0
0
VERTEX
8
SLOT
10
284.589290
20
34.194393
70
0
0
VERTEX
8
SLOT
10
284.141184
20
34.865031
70
0
0
VERTEX
8
SLOT
10
283.983830
20
35.656102
70
0
0
VERTEX
8
SLOT
10
283.983830
20
35.656102
70
0
0
VERTEX
8
SLOT
10
284.141184
20
36.447173
70
0
0
VERTEX
8
SLOT
10
284.589290
20
37.117810
70
0
0
VERTEX
8
SLOT
10
285.259927
20
37.565916
70
0
0
VERTEX
8
SLOT
10
286.050998
20
37.723270
70
0
0
VERTEX
8
SLOT
10
286.050998
20
37.723270
70
0
0
SEQEND
8
SLOT
0
POLYLINE
8
SLOT
62
10
70
0
10
0.000000
20
0.000000
66
1
0
VERTEX
8
SLOT
10
257.353088
20
58.859210
70
0
0
VERTEX
8
SLOT
10
259.391822
20
58.859210
70
0
0
VERTEX
8
SLOT
10
260.182893
20
58.701856
70
0
0
VERTEX
8
SLOT
10
260.853531
20
58.253750
70
0
0
VERTEX
8
SLOT
10
261.301637
20
57.583113
70
0
0
VERTEX
8
SLOT
10
261.458990
20
56.792042
70
0
0
VERTEX
8
SLOT
10
261.458990
20
56.792042
70
0
0
VERTEX
8
SLOT
10
261.301637
20
56.000971
70
0
0
VERTEX
8
SLOT
10
260.853531
20
55.330333
70
0
0
VERTEX
8
SLOT
10
260.182893
20
54.882227
70
0
0
VERTEX
8
SLOT
10
259.391822
20
54.724873
70
0
0
VERTEX
8
SLOT
10
257.353088
20
54.724874
70
0
0
VERTEX
8
SLOT
10
256.562017
20
54.882227
70
0
0
VERTEX
8
SLOT
10
255.891380
20
55.330333
70
0
0
VERTEX
8
SLOT
10
255.443274
20
56.000971
70
0
0
VERTEX
8
SLOT
10
255.285920
20
56.792042
70
0
0
VERTEX
8
SLOT
10
255.285920
20
56.792042
70
0
0
VERTEX
8
SLOT
10
255.443274
20
57.583113
70
0
0
VERTEX
8
SLOT
10
255.891380
20
58.253750
70
0
0
VERTEX
8
SLOT
10
256.562017
20
58.701856
70
0
0
VERTEX
8
SLOT
10
257.353088
20
58.859210
70
0
0
VERTEX
8
SLOT
10
257.353088
20
58.859210
70
0
0
SEQEND
8
SLOT
0
POLYLINE
8
SLOT
62
10
70
0
10
0.000000
20
0.000000
66
1
0
VERTEX
8
SLOT
10
219.443098
20
37.707220
70
0
0
VERTEX
8
SLOT
10
221.481832
20
37.707220
70
0
0
VERTEX
8
SLOT
10
222.272903
20
37.549866
70
0
0
VERTEX
8
SLOT
10
222.943541
20
37.101760
70
0
0
VERTEX
8
SLOT
10
223.391647
20
36.431123
70
0
0
VERTEX
8
SLOT
10
223.549000
20
35.640052
70
0
0
VERTEX
8
SLOT
10
223.549000
20
35.640052
70
0
0
VERTEX
8
SLOT
10
223.391647
20
34.848981
70
0
0
VERTEX
8
SLOT
10
222.943541
20
34.178343
70
0
0
VERTEX
8
SLOT
10
222.272903
20
33.730237
70
0
0
VERTEX
8
SLOT
10
221.481832
20
33.572883
70
0
0
VERTEX
8
SLOT
10
219.443098
20
33.572883
70
0
0
VERTEX
8
SLOT
10
218.652027
20
33.730237
70
0
0
VERTEX
8
SLOT
10
217.981390
20
34.178343
70
0
0
VERTEX
8
SLOT
10
217.533284
20
34.848981
70
0
0
VERTEX
8
SLOT
10
217.375930
20
35.640052
70
0
0
VERTEX
8
SLOT
10
217.375930
20
35.640052
70
0
0
VERTEX
8
SLOT
10
217.533284
20
36.431123
70
0
0
VERTEX
8
SLOT
10
217.981390
20
37.101760
70
0
0
VERTEX
8
SLOT
10
218.652027
20
37.549866
70
0
0
VERTEX
8
SLOT
10
219.443098
20
37.707220
70
0
0
VERTEX
8
SLOT
10
219.443098
20
37.707220
70
0
0
SEQEND
8
SLOT
0
POLYLINE
8
SLOT
62
10
70
0
10
0.000000
20
0.000000
66
1
0
VERTEX
8
SLOT
10
176.249858
20
37.740300
70
0
0
VERTEX
8
SLOT
10
178.288592
20
37.740300
70
0
0
VERTEX
8
SLOT
10
179.079663
20
37.582946
70
0
0
VERTEX
8
SLOT
10
179.750301
20
37.134840
70
0
0
VERTEX
8
SLOT
10
180.198407
20
36.464203
70
0
0
VERTEX
8
SLOT
10
180.355760
20
35.673132
70
0
0
VERTEX
8
SLOT
10
180.355760
20
35.673132
70
0
0
VERTEX
8
SLOT
10
180.198407
20
34.882061
70
0
0
VERTEX
8
SLOT
10
179.750301
20
34.211423
70
0
0
VERTEX
8
SLOT
10
179.079663
20
33.763317
70
0
0
VERTEX
8
SLOT
10
178.288592
20
33.605963
70
0
0
VERTEX
8
SLOT
10
176.249858
20
33.605963
70
0
0
VERTEX
8
SLOT
10
175.458787
20
33.763317
70
0
0
VERTEX
8
SLOT
10
174.788150
20
34.211423
70
0
0
VERTEX
8
SLOT
10
174.340044
20
34.882061
70
0
0
VERTEX
8
SLOT
10
174.182690
20
35.673132
70
0
0
VERTEX
8
SLOT
10
174.182690
20
35.673132
70
0
0
VERTEX
8
SLOT
10
174.340044
20
36.464203
70
0
0
VERTEX
8
SLOT
10
174.788150
20
37.134840
70
0
0
VERTEX
8
SLOT
10
175.458787
20
37.582946
70
0
0
VERTEX
8
SLOT
10
176.249858
20
37.740300
70
0
0
VERTEX
8
SLOT
10
176.249858
20
37.740300
70
0
0
SEQEND
8
SLOT
0
POLYLINE
8
SLOT
62
10
70
0
10
0.000000
20
0.000000
66
1
0
VERTEX
8
SLOT
10
119.132938
20
37.773350
70
0
0
VERTEX
8
SLOT
10
121.171672
20
37.773350
70
0
0
VERTEX
8
SLOT
10
121.962743
20
37.615996
70
0
0
VERTEX
8
SLOT
10
122.633381
20
37.167890
70
0
0
VERTEX
8
SLOT
10
123.081487
20
36.497253
70
0
0
VERTEX
8
SLOT
10
123.238840
20
35.706182
70
0
0
VERTEX
8
SLOT
10
123.238840
20
35.706182
70
0
0
VERTEX
8
SLOT
10
123.081487
20
34.915111
70
0
0
VERTEX
8
SLOT
10
122.633381
20
34.244473
70
0
0
VERTEX
8
SLOT
10
121.962743
20
33.796367
70
0
0
VERTEX
8
SLOT
10
121.171672
20
33.639013
70
0
0
VERTEX
8
SLOT
10
119.132938
20
33.639013
70
0
0
VERTEX
8
SLOT
10
118.341867
20
33.796367
70
0
0
VERTEX
8
SLOT
10
117.671230
20
34.244473
70
0
0
VERTEX
8
SLOT
10
117.223124
20
34.915111
70
0
0
VERTEX
8
SLOT
10
117.065770
20
35.706182
70
0
0
VERTEX
8
SLOT
10
117.065770
20
35.706182
70
0
0
VERTEX
8
SLOT
10
117.223124
20
36.497253
70
0
0
VERTEX
8
SLOT
10
117.671230
20
37.167890
70
0
0
VERTEX
8
SLOT
10
118.341867
20
37.615996
70
0
0
VERTEX
8
SLOT
10
119.132938
20
37.773350
70
0
0
VERTEX
8
SLOT
10
119.132938
20
37.773350
70
0
0
SEQEND
8
SLOT
0
POLYLINE
8
SLOT
62
10
70
0
10
0.000000
20
0.000000
66
1
0
VERTEX
8
SLOT
10
48.125384
20
37.872600
70
0
0
VERTEX
8
SLOT
10
50.164118
20
37.872600
70
0
0
VERTEX
8
SLOT
10
50.955189
20
37.715246
70
0
0
VERTEX
8
SLOT
10
51.625827
20
37.267140
70
0
0
VERTEX
8
SLOT
10
52.073933
20
36.596503
70
0
0
VERTEX
8
SLOT
10
52.231286
20
35.805432
70
0
0
VERTEX
8
SLOT
10
52.231286
20
35.805432
70
0
0
VERTEX
8
SLOT
10
52.073933
20
35.014361
70
0
0
VERTEX
8
SLOT
10
51.625827
20
34.343723
70
0
0
VERTEX
8
SLOT
10
50.955189
20
33.895617
70
0
0
VERTEX
8
SLOT
10
50.164118
20
33.738263
70
0
0
VERTEX
8
SLOT
10
48.125384
20
33.738263
70
0
0
VERTEX
8
SLOT
10
47.334313
20
33.895617
70
0
0
VERTEX
8
SLOT
10
46.663676
20
34.343723
70
0
0
VERTEX
8
SLOT
10
46.215570
20
35.014361
70
0
0
VERTEX
8
SLOT
10
46.058216
20
35.805432
70
0
0
VERTEX
8
SLOT
10
46.058216
20
35.805432
70
0
0
VERTEX
8
SLOT
10
46.215570
20
36.596503
70
0
0
VERTEX
8
SLOT
10
46.663676
20
37.267140
70
0
0
VERTEX
8
SLOT
10
47.334313
20
37.715246
70
0
0
VERTEX
8
SLOT
10
48.125384
20
37.872600
70
0
0
VERTEX
8
SLOT
10
48.125384
20
37.872600
70
0
0
SEQEND
8
SLOT
0
POLYLINE
8
SLOT
62
10
70
0
10
0.000000
20
0.000000
66
1
0
VERTEX
8
SLOT
10
181.276948
20
58.873890
70
0
0
VERTEX
8
SLOT
10
183.315682
20
58.873890
70
0
0
VERTEX
8
SLOT
10
184.106753
20
58.716536
70
0
0
VERTEX
8
SLOT
10
184.777391
20
58.268430
70
0
0
VERTEX
8
SLOT
10
185.225497
20
57.597793
70
0
0
VERTEX
8
SLOT
10
185.382850
20
56.806722
70
0
0
VERTEX
8
SLOT
10
185.382850
20
56.806722
70
0
0
VERTEX
8
SLOT
10
185.225497
20
56.015651
70
0
0
VERTEX
8
SLOT
10
184.777391
20
55.345013
70
0
0
VERTEX
8
SLOT
10
184.106753
20
54.896907
70
0
0
VERTEX
8
SLOT
10
183.315682
20
54.739553
70
0
0
VERTEX
8
SLOT
10
181.276948
20
54.739553
70
0
0
VERTEX
8
SLOT
10
180.485877
20
54.896907
70
0
0
VERTEX
8
SLOT
10
179.815240
20
55.345013
70
0
0
VERTEX
8
SLOT
10
179.367134
20
56.015651
70
0
0
VERTEX
8
SLOT
10
179.209780
20
56.806722
70
0
0
VERTEX
8
SLOT
10
179.209780
20
56.806722
70
0
0
VERTEX
8
SLOT
10
179.367134
20
57.597793
70
0
0
VERTEX
8
SLOT
10
179.815240
20
58.268430
70
0
0
VERTEX
8
SLOT
10
180.485877
20
58.716536
70
0
0
VERTEX
8
SLOT
10
181.276948
20
58.873890
70
0
0
VERTEX
8
SLOT
10
181.276948
20
58.873890
70
0
0
SEQEND
8
SLOT
0
POLYLINE
8
SLOT
62
10
70
0
10
0.000000
20
0.000000
66
1
0
VERTEX
8
SLOT
10
143.077728
20
58.906960
70
0
0
VERTEX
8
SLOT
10
145.116462
20
58.906960
70
0
0
VERTEX
8
SLOT
10
145.907533
20
58.749606
70
0
0
VERTEX
8
SLOT
10
146.578171
20
58.301500
70
0
0
VERTEX
8
SLOT
10
147.026277
20
57.630863
70
0
0
VERTEX
8
SLOT
10
147.183630
20
56.839792
70
0
0
VERTEX
8
SLOT
10
147.183630
20
56.839792
70
0
0
VERTEX
8
SLOT
10
147.026277
20
56.048721
70
0
0
VERTEX
8
SLOT
10
146.578171
20
55.378083
70
0
0
VERTEX
8
SLOT
10
145.907533
20
54.929977
70
0
0
VERTEX
8
SLOT
10
145.116462
20
54.772624
70
0
0
VERTEX
8
SLOT
10
143.077728
20
54.772624
70
0
0
VERTEX
8
SLOT
10
142.286657
20
54.929977
70
0
0
VERTEX
8
SLOT
10
141.616020
20
55.378083
70
0
0
VERTEX
8
SLOT
10
141.167914
20
56.048721
70
0
0
VERTEX
8
SLOT
10
141.010560
20
56.839792
70
0
0
VERTEX
8
SLOT
10
141.010560
20
56.839792
70
0
0
VERTEX
8
SLOT
10
141.167914
20
57.630863
70
0
0
VERTEX
8
SLOT
10
141.616020
20
58.301500
70
0
0
VERTEX
8
SLOT
10
142.286657
20
58.749606
70
0
0
VERTEX
8
SLOT
10
143.077728
20
58.906960
70
0
0
VERTEX
8
SLOT
10
143.077728
20
58.906960
70
0
0
SEQEND
8
SLOT
0
POLYLINE
8
SLOT
62
10
70
0
10
0.000000
20
0.000000
66
1
0
VERTEX
8
SLOT
10
67.043090
20
58.906960
70
0
0
VERTEX
8
SLOT
10
69.081824
20
58.906960
70
0
0
VERTEX
8
SLOT
10
69.872895
20
58.749606
70
0
0
VERTEX
8
SLOT
10
70.543533
20
58.301500
70
0
0
VERTEX
8
SLOT
10
70.991639
20
57.630863
70
0
0
VERTEX
8
SLOT
10
71.148992
20
56.839792
70
0
0
VERTEX
8
SLOT
10
71.148992
20
56.839792
70
0
0
VERTEX
8
SLOT
10
70.991639
20
56.048721
70
0
0
VERTEX
8
SLOT
10
70.543533
20
55.378083
70
0
0
VERTEX
8
SLOT
10
69.872895
20
54.929977
70
0
0
VERTEX
8
SLOT
10
69.081824
20
54.772624
70
0
0
VERTEX
8
SLOT
10
67.043090
20
54.772624
70
0
0
VERTEX
8
SLOT
10
66.252019
20
54.929977
70
0
0
VERTEX
8
SLOT
10
65.581382
20
55.378083
70
0
0
VERTEX
8
SLOT
10
65.133276
20
56.048721
70
0
0
VERTEX
8
SLOT
10
64.975922
20
56.839792
70
0
0
VERTEX
8
SLOT
10
64.975922
20
56.839792
70
0
0
VERTEX
8
SLOT
10
65.133276
20
57.630863
70
0
0
VERTEX
8
SLOT
10
65.581382
20
58.301500
70
0
0
VERTEX
8
SLOT
10
66.252019
20
58.749606
70
0
0
VERTEX
8
SLOT
10
67.043090
20
58.906960
70
0
0
VERTEX
8
SLOT
10
67.043090
20
58.906960
70
0
0
SEQEND
8
SLOT
0
POLYLINE
8
SLOT
62
10
70
0
10
0.000000
20
0.000000
66
1
0
VERTEX
8
SLOT
10
171.362340
20
79.296380
70
0
0
VERTEX
8
SLOT
10
174.032498
20
79.296380
70
0
0
VERTEX
8
SLOT
10
174.704353
20
79.162740
70
0
0
VERTEX
8
SLOT
10
175.273924
20
78.782165
70
0
0
VERTEX
8
SLOT
10
175.654499
20
78.212594
70
0
0
VERTEX
8
SLOT
10
175.788139
20
77.540740
70
0
0
VERTEX
8
SLOT
10
175.788139
20
77.540740
70
0
0
VERTEX
8
SLOT
10
175.654499
20
76.868885
70
0
0
VERTEX
8
SLOT
10
175.273924
20
76.299314
70
0
0
VERTEX
8
SLOT
10
174.704353
20
75.918739
70
0
0
VERTEX
8
SLOT
10
174.032498
20
75.785099
70
0
0
VERTEX
8
SLOT
10
171.362340
20
75.785099
70
0
0
VERTEX
8
SLOT
10
170.690486
20
75.918739
70
0
0
VERTEX
8
SLOT
10
170.120915
20
76.299314
70
0
0
VERTEX
8
SLOT
10
169.740340
20
76.868885
70
0
0
VERTEX
8
SLOT
10
169.606700
20
77.540740
70
0
0
VERTEX
8
SLOT
10
169.606700
20
77.540740
70
0
0
VERTEX
8
SLOT
10
169.740340
20
78.212594
70
0
0
VERTEX
8
SLOT
10
170.120915
20
78.782165
70
0
0
VERTEX
8
SLOT
10
170.690486
20
79.162740
70
0
0
VERTEX
8
SLOT
10
171.362340
20
79.296380
70
0
0
VERTEX
8
SLOT
10
171.362340
20
79.296380
70
0
0
SEQEND
8
SLOT
0
POLYLINE
8
SLOT
62
10
70
0
10
0.000000
20
0.000000
66
1
0
VERTEX
8
SLOT
10
114.449198
20
79.682430
70
0
0
VERTEX
8
SLOT
10
116.487932
20
79.682430
70
0
0
VERTEX
8
SLOT
10
117.279003
20
79.525076
70
0
0
VERTEX
8
SLOT
10
117.949641
20
79.076970
70
0
0
VERTEX
8
SLOT
10
118.397747
20
78.406333
70
0
0
VERTEX
8
SLOT
10
118.555100
20
77.615262
70
0
0
VERTEX
8
SLOT
10
118.555100
20
77.615262
70
0
0
VERTEX
8
SLOT
10
118.397747
20
76.824191
70
0
0
VERTEX
8
SLOT
10
117.949641
20
76.153553
70
0
0
VERTEX
8
SLOT
10
117.279003
20
75.705447
70
0
0
VERTEX
8
SLOT
10
116.487932
20
75.548093
70
0
0
VERTEX
8
SLOT
10
114.449198
20
75.548093
70
0
0
VERTEX
8
SLOT
10
113.658127
20
75.705447
70
0
0
VERTEX
8
SLOT
10
112.987490
20
76.153553
70
0
0
VERTEX
8
SLOT
10
112.539384
20
76.824191
70
0
0
VERTEX
8
SLOT
10
112.382030
20
77.615262
70
0
0
VERTEX
8
SLOT
10
112.382030
20
77.615262
70
0
0
VERTEX
8
SLOT
10
112.539384
20
78.406333
70
0
0
VERTEX
8
SLOT
10
112.987490
20
79.076970
70
0
0
VERTEX
8
SLOT
10
113.658127
20
79.525076
70
0
0
VERTEX
8
SLOT
10
114.449198
20
79.682430
70
0
0
VERTEX
8
SLOT
10
114.449198
20
79.682430
70
0
0
SEQEND
8
SLOT
0
POLYLINE
8
SLOT
62
10
70
0
10
0.000000
20
0.000000
66
1
0
VERTEX
8
SLOT
10
95.651168
20
79.941340
70
0
0
VERTEX
8
SLOT
10
97.689902
20
79.941340
70
0
0
VERTEX
8
SLOT
10
98.494537
20
79.778892
70
0
0
VERTEX
8
SLOT
10
99.151611
20
79.335880
70
0
0
VERTEX
8
SLOT
10
99.594622
20
78.678807
70
0
0
VERTEX
8
SLOT
10
99.757070
20
77.874172
70
0
0
VERTEX
8
SLOT
10
99.757070
20
77.874172
70
0
0
VERTEX
8
SLOT
10
99.594622
20
77.069537
70
0
0
VERTEX
8
SLOT
10
99.151611
20
76.412463
70
0
0
VERTEX
8
SLOT
10
98.494537
20
75.969452
70
0
0
VERTEX
8
SLOT
10
97.689902
20
75.807003
70
0
0
VERTEX
8
SLOT
10
95.651168
20
75.807004
70
0
0
VERTEX
8
SLOT
10
94.860097
20
75.964357
70
0
0
VERTEX
8
SLOT
10
94.189460
20
76.412463
70
0
0
VERTEX
8
SLOT
10
93.741354
20
77.083101
70
0
0
VERTEX
8
SLOT
10
93.584000
20
77.874172
70
0
0
VERTEX
8
SLOT
10
93.584000
20
77.874172
70
0
0
VERTEX
8
SLOT
10
93.741354
20
78.665243
70
0
0
VERTEX
8
SLOT
10
94.189460
20
79.335880
70
0
0
VERTEX
8
SLOT
10
94.860097
20
79.783986
70
0
0
VERTEX
8
SLOT
10
95.651168
20
79.941340
70
0
0
VERTEX
8
SLOT
10
95.651168
20
79.941340
70
0
0
SEQEND
8
SLOT
0
POLYLINE
8
SLOT
62
10
70
0
10
0.000000
20
0.000000
66
1
0
VERTEX
8
SLOT
10
25.586197
20
79.123990
70
0
0
VERTEX
8
SLOT
10
28.980920
20
79.123990
70
0
0
VERTEX
8
SLOT
10
29.516160
20
79.017524
70
0
0
VERTEX
8
SLOT
10
29.969914
20
78.714335
70
0
0
VERTEX
8
SLOT
10
30.273103
20
78.260581
70
0
0
VERTEX
8
SLOT
10
30.379569
20
77.725341
70
0
0
VERTEX
8
SLOT
10
30.379569
20
77.725341
70
0
0
VERTEX
8
SLOT
10
30.273103
20
77.190102
70
0
0
VERTEX
8
SLOT
10
29.969914
20
76.736347
70
0
0
VERTEX
8
SLOT
10
29.516160
20
76.433159
70
0
0
VERTEX
8
SLOT
10
28.980920
20
76.326693
70
0
0
VERTEX
8
SLOT
10
25.586197
20
76.326693
70
0
0
VERTEX
8
SLOT
10
25.050957
20
76.433159
70
0
0
VERTEX
8
SLOT
10
24.597203
20
76.736347
70
0
0
VERTEX
8
SLOT
10
24.294014
20
77.190102
70
0
0
VERTEX
8
SLOT
10
24.187548
20
77.725341
70
0
0
VERTEX
8
SLOT
10
24.187548
20
77.725341
70
0
0
VERTEX
8
SLOT
10
24.294014
20
78.260581
70
0
0
VERTEX
8
SLOT
10
24.597203
20
78.714335
70
0
0
VERTEX
8
SLOT
10
25.050957
20
79.017524
70
0
0
VERTEX
8
SLOT
10
25.586197
20
79.123990
70
0
0
VERTEX
8
SLOT
10
25.586197
20
79.123990
70
0
0
SEQEND
8
SLOT
0
POLYLINE
8
SLOT
62
10
70
0
10
0.000000
20
0.000000
66
1
0
VERTEX
8
SLOT
10
26.108867
20
101.000830
70
0
0
VERTEX
8
SLOT
10
28.229301
20
101.000830
70
0
0
VERTEX
8
SLOT
10
29.019163
20
100.843717
70
0
0
VERTEX
8
SLOT
10
29.688775
20
100.396296
70
0
0
VERTEX
8
SLOT
10
30.136196
20
99.726684
70
0
0
VERTEX
8
SLOT
10
30.293309
20
98.936822
70
0
0
VERTEX
8
SLOT
10
30.293309
20
98.936822
70
0
0
VERTEX
8
SLOT
10
30.136196
20
98.146960
70
0
0
VERTEX
8
SLOT
10
29.688775
20
97.477348
70
0
0
VERTEX
8
SLOT
10
29.019163
20
97.029927
70
0
0
VERTEX
8
SLOT
10
28.229301
20
96.872813
70
0
0
VERTEX
8
SLOT
10
26.108867
20
96.872813
70
0
0
VERTEX
8
SLOT
10
25.319005
20
97.029927
70
0
0
VERTEX
8
SLOT
10
24.649393
20
97.477348
70
0
0
VERTEX
8
SLOT
10
24.201972
20
98.146960
70
0
0
VERTEX
8
SLOT
10
24.044859
20
98.936822
70
0
0
VERTEX
8
SLOT
10
24.044859
20
98.936822
70
0
0
VERTEX
8
SLOT
10
24.201972
20
99.726684
70
0
0
VERTEX
8
SLOT
10
24.649393
20
100.396296
70
0
0
VERTEX
8
SLOT
10
25.319005
20
100.843717
70
0
0
VERTEX
8
SLOT
10
26.108867
20
101.000830
70
0
0
VERTEX
8
SLOT
10
26.108867
20
101.000830
70
0
0
SEQEND
8
SLOT
0
POLYLINE
8
HOLES_MISC
62
10
70
0
10
0.000000
20
0.000000
66
1
0
VERTEX
8
HOLES_MISC
10
376.728490
20
79.696332
70
0
0
VERTEX
8
HOLES_MISC
10
376.134816
20
79.607435
70
0
0
VERTEX
8
HOLES_MISC
10
375.603654
20
79.355117
70
0
0
VERTEX
8
HOLES_MISC
10
375.167275
20
78.960944
70
0
0
VERTEX
8
HOLES_MISC
10
374.857955
20
78.446481
70
0
0
VERTEX
8
HOLES_MISC
10
374.712897
20
77.863978
70
0
0
VERTEX
8
HOLES_MISC
10
374.742741
20
77.276690
70
0
0
VERTEX
8
HOLES_MISC
10
374.939914
20
76.722686
70
0
0
VERTEX
8
HOLES_MISC
10
375.296845
20
76.240034
70
0
0
VERTEX
8
HOLES_MISC
10
375.779496
20
75.883104
70
0
0
VERTEX
8
HOLES_MISC
10
376.333500
20
75.685931
70
0
0
VERTEX
8
HOLES_MISC
10
376.920788
20
75.656087
70
0
0
VERTEX
8
HOLES_MISC
10
377.503291
20
75.801145
70
0
0
VERTEX
8
HOLES_MISC
10
378.017754
20
76.110465
70
0
0
VERTEX
8
HOLES_MISC
10
378.411927
20
76.546843
70
0
0
VERTEX
8
HOLES_MISC
10
378.664244
20
77.078006
70
0
0
VERTEX
8
HOLES_MISC
10
378.753142
20
77.671680
70
0
0
VERTEX
8
HOLES_MISC
10
378.599025
20
78.446481
70
0
0
VERTEX
8
HOLES_MISC
10
378.160135
20
79.103326
70
0
0
VERTEX
8
HOLES_MISC
10
377.503291
20
79.542215
70
0
0
VERTEX
8
HOLES_MISC
10
376.728490
20
79.696332
70
0
0
VERTEX
8
HOLES_MISC
10
376.728490
20
79.696332
70
0
0
SEQEND
8
HOLES_MISC
0
POLYLINE
8
HOLES_MISC
62
10
70
0
10
0.000000
20
0.000000
66
1
0
VERTEX
8
HOLES_MISC
10
248.786580
20
78.908034
70
0
0
VERTEX
8
HOLES_MISC
10
248.048403
20
78.684110
70
0
0
VERTEX
8
HOLES_MISC
10
247.559037
20
78.087815
70
0
0
VERTEX
8
HOLES_MISC
10
247.483427
20
77.320137
70
0
0
VERTEX
8
HOLES_MISC
10
247.847059
20
76.639829
70
0
0
VERTEX
8
HOLES_MISC
10
248.527367
20
76.276197
70
0
0
VERTEX
8
HOLES_MISC
10
249.295045
20
76.351806
70
0
0
VERTEX
8
HOLES_MISC
10
249.891340
20
76.841173
70
0
0
VERTEX
8
HOLES_MISC
10
250.115263
20
77.579350
70
0
0
VERTEX
8
HOLES_MISC
10
250.014123
20
78.087815
70
0
0
VERTEX
8
HOLES_MISC
10
249.726101
20
78.518871
70
0
0
VERTEX
8
HOLES_MISC
10
249.295045
20
78.806894
70
0
0
VERTEX
8
HOLES_MISC
10
248.786580
20
78.908034
70
0
0
VERTEX
8
HOLES_MISC
10
248.786580
20
78.908034
70
0
0
SEQEND
8
HOLES_MISC
0
POLYLINE
8
HOLES_BOTTOM
62
10
70
0
10
0.000000
20
0.000000
66
1
0
VERTEX
8
HOLES_BOTTOM
10
376.524300
20
17.804600
70
0
0
VERTEX
8
HOLES_BOTTOM
10
375.313666
20
17.568470
70
0
0
VERTEX
8
HOLES_BOTTOM
10
374.287321
20
16.895913
70
0
0
VERTEX
8
HOLES_BOTTOM
10
373.601519
20
15.889320
70
0
0
VERTEX
8
HOLES_BOTTOM
10
373.360670
20
14.701940
70
0
0
VERTEX
8
HOLES_BOTTOM
10
373.561827
20
13.612831
70
0
0
VERTEX
8
HOLES_BOTTOM
10
374.139950
20
12.662270
70
0
0
VERTEX
8
HOLES_BOTTOM
10
378.908140
20
12.662270
70
0
0
VERTEX
8
HOLES_BOTTOM
10
379.486263
20
13.612831
70
0
0
VERTEX
8
HOLES_BOTTOM
10
379.687420
20
14.701940
70
0
0
VERTEX
8
HOLES_BOTTOM
10
379.438826
20
15.909558
70
0
0
VERTEX
8
HOLES_BOTTOM
10
378.760950
20
16.895736
70
0
0
VERTEX
8
HOLES_BOTTOM
10
377.755529
20
17.560680
70
0
0
VERTEX
8
HOLES_BOTTOM
10
376.524300
20
17.804600
70
0
0
VERTEX
8
HOLES_BOTTOM
10
376.524300
20
17.804600
70
0
0
SEQEND
8
HOLES_BOTTOM
0
POLYLINE
8
HOLES_BOTTOM
62
10
70
0
10
0.000000
20
0.000000
66
1
0
VERTEX
8
HOLES_BOTTOM
10
319.474130
20
17.767290
70
0
0
VERTEX
8
HOLES_BOTTOM
10
318.263496
20
17.531160
70
0
0
VERTEX
8
HOLES_BOTTOM
10
317.237151
20
16.858603
70
0
0
VERTEX
8
HOLES_BOTTOM
10
316.551349
20
15.852010
70
0
0
VERTEX
8
HOLES_BOTTOM
10
316.310500
20
14.664630
70
0
0
VERTEX
8
HOLES_BOTTOM
10
316.511657
20
13.575521
70
0
0
VERTEX
8
HOLES_BOTTOM
10
317.089780
20
12.624960
70
0
0
VERTEX
8
HOLES_BOTTOM
10
321.857970
20
12.624960
70
0
0
VERTEX
8
HOLES_BOTTOM
10
322.436093
20
13.575521
70
0
0
VERTEX
8
HOLES_BOTTOM
10
322.637250
20
14.664630
70
0
0
VERTEX
8
HOLES_BOTTOM
10
322.388656
20
15.872248
70
0
0
VERTEX
8
HOLES_BOTTOM
10
321.710780
20
16.858426
70
0
0
VERTEX
8
HOLES_BOTTOM
10
320.705359
20
17.523370
70
0
0
VERTEX
8
HOLES_BOTTOM
10
319.474130
20
17.767290
70
0
0
VERTEX
8
HOLES_BOTTOM
10
319.474130
20
17.767290
70
0
0
SEQEND
8
HOLES_BOTTOM
0
POLYLINE
8
HOLES_BOTTOM
62
10
70
0
10
0.000000
20
0.000000
66
1
0
VERTEX
8
HOLES_BOTTOM
10
260.805950
20
17.734680
70
0
0
VERTEX
8
HOLES_BOTTOM
10
259.595316
20
17.498550
70
0
0
VERTEX
8
HOLES_BOTTOM
10
258.568971
20
16.825993
70
0
0
VERTEX
8
HOLES_BOTTOM
10
257.883169
20
15.819400
70
0
0
VERTEX
8
HOLES_BOTTOM
10
257.642320
20
14.632020
70
0
0
VERTEX
8
HOLES_BOTTOM
10
257.843477
20
13.542911
70
0
0
VERTEX
8
HOLES_BOTTOM
10
258.421600
20
12.592350
70
0
0
VERTEX
8
HOLES_BOTTOM
10
263.189790
20
12.592350
70
0
0
VERTEX
8
HOLES_BOTTOM
10
263.767913
20
13.542911
70
0
0
VERTEX
8
HOLES_BOTTOM
10
263.969070
20
14.632020
70
0
0
VERTEX
8
HOLES_BOTTOM
10
263.720476
20
15.839638
70
0
0
VERTEX
8
HOLES_BOTTOM
10
263.042600
20
16.825816
70
0
0
VERTEX
8
HOLES_BOTTOM
10
262.037179
20
17.490760
70
0
0
VERTEX
8
HOLES_BOTTOM
10
260.805950
20
17.734680
70
0
0
VERTEX
8
HOLES_BOTTOM
10
260.805950
20
17.734680
70
0
0
SEQEND
8
HOLES_BOTTOM
0
POLYLINE
8
HOLES_BOTTOM
62
10
70
0
10
0.000000
20
0.000000
66
1
0
VERTEX
8
HOLES_BOTTOM
10
215.443260
20
17.701150
70
0
0
VERTEX
8
HOLES_BOTTOM
10
214.232626
20
17.465020
70
0
0
VERTEX
8
HOLES_BOTTOM
10
213.206281
20
16.792463
70
0
0
VERTEX
8
HOLES_BOTTOM
10
212.520479
20
15.785870
70
0
0
VERTEX
8
HOLES_BOTTOM
10
212.279630
20
14.598490
70
0
0
VERTEX
8
HOLES_BOTTOM
10
212.480787
20
13.509381
70
0
0
VERTEX
8
HOLES_BOTTOM
10
213.058910
20
12.558820
70
0
0
VERTEX
8
HOLES_BOTTOM
10
217.827100
20
12.558820
70
0
0
VERTEX
8
HOLES_BOTTOM
10
218.405223
20
13.509381
70
0
0
VERTEX
8
HOLES_BOTTOM
10
218.606380
20
14.598490
70
0
0
VERTEX
8
HOLES_BOTTOM
10
218.357786
20
15.806108
70
0
0
VERTEX
8
HOLES_BOTTOM
10
217.679910
20
16.792286
70
0
0
VERTEX
8
HOLES_BOTTOM
10
216.674489
20
17.457230
70
0
0
VERTEX
8
HOLES_BOTTOM
10
215.443260
20
17.701150
70
0
0
VERTEX
8
HOLES_BOTTOM
10
215.443260
20
17.701150
70
0
0
SEQEND
8
HOLES_BOTTOM
0
POLYLINE
8
HOLES_BOTTOM
62
10
70
0
10
0.000000
20
0.000000
66
1
0
VERTEX
8
HOLES_BOTTOM
10
144.237270
20
17.701150
70
0
0
VERTEX
8
HOLES_BOTTOM
10
143.026636
20
17.465020
70
0
0
VERTEX
8
HOLES_BOTTOM
10
142.000291
20
16.792463
70
0
0
VERTEX
8
HOLES_BOTTOM
10
141.314489
20
15.785870
70
0
0
VERTEX
8
HOLES_BOTTOM
10
141.073640
20
14.598490
70
0
0
VERTEX
8
HOLES_BOTTOM
10
141.274797
20
13.509381
70
0
0
VERTEX
8
HOLES_BOTTOM
10
141.852920
20
12.558820
70
0
0
VERTEX
8
HOLES_BOTTOM
10
146.621110
20
12.558820
70
0
0
VERTEX
8
HOLES_BOTTOM
10
147.199233
20
13.509381
70
0
0
VERTEX
8
HOLES_BOTTOM
10
147.400390
20
14.598490
70
0
0
VERTEX
8
HOLES_BOTTOM
10
147.151796
20
15.806108
70
0
0
VERTEX
8
HOLES_BOTTOM
10
146.473920
20
16.792286
70
0
0
VERTEX
8
HOLES_BOTTOM
10
145.468499
20
17.457230
70
0
0
VERTEX
8
HOLES_BOTTOM
10
144.237270
20
17.701150
70
0
0
VERTEX
8
HOLES_BOTTOM
10
144.237270
20
17.701150
70
0
0
SEQEND
8
HOLES_BOTTOM
0
POLYLINE
8
HOLES_BOTTOM
62
10
70
0
10
0.000000
20
0.000000
66
1
0
VERTEX
8
HOLES_BOTTOM
10
68.169572
20
17.800370
70
0
0
VERTEX
8
HOLES_BOTTOM
10
66.958938
20
17.564240
70
0
0
VERTEX
8
HOLES_BOTTOM
10
65.932593
20
16.891683
70
0
0
VERTEX
8
HOLES_BOTTOM
10
65.246791
20
15.885090
70
0
0
VERTEX
8
HOLES_BOTTOM
10
65.005942
20
14.697710
70
0
0
VERTEX
8
HOLES_BOTTOM
10
65.207099
20
13.608601
70
0
0
VERTEX
8
HOLES_BOTTOM
10
65.785222
20
12.658040
70
0
0
VERTEX
8
HOLES_BOTTOM
10
70.553412
20
12.658040
70
0
0
VERTEX
8
HOLES_BOTTOM
10
71.131535
20
13.608601
70
0
0
VERTEX
8
HOLES_BOTTOM
10
71.332692
20
14.697710
70
0
0
VERTEX
8
HOLES_BOTTOM
10
71.084098
20
15.905328
70
0
0
VERTEX
8
HOLES_BOTTOM
10
70.406222
20
16.891506
70
0
0
VERTEX
8
HOLES_BOTTOM
10
69.400801
20
17.556450
70
0
0
VERTEX
8
HOLES_BOTTOM
10
68.169572
20
17.800370
70
0
0
VERTEX
8
HOLES_BOTTOM
10
68.169572
20
17.800370
70
0
0
SEQEND
8
HOLES_BOTTOM
0
POLYLINE
8
HOLES_BOTTOM
62
10
70
0
10
0.000000
20
0.000000
66
1
0
VERTEX
8
HOLES_BOTTOM
10
25.273999
20
17.899580
70
0
0
VERTEX
8
HOLES_BOTTOM
10
24.063365
20
17.663450
70
0
0
VERTEX
8
HOLES_BOTTOM
10
23.037020
20
16.990893
70
0
0
VERTEX
8
HOLES_BOTTOM
10
22.351218
20
15.984300
70
0
0
VERTEX
8
HOLES_BOTTOM
10
22.110369
20
14.796920
70
0
0
VERTEX
8
HOLES_BOTTOM
10
22.311526
20
13.707811
70
0
0
VERTEX
8
HOLES_BOTTOM
10
22.889649
20
12.757250
70
0
0
VERTEX
8
HOLES_BOTTOM
10
27.657839
20
12.757250
70
0
0
VERTEX
8
HOLES_BOTTOM
10
28.235962
20
13.707811
70
0
0
VERTEX
8
HOLES_BOTTOM
10
28.437119
20
14.796920
70
0
0
VERTEX
8
HOLES_BOTTOM
10
28.188525
20
16.004538
70
0
0
VERTEX
8
HOLES_BOTTOM
10
27.510649
20
16.990716
70
0
0
VERTEX
8
HOLES_BOTTOM
10
26.505228
20
17.655660
70
0
0
VERTEX
8
HOLES_BOTTOM
10
25.273999
20
17.899580
70
0
0
VERTEX
8
HOLES_BOTTOM
10
25.273999
20
17.899580
70
0
0
SEQEND
8
HOLES_BOTTOM
 0 
ENDSEC
 0 
EOF