#VRML V2.0 utf8
# 3D model generated by easyeda2kicad.py (https://github.com/uPesy/easyeda2kicad.py)

Shape{
    appearance Appearance {
        material  Material 	{
            diffuseColor 0.6666666666666666 0.6666666666666666 0.6666666666666666
            specularColor 0.4666666666666667 0.4666666666666667 0.4666666666666667
            ambientIntensity 0.2
            transparency 0
            shininess 0.5
        }
    }
    geometry IndexedFaceSet {
        ccw TRUE
        solid FALSE
        coord DEF co Coordinate {
            point [
                1.1122 -0.622 -1.1417, 1.2677 -0.622 -1.1417, 1.2677 -0.622 -0.5497, 0.0432 -0.622 -0.5041, 0.0432 -0.622 -0.5473, 0.0816 -0.622 -0.5497, -0.168 -0.622 -0.5473, -0.3763 -0.622 -0.5497, -0.5713 -0.622 -0.5473, -0.773 -0.622 -0.5473, -0.2449 -0.622 -0.5269, -0.2449 -0.622 -0.4837, -0.168 -0.622 -0.1536, 0.024 -0.622 -0.3697, -0.1152 -0.622 -0.3697, -0.1152 -0.622 -0.5041, 0.0336 -0.622 -0.1968, 0.0336 -0.622 -0.1536, 0.0816 -0.622 1.1417, -0.4717 -0.622 -0.5136, -0.5012 -0.622 -0.4824, 0.024 -0.622 -0.3264, -0.1152 -0.622 -0.3264, -0.1152 -0.622 -0.1968, -0.5173 -0.622 -0.2581, -0.4944 -0.622 -0.2211, -0.7202 -0.622 -0.1536, -0.5713 -0.622 -0.5041, -0.3758 -0.622 -0.1964, -0.4053 -0.622 -0.207, -0.2519 -0.622 -0.4876, -0.4325 -0.622 -0.2252, -0.4563 -0.622 -0.2515, -0.4849 -0.622 -0.3547, -0.4809 -0.622 -0.3973, -0.4702 -0.622 -0.4312, -0.3827 -0.622 -0.5047, -0.3459 -0.622 -0.5089, -0.4114 -0.622 -0.4942, -0.4356 -0.622 -0.4778, -0.4539 -0.622 -0.4585, -0.2937 -0.622 -0.5031, -0.4726 -0.622 -0.2819, -0.483 -0.622 -0.324, -0.4017 -0.622 -0.5471, -0.44 -0.622 -0.5339, -0.5221 -0.622 -0.445, -0.534 -0.622 -0.4033, -0.7202 -0.622 -0.5041, -0.5377 -0.622 -0.3579, -0.5324 -0.622 -0.3034, -0.4591 -0.622 -0.1869, -0.4218 -0.622 -0.1651, -0.3779 -0.622 -0.1522, -0.3375 -0.622 -0.1488, -0.2904 -0.622 -0.1521, -0.2449 -0.622 -0.1644, -0.2449 -0.622 -0.2172, -0.2892 -0.622 -0.1982, -0.3371 -0.622 -0.192, -0.3685 -0.622 -1.0809, -0.3798 -0.622 -1.0826, -0.3798 -0.622 -1.2795, -0.8465 -0.622 -1.0138, -1.0457 -0.622 -1.1928, -0.8465 -0.622 -1.2795, -1.0433 -0.622 -1.2106, -1.0433 -0.622 -1.2795, -0.8263 -0.622 -0.9651, -1.2677 -0.622 -0.5497, -0.8372 -0.622 -0.9793, -0.8441 -0.622 -0.9959, -0.812 -0.622 -0.9541, -0.7954 -0.622 -0.9472, -0.7776 -0.622 -0.9449, -0.3409 -0.622 -0.9599, -0.33 -0.622 -0.9708, 0.0816 -0.622 -1.2795, -0.3167 -0.622 -1.0291, -0.3218 -0.622 -1.0437, -1.2677 -0.622 -1.1417, -1.1122 -0.622 -1.1417, -1.0944 -0.622 -1.1441, -0.354 -0.622 -0.9517, -1.0778 -0.622 -1.151, -1.0635 -0.622 -1.1619, -1.0525 -0.622 -1.1762, -0.33 -0.622 -1.0567, -0.3409 -0.622 -1.0676, -0.354 -0.622 -1.0759, -0.2868 -0.622 -0.5441, -0.3266 -0.622 -0.5497, -0.3685 -0.622 -0.9466, -0.3218 -0.622 -0.9839, -0.3167 -0.622 -0.9984, -0.315 -0.622 -1.0138, -0.3424 -0.622 -0.5519, -0.3532 -0.622 -0.5521, -0.3839 -0.622 -0.9449, -0.773 -0.622 -0.1536, -1.2677 -0.622 1.1417, 0.8372 -0.622 -0.9793, 0.8441 -0.622 -0.9959, 0.7776 -0.622 -0.9449, 0.7954 -0.622 -0.9472, 0.8465 -0.622 -1.2795, 1.0433 -0.622 -1.2795, 1.0433 -0.622 -1.2106, 0.812 -0.622 -0.9541, 0.8263 -0.622 -0.9651, 0.8465 -0.622 -1.0138, 0.3242 -0.622 -1.0482, 0.3351 -0.622 -1.0625, 0.3494 -0.622 -1.0734, 0.366 -0.622 -0.9472, 0.3839 -0.622 -0.9449, 1.0778 -0.622 -1.151, 1.0944 -0.622 -1.1441, 0.366 -0.622 -1.0803, 0.3798 -0.622 -1.2795, 0.3798 -0.622 -1.0826, 0.3242 -0.622 -0.9793, 0.3351 -0.622 -0.9651, 0.3494 -0.622 -0.9541, 1.0457 -0.622 -1.1928, 1.0525 -0.622 -1.1762, 1.0635 -0.622 -1.1619, 0.3173 -0.622 -1.0316, 0.315 -0.622 -1.0138, 0.3173 -0.622 -0.9959, 0.2271 -0.622 -0.5473, 0.4314 -0.622 -0.3982, 0.4173 -0.622 -0.4393, 0.4657 -0.622 -0.5473, 0.3947 -0.622 -0.4745, 0.12 -0.622 -0.5473, 0.12 -0.622 -0.1536, 0.2311 -0.622 -0.1536, 0.2866 -0.622 -0.1594, 0.3326 -0.622 -0.1751, 0.376 -0.622 -0.2038, 0.6146 -0.622 -0.1536, 0.3801 -0.622 -0.2074, 0.4069 -0.622 -0.2384, 0.4246 -0.622 -0.2726, 0.4345 -0.622 -0.3116, 0.4369 -0.622 -0.3455, 0.3623 -0.622 -0.5056, 0.3213 -0.622 -0.5295, 0.2759 -0.622 -0.543, 1.2677 -0.622 1.1417, 0.6674 -0.622 -0.1536, 0.821 -0.622 -0.5473, 0.7634 -0.622 -0.5473, 0.7236 -0.622 -0.4369, 0.5609 -0.622 -0.4369, 0.5233 -0.622 -0.5473, 1.1122 0.5039 -1.1417, 1.1122 0.622 -1.1417, 1.2677 0.5039 -1.1417, 1.2677 0.622 -1.1417, 1.3509 0.4946 -1.1417, 1.3637 0.6126 -1.1417, 1.43 0.4669 -1.1417, 1.456 0.5846 -1.1417, 1.5009 0.4223 -1.1417, 1.1122 -0.5039 -1.1417, 1.2677 -0.5039 -1.1417, 1.3637 -0.6126 -1.1417, 1.3509 -0.4946 -1.1417, 1.456 -0.5846 -1.1417, 1.43 -0.4669 -1.1417, 1.5411 -0.5391 -1.1417, 1.5009 -0.4223 -1.1417, 1.6157 -0.4779 -1.1417, 1.5601 -0.3631 -1.1417, 1.5411 0.5391 -1.1417, 1.6157 0.4779 -1.1417, 1.5601 0.3631 -1.1417, 1.6769 0.4033 -1.1417, 1.6047 0.2922 -1.1417, 1.7224 0.3182 -1.1417, 1.6324 0.2131 -1.1417, 1.7504 0.2259 -1.1417, 1.6417 0.1299 -1.1417, 1.7598 0.1299 -1.1417, 1.6417 -0.1299 -1.1417, 1.7598 -0.1299 -1.1417, 1.6324 -0.2131 -1.1417, 1.7504 -0.2259 -1.1417, 1.6047 -0.2922 -1.1417, 1.7224 -0.3182 -1.1417, 1.6769 -0.4033 -1.1417, -0.7776 0.622 -0.9449, -0.3839 0.622 -0.9449, -0.7776 0.5039 -0.9449, -0.3839 0.5039 -0.9449, -1.1122 -0.5039 -1.1417, -1.2677 -0.5039 -1.1417, -1.3509 -0.4946 -1.1417, -1.3637 -0.6126 -1.1417, -1.43 -0.4669 -1.1417, -1.456 -0.5846 -1.1417, -1.5009 -0.4223 -1.1417, -1.5601 0.3631 -1.1417, -1.6157 0.4779 -1.1417, -1.5009 0.4223 -1.1417, -1.5411 0.5391 -1.1417, -1.43 0.4669 -1.1417, -1.456 0.5846 -1.1417, -1.3509 0.4946 -1.1417, -1.3637 0.6126 -1.1417, -1.2677 0.5039 -1.1417, -1.2677 0.622 -1.1417, -1.1122 0.5039 -1.1417, -1.1122 0.622 -1.1417, -1.5411 -0.5391 -1.1417, -1.6157 -0.4779 -1.1417, -1.5601 -0.3631 -1.1417, -1.6769 -0.4033 -1.1417, -1.6047 -0.2922 -1.1417, -1.7224 -0.3182 -1.1417, -1.6324 -0.2131 -1.1417, -1.7504 -0.2259 -1.1417, -1.6417 -0.1299 -1.1417, -1.7598 -0.1299 -1.1417, -1.6417 0.1299 -1.1417, -1.7598 0.1299 -1.1417, -1.6324 0.2131 -1.1417, -1.7504 0.2259 -1.1417, -1.6047 0.2922 -1.1417, -1.7224 0.3182 -1.1417, -1.6769 0.4033 -1.1417, -1.7598 -0.1299 1.1417, -1.7598 0.1299 1.1417, -1.7504 0.2259 1.1417, -1.7224 0.3182 1.1417, -1.6769 0.4033 1.1417, -1.6157 0.4779 1.1417, -1.5411 0.5391 1.1417, -1.456 0.5846 1.1417, -1.3637 0.6126 1.1417, -1.2677 0.622 1.1417, 0.366 0.622 -1.0803, 0.3798 0.622 -1.0826, 0.3798 0.622 -1.2795, 1.0944 0.622 -1.1441, 0.8441 0.622 -0.9959, 0.3242 0.622 -1.0482, 0.3351 0.622 -1.0625, -0.3798 0.622 -1.2795, 0.8465 0.622 -1.0138, 1.0457 0.622 -1.1928, 0.8465 0.622 -1.2795, 1.0433 0.622 -1.2106, 1.0433 0.622 -1.2795, 0.8372 0.622 -0.9793, 1.2677 0.622 1.1417, 0.3494 0.622 -1.0734, 0.8263 0.622 -0.9651, 0.812 0.622 -0.9541, 0.7954 0.622 -0.9472, 1.0778 0.622 -1.151, 1.0635 0.622 -1.1619, 1.0525 0.622 -1.1762, 0.3494 0.622 -0.9541, 0.3351 0.622 -0.9651, -0.8465 0.622 -1.2795, -1.0433 0.622 -1.2795, -1.0433 0.622 -1.2106, -0.8465 0.622 -1.0138, -1.0778 0.622 -1.151, -1.0944 0.622 -1.1441, -0.8441 0.622 -0.9959, 0.7776 0.622 -0.9449, 0.3839 0.622 -0.9449, 0.366 0.622 -0.9472, 0.3242 0.622 -0.9793, 0.3173 0.622 -0.9959, -0.7954 0.622 -0.9472, -0.812 0.622 -0.9541, -0.3685 0.622 -1.0809, -0.354 0.622 -1.0759, 0.3173 0.622 -1.0316, -0.3409 0.622 -1.0676, -0.33 0.622 -1.0567, -0.3167 0.622 -0.9984, -0.315 0.622 -1.0138, 0.315 0.622 -1.0138, -0.3167 0.622 -1.0291, -0.3218 0.622 -1.0437, -0.8372 0.622 -0.9793, -0.8263 0.622 -0.9651, -0.3218 0.622 -0.9839, -0.33 0.622 -0.9708, -0.3409 0.622 -0.9599, -0.3798 0.622 -1.0826, -1.0457 0.622 -1.1928, -1.0525 0.622 -1.1762, -1.0635 0.622 -1.1619, -0.354 0.622 -0.9517, -0.3685 0.622 -0.9466, 1.3637 0.6126 1.1417, 1.456 0.5846 1.1417, 1.5411 0.5391 1.1417, 1.6157 0.4779 1.1417, 1.6769 0.4033 1.1417, 1.7224 0.3182 1.1417, 1.7504 0.2259 1.1417, 1.7598 0.1299 1.1417, 1.7598 -0.1299 1.1417, 1.5009 -0.4223 1.1417, 1.6157 -0.4779 1.1417, 1.5601 -0.3631 1.1417, 1.6769 -0.4033 1.1417, 1.6047 -0.2922 1.1417, 1.7224 -0.3182 1.1417, 1.6324 -0.2131 1.1417, 1.7504 -0.2259 1.1417, 1.6417 -0.1299 1.1417, 1.6417 0.1299 1.1417, 1.6324 0.2131 1.1417, 1.6047 0.2922 1.1417, 1.5601 0.3631 1.1417, -1.5601 -0.3631 1.1417, -1.6157 -0.4779 1.1417, -1.5009 -0.4223 1.1417, -1.5411 -0.5391 1.1417, -1.43 -0.4669 1.1417, -1.456 -0.5846 1.1417, -1.3509 -0.4946 1.1417, -1.3637 -0.6126 1.1417, -1.2677 -0.5039 1.1417, 1.2677 -0.5039 1.1417, 1.3509 -0.4946 1.1417, 1.3637 -0.6126 1.1417, 1.43 -0.4669 1.1417, 1.456 -0.5846 1.1417, 1.5411 -0.5391 1.1417, -1.5009 0.4223 1.1417, -1.5601 0.3631 1.1417, -1.6047 0.2922 1.1417, -1.6324 0.2131 1.1417, -1.6417 0.1299 1.1417, -1.6417 -0.1299 1.1417, -1.6324 -0.2131 1.1417, -1.7504 -0.2259 1.1417, -1.6047 -0.2922 1.1417, -1.7224 -0.3182 1.1417, -1.6769 -0.4033 1.1417, 1.5009 0.4223 1.1417, 1.43 0.4669 1.1417, 1.3509 0.4946 1.1417, 1.2677 0.5039 1.1417, -1.2677 0.5039 1.1417, -1.3509 0.4946 1.1417, -1.43 0.4669 1.1417, 1.0778 0.5039 -1.151, 1.0944 0.5039 -1.1441, 0.8441 0.5039 -0.9959, 0.8465 0.5039 -1.2795, 1.0433 0.5039 -1.2795, 1.0433 0.5039 -1.2106, 0.3798 0.5039 -1.0826, 0.366 0.5039 -1.0803, 0.3798 0.5039 -1.2795, 0.3494 0.5039 -1.0734, -0.3798 0.5039 -1.2795, 0.3351 0.5039 -1.0625, 0.3242 0.5039 -1.0482, 0.8372 0.5039 -0.9793, 0.8465 0.5039 -1.0138, 0.7776 0.5039 -0.9449, 0.7954 0.5039 -0.9472, -0.8465 0.5039 -1.0138, -1.0457 0.5039 -1.1928, -0.8465 0.5039 -1.2795, -1.0433 0.5039 -1.2106, -1.0433 0.5039 -1.2795, 0.3173 0.5039 -1.0316, -0.3685 0.5039 -0.9466, -0.354 0.5039 -0.9517, -0.3409 0.5039 -0.9599, -0.33 0.5039 -0.9708, -0.3218 0.5039 -0.9839, 0.812 0.5039 -0.9541, 0.8263 0.5039 -0.9651, 1.0457 0.5039 -1.1928, 1.0525 0.5039 -1.1762, 1.0635 0.5039 -1.1619, -1.0944 0.5039 -1.1441, -0.8441 0.5039 -0.9959, 0.3494 0.5039 -0.9541, 0.366 0.5039 -0.9472, -0.3409 0.5039 -1.0676, -0.33 0.5039 -1.0567, -0.3218 0.5039 -1.0437, -0.8263 0.5039 -0.9651, -0.812 0.5039 -0.9541, -0.3167 0.5039 -0.9984, -0.315 0.5039 -1.0138, -0.3167 0.5039 -1.0291, -0.354 0.5039 -1.0759, -0.3685 0.5039 -1.0809, -0.3798 0.5039 -1.0826, -1.0778 0.5039 -1.151, -1.0635 0.5039 -1.1619, -1.0525 0.5039 -1.1762, -0.8372 0.5039 -0.9793, -0.7954 0.5039 -0.9472, 0.3839 0.5039 -0.9449, 0.315 0.5039 -1.0138, 0.3173 0.5039 -0.9959, 0.3242 0.5039 -0.9793, 0.3351 0.5039 -0.9651, 1.0433 0.7874 -1.6929, 1.0433 0.7874 -1.5157, 0.8465 0.7874 -1.5157, 0.8465 0.7874 -1.6929, 0.8498 0.7874 -1.7184, 0.8596 0.7874 -1.7421, 1.0145 0.7874 -1.7625, 1.0301 0.7874 -1.7421, 1.04 0.7874 -1.7184, 0.8753 0.7874 -1.7625, 0.8957 0.7874 -1.7782, 0.9194 0.7874 -1.788, 0.9449 0.7874 -1.7913, 0.9704 0.7874 -1.788, 0.9941 0.7874 -1.7782, 0.8498 0.9055 -1.7184, 0.8465 0.9055 -1.6929, 0.9194 0.9055 -1.788, 0.8465 0.9055 -1.5157, 1.0433 0.9055 -1.5157, 1.0433 0.9055 -1.6929, 0.9449 0.9055 -1.7913, 1.04 0.9055 -1.7184, 1.0301 0.9055 -1.7421, 1.0145 0.9055 -1.7625, 0.9941 0.9055 -1.7782, 0.9704 0.9055 -1.788, 0.8957 0.9055 -1.7782, 0.8753 0.9055 -1.7625, 0.8596 0.9055 -1.7421, 0.8465 0.8995 -1.4699, 1.0433 0.8995 -1.4699, 0.8465 0.8818 -1.4272, 1.0433 0.8818 -1.4272, 0.8465 0.8536 -1.3905, 1.0433 0.8536 -1.3905, 0.8465 0.8169 -1.3623, 1.0433 0.8169 -1.3623, 0.8465 0.7742 -1.3446, 1.0433 0.7742 -1.3446, 0.8465 0.7283 -1.3386, 1.0433 0.7283 -1.3386, 1.0433 0.6811 -1.3386, 0.8465 0.6811 -1.3386, 1.0433 0.6658 -1.3366, 0.8465 0.6658 -1.3366, 1.0433 0.6516 -1.3307, 0.8465 0.6516 -1.3307, 1.0433 0.6393 -1.3213, 0.8465 0.6393 -1.3213, 1.0433 0.63 -1.3091, 0.8465 0.63 -1.3091, 1.0433 0.6241 -1.2948, 0.8465 0.6241 -1.2948, 0.8465 0.51 -1.3254, 1.0433 0.51 -1.3254, 0.8465 0.5277 -1.3681, 1.0433 0.5277 -1.3681, 0.8465 0.5558 -1.4048, 1.0433 0.5558 -1.4048, 0.8465 0.5925 -1.433, 1.0433 0.5925 -1.433, 0.8465 0.6352 -1.4507, 1.0433 0.6352 -1.4507, 0.8465 0.6811 -1.4567, 1.0433 0.6811 -1.4567, 1.0433 0.7283 -1.4567, 0.8465 0.7283 -1.4567, 1.0433 0.7436 -1.4587, 0.8465 0.7436 -1.4587, 1.0433 0.7579 -1.4646, 0.8465 0.7579 -1.4646, 1.0433 0.7701 -1.474, 0.8465 0.7701 -1.474, 1.0433 0.7795 -1.4862, 0.8465 0.7795 -1.4862, 1.0433 0.7854 -1.5005, 0.8465 0.7854 -1.5005, -0.8465 0.7874 -1.5157, -1.0433 0.7874 -1.5157, -0.8465 0.7874 -1.6929, -1.0433 0.7874 -1.6929, -0.8498 0.7874 -1.7184, -0.9449 0.7874 -1.7913, -0.9194 0.7874 -1.788, -1.04 0.7874 -1.7184, -1.0301 0.7874 -1.7421, -1.0145 0.7874 -1.7625, -0.9941 0.7874 -1.7782, -0.9704 0.7874 -1.788, -0.8957 0.7874 -1.7782, -0.8753 0.7874 -1.7625, -0.8596 0.7874 -1.7421, -1.0433 0.7854 -1.5005, -0.8465 0.7854 -1.5005, -1.0433 0.7795 -1.4862, -0.8465 0.7795 -1.4862, -1.0433 0.7701 -1.474, -0.8465 0.7701 -1.474, -1.0433 0.7579 -1.4646, -0.8465 0.7579 -1.4646, -1.0433 0.7436 -1.4587, -0.8465 0.7436 -1.4587, -1.0433 0.7283 -1.4567, -0.8465 0.7283 -1.4567, -1.0433 0.6811 -1.4567, -0.8465 0.6811 -1.4567, -0.8465 0.6352 -1.4507, -1.0433 0.6352 -1.4507, -0.8465 0.5925 -1.433, -1.0433 0.5925 -1.433, -0.8465 0.5558 -1.4048, -1.0433 0.5558 -1.4048, -0.8465 0.5277 -1.3681, -1.0433 0.5277 -1.3681, -0.8465 0.51 -1.3254, -1.0433 0.51 -1.3254, -1.0433 0.6241 -1.2948, -0.8465 0.6241 -1.2948, -1.0433 0.63 -1.3091, -0.8465 0.63 -1.3091, -1.0433 0.6393 -1.3213, -0.8465 0.6393 -1.3213, -1.0433 0.6516 -1.3307, -0.8465 0.6516 -1.3307, -1.0433 0.6658 -1.3366, -0.8465 0.6658 -1.3366, -1.0433 0.6811 -1.3386, -0.8465 0.6811 -1.3386, -1.0433 0.7283 -1.3386, -0.8465 0.7283 -1.3386, -0.8465 0.7742 -1.3446, -1.0433 0.7742 -1.3446, -0.8465 0.8169 -1.3623, -1.0433 0.8169 -1.3623, -0.8465 0.8536 -1.3905, -1.0433 0.8536 -1.3905, -0.8465 0.8818 -1.4272, -1.0433 0.8818 -1.4272, -0.8465 0.8995 -1.4699, -1.0433 0.8995 -1.4699, -0.8465 0.9055 -1.5157, -1.0433 0.9055 -1.5157, -1.0433 0.9055 -1.6929, -0.8465 0.9055 -1.6929, -0.8498 0.9055 -1.7184, -0.8596 0.9055 -1.7421, -0.8753 0.9055 -1.7625, -0.8957 0.9055 -1.7782, -0.9194 0.9055 -1.788, -1.0301 0.9055 -1.7421, -0.9704 0.9055 -1.788, -1.0145 0.9055 -1.7625, -0.9941 0.9055 -1.7782, -0.9449 0.9055 -1.7913, -1.04 0.9055 -1.7184, -0.7283 0.3821 -1.2795, -0.7687 0.4931 -1.2795, -0.4067 0.4992 -1.2795, -0.4471 0.6102 -1.2795, -0.3935 0.5027 -1.2795, -0.414 0.6191 -1.2795, 0.3935 0.5027 -1.2795, 0.414 0.6191 -1.2795, 0.4067 0.4992 -1.2795, 0.4471 0.6102 -1.2795, 0.7283 0.3821 -1.2795, 0.7687 0.4931 -1.2795, -0.4067 0.4992 -1.0827, -0.6636 0.4057 -1.0827, -0.7283 0.3821 -1.1516, -0.6804 0.3996 -1.085, -0.696 0.3939 -1.0919, -0.7094 0.389 -1.1029, -0.7197 0.3853 -1.1171, -0.7261 0.3829 -1.1337, -0.3935 0.5027 -1.0827, -0.3839 0.5038 -1.0827, -0.3839 0.622 -1.0827, -0.414 0.6191 -1.0827, -0.4471 0.6102 -1.0827, -0.704 0.5167 -1.0827, -0.7665 0.4939 -1.1337, -0.7601 0.4963 -1.1171, -0.7687 0.4931 -1.1516, -0.7498 0.5 -1.1029, -0.7364 0.5049 -1.0919, -0.7208 0.5106 -1.085, 0.6804 0.3996 -1.085, 0.6636 0.4057 -1.0827, 0.7283 0.3821 -1.1516, 0.4067 0.4992 -1.0827, 0.7197 0.3853 -1.1171, 0.7094 0.389 -1.1029, 0.696 0.3939 -1.0919, 0.7261 0.3829 -1.1337, 0.7687 0.4931 -1.1516, 0.4471 0.6102 -1.0827, 0.704 0.5167 -1.0827, 0.7208 0.5106 -1.085, 0.7364 0.5049 -1.0919, 0.7498 0.5 -1.1029, 0.7601 0.4963 -1.1171, 0.7665 0.4939 -1.1337, 0.414 0.6191 -1.0827, 0.3839 0.622 -1.0827, 0.3935 0.5027 -1.0827, 0.3839 0.5038 -1.0827, -0.3839 -0.5039 -0.9449, -0.7776 -0.5039 -0.9449, 1.0944 -0.5039 -1.1441, 0.8441 -0.5039 -0.9959, 0.8372 -0.5039 -0.9793, 0.8465 -0.5039 -1.0138, 1.0457 -0.5039 -1.1928, 0.8465 -0.5039 -1.2795, 1.0433 -0.5039 -1.2106, 1.0433 -0.5039 -1.2795, -1.0457 -0.5039 -1.1928, -0.8441 -0.5039 -0.9959, -0.8465 -0.5039 -1.0138, 1.0778 -0.5039 -1.151, 1.0635 -0.5039 -1.1619, 1.0525 -0.5039 -1.1762, -1.0433 -0.5039 -1.2106, -0.8465 -0.5039 -1.2795, -1.0433 -0.5039 -1.2795, 0.8263 -0.5039 -0.9651, 0.812 -0.5039 -0.9541, 0.7954 -0.5039 -0.9472, 0.3242 -0.5039 -0.9793, 0.3351 -0.5039 -0.9651, 0.3494 -0.5039 -0.9541, 0.3798 -0.5039 -1.0826, 0.3798 -0.5039 -1.2795, 0.366 -0.5039 -1.0803, 0.3494 -0.5039 -1.0734, 0.3351 -0.5039 -1.0625, -0.3798 -0.5039 -1.2795, 0.3242 -0.5039 -1.0482, 0.7776 -0.5039 -0.9449, 0.3839 -0.5039 -0.9449, 0.366 -0.5039 -0.9472, -1.0525 -0.5039 -1.1762, -0.8263 -0.5039 -0.9651, -0.8372 -0.5039 -0.9793, -0.7954 -0.5039 -0.9472, -0.812 -0.5039 -0.9541, -1.0635 -0.5039 -1.1619, -1.0778 -0.5039 -1.151, -1.0944 -0.5039 -1.1441, 0.3173 -0.5039 -0.9959, -0.3167 -0.5039 -0.9984, -0.315 -0.5039 -1.0138, 0.315 -0.5039 -1.0138, -0.3167 -0.5039 -1.0291, 0.3173 -0.5039 -1.0316, -0.3218 -0.5039 -1.0437, -0.33 -0.5039 -1.0567, -0.3218 -0.5039 -0.9839, -0.33 -0.5039 -0.9708, -0.3409 -0.5039 -0.9599, -0.3409 -0.5039 -1.0676, -0.354 -0.5039 -0.9517, -0.3685 -0.5039 -0.9466, -0.3798 -0.5039 -1.0826, -0.3685 -0.5039 -1.0809, -0.354 -0.5039 -1.0759, 0.8465 -0.7874 -1.6929, 0.8465 -0.7874 -1.5157, 1.0433 -0.7874 -1.5157, 1.0145 -0.7874 -1.7625, 0.9941 -0.7874 -1.7782, 0.8498 -0.7874 -1.7184, 0.9704 -0.7874 -1.788, 0.9449 -0.7874 -1.7913, 0.9194 -0.7874 -1.788, 1.0433 -0.7874 -1.6929, 1.04 -0.7874 -1.7184, 1.0301 -0.7874 -1.7421, 0.8957 -0.7874 -1.7782, 0.8753 -0.7874 -1.7625, 0.8596 -0.7874 -1.7421, 1.0433 -0.9055 -1.5157, 0.8465 -0.9055 -1.5157, 1.0433 -0.9055 -1.6929, 0.8465 -0.9055 -1.6929, 0.8498 -0.9055 -1.7184, 0.8957 -0.9055 -1.7782, 0.9194 -0.9055 -1.788, 1.0145 -0.9055 -1.7625, 1.0301 -0.9055 -1.7421, 1.04 -0.9055 -1.7184, 0.8596 -0.9055 -1.7421, 0.8753 -0.9055 -1.7625, 0.9449 -0.9055 -1.7913, 0.9704 -0.9055 -1.788, 0.9941 -0.9055 -1.7782, 1.0433 -0.7283 -1.3386, 0.8465 -0.7283 -1.3386, 0.8465 -0.7742 -1.3446, 1.0433 -0.7742 -1.3446, 0.8465 -0.8169 -1.3623, 1.0433 -0.8169 -1.3623, 0.8465 -0.8536 -1.3905, 1.0433 -0.8536 -1.3905, 0.8465 -0.8818 -1.4272, 1.0433 -0.8818 -1.4272, 0.8465 -0.8995 -1.4699, 1.0433 -0.8995 -1.4699, 1.0433 -0.6811 -1.3386, 0.8465 -0.6811 -1.3386, 1.0433 -0.6241 -1.2948, 0.8465 -0.6241 -1.2948, 1.0433 -0.63 -1.3091, 0.8465 -0.63 -1.3091, 1.0433 -0.6393 -1.3213, 0.8465 -0.6393 -1.3213, 1.0433 -0.6516 -1.3307, 0.8465 -0.6516 -1.3307, 1.0433 -0.6658 -1.3366, 0.8465 -0.6658 -1.3366, 1.0433 -0.6811 -1.4567, 0.8465 -0.6811 -1.4567, 0.8465 -0.6352 -1.4507, 1.0433 -0.6352 -1.4507, 0.8465 -0.5925 -1.433, 1.0433 -0.5925 -1.433, 0.8465 -0.5558 -1.4048, 1.0433 -0.5558 -1.4048, 0.8465 -0.5277 -1.3681, 1.0433 -0.5277 -1.3681, 0.8465 -0.51 -1.3254, 1.0433 -0.51 -1.3254, 1.0433 -0.7283 -1.4567, 0.8465 -0.7283 -1.4567, 1.0433 -0.7854 -1.5005, 0.8465 -0.7854 -1.5005, 1.0433 -0.7795 -1.4862, 0.8465 -0.7795 -1.4862, 1.0433 -0.7701 -1.474, 0.8465 -0.7701 -1.474, 1.0433 -0.7579 -1.4646, 0.8465 -0.7579 -1.4646, 1.0433 -0.7436 -1.4587, 0.8465 -0.7436 -1.4587, -1.0433 -0.7874 -1.5157, -0.8465 -0.7874 -1.5157, -1.0433 -0.7874 -1.6929, -0.8465 -0.7874 -1.6929, -0.8498 -0.7874 -1.7184, -0.8957 -0.7874 -1.7782, -0.9194 -0.7874 -1.788, -1.0145 -0.7874 -1.7625, -1.0301 -0.7874 -1.7421, -1.04 -0.7874 -1.7184, -0.8596 -0.7874 -1.7421, -0.8753 -0.7874 -1.7625, -0.9449 -0.7874 -1.7913, -0.9704 -0.7874 -1.788, -0.9941 -0.7874 -1.7782, -1.0433 -0.7283 -1.4567, -0.8465 -0.7283 -1.4567, -1.0433 -0.7436 -1.4587, -0.8465 -0.7436 -1.4587, -1.0433 -0.7579 -1.4646, -0.8465 -0.7579 -1.4646, -1.0433 -0.7701 -1.474, -0.8465 -0.7701 -1.474, -1.0433 -0.7795 -1.4862, -0.8465 -0.7795 -1.4862, -1.0433 -0.7854 -1.5005, -0.8465 -0.7854 -1.5005, -1.0433 -0.6811 -1.4567, -0.8465 -0.6811 -1.4567, -0.8465 -0.51 -1.3254, -1.0433 -0.51 -1.3254, -0.8465 -0.5277 -1.3681, -1.0433 -0.5277 -1.3681, -0.8465 -0.5558 -1.4048, -1.0433 -0.5558 -1.4048, -0.8465 -0.5925 -1.433, -1.0433 -0.5925 -1.433, -0.8465 -0.6352 -1.4507, -1.0433 -0.6352 -1.4507, -1.0433 -0.6811 -1.3386, -0.8465 -0.6811 -1.3386, -1.0433 -0.6658 -1.3366, -0.8465 -0.6658 -1.3366, -1.0433 -0.6516 -1.3307, -0.8465 -0.6516 -1.3307, -1.0433 -0.6393 -1.3213, -0.8465 -0.6393 -1.3213, -1.0433 -0.63 -1.3091, -0.8465 -0.63 -1.3091, -1.0433 -0.6241 -1.2948, -0.8465 -0.6241 -1.2948, -1.0433 -0.7283 -1.3386, -0.8465 -0.7283 -1.3386, -1.0433 -0.9055 -1.5157, -0.8465 -0.9055 -1.5157, -0.8465 -0.8995 -1.4699, -1.0433 -0.8995 -1.4699, -0.8465 -0.8818 -1.4272, -1.0433 -0.8818 -1.4272, -0.8465 -0.8536 -1.3905, -1.0433 -0.8536 -1.3905, -0.8465 -0.8169 -1.3623, -1.0433 -0.8169 -1.3623, -0.8465 -0.7742 -1.3446, -1.0433 -0.7742 -1.3446, -0.8465 -0.9055 -1.6929, -1.0145 -0.9055 -1.7625, -0.9941 -0.9055 -1.7782, -0.8498 -0.9055 -1.7184, -0.9704 -0.9055 -1.788, -0.9449 -0.9055 -1.7913, -0.9194 -0.9055 -1.788, -1.0433 -0.9055 -1.6929, -1.04 -0.9055 -1.7184, -1.0301 -0.9055 -1.7421, -0.8957 -0.9055 -1.7782, -0.8753 -0.9055 -1.7625, -0.8596 -0.9055 -1.7421, 0.7283 -0.3821 -1.2795, 0.7687 -0.4931 -1.2795, 0.4067 -0.4992 -1.2795, 0.4471 -0.6102 -1.2795, 0.3935 -0.5027 -1.2795, 0.414 -0.6191 -1.2795, -0.7687 -0.4931 -1.2795, -0.7283 -0.3821 -1.2795, -0.4471 -0.6102 -1.2795, -0.4067 -0.4992 -1.2795, -0.414 -0.6191 -1.2795, -0.3935 -0.5027 -1.2795, -0.4067 -0.4992 -1.0827, -0.6636 -0.4057 -1.0827, -0.7283 -0.3821 -1.1516, -0.6804 -0.3996 -1.085, -0.696 -0.3939 -1.0919, -0.7094 -0.389 -1.1029, -0.7261 -0.3829 -1.1337, -0.7197 -0.3853 -1.1171, -0.3935 -0.5027 -1.0827, -0.3839 -0.5038 -1.0827, -0.4471 -0.6102 -1.0827, -0.414 -0.6191 -1.0827, -0.3839 -0.622 -1.0827, -0.704 -0.5167 -1.0827, -0.7208 -0.5106 -1.085, -0.7364 -0.5049 -1.0919, -0.7498 -0.5 -1.1029, -0.7601 -0.4963 -1.1171, -0.7665 -0.4939 -1.1337, -0.7687 -0.4931 -1.1516, 0.4067 -0.4992 -1.0827, 0.6636 -0.4057 -1.0827, 0.7283 -0.3821 -1.1516, 0.696 -0.3939 -1.0919, 0.7094 -0.389 -1.1029, 0.7197 -0.3853 -1.1171, 0.6804 -0.3996 -1.085, 0.7261 -0.3829 -1.1337, 0.7687 -0.4931 -1.1516, 0.4471 -0.6102 -1.0827, 0.704 -0.5167 -1.0827, 0.7208 -0.5106 -1.085, 0.7364 -0.5049 -1.0919, 0.7498 -0.5 -1.1029, 0.7665 -0.4939 -1.1337, 0.7601 -0.4963 -1.1171, 0.3839 -0.622 -1.0827, 0.414 -0.6191 -1.0827, 0.3935 -0.5027 -1.0827, 0.3839 -0.5038 -1.0827, 0.3839 -0.5038 -1.0827
            ]
        }
        coordIndex [
            0,1,2,-1,3,4,5,-1,5,4,6,-1,7,8,9,-1,10,6,11,-1,11,6,12,-1,13,14,15,-1,16,5,17,-1,17,5,18,-1,17,18,12,-1,19,20,8,-1,15,3,13,-1,13,3,5,-1,13,5,21,-1,21,5,16,-1,21,16,22,-1,22,16,23,-1,24,25,26,-1,8,20,27,-1,28,29,30,-1,30,29,31,-1,30,31,32,-1,33,34,30,-1,30,34,35,-1,36,37,38,-1,38,37,39,-1,35,40,30,-1,30,40,39,-1,30,39,41,-1,41,39,37,-1,32,42,30,-1,30,42,43,-1,30,43,33,-1,7,44,8,-1,8,44,45,-1,8,45,19,-1,20,46,27,-1,27,46,47,-1,27,47,48,-1,48,47,49,-1,48,49,26,-1,26,49,50,-1,26,50,24,-1,51,52,18,-1,18,52,53,-1,18,53,54,-1,54,55,18,-1,18,55,56,-1,18,56,12,-1,12,56,57,-1,12,57,11,-1,11,57,58,-1,11,58,30,-1,30,58,59,-1,30,59,28,-1,60,61,62,-1,63,64,65,-1,65,64,66,-1,65,66,67,-1,68,69,70,-1,70,69,71,-1,68,72,69,-1,69,72,73,-1,69,73,74,-1,75,76,5,-1,77,78,79,-1,80,81,69,-1,69,81,82,-1,69,82,71,-1,75,5,83,-1,82,84,71,-1,71,84,85,-1,71,85,63,-1,63,85,86,-1,63,86,64,-1,79,87,77,-1,77,87,88,-1,77,88,62,-1,62,88,89,-1,62,89,60,-1,10,90,6,-1,6,90,91,-1,6,91,5,-1,5,91,92,-1,5,92,83,-1,76,93,5,-1,5,93,94,-1,5,94,77,-1,77,94,95,-1,77,95,78,-1,91,96,92,-1,92,96,97,-1,92,97,98,-1,98,97,7,-1,25,51,26,-1,26,51,18,-1,26,18,99,-1,99,18,100,-1,99,100,9,-1,9,100,69,-1,9,69,7,-1,7,69,74,-1,7,74,98,-1,101,102,2,-1,103,104,2,-1,105,106,107,-1,104,108,2,-1,2,108,109,-1,2,109,101,-1,105,107,110,-1,111,77,112,-1,112,77,113,-1,5,114,115,-1,102,116,2,-1,2,116,117,-1,2,117,0,-1,113,77,118,-1,118,77,119,-1,118,119,120,-1,121,122,5,-1,5,122,123,-1,5,123,114,-1,107,124,110,-1,110,124,125,-1,110,125,102,-1,102,125,126,-1,102,126,116,-1,111,127,77,-1,77,127,128,-1,77,128,5,-1,5,128,129,-1,5,129,121,-1,130,5,2,-1,2,5,115,-1,2,115,103,-1,131,132,133,-1,133,132,134,-1,130,135,5,-1,5,135,136,-1,5,136,18,-1,18,136,137,-1,18,137,138,-1,139,140,141,-1,141,140,142,-1,141,142,143,-1,143,144,141,-1,141,144,145,-1,141,145,133,-1,133,145,146,-1,133,146,131,-1,134,147,133,-1,133,147,148,-1,133,148,149,-1,138,139,18,-1,18,139,141,-1,18,141,150,-1,150,141,151,-1,150,151,2,-1,2,151,152,-1,2,152,153,-1,154,155,153,-1,153,155,156,-1,153,156,2,-1,2,156,133,-1,2,133,130,-1,130,133,149,-1,157,158,159,-1,159,158,160,-1,159,160,161,-1,161,160,162,-1,161,162,163,-1,163,162,164,-1,163,164,165,-1,0,166,1,-1,1,166,167,-1,1,167,168,-1,168,167,169,-1,168,169,170,-1,170,169,171,-1,170,171,172,-1,172,171,173,-1,172,173,174,-1,174,173,175,-1,164,176,165,-1,165,176,177,-1,165,177,178,-1,178,177,179,-1,178,179,180,-1,180,179,181,-1,180,181,182,-1,182,181,183,-1,182,183,184,-1,184,183,185,-1,184,185,186,-1,186,185,187,-1,186,187,188,-1,188,187,189,-1,188,189,190,-1,190,189,191,-1,190,191,175,-1,175,191,192,-1,175,192,174,-1,193,194,195,-1,195,194,196,-1,197,81,198,-1,198,81,80,-1,198,80,199,-1,199,80,200,-1,199,200,201,-1,201,200,202,-1,201,202,203,-1,204,205,206,-1,206,205,207,-1,206,207,208,-1,208,207,209,-1,208,209,210,-1,210,209,211,-1,210,211,212,-1,212,211,213,-1,212,213,214,-1,214,213,215,-1,202,216,203,-1,203,216,217,-1,203,217,218,-1,218,217,219,-1,218,219,220,-1,220,219,221,-1,220,221,222,-1,222,221,223,-1,222,223,224,-1,224,223,225,-1,224,225,226,-1,226,225,227,-1,226,227,228,-1,228,227,229,-1,228,229,230,-1,230,229,231,-1,230,231,204,-1,204,231,232,-1,204,232,205,-1,233,234,225,-1,225,234,227,-1,227,234,235,-1,227,235,229,-1,229,235,236,-1,229,236,231,-1,231,236,237,-1,231,237,232,-1,232,237,238,-1,232,238,205,-1,205,238,239,-1,205,239,207,-1,207,239,240,-1,207,240,209,-1,209,240,241,-1,209,241,211,-1,211,241,242,-1,211,242,213,-1,243,244,245,-1,158,246,247,-1,248,249,250,-1,251,252,253,-1,253,252,254,-1,253,254,255,-1,256,257,247,-1,247,257,160,-1,247,160,158,-1,250,249,245,-1,245,249,258,-1,245,258,243,-1,256,259,257,-1,257,259,260,-1,257,260,261,-1,246,262,247,-1,247,262,263,-1,247,263,251,-1,251,263,264,-1,251,264,252,-1,242,265,266,-1,267,268,269,-1,267,269,270,-1,271,272,273,-1,261,274,257,-1,257,274,275,-1,257,275,242,-1,242,275,276,-1,242,276,265,-1,266,277,242,-1,242,277,278,-1,242,278,194,-1,194,193,242,-1,242,193,279,-1,242,279,280,-1,281,282,283,-1,283,282,284,-1,283,284,285,-1,286,278,287,-1,287,278,288,-1,287,288,289,-1,289,288,283,-1,289,283,290,-1,290,283,285,-1,272,215,273,-1,273,215,213,-1,273,213,291,-1,291,213,242,-1,291,242,292,-1,292,242,280,-1,286,293,278,-1,278,293,294,-1,278,294,295,-1,248,250,283,-1,283,250,296,-1,283,296,281,-1,269,297,270,-1,270,297,298,-1,270,298,273,-1,273,298,299,-1,273,299,271,-1,295,300,278,-1,278,300,301,-1,278,301,194,-1,160,257,302,-1,160,302,162,-1,162,302,303,-1,162,303,164,-1,164,303,304,-1,164,304,176,-1,176,304,305,-1,176,305,177,-1,177,305,306,-1,177,306,179,-1,179,306,307,-1,179,307,181,-1,181,307,308,-1,181,308,183,-1,183,308,309,-1,183,309,185,-1,187,185,310,-1,310,185,309,-1,311,312,313,-1,313,312,314,-1,313,314,315,-1,315,314,316,-1,315,316,317,-1,317,316,318,-1,317,318,319,-1,319,318,310,-1,319,310,320,-1,320,310,309,-1,320,309,321,-1,321,309,308,-1,321,308,322,-1,322,308,307,-1,322,307,323,-1,324,325,326,-1,326,325,327,-1,326,327,328,-1,328,327,329,-1,328,329,330,-1,330,329,331,-1,330,331,332,-1,331,100,332,-1,332,100,18,-1,332,18,333,-1,333,18,150,-1,333,150,334,-1,334,150,335,-1,334,335,336,-1,336,335,337,-1,336,337,311,-1,311,337,338,-1,311,338,312,-1,339,238,340,-1,340,238,237,-1,340,237,341,-1,341,237,236,-1,341,236,342,-1,342,236,235,-1,342,235,343,-1,343,235,234,-1,343,234,344,-1,344,234,233,-1,344,233,345,-1,345,233,346,-1,345,346,347,-1,347,346,348,-1,347,348,324,-1,324,348,349,-1,324,349,325,-1,307,306,323,-1,323,306,305,-1,323,305,350,-1,350,305,304,-1,350,304,351,-1,351,304,303,-1,351,303,352,-1,352,303,302,-1,352,302,353,-1,353,302,257,-1,353,257,354,-1,354,257,242,-1,354,242,355,-1,355,242,241,-1,355,241,356,-1,356,241,240,-1,356,240,339,-1,339,240,239,-1,339,239,238,-1,224,226,344,-1,344,226,343,-1,212,354,210,-1,210,354,355,-1,210,355,208,-1,208,355,356,-1,208,356,206,-1,206,356,339,-1,206,339,204,-1,204,339,340,-1,204,340,230,-1,230,340,341,-1,230,341,228,-1,228,341,342,-1,228,342,226,-1,226,342,343,-1,357,358,359,-1,360,361,362,-1,363,364,365,-1,365,364,366,-1,365,366,367,-1,367,366,368,-1,367,368,369,-1,358,157,359,-1,359,157,159,-1,359,159,370,-1,370,159,353,-1,360,362,371,-1,372,373,353,-1,374,375,376,-1,376,375,377,-1,376,377,378,-1,379,380,381,-1,381,382,379,-1,379,382,383,-1,379,383,384,-1,373,385,353,-1,353,385,386,-1,353,386,370,-1,362,387,371,-1,371,387,388,-1,371,388,359,-1,359,388,389,-1,359,389,357,-1,390,391,214,-1,214,391,212,-1,354,392,393,-1,394,367,395,-1,395,367,369,-1,395,369,396,-1,354,397,398,-1,384,399,379,-1,379,399,400,-1,379,400,369,-1,369,400,401,-1,369,401,396,-1,394,402,367,-1,367,402,403,-1,367,403,404,-1,390,405,391,-1,391,405,406,-1,391,406,374,-1,374,406,407,-1,374,407,375,-1,212,391,354,-1,354,391,408,-1,354,408,397,-1,398,409,354,-1,354,409,195,-1,354,195,196,-1,354,393,353,-1,353,393,410,-1,353,410,372,-1,379,411,380,-1,380,411,412,-1,380,412,196,-1,196,412,413,-1,196,413,354,-1,354,413,414,-1,354,414,392,-1,184,320,182,-1,182,320,321,-1,182,321,180,-1,180,321,322,-1,180,322,178,-1,178,322,323,-1,178,323,165,-1,165,323,350,-1,165,350,163,-1,163,350,351,-1,163,351,161,-1,161,351,352,-1,161,352,159,-1,159,352,353,-1,319,320,186,-1,186,320,184,-1,415,416,417,-1,417,418,415,-1,415,418,419,-1,415,419,420,-1,421,422,423,-1,420,424,415,-1,415,424,425,-1,415,425,426,-1,426,427,415,-1,415,427,428,-1,415,428,423,-1,423,428,429,-1,423,429,421,-1,430,431,432,-1,433,434,431,-1,431,434,435,-1,432,431,436,-1,435,437,431,-1,431,437,438,-1,431,438,439,-1,439,440,431,-1,431,440,441,-1,431,441,436,-1,442,443,432,-1,432,443,444,-1,432,444,430,-1,434,433,445,-1,434,445,446,-1,446,445,447,-1,446,447,448,-1,448,447,449,-1,448,449,450,-1,450,449,451,-1,450,451,452,-1,452,451,453,-1,452,453,454,-1,454,453,455,-1,454,455,456,-1,457,456,458,-1,458,456,455,-1,457,458,459,-1,459,458,460,-1,459,460,461,-1,461,460,462,-1,461,462,463,-1,463,462,464,-1,463,464,465,-1,465,464,466,-1,465,466,467,-1,467,466,468,-1,467,468,255,-1,255,468,253,-1,361,360,469,-1,361,469,470,-1,470,469,471,-1,470,471,472,-1,472,471,473,-1,472,473,474,-1,474,473,475,-1,474,475,476,-1,476,475,477,-1,476,477,478,-1,478,477,479,-1,478,479,480,-1,481,480,482,-1,482,480,479,-1,481,482,483,-1,483,482,484,-1,483,484,485,-1,485,484,486,-1,485,486,487,-1,487,486,488,-1,487,488,489,-1,489,488,490,-1,489,490,491,-1,491,490,492,-1,491,492,416,-1,416,492,417,-1,415,435,416,-1,416,435,434,-1,416,434,491,-1,491,434,446,-1,491,446,489,-1,489,446,448,-1,489,448,487,-1,487,448,450,-1,487,450,485,-1,485,450,452,-1,485,452,483,-1,483,452,454,-1,483,454,481,-1,481,454,456,-1,481,456,480,-1,480,456,457,-1,480,457,478,-1,478,457,459,-1,478,459,476,-1,476,459,461,-1,476,461,474,-1,474,461,463,-1,474,463,472,-1,472,463,465,-1,472,465,470,-1,470,465,467,-1,470,467,361,-1,361,467,255,-1,361,255,362,-1,362,255,254,-1,371,251,360,-1,360,251,253,-1,360,253,469,-1,469,253,468,-1,469,468,471,-1,471,468,466,-1,471,466,473,-1,473,466,464,-1,473,464,475,-1,475,464,462,-1,475,462,477,-1,477,462,460,-1,477,460,479,-1,479,460,458,-1,479,458,482,-1,482,458,455,-1,482,455,484,-1,484,455,453,-1,484,453,486,-1,486,453,451,-1,486,451,488,-1,488,451,449,-1,488,449,490,-1,490,449,447,-1,490,447,492,-1,492,447,445,-1,492,445,417,-1,417,445,433,-1,417,433,418,-1,418,433,431,-1,435,415,423,-1,435,423,437,-1,437,423,422,-1,437,422,438,-1,438,422,421,-1,438,421,439,-1,439,421,429,-1,439,429,440,-1,440,429,428,-1,440,428,441,-1,441,428,427,-1,441,427,436,-1,418,431,430,-1,418,430,419,-1,419,430,444,-1,419,444,420,-1,420,444,443,-1,420,443,424,-1,424,443,442,-1,424,442,425,-1,425,442,432,-1,425,432,426,-1,426,432,436,-1,426,436,427,-1,493,494,495,-1,495,494,496,-1,495,496,497,-1,498,499,497,-1,496,500,497,-1,497,500,501,-1,497,501,502,-1,502,503,497,-1,497,503,504,-1,497,504,498,-1,499,505,497,-1,497,505,506,-1,497,506,507,-1,494,493,508,-1,508,493,509,-1,508,509,510,-1,510,509,511,-1,510,511,512,-1,512,511,513,-1,512,513,514,-1,514,513,515,-1,514,515,516,-1,516,515,517,-1,516,517,518,-1,518,517,519,-1,520,518,521,-1,521,518,519,-1,520,521,522,-1,520,522,523,-1,523,522,524,-1,523,524,525,-1,525,524,526,-1,525,526,527,-1,527,526,528,-1,527,528,529,-1,529,528,530,-1,529,530,531,-1,531,530,376,-1,531,376,378,-1,268,267,532,-1,532,267,533,-1,532,533,534,-1,534,533,535,-1,534,535,536,-1,536,535,537,-1,536,537,538,-1,538,537,539,-1,538,539,540,-1,540,539,541,-1,540,541,542,-1,542,541,543,-1,544,542,545,-1,545,542,543,-1,544,545,546,-1,544,546,547,-1,547,546,548,-1,547,548,549,-1,549,548,550,-1,549,550,551,-1,551,550,552,-1,551,552,553,-1,553,552,554,-1,553,554,555,-1,555,554,556,-1,555,556,557,-1,558,557,556,-1,556,559,558,-1,558,559,560,-1,558,560,561,-1,561,562,558,-1,558,562,563,-1,558,563,564,-1,565,566,567,-1,567,566,568,-1,564,569,558,-1,558,569,566,-1,558,566,570,-1,570,566,565,-1,377,269,378,-1,378,269,268,-1,378,268,531,-1,531,268,532,-1,531,532,529,-1,529,532,534,-1,529,534,527,-1,527,534,536,-1,527,536,525,-1,525,536,538,-1,525,538,523,-1,523,538,540,-1,523,540,520,-1,520,540,542,-1,520,542,518,-1,518,542,544,-1,518,544,516,-1,516,544,547,-1,516,547,514,-1,514,547,549,-1,514,549,512,-1,512,549,551,-1,512,551,510,-1,510,551,553,-1,510,553,508,-1,508,553,555,-1,508,555,494,-1,494,555,557,-1,494,557,496,-1,496,557,558,-1,495,559,493,-1,493,559,556,-1,493,556,509,-1,509,556,554,-1,509,554,511,-1,511,554,552,-1,511,552,513,-1,513,552,550,-1,513,550,515,-1,515,550,548,-1,515,548,517,-1,517,548,546,-1,517,546,519,-1,519,546,545,-1,519,545,521,-1,521,545,543,-1,521,543,522,-1,522,543,541,-1,522,541,524,-1,524,541,539,-1,524,539,526,-1,526,539,537,-1,526,537,528,-1,528,537,535,-1,528,535,530,-1,530,535,533,-1,530,533,376,-1,376,533,267,-1,376,267,374,-1,374,267,270,-1,496,558,570,-1,496,570,500,-1,500,570,565,-1,500,565,501,-1,501,565,567,-1,501,567,502,-1,502,567,568,-1,502,568,503,-1,503,568,566,-1,503,566,504,-1,504,566,569,-1,504,569,498,-1,559,495,497,-1,559,497,560,-1,560,497,507,-1,560,507,561,-1,561,507,506,-1,561,506,562,-1,562,506,505,-1,562,505,563,-1,563,505,499,-1,563,499,564,-1,564,499,498,-1,564,498,569,-1,372,410,274,-1,274,410,275,-1,571,572,573,-1,573,572,574,-1,573,574,575,-1,575,574,576,-1,575,576,367,-1,367,576,250,-1,367,250,365,-1,365,250,245,-1,365,245,577,-1,577,245,578,-1,577,578,579,-1,579,578,580,-1,579,580,581,-1,581,580,582,-1,573,583,571,-1,571,583,584,-1,571,584,585,-1,585,584,586,-1,585,586,587,-1,587,588,585,-1,585,588,589,-1,585,589,590,-1,583,573,591,-1,591,573,575,-1,591,575,592,-1,592,575,367,-1,592,367,404,-1,593,296,250,-1,593,250,594,-1,250,576,594,-1,594,576,574,-1,594,574,595,-1,596,595,574,-1,597,598,599,-1,599,598,600,-1,599,600,601,-1,574,572,596,-1,596,572,599,-1,596,599,602,-1,602,599,601,-1,599,572,585,-1,585,572,571,-1,592,593,591,-1,591,593,594,-1,591,594,583,-1,583,594,595,-1,583,595,584,-1,584,595,596,-1,603,604,605,-1,606,579,604,-1,604,579,581,-1,604,581,605,-1,607,608,609,-1,603,605,609,-1,609,605,610,-1,609,610,607,-1,605,581,611,-1,611,581,582,-1,580,612,582,-1,582,612,613,-1,614,615,613,-1,613,615,616,-1,613,616,617,-1,617,618,613,-1,613,618,611,-1,613,611,582,-1,580,578,612,-1,612,578,619,-1,619,578,620,-1,620,578,245,-1,620,245,244,-1,579,606,577,-1,577,606,621,-1,577,621,365,-1,365,621,622,-1,365,622,363,-1,604,613,606,-1,606,613,612,-1,606,612,621,-1,621,612,619,-1,621,619,622,-1,622,619,620,-1,362,254,387,-1,387,254,252,-1,387,252,388,-1,388,252,264,-1,388,264,389,-1,389,264,263,-1,389,263,357,-1,357,263,262,-1,357,262,358,-1,358,262,246,-1,358,246,157,-1,157,246,158,-1,214,215,390,-1,390,215,272,-1,390,272,405,-1,405,272,271,-1,405,271,406,-1,406,271,299,-1,406,299,407,-1,407,299,298,-1,407,298,375,-1,375,298,297,-1,375,297,377,-1,377,297,269,-1,599,585,590,-1,599,590,597,-1,597,590,589,-1,597,589,598,-1,598,589,588,-1,598,588,600,-1,600,588,587,-1,600,587,601,-1,601,587,586,-1,601,586,602,-1,602,586,584,-1,602,584,596,-1,605,611,618,-1,605,618,610,-1,610,618,617,-1,610,617,607,-1,607,617,616,-1,607,616,608,-1,608,616,615,-1,608,615,609,-1,609,615,614,-1,609,614,603,-1,603,614,613,-1,603,613,604,-1,251,371,247,-1,247,371,359,-1,247,359,256,-1,256,359,370,-1,256,370,259,-1,259,370,386,-1,259,386,260,-1,260,386,385,-1,260,385,261,-1,261,385,373,-1,261,373,274,-1,274,373,372,-1,622,620,363,-1,363,620,244,-1,363,244,364,-1,364,244,243,-1,364,243,366,-1,366,243,258,-1,366,258,368,-1,368,258,249,-1,368,249,369,-1,369,249,248,-1,369,248,379,-1,379,248,283,-1,379,283,411,-1,411,283,288,-1,411,288,412,-1,412,288,278,-1,412,278,413,-1,413,278,277,-1,413,277,414,-1,414,277,266,-1,414,266,392,-1,392,266,265,-1,392,265,393,-1,393,265,276,-1,393,276,410,-1,410,276,275,-1,193,195,279,-1,279,195,409,-1,279,409,280,-1,280,409,398,-1,280,398,292,-1,292,398,397,-1,292,397,291,-1,291,397,408,-1,291,408,273,-1,273,408,391,-1,273,391,270,-1,270,391,374,-1,400,287,401,-1,401,287,289,-1,401,289,396,-1,396,289,290,-1,396,290,395,-1,395,290,285,-1,395,285,394,-1,394,285,284,-1,394,284,402,-1,402,284,282,-1,402,282,403,-1,403,282,281,-1,403,281,404,-1,404,281,296,-1,404,296,592,-1,592,296,593,-1,196,194,380,-1,380,194,301,-1,380,301,381,-1,381,301,300,-1,381,300,382,-1,382,300,295,-1,382,295,383,-1,383,295,294,-1,383,294,384,-1,384,294,293,-1,384,293,399,-1,399,293,286,-1,399,286,400,-1,400,286,287,-1,98,74,623,-1,623,74,624,-1,69,100,331,-1,200,80,69,-1,69,331,200,-1,200,331,329,-1,200,329,202,-1,202,329,327,-1,202,327,216,-1,216,327,325,-1,216,325,217,-1,217,325,349,-1,217,349,219,-1,219,349,348,-1,219,348,221,-1,221,348,346,-1,221,346,223,-1,223,346,233,-1,223,233,225,-1,2,1,168,-1,335,170,337,-1,337,170,172,-1,337,172,338,-1,338,172,174,-1,338,174,312,-1,312,174,192,-1,312,192,314,-1,314,192,191,-1,314,191,316,-1,316,191,189,-1,316,189,318,-1,318,189,187,-1,318,187,310,-1,150,2,335,-1,335,2,168,-1,335,168,170,-1,224,344,222,-1,222,344,345,-1,222,345,220,-1,220,345,347,-1,220,347,218,-1,218,347,324,-1,218,324,203,-1,203,324,326,-1,203,326,201,-1,201,326,328,-1,201,328,199,-1,199,328,330,-1,199,330,198,-1,198,330,332,-1,166,625,626,-1,627,333,626,-1,626,333,167,-1,626,167,166,-1,628,629,630,-1,630,629,631,-1,630,631,632,-1,633,634,635,-1,625,636,626,-1,626,636,637,-1,626,637,628,-1,628,637,638,-1,628,638,629,-1,633,635,639,-1,639,635,640,-1,639,640,641,-1,627,642,333,-1,333,642,643,-1,333,643,644,-1,645,332,646,-1,646,332,647,-1,648,649,650,-1,650,649,651,-1,651,649,652,-1,652,649,653,-1,652,653,654,-1,644,655,333,-1,333,655,656,-1,333,656,332,-1,332,656,657,-1,332,657,647,-1,658,659,633,-1,633,659,660,-1,633,660,634,-1,624,661,332,-1,332,661,662,-1,658,663,659,-1,659,663,664,-1,659,664,662,-1,662,664,665,-1,662,665,332,-1,332,665,197,-1,332,197,198,-1,645,666,332,-1,332,666,623,-1,332,623,624,-1,667,666,668,-1,668,666,669,-1,668,669,670,-1,670,669,671,-1,670,671,672,-1,672,671,673,-1,667,674,666,-1,666,674,675,-1,666,675,676,-1,654,653,671,-1,671,653,677,-1,671,677,673,-1,676,678,666,-1,666,678,679,-1,666,679,623,-1,680,681,653,-1,653,681,682,-1,653,682,677,-1,167,333,169,-1,169,333,334,-1,169,334,171,-1,171,334,336,-1,171,336,173,-1,173,336,311,-1,173,311,175,-1,175,311,313,-1,175,313,190,-1,190,313,315,-1,190,315,188,-1,188,315,317,-1,188,317,186,-1,186,317,319,-1,683,684,685,-1,686,687,688,-1,687,689,688,-1,688,689,690,-1,688,690,691,-1,685,692,683,-1,683,692,693,-1,683,693,688,-1,688,693,694,-1,688,694,686,-1,691,695,688,-1,688,695,696,-1,688,696,697,-1,698,699,700,-1,700,699,701,-1,700,701,702,-1,703,704,700,-1,705,706,707,-1,702,708,700,-1,700,708,709,-1,700,709,703,-1,704,710,700,-1,700,710,711,-1,700,711,707,-1,707,711,712,-1,707,712,705,-1,713,714,715,-1,713,715,716,-1,716,715,717,-1,716,717,718,-1,718,717,719,-1,718,719,720,-1,720,719,721,-1,720,721,722,-1,722,721,723,-1,722,723,724,-1,724,723,699,-1,724,699,698,-1,713,725,714,-1,714,725,726,-1,106,105,727,-1,727,105,728,-1,727,728,729,-1,729,728,730,-1,729,730,731,-1,731,730,732,-1,731,732,733,-1,733,732,734,-1,733,734,735,-1,735,734,736,-1,735,736,725,-1,725,736,726,-1,737,738,739,-1,737,739,740,-1,740,739,741,-1,740,741,742,-1,742,741,743,-1,742,743,744,-1,744,743,745,-1,744,745,746,-1,746,745,747,-1,746,747,748,-1,748,747,630,-1,748,630,632,-1,737,749,738,-1,738,749,750,-1,685,684,751,-1,751,684,752,-1,751,752,753,-1,753,752,754,-1,753,754,755,-1,755,754,756,-1,755,756,757,-1,757,756,758,-1,757,758,759,-1,759,758,760,-1,759,760,749,-1,749,760,750,-1,631,107,632,-1,632,107,106,-1,632,106,748,-1,748,106,727,-1,748,727,746,-1,746,727,729,-1,746,729,744,-1,744,729,731,-1,744,731,742,-1,742,731,733,-1,742,733,740,-1,740,733,735,-1,740,735,737,-1,737,735,725,-1,737,725,749,-1,749,725,713,-1,749,713,759,-1,759,713,716,-1,759,716,757,-1,757,716,718,-1,757,718,755,-1,755,718,720,-1,755,720,753,-1,753,720,722,-1,753,722,751,-1,751,722,724,-1,751,724,685,-1,685,724,698,-1,685,698,692,-1,692,698,700,-1,683,701,684,-1,684,701,699,-1,684,699,752,-1,752,699,723,-1,752,723,754,-1,754,723,721,-1,754,721,756,-1,756,721,719,-1,756,719,758,-1,758,719,717,-1,758,717,760,-1,760,717,715,-1,760,715,750,-1,750,715,714,-1,750,714,738,-1,738,714,726,-1,738,726,739,-1,739,726,736,-1,739,736,741,-1,741,736,734,-1,741,734,743,-1,743,734,732,-1,743,732,745,-1,745,732,730,-1,745,730,747,-1,747,730,728,-1,747,728,630,-1,630,728,105,-1,630,105,628,-1,628,105,110,-1,710,690,689,-1,710,689,711,-1,711,689,687,-1,711,687,712,-1,712,687,686,-1,712,686,705,-1,705,686,694,-1,705,694,706,-1,706,694,693,-1,706,693,707,-1,707,693,692,-1,707,692,700,-1,690,710,704,-1,690,704,691,-1,691,704,703,-1,691,703,695,-1,695,703,709,-1,695,709,696,-1,696,709,708,-1,696,708,697,-1,697,708,702,-1,697,702,688,-1,688,702,701,-1,688,701,683,-1,761,762,763,-1,763,762,764,-1,763,764,765,-1,766,767,763,-1,768,769,770,-1,765,771,763,-1,763,771,772,-1,763,772,766,-1,767,773,763,-1,763,773,774,-1,763,774,770,-1,770,774,775,-1,770,775,768,-1,776,777,778,-1,778,777,779,-1,778,779,780,-1,780,779,781,-1,780,781,782,-1,782,781,783,-1,782,783,784,-1,784,783,785,-1,784,785,786,-1,786,785,787,-1,786,787,761,-1,761,787,762,-1,776,788,777,-1,777,788,789,-1,641,640,790,-1,641,790,791,-1,791,790,792,-1,791,792,793,-1,793,792,794,-1,793,794,795,-1,795,794,796,-1,795,796,797,-1,797,796,798,-1,797,798,799,-1,799,798,789,-1,799,789,788,-1,800,801,802,-1,802,801,803,-1,802,803,804,-1,804,803,805,-1,804,805,806,-1,806,805,807,-1,806,807,808,-1,808,807,809,-1,808,809,810,-1,810,809,811,-1,810,811,67,-1,67,811,65,-1,800,812,801,-1,801,812,813,-1,814,815,816,-1,814,816,817,-1,817,816,818,-1,817,818,819,-1,819,818,820,-1,819,820,821,-1,821,820,822,-1,821,822,823,-1,823,822,824,-1,823,824,825,-1,825,824,813,-1,825,813,812,-1,826,815,814,-1,827,828,829,-1,828,830,829,-1,829,830,831,-1,829,831,832,-1,814,833,826,-1,826,833,834,-1,826,834,829,-1,829,834,835,-1,829,835,827,-1,832,836,829,-1,829,836,837,-1,829,837,838,-1,763,833,761,-1,761,833,814,-1,761,814,786,-1,786,814,817,-1,786,817,784,-1,784,817,819,-1,784,819,782,-1,782,819,821,-1,782,821,780,-1,780,821,823,-1,780,823,778,-1,778,823,825,-1,778,825,776,-1,776,825,812,-1,776,812,788,-1,788,812,800,-1,788,800,799,-1,799,800,802,-1,799,802,797,-1,797,802,804,-1,797,804,795,-1,795,804,806,-1,795,806,793,-1,793,806,808,-1,793,808,791,-1,791,808,810,-1,791,810,641,-1,641,810,67,-1,641,67,639,-1,639,67,66,-1,635,63,640,-1,640,63,65,-1,640,65,790,-1,790,65,811,-1,790,811,792,-1,792,811,809,-1,792,809,794,-1,794,809,807,-1,794,807,796,-1,796,807,805,-1,796,805,798,-1,798,805,803,-1,798,803,789,-1,789,803,801,-1,789,801,777,-1,777,801,813,-1,777,813,779,-1,779,813,824,-1,779,824,781,-1,781,824,822,-1,781,822,783,-1,783,822,820,-1,783,820,785,-1,785,820,818,-1,785,818,787,-1,787,818,816,-1,787,816,762,-1,762,816,815,-1,762,815,764,-1,764,815,826,-1,773,831,830,-1,773,830,774,-1,774,830,828,-1,774,828,775,-1,775,828,827,-1,775,827,768,-1,768,827,835,-1,768,835,769,-1,769,835,834,-1,769,834,770,-1,770,834,833,-1,770,833,763,-1,831,773,767,-1,831,767,832,-1,832,767,766,-1,832,766,836,-1,836,766,772,-1,836,772,837,-1,837,772,771,-1,837,771,838,-1,838,771,765,-1,838,765,829,-1,829,765,764,-1,829,764,826,-1,656,655,115,-1,115,655,103,-1,839,840,841,-1,841,840,842,-1,841,842,843,-1,843,842,844,-1,843,844,649,-1,845,846,847,-1,847,846,848,-1,847,848,849,-1,849,848,850,-1,849,850,62,-1,62,850,653,-1,62,653,77,-1,77,653,649,-1,77,649,119,-1,119,649,844,-1,851,848,852,-1,852,848,846,-1,852,846,853,-1,854,852,855,-1,855,852,856,-1,853,857,852,-1,852,857,858,-1,852,858,856,-1,848,851,850,-1,850,851,859,-1,850,859,653,-1,653,859,860,-1,653,860,680,-1,847,849,861,-1,861,849,862,-1,862,849,863,-1,863,849,62,-1,863,62,61,-1,847,861,845,-1,845,861,864,-1,865,866,864,-1,864,866,867,-1,864,867,868,-1,868,869,864,-1,864,869,870,-1,864,870,845,-1,845,870,846,-1,846,870,853,-1,852,864,851,-1,851,864,861,-1,851,861,859,-1,859,861,862,-1,859,862,860,-1,860,862,863,-1,841,871,839,-1,839,871,872,-1,839,872,873,-1,874,875,876,-1,872,877,873,-1,873,877,874,-1,873,874,878,-1,878,874,876,-1,839,873,840,-1,840,873,879,-1,880,842,881,-1,881,842,840,-1,881,840,879,-1,882,881,883,-1,883,881,884,-1,879,885,881,-1,881,885,886,-1,881,886,884,-1,887,120,119,-1,887,119,888,-1,119,844,888,-1,888,844,842,-1,888,842,880,-1,871,841,889,-1,889,841,843,-1,889,843,890,-1,890,843,649,-1,890,649,648,-1,890,887,889,-1,889,887,888,-1,889,888,871,-1,871,888,880,-1,871,880,872,-1,872,880,881,-1,166,0,625,-1,625,0,117,-1,625,117,636,-1,636,117,116,-1,636,116,637,-1,637,116,126,-1,637,126,638,-1,638,126,125,-1,638,125,629,-1,629,125,124,-1,629,124,631,-1,631,124,107,-1,639,66,633,-1,633,66,64,-1,633,64,658,-1,658,64,86,-1,658,86,663,-1,663,86,85,-1,663,85,664,-1,664,85,84,-1,664,84,665,-1,665,84,82,-1,665,82,197,-1,197,82,81,-1,864,852,854,-1,864,854,865,-1,865,854,855,-1,865,855,866,-1,866,855,856,-1,866,856,867,-1,867,856,858,-1,867,858,868,-1,868,858,857,-1,868,857,869,-1,869,857,853,-1,869,853,870,-1,872,881,882,-1,872,882,877,-1,877,882,883,-1,877,883,874,-1,874,883,884,-1,874,884,875,-1,875,884,886,-1,875,886,876,-1,876,886,885,-1,876,885,878,-1,878,885,879,-1,878,879,873,-1,103,655,104,-1,104,655,644,-1,104,644,108,-1,108,644,643,-1,108,643,109,-1,109,643,642,-1,109,642,101,-1,101,642,627,-1,101,627,102,-1,102,627,626,-1,102,626,110,-1,110,626,628,-1,669,128,671,-1,671,128,127,-1,671,127,654,-1,654,127,111,-1,654,111,652,-1,652,111,112,-1,652,112,651,-1,651,112,113,-1,651,113,650,-1,650,113,118,-1,650,118,648,-1,648,118,120,-1,648,120,890,-1,890,120,887,-1,656,115,657,-1,657,115,114,-1,657,114,647,-1,647,114,123,-1,647,123,646,-1,646,123,122,-1,646,122,645,-1,645,122,121,-1,645,121,666,-1,666,121,129,-1,666,129,669,-1,669,129,128,-1,63,635,71,-1,71,635,634,-1,71,634,70,-1,70,634,660,-1,70,660,68,-1,68,660,659,-1,68,659,72,-1,72,659,662,-1,72,662,73,-1,73,662,661,-1,73,661,74,-1,74,661,624,-1,860,863,680,-1,680,863,61,-1,680,61,681,-1,681,61,60,-1,681,60,682,-1,682,60,89,-1,682,89,677,-1,677,89,88,-1,677,88,673,-1,673,88,87,-1,673,87,672,-1,672,87,79,-1,672,79,670,-1,670,79,78,-1,670,78,668,-1,668,78,95,-1,668,95,667,-1,667,95,94,-1,667,94,674,-1,674,94,93,-1,674,93,675,-1,675,93,76,-1,675,76,676,-1,676,76,75,-1,676,75,678,-1,678,75,83,-1,678,83,679,-1,679,83,92,-1,679,92,623,-1,623,92,98,-1,
        ]
    }
}
Shape{
    appearance Appearance {
        material  Material 	{
            diffuseColor 1.0 1.0 1.0
            specularColor 0.8784313725490196 0.8784313725490196 0.8784313725490196
            ambientIntensity 0.2
            transparency 0
            shininess 0.5
        }
    }
    geometry IndexedFaceSet {
        ccw TRUE
        solid FALSE
        coord DEF co Coordinate {
            point [
                0.6674 -0.6142 -0.1536, 0.821 -0.6142 -0.5473, 0.6674 -0.622 -0.1536, 0.821 -0.622 -0.5473, 0.7634 -0.6142 -0.5473, 0.7634 -0.622 -0.5473, 0.7236 -0.6142 -0.4369, 0.7236 -0.622 -0.4369, 0.5609 -0.6142 -0.4369, 0.5609 -0.622 -0.4369, 0.5233 -0.6142 -0.5473, 0.5233 -0.622 -0.5473, 0.4657 -0.6142 -0.5473, 0.4657 -0.622 -0.5473, 0.6146 -0.6142 -0.1536, 0.6146 -0.622 -0.1536, 0.5742 -0.6142 -0.3937, 0.6329 -0.6142 -0.2292, 0.6367 -0.6142 -0.2156, 0.6392 -0.6142 -0.2016, 0.6405 -0.6142 -0.2016, 0.6431 -0.6142 -0.2155, 0.7059 -0.6142 -0.3937, 0.6466 -0.6142 -0.2292, 0.5742 -0.622 -0.3937, 0.7059 -0.622 -0.3937, 0.6329 -0.622 -0.2292, 0.6367 -0.622 -0.2156, 0.6392 -0.622 -0.2016, 0.6405 -0.622 -0.2016, 0.6431 -0.622 -0.2155, 0.6466 -0.622 -0.2292, 0.2271 -0.6142 -0.5473, 0.12 -0.6142 -0.5473, 0.2271 -0.622 -0.5473, 0.12 -0.622 -0.5473, 0.12 -0.6142 -0.1536, 0.12 -0.622 -0.1536, 0.2311 -0.6142 -0.1536, 0.2311 -0.622 -0.1536, 0.4369 -0.6142 -0.3455, 0.4369 -0.622 -0.3455, 0.4345 -0.622 -0.3116, 0.4345 -0.6142 -0.3116, 0.4246 -0.622 -0.2726, 0.4246 -0.6142 -0.2726, 0.4069 -0.622 -0.2384, 0.4069 -0.6142 -0.2384, 0.3801 -0.622 -0.2074, 0.3801 -0.6142 -0.2074, 0.376 -0.622 -0.2038, 0.376 -0.6142 -0.2038, 0.3326 -0.622 -0.1751, 0.3326 -0.6142 -0.1751, 0.2866 -0.622 -0.1594, 0.2866 -0.6142 -0.1594, 0.2759 -0.622 -0.543, 0.2759 -0.6142 -0.543, 0.3213 -0.622 -0.5295, 0.3213 -0.6142 -0.5295, 0.3623 -0.622 -0.5056, 0.3623 -0.6142 -0.5056, 0.3947 -0.622 -0.4745, 0.3947 -0.6142 -0.4745, 0.4173 -0.622 -0.4393, 0.4173 -0.6142 -0.4393, 0.4314 -0.622 -0.3982, 0.4314 -0.6142 -0.3982, 0.3578 -0.6142 -0.2519, 0.3387 -0.6142 -0.2316, 0.3099 -0.6142 -0.2131, 0.2774 -0.6142 -0.2017, 0.2309 -0.6142 -0.1968, 0.1728 -0.6142 -0.1968, 0.1728 -0.6142 -0.5041, 0.2287 -0.6142 -0.5041, 0.2703 -0.6142 -0.5002, 0.3035 -0.6142 -0.4899, 0.3303 -0.6142 -0.4739, 0.3524 -0.6142 -0.4521, 0.369 -0.6142 -0.4249, 0.3805 -0.6142 -0.3879, 0.3841 -0.6142 -0.3466, 0.3808 -0.6142 -0.3074, 0.3715 -0.6142 -0.2762, 0.2309 -0.622 -0.1968, 0.1728 -0.622 -0.1968, 0.2774 -0.622 -0.2017, 0.3099 -0.622 -0.2131, 0.3387 -0.622 -0.2316, 0.3578 -0.622 -0.2519, 0.3715 -0.622 -0.2762, 0.3808 -0.622 -0.3074, 0.3841 -0.622 -0.3466, 0.3805 -0.622 -0.3879, 0.369 -0.622 -0.4249, 0.3524 -0.622 -0.4521, 0.3303 -0.622 -0.4739, 0.3035 -0.622 -0.4899, 0.2703 -0.622 -0.5002, 0.2287 -0.622 -0.5041, 0.1728 -0.622 -0.5041, 0.0432 -0.6142 -0.5041, 0.0432 -0.6142 -0.5473, 0.0432 -0.622 -0.5041, 0.0432 -0.622 -0.5473, -0.168 -0.6142 -0.5473, -0.168 -0.622 -0.5473, -0.168 -0.6142 -0.1536, -0.168 -0.622 -0.1536, 0.0336 -0.6142 -0.1536, 0.0336 -0.622 -0.1536, 0.0336 -0.6142 -0.1968, 0.0336 -0.622 -0.1968, -0.1152 -0.6142 -0.1968, -0.1152 -0.622 -0.1968, -0.1152 -0.6142 -0.3264, -0.1152 -0.622 -0.3264, 0.024 -0.6142 -0.3264, 0.024 -0.622 -0.3264, 0.024 -0.6142 -0.3697, 0.024 -0.622 -0.3697, -0.1152 -0.6142 -0.3697, -0.1152 -0.622 -0.3697, -0.1152 -0.6142 -0.5041, -0.1152 -0.622 -0.5041, -0.2449 -0.6142 -0.4837, -0.2449 -0.6142 -0.5269, -0.2449 -0.622 -0.4837, -0.2449 -0.622 -0.5269, -0.2868 -0.6142 -0.5441, -0.3532 -0.6142 -0.5521, -0.3532 -0.622 -0.5521, -0.3424 -0.622 -0.5519, -0.3424 -0.6142 -0.5519, -0.3266 -0.622 -0.5497, -0.2868 -0.622 -0.5441, -0.5377 -0.6142 -0.3579, -0.5377 -0.622 -0.3579, -0.534 -0.622 -0.4033, -0.534 -0.6142 -0.4033, -0.5221 -0.622 -0.445, -0.5221 -0.6142 -0.445, -0.5012 -0.622 -0.4824, -0.5012 -0.6142 -0.4824, -0.4717 -0.622 -0.5136, -0.4717 -0.6142 -0.5136, -0.44 -0.622 -0.5339, -0.44 -0.6142 -0.5339, -0.4017 -0.622 -0.5471, -0.4017 -0.6142 -0.5471, -0.3763 -0.622 -0.5497, -0.3375 -0.6142 -0.1488, -0.3375 -0.622 -0.1488, -0.3779 -0.622 -0.1522, -0.3779 -0.6142 -0.1522, -0.4218 -0.622 -0.1651, -0.4218 -0.6142 -0.1651, -0.4591 -0.622 -0.1869, -0.4591 -0.6142 -0.1869, -0.4944 -0.622 -0.2211, -0.4944 -0.6142 -0.2211, -0.5173 -0.622 -0.2581, -0.5173 -0.6142 -0.2581, -0.5324 -0.622 -0.3034, -0.5324 -0.6142 -0.3034, -0.2449 -0.6142 -0.1644, -0.2449 -0.622 -0.1644, -0.2904 -0.622 -0.1521, -0.2904 -0.6142 -0.1521, -0.2449 -0.6142 -0.2172, -0.2449 -0.622 -0.2172, -0.3371 -0.6142 -0.192, -0.3371 -0.622 -0.192, -0.2892 -0.622 -0.1982, -0.2892 -0.6142 -0.1982, -0.4849 -0.6142 -0.3547, -0.4849 -0.622 -0.3547, -0.483 -0.622 -0.324, -0.483 -0.6142 -0.324, -0.4726 -0.622 -0.2819, -0.4726 -0.6142 -0.2819, -0.4563 -0.622 -0.2515, -0.4563 -0.6142 -0.2515, -0.4325 -0.622 -0.2252, -0.4325 -0.6142 -0.2252, -0.4053 -0.622 -0.207, -0.4053 -0.6142 -0.207, -0.3758 -0.622 -0.1964, -0.3758 -0.6142 -0.1964, -0.3459 -0.6142 -0.5089, -0.3459 -0.622 -0.5089, -0.3827 -0.622 -0.5047, -0.3827 -0.6142 -0.5047, -0.4114 -0.622 -0.4942, -0.4114 -0.6142 -0.4942, -0.4356 -0.622 -0.4778, -0.4356 -0.6142 -0.4778, -0.4539 -0.622 -0.4585, -0.4539 -0.6142 -0.4585, -0.4702 -0.622 -0.4312, -0.4702 -0.6142 -0.4312, -0.4809 -0.622 -0.3973, -0.4809 -0.6142 -0.3973, -0.2519 -0.622 -0.4876, -0.2519 -0.6142 -0.4876, -0.2937 -0.622 -0.5031, -0.2937 -0.6142 -0.5031, -0.5713 -0.6142 -0.5041, -0.5713 -0.6142 -0.5473, -0.5713 -0.622 -0.5041, -0.5713 -0.622 -0.5473, -0.773 -0.6142 -0.5473, -0.773 -0.622 -0.5473, -0.773 -0.6142 -0.1536, -0.773 -0.622 -0.1536, -0.7202 -0.6142 -0.1536, -0.7202 -0.622 -0.1536, -0.7202 -0.6142 -0.5041, -0.7202 -0.622 -0.5041, -0.7202 -0.622 -0.5041
            ]
        }
        coordIndex [
            0,1,2,-1,2,1,3,-1,1,4,3,-1,3,4,5,-1,4,6,5,-1,5,6,7,-1,6,8,7,-1,7,8,9,-1,8,10,9,-1,9,10,11,-1,10,12,11,-1,11,12,13,-1,12,14,13,-1,13,14,15,-1,14,0,15,-1,15,0,2,-1,16,17,14,-1,12,10,8,-1,17,18,14,-1,14,18,19,-1,14,19,0,-1,0,19,20,-1,0,20,21,-1,14,12,16,-1,16,12,8,-1,16,8,22,-1,22,8,6,-1,21,23,0,-1,0,23,22,-1,0,22,1,-1,1,22,6,-1,1,6,4,-1,16,22,24,-1,24,22,25,-1,17,16,26,-1,26,16,24,-1,17,26,27,-1,17,27,18,-1,18,27,28,-1,18,28,19,-1,20,19,29,-1,29,19,28,-1,20,29,30,-1,20,30,21,-1,21,30,31,-1,21,31,23,-1,22,23,25,-1,25,23,31,-1,32,33,34,-1,34,33,35,-1,33,36,35,-1,35,36,37,-1,36,38,37,-1,37,38,39,-1,40,41,42,-1,40,42,43,-1,43,42,44,-1,43,44,45,-1,45,44,46,-1,45,46,47,-1,47,46,48,-1,47,48,49,-1,49,48,50,-1,49,50,51,-1,51,50,52,-1,51,52,53,-1,53,52,54,-1,53,54,55,-1,55,54,39,-1,55,39,38,-1,32,34,56,-1,32,56,57,-1,57,56,58,-1,57,58,59,-1,59,58,60,-1,59,60,61,-1,61,60,62,-1,61,62,63,-1,63,62,64,-1,63,64,65,-1,65,64,66,-1,65,66,67,-1,67,66,41,-1,67,41,40,-1,45,47,68,-1,68,47,49,-1,68,49,69,-1,69,49,51,-1,69,51,70,-1,70,51,53,-1,70,53,71,-1,71,53,55,-1,71,55,72,-1,72,55,38,-1,72,38,73,-1,73,38,36,-1,73,36,74,-1,74,36,33,-1,74,33,75,-1,75,33,32,-1,75,32,76,-1,76,32,57,-1,76,57,77,-1,77,57,59,-1,77,59,78,-1,78,59,61,-1,78,61,79,-1,79,61,63,-1,79,63,80,-1,80,63,65,-1,80,65,81,-1,81,65,67,-1,81,67,82,-1,82,67,40,-1,82,40,83,-1,83,40,43,-1,83,43,84,-1,84,43,45,-1,84,45,68,-1,72,73,85,-1,85,73,86,-1,72,85,87,-1,72,87,71,-1,71,87,88,-1,71,88,70,-1,70,88,89,-1,70,89,69,-1,69,89,90,-1,69,90,68,-1,68,90,91,-1,68,91,84,-1,84,91,92,-1,84,92,83,-1,83,92,93,-1,83,93,82,-1,82,93,94,-1,82,94,81,-1,81,94,95,-1,81,95,80,-1,80,95,96,-1,80,96,79,-1,79,96,97,-1,79,97,78,-1,78,97,98,-1,78,98,77,-1,77,98,99,-1,77,99,76,-1,76,99,100,-1,76,100,75,-1,74,75,101,-1,101,75,100,-1,73,74,86,-1,86,74,101,-1,102,103,104,-1,104,103,105,-1,103,106,105,-1,105,106,107,-1,106,108,107,-1,107,108,109,-1,108,110,109,-1,109,110,111,-1,110,112,111,-1,111,112,113,-1,112,114,113,-1,113,114,115,-1,114,116,115,-1,115,116,117,-1,116,118,117,-1,117,118,119,-1,118,120,119,-1,119,120,121,-1,120,122,121,-1,121,122,123,-1,122,124,123,-1,123,124,125,-1,124,102,125,-1,125,102,104,-1,106,103,102,-1,102,124,106,-1,106,124,122,-1,106,122,108,-1,112,110,114,-1,114,110,108,-1,114,108,116,-1,116,108,122,-1,116,122,118,-1,118,122,120,-1,126,127,128,-1,128,127,129,-1,129,127,130,-1,131,132,133,-1,131,133,134,-1,134,133,135,-1,134,135,130,-1,130,135,136,-1,130,136,129,-1,137,138,139,-1,137,139,140,-1,140,139,141,-1,140,141,142,-1,142,141,143,-1,142,143,144,-1,144,143,145,-1,144,145,146,-1,146,145,147,-1,146,147,148,-1,148,147,149,-1,148,149,150,-1,150,149,131,-1,131,149,151,-1,131,151,132,-1,152,153,154,-1,152,154,155,-1,155,154,156,-1,155,156,157,-1,157,156,158,-1,157,158,159,-1,159,158,160,-1,159,160,161,-1,161,160,162,-1,161,162,163,-1,163,162,164,-1,163,164,165,-1,165,164,138,-1,165,138,137,-1,166,167,168,-1,166,168,169,-1,169,168,153,-1,169,153,152,-1,166,170,167,-1,167,170,171,-1,172,173,174,-1,172,174,175,-1,175,174,171,-1,175,171,170,-1,176,177,178,-1,176,178,179,-1,179,178,180,-1,179,180,181,-1,181,180,182,-1,181,182,183,-1,183,182,184,-1,183,184,185,-1,185,184,186,-1,185,186,187,-1,187,186,188,-1,187,188,189,-1,189,188,173,-1,189,173,172,-1,190,191,192,-1,190,192,193,-1,193,192,194,-1,193,194,195,-1,195,194,196,-1,195,196,197,-1,197,196,198,-1,197,198,199,-1,199,198,200,-1,199,200,201,-1,201,200,202,-1,201,202,203,-1,203,202,177,-1,203,177,176,-1,126,128,204,-1,126,204,205,-1,205,204,206,-1,205,206,207,-1,207,206,191,-1,207,191,190,-1,193,131,190,-1,190,131,134,-1,190,134,207,-1,207,134,130,-1,207,130,205,-1,205,130,127,-1,205,127,126,-1,170,166,175,-1,175,166,169,-1,175,169,172,-1,172,169,152,-1,172,152,189,-1,189,152,155,-1,189,155,187,-1,187,155,157,-1,187,157,185,-1,185,157,159,-1,185,159,183,-1,183,159,161,-1,183,161,181,-1,181,161,163,-1,181,163,179,-1,179,163,165,-1,179,165,176,-1,176,165,137,-1,176,137,203,-1,203,137,140,-1,203,140,201,-1,201,140,142,-1,201,142,199,-1,199,142,144,-1,199,144,197,-1,197,144,146,-1,197,146,195,-1,195,146,148,-1,195,148,193,-1,193,148,150,-1,193,150,131,-1,208,209,210,-1,210,209,211,-1,209,212,211,-1,211,212,213,-1,212,214,213,-1,213,214,215,-1,214,216,215,-1,215,216,217,-1,216,218,217,-1,217,218,219,-1,218,208,219,-1,219,208,210,-1,216,214,218,-1,218,214,212,-1,218,212,208,-1,208,212,209,-1,
        ]
    }
}
Shape{
    appearance Appearance {
        material  Material 	{
            diffuseColor 0.6666666666666666 0.6666666666666666 0.6666666666666666
            specularColor 0.4666666666666667 0.4666666666666667 0.4666666666666667
            ambientIntensity 0.2
            transparency 0
            shininess 0.5
        }
    }
    geometry IndexedFaceSet {
        ccw TRUE
        solid FALSE
        coord DEF co Coordinate {
            point [
                0.5742 -0.622 -0.3937, 0.7059 -0.622 -0.3937, 0.6329 -0.622 -0.2292, 0.6466 -0.622 -0.2292, 0.6367 -0.622 -0.2156, 0.6431 -0.622 -0.2155, 0.6392 -0.622 -0.2016, 0.6405 -0.622 -0.2016, 0.1728 -0.622 -0.1968, 0.1728 -0.622 -0.5041, 0.2309 -0.622 -0.1968, 0.2287 -0.622 -0.5041, 0.2703 -0.622 -0.5002, 0.3841 -0.622 -0.3466, 0.3808 -0.622 -0.3074, 0.3715 -0.622 -0.2762, 0.2774 -0.622 -0.2017, 0.3035 -0.622 -0.4899, 0.3303 -0.622 -0.4739, 0.3524 -0.622 -0.4521, 0.369 -0.622 -0.4249, 0.3805 -0.622 -0.3879, 0.3578 -0.622 -0.2519, 0.3387 -0.622 -0.2316, 0.3099 -0.622 -0.2131, 0.3099 -0.622 -0.2131
            ]
        }
        coordIndex [
            0,1,2,-1,2,1,3,-1,2,3,4,-1,4,3,5,-1,4,5,6,-1,6,5,7,-1,8,9,10,-1,10,9,11,-1,10,11,12,-1,13,14,10,-1,10,14,15,-1,10,15,16,-1,12,17,10,-1,10,17,18,-1,10,18,19,-1,19,20,10,-1,10,20,21,-1,10,21,13,-1,22,23,15,-1,15,23,24,-1,15,24,16,-1,
        ]
    }
}
Shape{
    appearance Appearance {
        material  Material 	{
            diffuseColor 0.20784313725490197 0.20784313725490197 0.20784313725490197
            specularColor 0.01568627450980392 0.01568627450980392 0.01568627450980392
            ambientIntensity 0.2
            transparency 0
            shininess 0.5
        }
    }
    geometry IndexedFaceSet {
        ccw TRUE
        solid FALSE
        coord DEF co Coordinate {
            point [
                -1.0433 0.1969 -1.3583, -1.0433 0.2795 -1.3583, -0.5315 0.2795 -1.3583, -1.2008 0.2795 -1.3583, -1.122 0.2795 -1.3583, -1.122 0.1969 -1.3583, -0.2559 0.1969 -1.3583, -0.2559 0.2795 -1.3583, -0.1378 0.2795 -1.3583, -0.5315 0.1969 -1.3583, -0.4528 0.1969 -1.3583, 1.4764 0.0787 -1.3583, -1.3976 -0.0 -1.3583, -1.4003 0.0204 -1.3583, -1.4082 0.0394 -1.3583, -1.4207 0.0557 -1.3583, -1.2008 0.6417 -1.3583, 1.437 0.0682 -1.3583, 1.4207 0.0557 -1.3583, -1.437 0.0682 -1.3583, -1.456 0.0761 -1.3583, -1.5013 0.6417 -1.3583, -1.4764 0.0787 -1.3583, -1.5857 0.3268 -1.3583, 1.456 0.0761 -1.3583, -0.1378 0.1969 -1.3583, -0.0591 0.1969 -1.3583, -1.4968 0.0761 -1.3583, -1.5157 0.0682 -1.3583, -1.6417 0.189 -1.3583, -1.5321 0.0557 -1.3583, -1.5446 0.0394 -1.3583, -0.4528 0.2795 -1.3583, -0.3346 0.2795 -1.3583, -0.3346 0.1969 -1.3583, 0.3346 0.1969 -1.3583, 0.3346 0.2795 -1.3583, 0.4528 0.2795 -1.3583, -0.0591 0.2795 -1.3583, 0.0591 0.2795 -1.3583, 0.0591 0.1969 -1.3583, 0.1378 0.1969 -1.3583, 0.1378 0.2795 -1.3583, 0.2559 0.2795 -1.3583, 0.2559 0.1969 -1.3583, 0.4528 0.1969 -1.3583, 1.2008 -0.2795 -1.3583, 1.122 -0.2795 -1.3583, 1.122 -0.1969 -1.3583, -0.5315 -0.1969 -1.3583, -0.5315 -0.2795 -1.3583, -1.0433 -0.2795 -1.3583, -1.0433 -0.1969 -1.3583, -1.122 -0.1969 -1.3583, 1.4082 0.0394 -1.3583, 1.4003 0.0204 -1.3583, 1.3976 -0.0 -1.3583, 1.5013 -0.6417 -1.3583, 1.2008 -0.6417 -1.3583, 1.5857 -0.3268 -1.3583, 1.6417 -0.189 -1.3583, 1.0433 -0.1969 -1.3583, 0.5315 0.2795 -1.3583, 1.0433 0.2795 -1.3583, 0.5315 0.1969 -1.3583, 1.0433 0.1969 -1.3583, 1.4968 0.0761 -1.3583, 1.122 0.1969 -1.3583, -1.5524 -0.0204 -1.3583, -1.6417 -0.189 -1.3583, -1.5551 -0.0 -1.3583, -1.5524 0.0204 -1.3583, -1.122 -0.2795 -1.3583, -1.2008 -0.2795 -1.3583, -1.5446 -0.0394 -1.3583, -1.5321 -0.0557 -1.3583, -1.5857 -0.3268 -1.3583, -0.3346 -0.1969 -1.3583, -0.3346 -0.2795 -1.3583, -0.4528 -0.2795 -1.3583, -1.4082 -0.0394 -1.3583, -1.4003 -0.0204 -1.3583, -1.5157 -0.0682 -1.3583, -1.4968 -0.0761 -1.3583, -1.5013 -0.6417 -1.3583, -1.4764 -0.0787 -1.3583, -1.2008 -0.6417 -1.3583, -1.456 -0.0761 -1.3583, -1.437 -0.0682 -1.3583, -1.4207 -0.0557 -1.3583, 1.2008 0.6417 -1.3583, 1.5013 0.6417 -1.3583, 1.2008 0.2795 -1.3583, 1.5857 0.3268 -1.3583, 1.6417 0.189 -1.3583, 1.0433 -0.2795 -1.3583, 0.5315 -0.2795 -1.3583, 0.5315 -0.1969 -1.3583, 0.4528 -0.1969 -1.3583, 1.5446 0.0394 -1.3583, 1.5321 0.0557 -1.3583, 1.5446 -0.0394 -1.3583, 1.5524 -0.0204 -1.3583, 1.5551 -0.0 -1.3583, 1.5524 0.0204 -1.3583, 0.4528 -0.2795 -1.3583, 0.3346 -0.2795 -1.3583, 0.3346 -0.1969 -1.3583, 0.2559 -0.1969 -1.3583, -0.4528 -0.1969 -1.3583, 1.4082 -0.0394 -1.3583, 1.4207 -0.0557 -1.3583, 1.5157 0.0682 -1.3583, 1.122 0.2795 -1.3583, 0.2559 -0.2795 -1.3583, 0.1378 -0.2795 -1.3583, 0.1378 -0.1969 -1.3583, 0.0591 -0.1969 -1.3583, 1.4003 -0.0204 -1.3583, 1.4968 -0.0761 -1.3583, 1.5157 -0.0682 -1.3583, 1.5321 -0.0557 -1.3583, 1.437 -0.0682 -1.3583, 1.456 -0.0761 -1.3583, 1.4764 -0.0787 -1.3583, 0.0591 -0.2795 -1.3583, -0.0591 -0.2795 -1.3583, -0.0591 -0.1969 -1.3583, -0.1378 -0.1969 -1.3583, -0.1378 -0.2795 -1.3583, -0.2559 -0.2795 -1.3583, -0.2559 -0.1969 -1.3583, -1.122 0.2795 -1.3386, -1.2008 0.2795 -1.2795, -1.0433 0.2795 -1.3386, 0.3346 0.2795 -1.3386, 0.2559 0.2795 -1.3386, -0.5315 0.2795 -1.3386, 1.2008 0.2795 -1.2795, 0.4528 0.2795 -1.3386, 0.0591 0.2795 -1.3386, 0.1378 0.2795 -1.3386, -0.2559 0.2795 -1.3386, -0.3346 0.2795 -1.3386, 1.122 0.2795 -1.3386, 1.0433 0.2795 -1.3386, -0.1378 0.2795 -1.3386, 0.5315 0.2795 -1.3386, -0.0591 0.2795 -1.3386, -0.4528 0.2795 -1.3386, -1.6329 0.2107 -1.1417, -1.6417 0.1299 -1.1417, -1.6417 0.1299 -0.3937, -1.6324 0.2131 -1.1417, -1.6324 0.2131 -0.3937, -1.6047 0.2922 -0.3937, -1.6047 0.2922 -1.1417, -1.5857 0.3268 -1.1417, -1.5601 0.3631 -0.3937, -1.5601 0.3631 -1.1417, -1.5009 0.4223 -0.3937, -1.5009 0.4223 -1.1417, -1.43 0.4669 -0.3937, -1.43 0.4669 -1.1417, -1.3509 0.4946 -0.3937, -1.3509 0.4946 -1.1417, -1.2677 0.5039 -0.3937, -1.2677 0.5039 -1.1417, -1.2677 -0.5039 -1.1417, -1.2677 -0.5039 -0.3937, -1.3509 -0.4946 -0.3937, -1.3509 -0.4946 -1.1417, -1.43 -0.4669 -0.3937, -1.43 -0.4669 -1.1417, -1.5009 -0.4223 -0.3937, -1.5009 -0.4223 -1.1417, -1.5601 -0.3631 -0.3937, -1.5601 -0.3631 -1.1417, -1.5857 -0.3268 -1.1417, -1.6047 -0.2922 -0.3937, -1.6047 -0.2922 -1.1417, -1.6324 -0.2131 -0.3937, -1.6324 -0.2131 -1.1417, -1.6329 -0.2107 -1.1417, -1.6417 -0.1299 -0.3937, -1.6417 -0.1299 -1.1417, 1.2677 0.5039 -1.1417, 1.2677 0.5039 -0.3937, 1.3509 0.4946 -0.3937, 1.3509 0.4946 -1.1417, 1.43 0.4669 -0.3937, 1.43 0.4669 -1.1417, 1.5009 0.4223 -0.3937, 1.5009 0.4223 -1.1417, 1.5601 0.3631 -0.3937, 1.5601 0.3631 -1.1417, 1.5857 0.3268 -1.1417, 1.6047 0.2922 -0.3937, 1.6047 0.2922 -1.1417, 1.6324 0.2131 -0.3937, 1.6324 0.2131 -1.1417, 1.6329 0.2107 -1.1417, 1.6417 0.1299 -0.3937, 1.6417 0.1299 -1.1417, 1.6329 -0.2107 -1.1417, 1.6417 -0.1299 -1.1417, 1.6417 -0.1299 -0.3937, 1.6324 -0.2131 -1.1417, 1.6324 -0.2131 -0.3937, 1.6047 -0.2922 -0.3937, 1.6047 -0.2922 -1.1417, 1.5857 -0.3268 -1.1417, 1.5601 -0.3631 -0.3937, 1.5601 -0.3631 -1.1417, 1.5009 -0.4223 -0.3937, 1.5009 -0.4223 -1.1417, 1.43 -0.4669 -0.3937, 1.43 -0.4669 -1.1417, 1.3509 -0.4946 -0.3937, 1.3509 -0.4946 -1.1417, 1.2677 -0.5039 -0.3937, 1.2677 -0.5039 -1.1417, -1.2008 0.5039 -1.1417, 1.2008 0.5039 -1.1417, -0.812 0.5039 -1.063, -0.812 0.5039 -1.2795, -1.2008 0.5039 -1.2795, 0.812 0.5039 -1.063, 0.812 0.5039 -1.2795, 1.2008 0.5039 -1.2795, 0.812 0.3433 -1.2795, -0.812 0.3433 -1.2795, -0.4041 0.4918 -1.2795, -0.3921 0.495 -1.2795, -0.3798 0.4961 -1.2795, 0.3921 0.495 -1.2795, 0.4041 0.4918 -1.2795, 0.3798 0.4961 -1.2795, 1.378 0.1378 0.7598, 1.378 0.1378 -0.3543, 1.1393 0.1378 0.8976, -1.378 0.1378 -0.3543, -1.1393 0.1378 0.8976, -1.378 0.1378 0.7598, 1.378 -0.1378 -0.3543, 1.378 -0.1378 0.7598, -1.1393 -0.1378 0.8976, -1.378 -0.1378 0.7598, -1.378 -0.1378 -0.3543, 1.1393 -0.1378 0.8976, 1.037 -0.0787 0.9567, 1.037 0.0787 0.9567, -1.037 -0.0787 0.9567, -1.037 0.0787 0.9567, -0.812 -0.5039 -1.2795, -1.2008 -0.5039 -1.2795, -0.812 -0.3433 -1.2795, -1.2008 -0.2795 -1.2795, 1.2008 -0.2795 -1.2795, 1.2008 -0.5039 -1.2795, 0.812 -0.5039 -1.2795, 0.812 -0.3433 -1.2795, 0.4041 -0.4918 -1.2795, 0.3921 -0.495 -1.2795, 0.3798 -0.4961 -1.2795, -0.3798 -0.4961 -1.2795, -0.4041 -0.4918 -1.2795, -0.3921 -0.495 -1.2795, 1.2008 -0.5039 -1.1417, -1.2008 -0.5039 -1.1417, 0.812 -0.5039 -1.063, -0.812 -0.5039 -1.063, 1.5294 -0.3386 -0.3543, 1.5692 -0.2751 -0.3543, 1.594 -0.2044 -0.3543, 1.6024 -0.1299 -0.3543, 1.6024 0.1299 -0.3543, 1.594 0.2044 -0.3543, 1.5692 0.2751 -0.3543, -1.2677 -0.4646 -0.3543, 1.2677 -0.4646 -0.3543, 1.3422 -0.4562 -0.3543, -1.4764 -0.3916 -0.3543, -1.4129 -0.4314 -0.3543, -1.3422 -0.4562 -0.3543, -1.6024 0.1299 -0.3543, -1.6024 -0.1299 -0.3543, -1.594 -0.2044 -0.3543, -1.5692 -0.2751 -0.3543, -1.5294 -0.3386 -0.3543, -1.3422 0.4562 -0.3543, -1.4129 0.4314 -0.3543, -1.4764 0.3916 -0.3543, -1.5294 0.3386 -0.3543, 1.4129 -0.4314 -0.3543, 1.4764 -0.3916 -0.3543, -1.5692 0.2751 -0.3543, -1.594 0.2044 -0.3543, 1.5294 0.3386 -0.3543, 1.4764 0.3916 -0.3543, 1.4129 0.4314 -0.3543, 1.3422 0.4562 -0.3543, 1.2677 0.4646 -0.3543, -1.2677 0.4646 -0.3543, -1.2008 0.6417 -1.1417, -1.5013 0.6417 -1.1417, 1.5013 0.6417 -1.1417, 1.2008 0.6417 -1.1417, 1.6417 0.189 -1.1417, 1.6417 -0.189 -1.1417, 1.2008 -0.6417 -1.1417, 1.5013 -0.6417 -1.1417, -1.5013 -0.6417 -1.1417, -1.2008 -0.6417 -1.1417, -1.6417 -0.189 -1.1417, -0.4041 -0.4918 -1.063, -0.812 -0.3433 -1.063, -0.3798 -0.4961 -1.063, -0.3921 -0.495 -1.063, 0.3798 -0.4961 -1.063, 0.4041 -0.4918 -1.063, 0.3921 -0.495 -1.063, 0.812 -0.3433 -1.063, 0.4041 0.4918 -1.063, 0.812 0.3433 -1.063, 0.3798 0.4961 -1.063, 0.3921 0.495 -1.063, -0.3798 0.4961 -1.063, -0.4041 0.4918 -1.063, -0.3921 0.495 -1.063, -0.812 0.3433 -1.063, -1.6417 0.189 -1.1417, 1.5524 0.0204 -1.5354, 1.5446 0.0394 -1.5354, 1.5321 0.0557 -1.5354, 1.5157 0.0682 -1.5354, 1.4968 0.0761 -1.5354, 1.4764 0.0787 -1.5354, 1.456 0.0761 -1.5354, 1.437 0.0682 -1.5354, 1.4207 0.0557 -1.5354, 1.4082 0.0394 -1.5354, 1.4003 0.0204 -1.5354, 1.3976 -0.0 -1.5354, 1.4003 -0.0204 -1.5354, 1.4082 -0.0394 -1.5354, 1.4207 -0.0557 -1.5354, 1.437 -0.0682 -1.5354, 1.456 -0.0761 -1.5354, 1.4764 -0.0787 -1.5354, 1.4968 -0.0761 -1.5354, 1.5157 -0.0682 -1.5354, 1.5321 -0.0557 -1.5354, 1.5446 -0.0394 -1.5354, 1.5524 -0.0204 -1.5354, 1.5551 -0.0 -1.5354, 1.4423 -0.0197 -1.5748, 1.4383 -0.0102 -1.5748, 1.4764 -0.0 -1.5748, 1.437 -0.0 -1.5748, 1.4383 0.0102 -1.5748, 1.4662 -0.038 -1.5748, 1.4567 -0.0341 -1.5748, 1.4485 -0.0278 -1.5748, 1.4961 -0.0341 -1.5748, 1.4866 -0.038 -1.5748, 1.4764 -0.0394 -1.5748, 1.5144 -0.0102 -1.5748, 1.5105 -0.0197 -1.5748, 1.5042 -0.0278 -1.5748, 1.5105 0.0197 -1.5748, 1.5144 0.0102 -1.5748, 1.5157 -0.0 -1.5748, 1.4866 0.038 -1.5748, 1.4961 0.0341 -1.5748, 1.5042 0.0278 -1.5748, 1.4567 0.0341 -1.5748, 1.4662 0.038 -1.5748, 1.4764 0.0394 -1.5748, 1.4423 0.0197 -1.5748, 1.4485 0.0278 -1.5748, -1.4003 0.0204 -1.5354, -1.4082 0.0394 -1.5354, -1.4207 0.0557 -1.5354, -1.437 0.0682 -1.5354, -1.456 0.0761 -1.5354, -1.4764 0.0787 -1.5354, -1.4968 0.0761 -1.5354, -1.5157 0.0682 -1.5354, -1.5321 0.0557 -1.5354, -1.5446 0.0394 -1.5354, -1.5524 0.0204 -1.5354, -1.5551 -0.0 -1.5354, -1.5524 -0.0204 -1.5354, -1.5446 -0.0394 -1.5354, -1.5321 -0.0557 -1.5354, -1.5157 -0.0682 -1.5354, -1.4968 -0.0761 -1.5354, -1.4764 -0.0787 -1.5354, -1.456 -0.0761 -1.5354, -1.437 -0.0682 -1.5354, -1.4207 -0.0557 -1.5354, -1.4082 -0.0394 -1.5354, -1.4003 -0.0204 -1.5354, -1.3976 -0.0 -1.5354, -1.5105 -0.0197 -1.5748, -1.5144 -0.0102 -1.5748, -1.4764 -0.0 -1.5748, -1.5157 -0.0 -1.5748, -1.5144 0.0102 -1.5748, -1.4866 -0.038 -1.5748, -1.4961 -0.0341 -1.5748, -1.5042 -0.0278 -1.5748, -1.4567 -0.0341 -1.5748, -1.4662 -0.038 -1.5748, -1.4764 -0.0394 -1.5748, -1.4383 -0.0102 -1.5748, -1.4423 -0.0197 -1.5748, -1.4485 -0.0278 -1.5748, -1.4423 0.0197 -1.5748, -1.4383 0.0102 -1.5748, -1.437 -0.0 -1.5748, -1.4662 0.038 -1.5748, -1.4567 0.0341 -1.5748, -1.4485 0.0278 -1.5748, -1.4961 0.0341 -1.5748, -1.4866 0.038 -1.5748, -1.4764 0.0394 -1.5748, -1.5105 0.0197 -1.5748, -1.5042 0.0278 -1.5748, 0.5315 -0.2795 -1.3386, -0.2559 -0.2795 -1.3386, -1.0433 -0.2795 -1.3386, -0.5315 -0.2795 -1.3386, -1.122 -0.2795 -1.3386, -0.4528 -0.2795 -1.3386, 1.122 -0.2795 -1.3386, 1.0433 -0.2795 -1.3386, -0.1378 -0.2795 -1.3386, -0.0591 -0.2795 -1.3386, -0.3346 -0.2795 -1.3386, 0.2559 -0.2795 -1.3386, 0.3346 -0.2795 -1.3386, 0.1378 -0.2795 -1.3386, 0.0591 -0.2795 -1.3386, 0.4528 -0.2795 -1.3386, 0.4528 -0.2795 -1.3386
            ]
        }
        coordIndex [
            0,1,2,-1,3,4,5,-1,6,7,8,-1,9,10,11,-1,12,13,5,-1,5,13,14,-1,5,14,3,-1,3,14,15,-1,3,15,16,-1,17,18,5,-1,15,19,16,-1,16,19,20,-1,16,20,21,-1,21,20,22,-1,21,22,23,-1,2,9,0,-1,0,9,11,-1,0,11,5,-1,5,11,24,-1,5,24,17,-1,25,26,11,-1,22,27,23,-1,23,27,28,-1,23,28,29,-1,29,28,30,-1,29,30,31,-1,32,33,10,-1,10,33,34,-1,10,34,11,-1,11,34,6,-1,11,6,25,-1,25,6,8,-1,35,36,37,-1,38,39,26,-1,26,39,40,-1,26,40,11,-1,11,40,41,-1,42,43,41,-1,41,43,44,-1,41,44,11,-1,11,44,35,-1,11,35,45,-1,45,35,37,-1,46,47,48,-1,49,50,51,-1,52,53,12,-1,18,54,5,-1,5,54,55,-1,5,55,12,-1,12,55,56,-1,12,56,52,-1,57,58,59,-1,59,58,46,-1,59,46,60,-1,60,46,48,-1,60,48,61,-1,62,63,64,-1,64,63,65,-1,45,64,11,-1,11,64,65,-1,11,65,66,-1,66,65,67,-1,68,69,70,-1,70,69,29,-1,70,29,71,-1,71,29,31,-1,53,72,73,-1,68,74,69,-1,69,74,75,-1,69,75,76,-1,77,78,79,-1,73,80,53,-1,53,80,81,-1,53,81,12,-1,75,82,76,-1,76,82,83,-1,76,83,84,-1,84,83,85,-1,84,85,86,-1,85,87,86,-1,86,87,88,-1,86,88,73,-1,73,88,89,-1,73,89,80,-1,90,91,92,-1,92,91,93,-1,92,93,94,-1,95,96,61,-1,61,96,97,-1,61,97,60,-1,60,97,98,-1,94,99,100,-1,101,102,60,-1,60,102,103,-1,60,103,94,-1,94,103,104,-1,94,104,99,-1,105,106,98,-1,98,106,107,-1,98,107,60,-1,60,107,108,-1,109,110,111,-1,100,112,94,-1,94,112,66,-1,94,66,92,-1,92,66,67,-1,92,67,113,-1,114,115,108,-1,108,115,116,-1,108,116,60,-1,60,116,117,-1,51,52,49,-1,49,52,56,-1,49,56,109,-1,109,56,118,-1,109,118,110,-1,119,120,60,-1,60,120,121,-1,60,121,101,-1,111,122,109,-1,109,122,123,-1,109,123,60,-1,60,123,124,-1,60,124,119,-1,125,126,117,-1,117,126,127,-1,117,127,60,-1,60,127,128,-1,129,130,128,-1,128,130,131,-1,128,131,60,-1,60,131,77,-1,60,77,109,-1,109,77,79,-1,4,3,132,-1,132,3,133,-1,132,133,134,-1,135,136,133,-1,137,2,1,-1,138,92,113,-1,139,37,36,-1,140,133,141,-1,141,133,136,-1,141,136,42,-1,42,136,43,-1,142,143,133,-1,113,144,138,-1,138,144,145,-1,138,145,133,-1,146,8,7,-1,36,135,139,-1,139,135,133,-1,139,133,147,-1,147,133,145,-1,147,145,62,-1,62,145,63,-1,7,142,146,-1,146,142,133,-1,146,133,148,-1,148,133,140,-1,148,140,38,-1,38,140,39,-1,1,134,137,-1,137,134,133,-1,137,133,149,-1,149,133,143,-1,149,143,32,-1,32,143,33,-1,150,151,152,-1,150,152,153,-1,152,154,153,-1,153,154,155,-1,153,155,156,-1,156,155,157,-1,157,155,158,-1,157,158,159,-1,159,158,160,-1,159,160,161,-1,161,160,162,-1,161,162,163,-1,163,162,164,-1,163,164,165,-1,165,164,166,-1,165,166,167,-1,168,169,170,-1,168,170,171,-1,171,170,172,-1,171,172,173,-1,173,172,174,-1,173,174,175,-1,175,174,176,-1,175,176,177,-1,177,176,178,-1,178,176,179,-1,178,179,180,-1,180,179,181,-1,180,181,182,-1,182,181,183,-1,183,181,184,-1,183,184,185,-1,186,187,188,-1,186,188,189,-1,189,188,190,-1,189,190,191,-1,191,190,192,-1,191,192,193,-1,193,192,194,-1,193,194,195,-1,195,194,196,-1,196,194,197,-1,196,197,198,-1,198,197,199,-1,198,199,200,-1,200,199,201,-1,201,199,202,-1,201,202,203,-1,204,205,206,-1,204,206,207,-1,206,208,207,-1,207,208,209,-1,207,209,210,-1,210,209,211,-1,211,209,212,-1,211,212,213,-1,213,212,214,-1,213,214,215,-1,215,214,216,-1,215,216,217,-1,217,216,218,-1,217,218,219,-1,219,218,220,-1,219,220,221,-1,222,167,166,-1,166,187,223,-1,223,187,186,-1,224,225,226,-1,226,222,224,-1,224,222,166,-1,224,166,227,-1,227,166,223,-1,227,223,228,-1,228,223,229,-1,230,228,229,-1,133,226,225,-1,225,231,133,-1,133,231,230,-1,133,230,138,-1,138,230,229,-1,232,233,234,-1,235,236,237,-1,237,236,230,-1,237,230,234,-1,234,230,231,-1,234,231,232,-1,238,239,240,-1,240,239,241,-1,240,241,242,-1,242,241,243,-1,239,238,244,-1,244,238,245,-1,246,247,248,-1,246,248,249,-1,249,248,244,-1,249,244,245,-1,248,247,241,-1,241,247,243,-1,250,251,252,-1,252,251,253,-1,245,238,249,-1,249,238,240,-1,249,240,250,-1,250,240,251,-1,252,253,246,-1,246,253,242,-1,246,242,247,-1,247,242,243,-1,252,246,250,-1,250,246,249,-1,251,240,253,-1,253,240,242,-1,254,255,256,-1,256,255,257,-1,256,257,258,-1,259,260,258,-1,258,260,261,-1,258,261,256,-1,256,261,262,-1,256,262,263,-1,263,264,256,-1,256,264,265,-1,256,265,266,-1,266,265,267,-1,268,221,220,-1,220,169,269,-1,269,169,168,-1,270,260,259,-1,259,268,270,-1,270,268,220,-1,270,220,271,-1,271,220,269,-1,271,269,254,-1,254,269,255,-1,244,272,273,-1,273,274,244,-1,244,274,275,-1,244,275,239,-1,275,276,239,-1,239,276,277,-1,239,277,278,-1,248,279,244,-1,244,279,280,-1,244,280,281,-1,282,283,248,-1,248,283,284,-1,248,284,279,-1,241,285,248,-1,248,285,286,-1,248,286,287,-1,287,288,248,-1,248,288,289,-1,248,289,282,-1,290,291,241,-1,241,291,292,-1,241,292,293,-1,281,294,244,-1,244,294,295,-1,244,295,272,-1,293,296,241,-1,241,296,297,-1,241,297,285,-1,278,298,239,-1,239,298,299,-1,239,299,300,-1,300,301,239,-1,239,301,302,-1,239,302,241,-1,241,302,303,-1,241,303,290,-1,16,21,304,-1,304,21,305,-1,91,90,306,-1,306,90,307,-1,94,308,60,-1,60,308,203,-1,309,60,205,-1,205,60,203,-1,205,203,206,-1,206,203,202,-1,58,57,310,-1,310,57,311,-1,84,86,312,-1,312,86,313,-1,185,314,183,-1,314,69,183,-1,183,69,76,-1,183,76,178,-1,171,173,312,-1,173,175,312,-1,312,175,177,-1,312,177,178,-1,171,312,168,-1,168,312,313,-1,168,313,269,-1,76,84,178,-1,178,84,312,-1,269,313,255,-1,255,313,86,-1,255,86,257,-1,257,86,73,-1,315,316,266,-1,266,316,256,-1,265,317,318,-1,265,318,267,-1,267,318,315,-1,267,315,266,-1,319,317,264,-1,264,317,265,-1,262,320,321,-1,262,321,263,-1,263,321,319,-1,263,319,264,-1,322,320,261,-1,261,320,262,-1,215,311,213,-1,213,311,211,-1,215,217,311,-1,311,217,219,-1,311,219,310,-1,310,219,221,-1,310,221,268,-1,258,46,259,-1,259,46,58,-1,259,58,268,-1,268,58,310,-1,57,59,311,-1,311,59,211,-1,204,309,205,-1,211,59,204,-1,204,59,60,-1,204,60,309,-1,203,308,201,-1,308,94,201,-1,201,94,93,-1,201,93,196,-1,189,191,306,-1,191,193,306,-1,306,193,195,-1,306,195,196,-1,189,306,186,-1,186,306,307,-1,186,307,223,-1,223,307,229,-1,229,307,90,-1,229,90,138,-1,138,90,92,-1,323,324,236,-1,236,324,230,-1,237,325,326,-1,237,326,235,-1,235,326,323,-1,235,323,236,-1,327,325,234,-1,234,325,237,-1,232,328,329,-1,232,329,233,-1,233,329,327,-1,233,327,234,-1,330,328,231,-1,231,328,232,-1,161,305,159,-1,159,305,157,-1,161,163,305,-1,305,163,165,-1,305,165,304,-1,304,165,167,-1,304,167,222,-1,133,3,226,-1,226,3,16,-1,226,16,222,-1,222,16,304,-1,21,23,305,-1,305,23,157,-1,150,331,151,-1,157,23,150,-1,150,23,29,-1,150,29,331,-1,93,91,196,-1,196,91,306,-1,151,331,29,-1,69,314,185,-1,184,152,185,-1,185,152,151,-1,185,151,69,-1,69,151,29,-1,224,330,225,-1,225,330,231,-1,324,227,230,-1,230,227,228,-1,330,224,328,-1,328,224,329,-1,227,324,323,-1,323,326,227,-1,227,326,325,-1,227,325,224,-1,224,325,327,-1,224,327,329,-1,316,271,256,-1,256,271,254,-1,270,322,260,-1,260,322,261,-1,271,316,315,-1,322,270,320,-1,320,270,321,-1,315,318,271,-1,271,318,317,-1,271,317,270,-1,270,317,319,-1,270,319,321,-1,303,166,164,-1,303,164,290,-1,290,164,162,-1,290,162,291,-1,291,162,160,-1,291,160,292,-1,292,160,158,-1,292,158,293,-1,293,158,155,-1,293,155,296,-1,296,155,154,-1,296,154,297,-1,297,154,152,-1,297,152,285,-1,302,187,303,-1,303,187,166,-1,184,286,152,-1,152,286,285,-1,276,202,199,-1,276,199,277,-1,277,199,197,-1,277,197,278,-1,278,197,194,-1,278,194,298,-1,298,194,192,-1,298,192,299,-1,299,192,190,-1,299,190,300,-1,300,190,188,-1,300,188,301,-1,301,188,187,-1,301,187,302,-1,286,184,181,-1,286,181,287,-1,287,181,179,-1,287,179,288,-1,288,179,176,-1,288,176,289,-1,289,176,174,-1,289,174,282,-1,282,174,172,-1,282,172,283,-1,283,172,170,-1,283,170,284,-1,284,170,169,-1,284,169,279,-1,275,206,276,-1,276,206,202,-1,220,280,169,-1,169,280,279,-1,280,220,218,-1,280,218,281,-1,281,218,216,-1,281,216,294,-1,294,216,214,-1,294,214,295,-1,295,214,212,-1,295,212,272,-1,272,212,209,-1,272,209,273,-1,273,209,208,-1,273,208,274,-1,274,208,206,-1,274,206,275,-1,103,332,104,-1,104,332,333,-1,104,333,99,-1,99,333,334,-1,99,334,100,-1,100,334,335,-1,100,335,112,-1,112,335,336,-1,112,336,66,-1,66,336,337,-1,66,337,11,-1,11,337,338,-1,11,338,24,-1,24,338,339,-1,24,339,17,-1,17,339,340,-1,17,340,18,-1,18,340,341,-1,18,341,54,-1,54,341,342,-1,54,342,55,-1,55,342,343,-1,55,343,56,-1,56,343,344,-1,56,344,118,-1,118,344,345,-1,118,345,110,-1,110,345,346,-1,110,346,111,-1,111,346,347,-1,111,347,122,-1,122,347,348,-1,122,348,123,-1,123,348,349,-1,123,349,124,-1,124,349,350,-1,124,350,119,-1,119,350,351,-1,119,351,120,-1,120,351,352,-1,120,352,121,-1,121,352,353,-1,121,353,101,-1,101,353,354,-1,101,354,102,-1,102,354,355,-1,102,355,103,-1,103,355,332,-1,356,357,358,-1,358,357,359,-1,358,359,360,-1,361,362,358,-1,358,362,363,-1,358,363,356,-1,364,365,358,-1,358,365,366,-1,358,366,361,-1,367,368,358,-1,358,368,369,-1,358,369,364,-1,370,371,358,-1,358,371,372,-1,358,372,367,-1,373,374,358,-1,358,374,375,-1,358,375,370,-1,376,377,358,-1,358,377,378,-1,358,378,373,-1,360,379,358,-1,358,379,380,-1,358,380,376,-1,355,371,332,-1,332,371,370,-1,332,370,333,-1,333,370,375,-1,333,375,334,-1,334,375,374,-1,334,374,335,-1,335,374,373,-1,335,373,336,-1,336,373,378,-1,336,378,337,-1,337,378,377,-1,337,377,338,-1,338,377,376,-1,338,376,339,-1,339,376,380,-1,339,380,340,-1,340,380,379,-1,340,379,341,-1,341,379,360,-1,341,360,342,-1,342,360,359,-1,342,359,343,-1,343,359,357,-1,343,357,344,-1,344,357,356,-1,344,356,345,-1,345,356,363,-1,345,363,346,-1,346,363,362,-1,346,362,347,-1,347,362,361,-1,347,361,348,-1,348,361,366,-1,348,366,349,-1,349,366,365,-1,349,365,350,-1,350,365,364,-1,350,364,351,-1,351,364,369,-1,351,369,352,-1,352,369,368,-1,352,368,353,-1,353,368,367,-1,353,367,354,-1,354,367,372,-1,354,372,355,-1,355,372,371,-1,12,381,13,-1,13,381,382,-1,13,382,14,-1,14,382,383,-1,14,383,15,-1,15,383,384,-1,15,384,19,-1,19,384,385,-1,19,385,20,-1,20,385,386,-1,20,386,22,-1,22,386,387,-1,22,387,27,-1,27,387,388,-1,27,388,28,-1,28,388,389,-1,28,389,30,-1,30,389,390,-1,30,390,31,-1,31,390,391,-1,31,391,71,-1,71,391,392,-1,71,392,70,-1,70,392,393,-1,70,393,68,-1,68,393,394,-1,68,394,74,-1,74,394,395,-1,74,395,75,-1,75,395,396,-1,75,396,82,-1,82,396,397,-1,82,397,83,-1,83,397,398,-1,83,398,85,-1,85,398,399,-1,85,399,87,-1,87,399,400,-1,87,400,88,-1,88,400,401,-1,88,401,89,-1,89,401,402,-1,89,402,80,-1,80,402,403,-1,80,403,81,-1,81,403,404,-1,81,404,12,-1,12,404,381,-1,405,406,407,-1,407,406,408,-1,407,408,409,-1,410,411,407,-1,407,411,412,-1,407,412,405,-1,413,414,407,-1,407,414,415,-1,407,415,410,-1,416,417,407,-1,407,417,418,-1,407,418,413,-1,419,420,407,-1,407,420,421,-1,407,421,416,-1,422,423,407,-1,407,423,424,-1,407,424,419,-1,425,426,407,-1,407,426,427,-1,407,427,422,-1,409,428,407,-1,407,428,429,-1,407,429,425,-1,404,420,381,-1,381,420,419,-1,381,419,382,-1,382,419,424,-1,382,424,383,-1,383,424,423,-1,383,423,384,-1,384,423,422,-1,384,422,385,-1,385,422,427,-1,385,427,386,-1,386,427,426,-1,386,426,387,-1,387,426,425,-1,387,425,388,-1,388,425,429,-1,388,429,389,-1,389,429,428,-1,389,428,390,-1,390,428,409,-1,390,409,391,-1,391,409,408,-1,391,408,392,-1,392,408,406,-1,392,406,393,-1,393,406,405,-1,393,405,394,-1,394,405,412,-1,394,412,395,-1,395,412,411,-1,395,411,396,-1,396,411,410,-1,396,410,397,-1,397,410,415,-1,397,415,398,-1,398,415,414,-1,398,414,399,-1,399,414,413,-1,399,413,400,-1,400,413,418,-1,400,418,401,-1,401,418,417,-1,401,417,402,-1,402,417,416,-1,402,416,403,-1,403,416,421,-1,403,421,404,-1,404,421,420,-1,201,196,200,-1,200,196,198,-1,210,211,207,-1,207,211,204,-1,156,157,153,-1,153,157,150,-1,183,178,182,-1,182,178,180,-1,257,73,72,-1,430,96,95,-1,431,130,129,-1,51,50,432,-1,432,50,433,-1,72,434,257,-1,257,434,432,-1,257,432,258,-1,258,432,433,-1,258,433,435,-1,47,46,436,-1,436,46,258,-1,436,258,437,-1,438,439,258,-1,79,78,435,-1,435,78,440,-1,435,440,258,-1,258,440,431,-1,258,431,438,-1,438,431,129,-1,441,442,258,-1,443,115,114,-1,114,441,443,-1,443,441,258,-1,443,258,444,-1,444,258,439,-1,444,439,125,-1,125,439,126,-1,95,437,430,-1,430,437,258,-1,430,258,445,-1,445,258,442,-1,445,442,105,-1,105,442,106,-1,
        ]
    }
}
Shape{
    appearance Appearance {
        material  Material 	{
            diffuseColor 0.8274509803921568 0.6666666666666666 0.12941176470588237
            specularColor 0.8274509803921568 0.6666666666666666 0.12941176470588237
            ambientIntensity 0.2
            transparency 0
            shininess 0.5
        }
    }
    geometry IndexedFaceSet {
        ccw TRUE
        solid FALSE
        coord DEF co Coordinate {
            point [
                1.122 0.2795 -1.3386, 1.122 0.4134 -1.3386, 1.0433 0.2795 -1.3386, 1.0433 0.4134 -1.3386, 1.122 0.4134 -1.4173, 1.122 0.2795 -1.3583, 1.122 0.2559 -1.4173, 1.122 0.2406 -1.4153, 1.122 0.1969 -1.3583, 1.122 0.1989 -1.3736, 1.122 0.2048 -1.3878, 1.122 0.2141 -1.4, 1.122 0.2264 -1.4094, 1.0433 0.1989 -1.3736, 1.0433 0.1969 -1.3583, 1.0433 0.2795 -1.3583, 1.0433 0.4134 -1.4173, 1.0433 0.2559 -1.4173, 1.0433 0.2406 -1.4153, 1.0433 0.2264 -1.4094, 1.0433 0.2141 -1.4, 1.0433 0.2048 -1.3878, 0.5315 0.2795 -1.3386, 0.5315 0.4134 -1.3386, 0.4528 0.2795 -1.3386, 0.4528 0.4134 -1.3386, 0.5315 0.4134 -1.4173, 0.5315 0.2795 -1.3583, 0.5315 0.2559 -1.4173, 0.5315 0.2406 -1.4153, 0.5315 0.1969 -1.3583, 0.5315 0.1989 -1.3736, 0.5315 0.2048 -1.3878, 0.5315 0.2141 -1.4, 0.5315 0.2264 -1.4094, 0.4528 0.1989 -1.3736, 0.4528 0.1969 -1.3583, 0.4528 0.2795 -1.3583, 0.4528 0.4134 -1.4173, 0.4528 0.2559 -1.4173, 0.4528 0.2406 -1.4153, 0.4528 0.2264 -1.4094, 0.4528 0.2141 -1.4, 0.4528 0.2048 -1.3878, 0.3346 0.2795 -1.3386, 0.3346 0.4134 -1.3386, 0.2559 0.2795 -1.3386, 0.2559 0.4134 -1.3386, 0.3346 0.4134 -1.4173, 0.3346 0.2795 -1.3583, 0.3346 0.2559 -1.4173, 0.3346 0.2406 -1.4153, 0.3346 0.1969 -1.3583, 0.3346 0.1989 -1.3736, 0.3346 0.2048 -1.3878, 0.3346 0.2141 -1.4, 0.3346 0.2264 -1.4094, 0.2559 0.1989 -1.3736, 0.2559 0.1969 -1.3583, 0.2559 0.2795 -1.3583, 0.2559 0.4134 -1.4173, 0.2559 0.2559 -1.4173, 0.2559 0.2406 -1.4153, 0.2559 0.2264 -1.4094, 0.2559 0.2141 -1.4, 0.2559 0.2048 -1.3878, 0.1378 0.2795 -1.3386, 0.1378 0.4134 -1.3386, 0.0591 0.2795 -1.3386, 0.0591 0.4134 -1.3386, 0.1378 0.4134 -1.4173, 0.1378 0.2795 -1.3583, 0.1378 0.2559 -1.4173, 0.1378 0.2406 -1.4153, 0.1378 0.1969 -1.3583, 0.1378 0.1989 -1.3736, 0.1378 0.2048 -1.3878, 0.1378 0.2141 -1.4, 0.1378 0.2264 -1.4094, 0.0591 0.1989 -1.3736, 0.0591 0.1969 -1.3583, 0.0591 0.2795 -1.3583, 0.0591 0.4134 -1.4173, 0.0591 0.2559 -1.4173, 0.0591 0.2406 -1.4153, 0.0591 0.2264 -1.4094, 0.0591 0.2141 -1.4, 0.0591 0.2048 -1.3878, -0.0591 0.2795 -1.3386, -0.0591 0.4134 -1.3386, -0.1378 0.2795 -1.3386, -0.1378 0.4134 -1.3386, -0.0591 0.4134 -1.4173, -0.0591 0.2795 -1.3583, -0.0591 0.2559 -1.4173, -0.0591 0.2406 -1.4153, -0.0591 0.1969 -1.3583, -0.0591 0.1989 -1.3736, -0.0591 0.2048 -1.3878, -0.0591 0.2141 -1.4, -0.0591 0.2264 -1.4094, -0.1378 0.1989 -1.3736, -0.1378 0.1969 -1.3583, -0.1378 0.2795 -1.3583, -0.1378 0.4134 -1.4173, -0.1378 0.2559 -1.4173, -0.1378 0.2406 -1.4153, -0.1378 0.2264 -1.4094, -0.1378 0.2141 -1.4, -0.1378 0.2048 -1.3878, -0.2559 0.2795 -1.3386, -0.2559 0.4134 -1.3386, -0.3346 0.2795 -1.3386, -0.3346 0.4134 -1.3386, -0.2559 0.4134 -1.4173, -0.2559 0.2795 -1.3583, -0.2559 0.2559 -1.4173, -0.2559 0.2406 -1.4153, -0.2559 0.1969 -1.3583, -0.2559 0.1989 -1.3736, -0.2559 0.2048 -1.3878, -0.2559 0.2141 -1.4, -0.2559 0.2264 -1.4094, -0.3346 0.1989 -1.3736, -0.3346 0.1969 -1.3583, -0.3346 0.2795 -1.3583, -0.3346 0.4134 -1.4173, -0.3346 0.2559 -1.4173, -0.3346 0.2406 -1.4153, -0.3346 0.2264 -1.4094, -0.3346 0.2141 -1.4, -0.3346 0.2048 -1.3878, -0.4528 0.2795 -1.3386, -0.4528 0.4134 -1.3386, -0.5315 0.2795 -1.3386, -0.5315 0.4134 -1.3386, -0.4528 0.4134 -1.4173, -0.4528 0.2795 -1.3583, -0.4528 0.2559 -1.4173, -0.4528 0.2406 -1.4153, -0.4528 0.1969 -1.3583, -0.4528 0.1989 -1.3736, -0.4528 0.2048 -1.3878, -0.4528 0.2141 -1.4, -0.4528 0.2264 -1.4094, -0.5315 0.1989 -1.3736, -0.5315 0.1969 -1.3583, -0.5315 0.2795 -1.3583, -0.5315 0.4134 -1.4173, -0.5315 0.2559 -1.4173, -0.5315 0.2406 -1.4153, -0.5315 0.2264 -1.4094, -0.5315 0.2141 -1.4, -0.5315 0.2048 -1.3878, -1.0433 0.2795 -1.3386, -1.0433 0.4134 -1.3386, -1.122 0.2795 -1.3386, -1.122 0.4134 -1.3386, -1.0433 0.4134 -1.4173, -1.0433 0.2795 -1.3583, -1.0433 0.2559 -1.4173, -1.0433 0.2406 -1.4153, -1.0433 0.1969 -1.3583, -1.0433 0.1989 -1.3736, -1.0433 0.2048 -1.3878, -1.0433 0.2141 -1.4, -1.0433 0.2264 -1.4094, -1.122 0.1989 -1.3736, -1.122 0.1969 -1.3583, -1.122 0.2795 -1.3583, -1.122 0.4134 -1.4173, -1.122 0.2559 -1.4173, -1.122 0.2406 -1.4153, -1.122 0.2264 -1.4094, -1.122 0.2141 -1.4, -1.122 0.2048 -1.3878, 1.122 -0.1989 -1.3736, 1.122 -0.1969 -1.3583, 1.122 -0.2795 -1.3583, 1.122 -0.2795 -1.3386, 1.122 -0.4134 -1.3386, 1.122 -0.4134 -1.4173, 1.122 -0.2559 -1.4173, 1.122 -0.2406 -1.4153, 1.122 -0.2264 -1.4094, 1.122 -0.2141 -1.4, 1.122 -0.2048 -1.3878, 1.0433 -0.4134 -1.4173, 1.0433 -0.4134 -1.3386, 1.0433 -0.2795 -1.3386, 1.0433 -0.2795 -1.3583, 1.0433 -0.2559 -1.4173, 1.0433 -0.2406 -1.4153, 1.0433 -0.1969 -1.3583, 1.0433 -0.1989 -1.3736, 1.0433 -0.2048 -1.3878, 1.0433 -0.2141 -1.4, 1.0433 -0.2264 -1.4094, 0.5315 -0.1989 -1.3736, 0.5315 -0.1969 -1.3583, 0.5315 -0.2795 -1.3583, 0.5315 -0.2795 -1.3386, 0.5315 -0.4134 -1.3386, 0.5315 -0.4134 -1.4173, 0.5315 -0.2559 -1.4173, 0.5315 -0.2406 -1.4153, 0.5315 -0.2264 -1.4094, 0.5315 -0.2141 -1.4, 0.5315 -0.2048 -1.3878, 0.4528 -0.4134 -1.4173, 0.4528 -0.4134 -1.3386, 0.4528 -0.2795 -1.3386, 0.4528 -0.2795 -1.3583, 0.4528 -0.2559 -1.4173, 0.4528 -0.2406 -1.4153, 0.4528 -0.1969 -1.3583, 0.4528 -0.1989 -1.3736, 0.4528 -0.2048 -1.3878, 0.4528 -0.2141 -1.4, 0.4528 -0.2264 -1.4094, 0.3346 -0.1989 -1.3736, 0.3346 -0.1969 -1.3583, 0.3346 -0.2795 -1.3583, 0.3346 -0.2795 -1.3386, 0.3346 -0.4134 -1.3386, 0.3346 -0.4134 -1.4173, 0.3346 -0.2559 -1.4173, 0.3346 -0.2406 -1.4153, 0.3346 -0.2264 -1.4094, 0.3346 -0.2141 -1.4, 0.3346 -0.2048 -1.3878, 0.2559 -0.4134 -1.4173, 0.2559 -0.4134 -1.3386, 0.2559 -0.2795 -1.3386, 0.2559 -0.2795 -1.3583, 0.2559 -0.2559 -1.4173, 0.2559 -0.2406 -1.4153, 0.2559 -0.1969 -1.3583, 0.2559 -0.1989 -1.3736, 0.2559 -0.2048 -1.3878, 0.2559 -0.2141 -1.4, 0.2559 -0.2264 -1.4094, 0.1378 -0.1989 -1.3736, 0.1378 -0.1969 -1.3583, 0.1378 -0.2795 -1.3583, 0.1378 -0.2795 -1.3386, 0.1378 -0.4134 -1.3386, 0.1378 -0.4134 -1.4173, 0.1378 -0.2559 -1.4173, 0.1378 -0.2406 -1.4153, 0.1378 -0.2264 -1.4094, 0.1378 -0.2141 -1.4, 0.1378 -0.2048 -1.3878, 0.0591 -0.4134 -1.4173, 0.0591 -0.4134 -1.3386, 0.0591 -0.2795 -1.3386, 0.0591 -0.2795 -1.3583, 0.0591 -0.2559 -1.4173, 0.0591 -0.2406 -1.4153, 0.0591 -0.1969 -1.3583, 0.0591 -0.1989 -1.3736, 0.0591 -0.2048 -1.3878, 0.0591 -0.2141 -1.4, 0.0591 -0.2264 -1.4094, -0.0591 -0.1989 -1.3736, -0.0591 -0.1969 -1.3583, -0.0591 -0.2795 -1.3583, -0.0591 -0.2795 -1.3386, -0.0591 -0.4134 -1.3386, -0.0591 -0.4134 -1.4173, -0.0591 -0.2559 -1.4173, -0.0591 -0.2406 -1.4153, -0.0591 -0.2264 -1.4094, -0.0591 -0.2141 -1.4, -0.0591 -0.2048 -1.3878, -0.1378 -0.4134 -1.4173, -0.1378 -0.4134 -1.3386, -0.1378 -0.2795 -1.3386, -0.1378 -0.2795 -1.3583, -0.1378 -0.2559 -1.4173, -0.1378 -0.2406 -1.4153, -0.1378 -0.1969 -1.3583, -0.1378 -0.1989 -1.3736, -0.1378 -0.2048 -1.3878, -0.1378 -0.2141 -1.4, -0.1378 -0.2264 -1.4094, -0.2559 -0.1989 -1.3736, -0.2559 -0.1969 -1.3583, -0.2559 -0.2795 -1.3583, -0.2559 -0.2795 -1.3386, -0.2559 -0.4134 -1.3386, -0.2559 -0.4134 -1.4173, -0.2559 -0.2559 -1.4173, -0.2559 -0.2406 -1.4153, -0.2559 -0.2264 -1.4094, -0.2559 -0.2141 -1.4, -0.2559 -0.2048 -1.3878, -0.3346 -0.4134 -1.4173, -0.3346 -0.4134 -1.3386, -0.3346 -0.2795 -1.3386, -0.3346 -0.2795 -1.3583, -0.3346 -0.2559 -1.4173, -0.3346 -0.2406 -1.4153, -0.3346 -0.1969 -1.3583, -0.3346 -0.1989 -1.3736, -0.3346 -0.2048 -1.3878, -0.3346 -0.2141 -1.4, -0.3346 -0.2264 -1.4094, -0.4528 -0.1989 -1.3736, -0.4528 -0.1969 -1.3583, -0.4528 -0.2795 -1.3583, -0.4528 -0.2795 -1.3386, -0.4528 -0.4134 -1.3386, -0.4528 -0.4134 -1.4173, -0.4528 -0.2559 -1.4173, -0.4528 -0.2406 -1.4153, -0.4528 -0.2264 -1.4094, -0.4528 -0.2141 -1.4, -0.4528 -0.2048 -1.3878, -0.5315 -0.4134 -1.4173, -0.5315 -0.4134 -1.3386, -0.5315 -0.2795 -1.3386, -0.5315 -0.2795 -1.3583, -0.5315 -0.2559 -1.4173, -0.5315 -0.2406 -1.4153, -0.5315 -0.1969 -1.3583, -0.5315 -0.1989 -1.3736, -0.5315 -0.2048 -1.3878, -0.5315 -0.2141 -1.4, -0.5315 -0.2264 -1.4094, -1.0433 -0.1989 -1.3736, -1.0433 -0.1969 -1.3583, -1.0433 -0.2795 -1.3583, -1.0433 -0.2795 -1.3386, -1.0433 -0.4134 -1.3386, -1.0433 -0.4134 -1.4173, -1.0433 -0.2559 -1.4173, -1.0433 -0.2406 -1.4153, -1.0433 -0.2264 -1.4094, -1.0433 -0.2141 -1.4, -1.0433 -0.2048 -1.3878, -1.122 -0.4134 -1.4173, -1.122 -0.4134 -1.3386, -1.122 -0.2795 -1.3386, -1.122 -0.2795 -1.3583, -1.122 -0.2559 -1.4173, -1.122 -0.2406 -1.4153, -1.122 -0.1969 -1.3583, -1.122 -0.1989 -1.3736, -1.122 -0.2048 -1.3878, -1.122 -0.2141 -1.4, -1.122 -0.2264 -1.4094, -1.122 -0.2264 -1.4094
            ]
        }
        coordIndex [
            0,1,2,-1,2,1,3,-1,1,0,4,-1,4,0,5,-1,4,5,6,-1,6,5,7,-1,8,9,5,-1,5,9,10,-1,10,11,5,-1,5,11,12,-1,5,12,7,-1,13,14,15,-1,2,3,15,-1,15,3,16,-1,16,17,15,-1,15,17,18,-1,15,18,19,-1,19,20,15,-1,15,20,21,-1,15,21,13,-1,4,16,1,-1,1,16,3,-1,17,16,6,-1,6,16,4,-1,17,6,7,-1,17,7,18,-1,18,7,12,-1,18,12,19,-1,19,12,11,-1,19,11,20,-1,20,11,10,-1,20,10,21,-1,21,10,9,-1,21,9,13,-1,13,9,8,-1,13,8,14,-1,22,23,24,-1,24,23,25,-1,23,22,26,-1,26,22,27,-1,26,27,28,-1,28,27,29,-1,30,31,27,-1,27,31,32,-1,32,33,27,-1,27,33,34,-1,27,34,29,-1,35,36,37,-1,24,25,37,-1,37,25,38,-1,38,39,37,-1,37,39,40,-1,37,40,41,-1,41,42,37,-1,37,42,43,-1,37,43,35,-1,26,38,23,-1,23,38,25,-1,39,38,28,-1,28,38,26,-1,44,45,46,-1,46,45,47,-1,45,44,48,-1,48,44,49,-1,48,49,50,-1,50,49,51,-1,52,53,49,-1,49,53,54,-1,54,55,49,-1,49,55,56,-1,49,56,51,-1,57,58,59,-1,46,47,59,-1,59,47,60,-1,60,61,59,-1,59,61,62,-1,59,62,63,-1,63,64,59,-1,59,64,65,-1,59,65,57,-1,48,60,45,-1,45,60,47,-1,61,60,50,-1,50,60,48,-1,66,67,68,-1,68,67,69,-1,67,66,70,-1,70,66,71,-1,70,71,72,-1,72,71,73,-1,74,75,71,-1,71,75,76,-1,76,77,71,-1,71,77,78,-1,71,78,73,-1,79,80,81,-1,68,69,81,-1,81,69,82,-1,82,83,81,-1,81,83,84,-1,81,84,85,-1,85,86,81,-1,81,86,87,-1,81,87,79,-1,70,82,67,-1,67,82,69,-1,83,82,72,-1,72,82,70,-1,88,89,90,-1,90,89,91,-1,89,88,92,-1,92,88,93,-1,92,93,94,-1,94,93,95,-1,96,97,93,-1,93,97,98,-1,98,99,93,-1,93,99,100,-1,93,100,95,-1,101,102,103,-1,90,91,103,-1,103,91,104,-1,104,105,103,-1,103,105,106,-1,103,106,107,-1,107,108,103,-1,103,108,109,-1,103,109,101,-1,92,104,89,-1,89,104,91,-1,105,104,94,-1,94,104,92,-1,110,111,112,-1,112,111,113,-1,111,110,114,-1,114,110,115,-1,114,115,116,-1,116,115,117,-1,118,119,115,-1,115,119,120,-1,120,121,115,-1,115,121,122,-1,115,122,117,-1,123,124,125,-1,112,113,125,-1,125,113,126,-1,126,127,125,-1,125,127,128,-1,125,128,129,-1,129,130,125,-1,125,130,131,-1,125,131,123,-1,114,126,111,-1,111,126,113,-1,127,126,116,-1,116,126,114,-1,132,133,134,-1,134,133,135,-1,133,132,136,-1,136,132,137,-1,136,137,138,-1,138,137,139,-1,140,141,137,-1,137,141,142,-1,142,143,137,-1,137,143,144,-1,137,144,139,-1,145,146,147,-1,134,135,147,-1,147,135,148,-1,148,149,147,-1,147,149,150,-1,147,150,151,-1,151,152,147,-1,147,152,153,-1,147,153,145,-1,136,148,133,-1,133,148,135,-1,149,148,138,-1,138,148,136,-1,154,155,156,-1,156,155,157,-1,155,154,158,-1,158,154,159,-1,158,159,160,-1,160,159,161,-1,162,163,159,-1,159,163,164,-1,164,165,159,-1,159,165,166,-1,159,166,161,-1,167,168,169,-1,156,157,169,-1,169,157,170,-1,170,171,169,-1,169,171,172,-1,169,172,173,-1,173,174,169,-1,169,174,175,-1,169,175,167,-1,158,170,155,-1,155,170,157,-1,171,170,160,-1,160,170,158,-1,39,28,29,-1,39,29,40,-1,40,29,34,-1,40,34,41,-1,41,34,33,-1,41,33,42,-1,42,33,32,-1,42,32,43,-1,43,32,31,-1,43,31,35,-1,35,31,30,-1,35,30,36,-1,61,50,51,-1,61,51,62,-1,62,51,56,-1,62,56,63,-1,63,56,55,-1,63,55,64,-1,64,55,54,-1,64,54,65,-1,65,54,53,-1,65,53,57,-1,57,53,52,-1,57,52,58,-1,83,72,73,-1,83,73,84,-1,84,73,78,-1,84,78,85,-1,85,78,77,-1,85,77,86,-1,86,77,76,-1,86,76,87,-1,87,76,75,-1,87,75,79,-1,79,75,74,-1,79,74,80,-1,105,94,95,-1,105,95,106,-1,106,95,100,-1,106,100,107,-1,107,100,99,-1,107,99,108,-1,108,99,98,-1,108,98,109,-1,109,98,97,-1,109,97,101,-1,101,97,96,-1,101,96,102,-1,127,116,117,-1,127,117,128,-1,128,117,122,-1,128,122,129,-1,129,122,121,-1,129,121,130,-1,130,121,120,-1,130,120,131,-1,131,120,119,-1,131,119,123,-1,123,119,118,-1,123,118,124,-1,149,138,139,-1,149,139,150,-1,150,139,144,-1,150,144,151,-1,151,144,143,-1,151,143,152,-1,152,143,142,-1,152,142,153,-1,153,142,141,-1,153,141,145,-1,145,141,140,-1,145,140,146,-1,171,160,161,-1,171,161,172,-1,172,161,166,-1,172,166,173,-1,173,166,165,-1,173,165,174,-1,174,165,164,-1,174,164,175,-1,175,164,163,-1,175,163,167,-1,167,163,162,-1,167,162,168,-1,176,177,178,-1,179,180,178,-1,178,180,181,-1,181,182,178,-1,178,182,183,-1,178,183,184,-1,184,185,178,-1,178,185,186,-1,178,186,176,-1,187,181,188,-1,188,181,180,-1,188,189,187,-1,187,189,190,-1,187,190,191,-1,191,190,192,-1,193,194,190,-1,190,194,195,-1,195,196,190,-1,190,196,197,-1,190,197,192,-1,182,181,191,-1,191,181,187,-1,188,180,189,-1,189,180,179,-1,198,199,200,-1,201,202,200,-1,200,202,203,-1,203,204,200,-1,200,204,205,-1,200,205,206,-1,206,207,200,-1,200,207,208,-1,200,208,198,-1,209,203,210,-1,210,203,202,-1,210,211,209,-1,209,211,212,-1,209,212,213,-1,213,212,214,-1,215,216,212,-1,212,216,217,-1,217,218,212,-1,212,218,219,-1,212,219,214,-1,204,203,213,-1,213,203,209,-1,210,202,211,-1,211,202,201,-1,220,221,222,-1,223,224,222,-1,222,224,225,-1,225,226,222,-1,222,226,227,-1,222,227,228,-1,228,229,222,-1,222,229,230,-1,222,230,220,-1,231,225,232,-1,232,225,224,-1,232,233,231,-1,231,233,234,-1,231,234,235,-1,235,234,236,-1,237,238,234,-1,234,238,239,-1,239,240,234,-1,234,240,241,-1,234,241,236,-1,226,225,235,-1,235,225,231,-1,232,224,233,-1,233,224,223,-1,242,243,244,-1,245,246,244,-1,244,246,247,-1,247,248,244,-1,244,248,249,-1,244,249,250,-1,250,251,244,-1,244,251,252,-1,244,252,242,-1,253,247,254,-1,254,247,246,-1,254,255,253,-1,253,255,256,-1,253,256,257,-1,257,256,258,-1,259,260,256,-1,256,260,261,-1,261,262,256,-1,256,262,263,-1,256,263,258,-1,248,247,257,-1,257,247,253,-1,254,246,255,-1,255,246,245,-1,264,265,266,-1,267,268,266,-1,266,268,269,-1,269,270,266,-1,266,270,271,-1,266,271,272,-1,272,273,266,-1,266,273,274,-1,266,274,264,-1,275,269,276,-1,276,269,268,-1,276,277,275,-1,275,277,278,-1,275,278,279,-1,279,278,280,-1,281,282,278,-1,278,282,283,-1,283,284,278,-1,278,284,285,-1,278,285,280,-1,270,269,279,-1,279,269,275,-1,276,268,277,-1,277,268,267,-1,286,287,288,-1,289,290,288,-1,288,290,291,-1,291,292,288,-1,288,292,293,-1,288,293,294,-1,294,295,288,-1,288,295,296,-1,288,296,286,-1,297,291,298,-1,298,291,290,-1,298,299,297,-1,297,299,300,-1,297,300,301,-1,301,300,302,-1,303,304,300,-1,300,304,305,-1,305,306,300,-1,300,306,307,-1,300,307,302,-1,292,291,301,-1,301,291,297,-1,298,290,299,-1,299,290,289,-1,308,309,310,-1,311,312,310,-1,310,312,313,-1,313,314,310,-1,310,314,315,-1,310,315,316,-1,316,317,310,-1,310,317,318,-1,310,318,308,-1,319,313,320,-1,320,313,312,-1,320,321,319,-1,319,321,322,-1,319,322,323,-1,323,322,324,-1,325,326,322,-1,322,326,327,-1,327,328,322,-1,322,328,329,-1,322,329,324,-1,314,313,323,-1,323,313,319,-1,320,312,321,-1,321,312,311,-1,330,331,332,-1,333,334,332,-1,332,334,335,-1,335,336,332,-1,332,336,337,-1,332,337,338,-1,338,339,332,-1,332,339,340,-1,332,340,330,-1,341,335,342,-1,342,335,334,-1,342,343,341,-1,341,343,344,-1,341,344,345,-1,345,344,346,-1,347,348,344,-1,344,348,349,-1,349,350,344,-1,344,350,351,-1,344,351,346,-1,336,335,345,-1,345,335,341,-1,342,334,343,-1,343,334,333,-1,182,191,192,-1,182,192,183,-1,183,192,197,-1,183,197,184,-1,184,197,196,-1,184,196,185,-1,185,196,195,-1,185,195,186,-1,186,195,194,-1,186,194,176,-1,176,194,193,-1,176,193,177,-1,204,213,214,-1,204,214,205,-1,205,214,219,-1,205,219,206,-1,206,219,218,-1,206,218,207,-1,207,218,217,-1,207,217,208,-1,208,217,216,-1,208,216,198,-1,198,216,215,-1,198,215,199,-1,226,235,236,-1,226,236,227,-1,227,236,241,-1,227,241,228,-1,228,241,240,-1,228,240,229,-1,229,240,239,-1,229,239,230,-1,230,239,238,-1,230,238,220,-1,220,238,237,-1,220,237,221,-1,248,257,258,-1,248,258,249,-1,249,258,263,-1,249,263,250,-1,250,263,262,-1,250,262,251,-1,251,262,261,-1,251,261,252,-1,252,261,260,-1,252,260,242,-1,242,260,259,-1,242,259,243,-1,270,279,280,-1,270,280,271,-1,271,280,285,-1,271,285,272,-1,272,285,284,-1,272,284,273,-1,273,284,283,-1,273,283,274,-1,274,283,282,-1,274,282,264,-1,264,282,281,-1,264,281,265,-1,292,301,302,-1,292,302,293,-1,293,302,307,-1,293,307,294,-1,294,307,306,-1,294,306,295,-1,295,306,305,-1,295,305,296,-1,296,305,304,-1,296,304,286,-1,286,304,303,-1,286,303,287,-1,314,323,324,-1,314,324,315,-1,315,324,329,-1,315,329,316,-1,316,329,328,-1,316,328,317,-1,317,328,327,-1,317,327,318,-1,318,327,326,-1,318,326,308,-1,308,326,325,-1,308,325,309,-1,336,345,346,-1,336,346,337,-1,337,346,351,-1,337,351,338,-1,338,351,350,-1,338,350,339,-1,339,350,349,-1,339,349,340,-1,340,349,348,-1,340,348,330,-1,330,348,347,-1,330,347,331,-1,
        ]
    }
}