#VRML V2.0 utf8
# 3D model generated by easyeda2kicad.py (https://github.com/uPesy/easyeda2kicad.py)

Shape{
    appearance Appearance {
        material  Material 	{
            diffuseColor 0.7529411764705882 0.7529411764705882 0.7529411764705882
            specularColor 0.3764705882352941 0.3764705882352941 0.3764705882352941
            ambientIntensity 0.2
            transparency 0
            shininess 0.5
        }
    }
    geometry IndexedFaceSet {
        ccw TRUE
        solid FALSE
        coord DEF co Coordinate {
            point [
                -0.0354 0.0567 -0.0079, 0.0093 0.0567 -0.0079, 0.0093 0.0178 -0.0079, -0.0325 0.0178 -0.0079, -0.0325 0.0048 -0.0079, -0.0613 0.0696 -0.0079, -0.1823 -0.0485 -0.0079, -0.165 -0.0485 -0.0079, -0.315 -0.0492 -0.0079, -0.2543 -0.0485 -0.0079, -0.2424 -0.0154 -0.0079, -0.1936 -0.0154 -0.0079, 0.0093 0.0048 -0.0079, 0.0093 -0.0355 -0.0079, -0.0383 -0.0355 -0.0079, -0.0613 -0.0485 -0.0079, -0.315 0.1378 -0.0079, -0.2756 0.1378 -0.0079, -0.0383 -0.0485 -0.0079, 0.0251 -0.0485 -0.0079, 0.0366 -0.0492 -0.0079, 0.0251 0.0696 -0.0079, -0.2097 0.0696 -0.0079, -0.2255 0.0696 -0.0079, -0.2716 -0.0485 -0.0079, -0.1545 -0.0047 -0.0079, -0.1499 -0.0172 -0.0079, -0.1428 -0.0277 -0.0079, -0.1337 -0.0362 -0.0079, -0.121 -0.0434 -0.0079, -0.1077 -0.0472 -0.0079, -0.0934 -0.0485 -0.0079, -0.124 0.0637 -0.0079, -0.11 0.0682 -0.0079, -0.0946 0.0696 -0.0079, -0.1358 0.0564 -0.0079, -0.1454 0.0469 -0.0079, -0.1517 0.0365 -0.0079, -0.2756 0.1969 -0.0079, -0.1551 0.0254 -0.0079, -0.1564 0.0121 -0.0079, -0.1563 0.011 -0.0079, 0.0366 -0.1969 -0.0079, -0.2756 -0.1969 -0.0079, -0.2756 -0.1378 -0.0079, -0.315 -0.1378 -0.0079, 0.0886 -0.0492 -0.0079, 0.315 -0.0492 -0.0079, 0.315 -0.1378 -0.0079, 0.2756 -0.1378 -0.0079, 0.2756 -0.1969 -0.0079, 0.2756 0.1378 -0.0079, 0.315 0.1378 -0.0079, 0.1908 0.0696 -0.0079, 0.0366 0.1969 -0.0079, 0.2756 0.1969 -0.0079, 0.053 -0.0444 -0.0079, 0.0667 -0.0488 -0.0079, 0.0714 -0.0492 -0.0079, 0.0807 -0.0499 -0.0079, 0.2066 0.0696 -0.0079, -0.0354 0.0696 -0.0079, 0.0482 0.0664 -0.0079, 0.0482 0.0505 -0.0079, 0.2066 -0.0485 -0.0079, 0.1461 -0.0485 -0.0079, 0.0931 -0.0488 -0.0079, 0.1047 -0.0454 -0.0079, 0.0785 -0.037 -0.0079, 0.0739 -0.0367 -0.0079, 0.051 0.052 -0.0079, 0.0604 -0.0346 -0.0079, 0.0482 -0.0294 -0.0079, 0.0482 -0.0424 -0.0079, 0.1191 -0.0024 -0.0079, 0.1164 -0.0122 -0.0079, 0.1116 -0.0208 -0.0079, 0.105 -0.028 -0.0079, 0.1156 -0.0389 -0.0079, 0.1244 -0.0299 -0.0079, 0.1461 -0.0355 -0.0079, 0.1313 -0.0179 -0.0079, 0.1908 -0.0355 -0.0079, 0.0977 -0.0328 -0.0079, 0.0898 -0.0355 -0.0079, 0.0633 0.0567 -0.0079, 0.119 0.0218 -0.0079, 0.1202 0.0093 -0.0079, 0.0758 0.0581 -0.0079, 0.0877 0.0565 -0.0079, 0.0964 0.0536 -0.0079, 0.1036 0.0489 -0.0079, 0.111 0.041 -0.0079, 0.1161 0.0321 -0.0079, 0.1349 -0.0053 -0.0079, 0.136 0.0083 -0.0079, 0.1346 0.0235 -0.0079, 0.1304 0.0372 -0.0079, 0.123 0.0494 -0.0079, 0.1129 0.0593 -0.0079, 0.1018 0.066 -0.0079, 0.0898 0.0697 -0.0079, 0.076 0.0711 -0.0079, 0.0618 0.0701 -0.0079, 0.0618 0.0701 -0.0079
            ]
        }
        coordIndex [
            0,1,2,-1,3,4,5,-1,6,7,8,-1,9,10,11,-1,12,13,4,-1,4,13,14,-1,4,14,5,-1,5,14,15,-1,8,16,17,-1,18,19,20,-1,20,19,21,-1,22,23,17,-1,17,23,24,-1,17,24,8,-1,8,24,9,-1,8,9,6,-1,6,9,11,-1,25,26,7,-1,7,26,27,-1,27,28,7,-1,7,28,29,-1,7,29,30,-1,14,18,15,-1,15,18,20,-1,15,20,31,-1,32,22,33,-1,33,22,34,-1,32,35,22,-1,22,35,36,-1,22,36,37,-1,22,17,34,-1,34,17,38,-1,34,38,5,-1,37,39,22,-1,22,39,40,-1,22,40,7,-1,7,40,41,-1,7,41,25,-1,42,43,20,-1,20,43,44,-1,30,31,7,-1,7,31,20,-1,7,20,8,-1,8,20,44,-1,8,44,45,-1,46,47,48,-1,48,49,46,-1,46,49,50,-1,46,50,42,-1,51,52,47,-1,53,54,55,-1,56,57,20,-1,20,57,58,-1,20,58,42,-1,42,58,59,-1,42,59,46,-1,53,55,60,-1,2,3,0,-1,0,3,5,-1,0,5,61,-1,61,5,38,-1,61,38,21,-1,21,38,54,-1,21,54,20,-1,20,54,62,-1,20,62,63,-1,55,51,60,-1,60,51,47,-1,60,47,64,-1,64,47,46,-1,64,46,65,-1,65,46,66,-1,65,66,67,-1,68,69,70,-1,70,69,71,-1,70,71,63,-1,63,71,72,-1,63,72,20,-1,20,72,73,-1,20,73,56,-1,74,75,70,-1,70,75,76,-1,70,76,77,-1,67,78,65,-1,65,78,79,-1,65,79,80,-1,80,79,81,-1,80,81,82,-1,77,83,70,-1,70,83,84,-1,70,84,68,-1,85,86,70,-1,70,86,87,-1,70,87,74,-1,85,88,86,-1,86,88,89,-1,86,89,90,-1,90,91,86,-1,86,91,92,-1,86,92,93,-1,81,94,82,-1,82,94,95,-1,82,95,53,-1,53,95,96,-1,53,96,97,-1,97,98,53,-1,53,98,99,-1,53,99,54,-1,54,99,100,-1,54,100,101,-1,101,102,54,-1,54,102,103,-1,54,103,62,-1,
        ]
    }
}
Shape{
    appearance Appearance {
        material  Material 	{
            diffuseColor 0.25098039215686274 0.25098039215686274 0.25098039215686274
            specularColor 0.12549019607843137 0.12549019607843137 0.12549019607843137
            ambientIntensity 0.2
            transparency 0
            shininess 0.5
        }
    }
    geometry IndexedFaceSet {
        ccw TRUE
        solid FALSE
        coord DEF co Coordinate {
            point [
                -0.2756 0.1969 0.0, -0.2756 0.1378 0.0, -0.315 0.1378 0.0, -0.2756 -0.2953 0.0, -0.2756 -0.3937 0.0, -0.3543 -0.3937 0.0, 0.2756 -0.1969 0.0, 0.3543 -0.3937 0.0, 0.2362 -0.3937 0.0, 0.1575 -0.3937 0.0, 0.0394 -0.3937 0.0, 0.1575 -0.2953 0.0, 0.0394 -0.2953 0.0, 0.2756 0.1378 0.0, 0.2756 0.1969 0.0, 0.315 0.1378 0.0, 0.3543 0.3937 0.0, 0.315 -0.1378 0.0, 0.2756 -0.1378 0.0, 0.2362 -0.2953 0.0, -0.2756 -0.1969 0.0, -0.0394 -0.2953 0.0, -0.1575 0.2953 0.0, -0.2362 0.2953 0.0, 0.0394 0.2953 0.0, -0.0394 0.2953 0.0, -0.0394 0.3937 0.0, -0.1575 0.3937 0.0, -0.315 -0.1378 0.0, -0.2756 -0.1378 0.0, -0.0394 -0.3937 0.0, -0.1575 -0.3937 0.0, -0.1575 -0.2953 0.0, -0.3543 0.3937 0.0, -0.2362 0.3937 0.0, 0.2362 0.3937 0.0, 0.2362 0.2953 0.0, 0.1575 0.2953 0.0, 0.1575 0.3937 0.0, 0.0394 0.3937 0.0, 0.0394 0.3937 0.0
            ]
        }
        coordIndex [
            0,1,2,-1,3,4,5,-1,6,7,8,-1,9,10,11,-1,11,10,12,-1,13,14,15,-1,15,14,16,-1,15,16,17,-1,17,16,7,-1,17,7,18,-1,18,7,6,-1,8,19,6,-1,6,19,11,-1,6,11,20,-1,20,11,12,-1,20,12,21,-1,14,0,22,-1,22,0,23,-1,24,14,25,-1,25,14,22,-1,25,22,26,-1,26,22,27,-1,28,29,20,-1,30,31,21,-1,21,31,32,-1,21,32,20,-1,20,32,3,-1,20,3,28,-1,28,3,5,-1,28,5,2,-1,2,5,33,-1,2,33,0,-1,0,33,34,-1,0,34,23,-1,35,16,36,-1,36,16,14,-1,36,14,37,-1,37,14,24,-1,37,24,38,-1,38,24,39,-1,
        ]
    }
}
Shape{
    appearance Appearance {
        material  Material 	{
            diffuseColor 0.7529411764705882 0.7529411764705882 0.7529411764705882
            specularColor 0.3764705882352941 0.3764705882352941 0.3764705882352941
            ambientIntensity 0.2
            transparency 0
            shininess 0.5
        }
    }
    geometry IndexedFaceSet {
        ccw TRUE
        solid FALSE
        coord DEF co Coordinate {
            point [
                0.2756 -0.1378 0.0, 0.2756 -0.1969 0.0, 0.2756 -0.1378 -0.0079, 0.2756 -0.1969 -0.0079, 0.2756 0.1378 -0.0079, 0.2756 0.1969 -0.0079, 0.2756 0.1378 0.0, 0.2756 0.1969 0.0, -0.2756 -0.1378 -0.0079, -0.2756 -0.1969 -0.0079, -0.2756 -0.1378 0.0, -0.2756 -0.1969 0.0, -0.2756 0.1378 0.0, -0.2756 0.1969 0.0, -0.2756 0.1378 -0.0079, -0.2756 0.1969 -0.0079, -0.2756 0.1969 -0.0079
            ]
        }
        coordIndex [
            0,1,2,-1,2,1,3,-1,4,5,6,-1,6,5,7,-1,8,9,10,-1,10,9,11,-1,12,13,14,-1,14,13,15,-1,
        ]
    }
}
Shape{
    appearance Appearance {
        material  Material 	{
            diffuseColor 0.25098039215686274 0.25098039215686274 0.25098039215686274
            specularColor 0.12549019607843137 0.12549019607843137 0.12549019607843137
            ambientIntensity 0.2
            transparency 0
            shininess 0.5
        }
    }
    geometry IndexedFaceSet {
        ccw TRUE
        solid FALSE
        coord DEF co Coordinate {
            point [
                -0.215 -0.3014 0.2362, -0.2149 -0.3034 0.2362, 0.3543 -0.3937 0.2362, -0.2473 -0.3414 0.2362, -0.3543 -0.3937 0.2362, -0.2161 -0.3127 0.2362, -0.2195 -0.3216 0.2362, -0.2251 -0.3295 0.2362, -0.2299 -0.3338 0.2362, -0.2381 -0.3388 0.2362, -0.291 -0.3128 0.2362, -0.2922 -0.3034 0.2362, 0.3543 0.3937 0.2362, -0.2418 -0.2666 0.2362, -0.2331 -0.2706 0.2362, -0.2569 -0.3418 0.2362, -0.2663 -0.3398 0.2362, -0.2748 -0.3356 0.2362, -0.2263 -0.2761 0.2362, -0.2203 -0.2837 0.2362, -0.2165 -0.2924 0.2362, -0.282 -0.3295 0.2362, -0.2875 -0.3218 0.2362, -0.2512 -0.2648 0.2362, -0.3543 0.3937 0.2362, -0.2605 -0.2654 0.2362, -0.2922 -0.3032 0.2362, -0.2909 -0.2937 0.2362, -0.2874 -0.2848 0.2362, -0.2819 -0.2771 0.2362, -0.2777 -0.2732 0.2362, -0.2697 -0.2683 0.2362, 0.3543 0.3937 0.0, 0.3543 -0.3937 0.0, 0.0394 0.3937 0.0394, -0.0394 0.3937 0.0394, 0.2362 0.3937 0.0, 0.2362 0.3937 0.0394, 0.1575 0.3937 0.0394, 0.1575 0.3937 0.0, 0.0394 0.3937 0.0, -0.2362 0.3937 0.0, -0.3543 0.3937 0.0, -0.2362 0.3937 0.0394, -0.1575 0.3937 0.0394, -0.1575 0.3937 0.0, -0.0394 0.3937 0.0, -0.3543 -0.3937 0.0, -0.0394 -0.3937 0.0394, 0.0394 -0.3937 0.0394, -0.2756 -0.3937 0.0, -0.2756 -0.3937 0.0394, -0.1575 -0.3937 0.0394, -0.1575 -0.3937 0.0, -0.0394 -0.3937 0.0, 0.2362 -0.3937 0.0, 0.2362 -0.3937 0.0394, 0.1575 -0.3937 0.0394, 0.1575 -0.3937 0.0, 0.0394 -0.3937 0.0, 0.0394 -0.3937 0.0
            ]
        }
        coordIndex [
            0,1,2,-1,3,4,2,-1,1,5,2,-1,2,5,6,-1,2,6,7,-1,7,8,2,-1,2,8,9,-1,2,9,3,-1,4,10,11,-1,12,13,14,-1,3,15,4,-1,4,15,16,-1,4,16,17,-1,14,18,12,-1,12,18,19,-1,12,19,2,-1,2,19,20,-1,2,20,0,-1,17,21,4,-1,4,21,22,-1,4,22,10,-1,13,12,23,-1,23,12,24,-1,23,24,25,-1,11,26,4,-1,4,26,27,-1,4,27,24,-1,24,27,28,-1,24,28,29,-1,29,30,24,-1,24,30,31,-1,24,31,25,-1,12,2,32,-1,32,2,33,-1,34,35,24,-1,32,36,12,-1,12,36,37,-1,12,37,38,-1,39,40,38,-1,38,40,34,-1,38,34,12,-1,12,34,24,-1,41,42,43,-1,43,42,24,-1,43,24,44,-1,44,24,35,-1,44,35,45,-1,45,35,46,-1,4,24,47,-1,47,24,42,-1,48,49,2,-1,47,50,4,-1,4,50,51,-1,4,51,52,-1,53,54,52,-1,52,54,48,-1,52,48,4,-1,4,48,2,-1,55,33,56,-1,56,33,2,-1,56,2,57,-1,57,2,49,-1,57,49,58,-1,58,49,59,-1,
        ]
    }
}
Shape{
    appearance Appearance {
        material  Material 	{
            diffuseColor 0.7529411764705882 0.7529411764705882 0.7529411764705882
            specularColor 0.3764705882352941 0.3764705882352941 0.3764705882352941
            ambientIntensity 0.2
            transparency 0
            shininess 0.5
        }
    }
    geometry IndexedFaceSet {
        ccw TRUE
        solid FALSE
        coord DEF co Coordinate {
            point [
                -0.2161 -0.3127 0.2323, -0.2149 -0.3034 0.2362, -0.2149 -0.3034 0.2323, -0.215 -0.3014 0.2362, -0.215 -0.3014 0.2323, -0.2165 -0.2924 0.2362, -0.2165 -0.2924 0.2323, -0.2203 -0.2837 0.2362, -0.2203 -0.2837 0.2323, -0.2263 -0.2761 0.2362, -0.2263 -0.2761 0.2323, -0.2331 -0.2706 0.2362, -0.2331 -0.2706 0.2323, -0.2418 -0.2666 0.2362, -0.2418 -0.2666 0.2323, -0.2512 -0.2648 0.2362, -0.2512 -0.2648 0.2323, -0.2605 -0.2654 0.2362, -0.2605 -0.2654 0.2323, -0.2697 -0.2683 0.2362, -0.2697 -0.2683 0.2323, -0.2777 -0.2732 0.2362, -0.2777 -0.2732 0.2323, -0.2819 -0.2771 0.2362, -0.2819 -0.2771 0.2323, -0.2874 -0.2848 0.2362, -0.2874 -0.2848 0.2323, -0.2909 -0.2937 0.2362, -0.2909 -0.2937 0.2323, -0.2922 -0.3032 0.2362, -0.2922 -0.3032 0.2323, -0.2922 -0.3034 0.2362, -0.2922 -0.3034 0.2323, -0.291 -0.3128 0.2362, -0.291 -0.3128 0.2323, -0.2875 -0.3218 0.2362, -0.2875 -0.3218 0.2323, -0.282 -0.3295 0.2362, -0.282 -0.3295 0.2323, -0.2748 -0.3356 0.2362, -0.2748 -0.3356 0.2323, -0.2663 -0.3398 0.2362, -0.2663 -0.3398 0.2323, -0.2569 -0.3418 0.2362, -0.2569 -0.3418 0.2323, -0.2473 -0.3414 0.2362, -0.2473 -0.3414 0.2323, -0.2381 -0.3388 0.2362, -0.2381 -0.3388 0.2323, -0.2299 -0.3338 0.2362, -0.2299 -0.3338 0.2323, -0.2251 -0.3295 0.2362, -0.2251 -0.3295 0.2323, -0.2195 -0.3216 0.2362, -0.2195 -0.3216 0.2323, -0.2161 -0.3127 0.2362, -0.0394 -0.3976 0.0394, 0.0394 -0.3976 0.0394, -0.0394 -0.3937 0.0394, 0.0394 -0.3937 0.0394, 0.0394 -0.3937 0.0, 0.0394 -0.3976 -0.0079, 0.0394 -0.2953 0.0, 0.0394 -0.2953 -0.0079, -0.0394 -0.2953 -0.0079, -0.0394 -0.2953 0.0, -0.0394 -0.3937 0.0, -0.0394 -0.3976 -0.0079, 0.1575 -0.3937 0.0394, 0.1575 -0.3976 0.0394, 0.2362 -0.3937 0.0394, 0.2362 -0.3976 0.0394, 0.2362 -0.3937 0.0, 0.2362 -0.3976 -0.0079, 0.2362 -0.2953 0.0, 0.2362 -0.2953 -0.0079, 0.1575 -0.2953 -0.0079, 0.1575 -0.2953 0.0, 0.1575 -0.3937 0.0, 0.1575 -0.3976 -0.0079, -0.2756 -0.3937 0.0394, -0.2756 -0.3976 0.0394, -0.1575 -0.3937 0.0394, -0.1575 -0.3976 0.0394, -0.1575 -0.3937 0.0, -0.1575 -0.3976 -0.0079, -0.1575 -0.2953 0.0, -0.1575 -0.2953 -0.0079, -0.2756 -0.2953 -0.0079, -0.2756 -0.2953 0.0, -0.2756 -0.3937 0.0, -0.2756 -0.3976 -0.0079, 0.2362 0.3937 0.0394, 0.2362 0.3976 0.0394, 0.1575 0.3937 0.0394, 0.1575 0.3976 0.0394, 0.1575 0.2953 -0.0079, 0.2362 0.2953 -0.0079, 0.1575 0.2953 0.0, 0.2362 0.2953 0.0, 0.2362 0.3937 0.0, 0.2362 0.3976 -0.0079, 0.1575 0.3937 0.0, 0.1575 0.3976 -0.0079, 0.0394 0.3937 0.0394, 0.0394 0.3976 0.0394, -0.0394 0.3937 0.0394, -0.0394 0.3976 0.0394, -0.0394 0.3937 0.0, -0.0394 0.3976 -0.0079, -0.0394 0.2953 0.0, -0.0394 0.2953 -0.0079, 0.0394 0.2953 -0.0079, 0.0394 0.2953 0.0, 0.0394 0.3937 0.0, 0.0394 0.3976 -0.0079, -0.1575 0.3937 0.0394, -0.1575 0.3976 0.0394, -0.2362 0.3937 0.0394, -0.2362 0.3976 0.0394, -0.2362 0.3937 0.0, -0.2362 0.3976 -0.0079, -0.2362 0.2953 0.0, -0.2362 0.2953 -0.0079, -0.1575 0.2953 -0.0079, -0.1575 0.2953 0.0, -0.1575 0.3937 0.0, -0.1575 0.3976 -0.0079, -0.2756 0.1969 -0.0079, -0.2756 0.1969 0.0, 0.0366 0.1969 -0.0079, 0.2756 0.1969 0.0, 0.2756 0.1969 -0.0079, 0.2756 -0.1969 -0.0079, 0.2756 -0.1969 0.0, 0.0366 -0.1969 -0.0079, -0.2756 -0.1969 0.0, -0.2756 -0.1969 -0.0079, -0.315 0.1378 -0.0079, -0.315 0.1378 0.0, -0.2756 0.1378 -0.0079, -0.2756 0.1378 0.0, -0.315 -0.1378 0.0, -0.315 -0.1378 -0.0079, -0.2756 -0.1378 0.0, -0.2756 -0.1378 -0.0079, -0.315 -0.0492 -0.0079, 0.315 -0.1378 -0.0079, 0.315 -0.1378 0.0, 0.2756 -0.1378 -0.0079, 0.2756 -0.1378 0.0, 0.315 0.1378 0.0, 0.315 0.1378 -0.0079, 0.2756 0.1378 0.0, 0.2756 0.1378 -0.0079, 0.315 -0.0492 -0.0079, 0.315 -0.0492 -0.0079
            ]
        }
        coordIndex [
            0,1,2,-1,2,1,3,-1,2,3,4,-1,4,3,5,-1,4,5,6,-1,6,5,7,-1,6,7,8,-1,8,7,9,-1,8,9,10,-1,10,9,11,-1,10,11,12,-1,12,11,13,-1,12,13,14,-1,14,13,15,-1,14,15,16,-1,16,15,17,-1,16,17,18,-1,18,17,19,-1,18,19,20,-1,20,19,21,-1,20,21,22,-1,22,21,23,-1,22,23,24,-1,24,23,25,-1,24,25,26,-1,26,25,27,-1,26,27,28,-1,28,27,29,-1,28,29,30,-1,30,29,31,-1,30,31,32,-1,32,31,33,-1,32,33,34,-1,34,33,35,-1,34,35,36,-1,36,35,37,-1,36,37,38,-1,38,37,39,-1,38,39,40,-1,40,39,41,-1,40,41,42,-1,42,41,43,-1,42,43,44,-1,44,43,45,-1,44,45,46,-1,46,45,47,-1,46,47,48,-1,48,47,49,-1,48,49,50,-1,50,49,51,-1,50,51,52,-1,52,51,53,-1,52,53,54,-1,54,53,55,-1,54,55,0,-1,0,55,1,-1,8,10,22,-1,22,10,12,-1,4,24,26,-1,34,36,50,-1,54,0,32,-1,32,0,2,-1,32,2,4,-1,24,4,22,-1,22,4,6,-1,22,6,8,-1,26,28,4,-1,4,28,30,-1,4,30,32,-1,34,50,32,-1,32,50,52,-1,32,52,54,-1,12,14,16,-1,44,46,42,-1,42,46,40,-1,36,38,50,-1,50,38,40,-1,50,40,48,-1,48,40,46,-1,16,18,12,-1,12,18,20,-1,12,20,22,-1,56,57,58,-1,58,57,59,-1,59,57,60,-1,60,57,61,-1,60,61,62,-1,62,61,63,-1,63,64,62,-1,62,64,65,-1,65,64,66,-1,66,64,67,-1,66,67,58,-1,58,67,56,-1,61,57,67,-1,67,57,56,-1,67,64,61,-1,61,64,63,-1,68,69,70,-1,70,69,71,-1,70,71,72,-1,72,71,73,-1,72,73,74,-1,74,73,75,-1,75,76,74,-1,74,76,77,-1,77,76,78,-1,78,76,79,-1,78,79,68,-1,68,79,69,-1,73,71,79,-1,79,71,69,-1,79,76,73,-1,73,76,75,-1,80,81,82,-1,82,81,83,-1,82,83,84,-1,84,83,85,-1,84,85,86,-1,86,85,87,-1,87,88,86,-1,86,88,89,-1,89,88,90,-1,90,88,91,-1,90,91,80,-1,80,91,81,-1,85,83,91,-1,91,83,81,-1,88,87,91,-1,91,87,85,-1,92,93,94,-1,94,93,95,-1,96,97,98,-1,98,97,99,-1,99,97,100,-1,100,97,101,-1,100,101,92,-1,92,101,93,-1,94,95,102,-1,102,95,103,-1,102,103,98,-1,98,103,96,-1,103,95,101,-1,101,95,93,-1,103,101,96,-1,96,101,97,-1,104,105,106,-1,106,105,107,-1,106,107,108,-1,108,107,109,-1,108,109,110,-1,110,109,111,-1,111,112,110,-1,110,112,113,-1,113,112,114,-1,114,112,115,-1,114,115,104,-1,104,115,105,-1,109,107,115,-1,115,107,105,-1,115,112,109,-1,109,112,111,-1,116,117,118,-1,118,117,119,-1,118,119,120,-1,120,119,121,-1,120,121,122,-1,122,121,123,-1,123,124,122,-1,122,124,125,-1,125,124,126,-1,126,124,127,-1,126,127,116,-1,116,127,117,-1,121,119,127,-1,127,119,117,-1,127,124,121,-1,121,124,123,-1,128,129,130,-1,130,129,131,-1,130,131,132,-1,133,134,135,-1,135,134,136,-1,135,136,137,-1,138,139,140,-1,140,139,141,-1,142,143,144,-1,144,143,145,-1,143,142,146,-1,146,142,139,-1,146,139,138,-1,147,148,149,-1,149,148,150,-1,151,152,153,-1,153,152,154,-1,152,151,155,-1,155,151,148,-1,155,148,147,-1,
        ]
    }
}
Shape{
    appearance Appearance {
        material  Material 	{
            diffuseColor 0.0 0.0 0.0
            specularColor 0.0 0.0 0.0
            ambientIntensity 0.2
            transparency 0
            shininess 0.5
        }
    }
    geometry IndexedFaceSet {
        ccw TRUE
        solid FALSE
        coord DEF co Coordinate {
            point [
                -0.1936 -0.0154 -0.0079, -0.1936 -0.0154 -0.0039, -0.1823 -0.0485 -0.0079, -0.1823 -0.0485 -0.0039, -0.2424 -0.0154 -0.0079, -0.2424 -0.0154 -0.0039, -0.2543 -0.0485 -0.0079, -0.2543 -0.0485 -0.0039, -0.2716 -0.0485 -0.0079, -0.2716 -0.0485 -0.0039, -0.2255 0.0696 -0.0079, -0.2255 0.0696 -0.0039, -0.2097 0.0696 -0.0079, -0.2097 0.0696 -0.0039, -0.165 -0.0485 -0.0079, -0.165 -0.0485 -0.0039, -0.1975 -0.0024 -0.0039, -0.2152 0.0469 -0.0039, -0.2182 0.0511 -0.0039, -0.2171 0.0552 -0.0039, -0.2163 0.051 -0.0039, -0.237 -0.0024 -0.0039, -0.2193 0.0469 -0.0039, -0.1975 -0.0024 -0.0079, -0.2152 0.0469 -0.0079, -0.237 -0.0024 -0.0079, -0.2193 0.0469 -0.0079, -0.2171 0.0552 -0.0079, -0.2182 0.0511 -0.0079, -0.2163 0.051 -0.0079, -0.1499 -0.0172 -0.0039, -0.1545 -0.0047 -0.0039, -0.1395 -0.0003 -0.0039, -0.1563 0.011 -0.0039, -0.1405 0.0117 -0.0039, -0.1564 0.0121 -0.0039, -0.139 0.0257 -0.0039, -0.1551 0.0254 -0.0039, -0.136 0.0344 -0.0039, -0.1517 0.0365 -0.0039, -0.1311 0.042 -0.0039, -0.1454 0.0469 -0.0039, -0.1244 0.0483 -0.0039, -0.1358 0.0564 -0.0039, -0.1163 0.0527 -0.0039, -0.124 0.0637 -0.0039, -0.1064 0.0555 -0.0039, -0.11 0.0682 -0.0039, -0.0946 0.0567 -0.0039, -0.0946 0.0696 -0.0039, -0.0771 0.0567 -0.0039, -0.0613 0.0696 -0.0039, -0.0771 -0.0355 -0.0039, -0.0613 -0.0485 -0.0039, -0.0939 -0.0355 -0.0039, -0.0934 -0.0485 -0.0039, -0.1082 -0.0339 -0.0039, -0.1077 -0.0472 -0.0039, -0.1174 -0.0308 -0.0039, -0.121 -0.0434 -0.0039, -0.1256 -0.0255 -0.0039, -0.1337 -0.0362 -0.0039, -0.1321 -0.0184 -0.0039, -0.1428 -0.0277 -0.0039, -0.1367 -0.0102 -0.0039, -0.0613 -0.0485 -0.0079, -0.0613 0.0696 -0.0079, -0.0934 -0.0485 -0.0079, -0.1077 -0.0472 -0.0079, -0.121 -0.0434 -0.0079, -0.1337 -0.0362 -0.0079, -0.1428 -0.0277 -0.0079, -0.1499 -0.0172 -0.0079, -0.1545 -0.0047 -0.0079, -0.1563 0.011 -0.0079, -0.1564 0.0121 -0.0079, -0.1551 0.0254 -0.0079, -0.1517 0.0365 -0.0079, -0.1454 0.0469 -0.0079, -0.1358 0.0564 -0.0079, -0.124 0.0637 -0.0079, -0.11 0.0682 -0.0079, -0.0946 0.0696 -0.0079, -0.0946 0.0567 -0.0079, -0.1064 0.0555 -0.0079, -0.1163 0.0527 -0.0079, -0.1244 0.0483 -0.0079, -0.1311 0.042 -0.0079, -0.136 0.0344 -0.0079, -0.139 0.0257 -0.0079, -0.1405 0.0117 -0.0079, -0.0771 0.0567 -0.0079, -0.0771 -0.0355 -0.0079, -0.0939 -0.0355 -0.0079, -0.1395 -0.0003 -0.0079, -0.1367 -0.0102 -0.0079, -0.1321 -0.0184 -0.0079, -0.1256 -0.0255 -0.0079, -0.1174 -0.0308 -0.0079, -0.1082 -0.0339 -0.0079, -0.0325 0.0178 -0.0079, -0.0325 0.0178 -0.0039, -0.0325 0.0048 -0.0079, -0.0325 0.0048 -0.0039, 0.0093 0.0178 -0.0079, 0.0093 0.0178 -0.0039, 0.0093 0.0567 -0.0079, 0.0093 0.0567 -0.0039, -0.0354 0.0567 -0.0079, -0.0354 0.0567 -0.0039, -0.0354 0.0696 -0.0079, -0.0354 0.0696 -0.0039, 0.0251 0.0696 -0.0079, 0.0251 0.0696 -0.0039, 0.0251 -0.0485 -0.0079, 0.0251 -0.0485 -0.0039, -0.0383 -0.0485 -0.0079, -0.0383 -0.0485 -0.0039, -0.0383 -0.0355 -0.0079, -0.0383 -0.0355 -0.0039, 0.0093 -0.0355 -0.0079, 0.0093 -0.0355 -0.0039, 0.0093 0.0048 -0.0079, 0.0093 0.0048 -0.0039, 0.0758 0.0581 -0.0039, 0.0758 0.0581 -0.0079, 0.0633 0.0567 -0.0079, 0.0633 0.0567 -0.0039, 0.051 0.052 -0.0079, 0.051 0.052 -0.0039, 0.0482 0.0505 -0.0079, 0.0482 0.0505 -0.0039, 0.0482 0.0664 -0.0079, 0.0482 0.0664 -0.0039, 0.0618 0.0701 -0.0079, 0.0618 0.0701 -0.0039, 0.076 0.0711 -0.0079, 0.076 0.0711 -0.0039, 0.0898 0.0697 -0.0079, 0.0898 0.0697 -0.0039, 0.1018 0.066 -0.0079, 0.1018 0.066 -0.0039, 0.1129 0.0593 -0.0079, 0.1129 0.0593 -0.0039, 0.123 0.0494 -0.0079, 0.123 0.0494 -0.0039, 0.1304 0.0372 -0.0079, 0.1304 0.0372 -0.0039, 0.1346 0.0235 -0.0079, 0.1346 0.0235 -0.0039, 0.136 0.0083 -0.0079, 0.136 0.0083 -0.0039, 0.0807 -0.0499 -0.0079, 0.0807 -0.0499 -0.0039, 0.0886 -0.0492 -0.0079, 0.0931 -0.0488 -0.0039, 0.0931 -0.0488 -0.0079, 0.1047 -0.0454 -0.0039, 0.1047 -0.0454 -0.0079, 0.1156 -0.0389 -0.0039, 0.1156 -0.0389 -0.0079, 0.1244 -0.0299 -0.0039, 0.1244 -0.0299 -0.0079, 0.1313 -0.0179 -0.0039, 0.1313 -0.0179 -0.0079, 0.1349 -0.0053 -0.0039, 0.1349 -0.0053 -0.0079, 0.0667 -0.0488 -0.0039, 0.0714 -0.0492 -0.0079, 0.0667 -0.0488 -0.0079, 0.053 -0.0444 -0.0079, 0.053 -0.0444 -0.0039, 0.0482 -0.0424 -0.0079, 0.0482 -0.0424 -0.0039, 0.0482 -0.0294 -0.0079, 0.0482 -0.0294 -0.0039, 0.0604 -0.0346 -0.0079, 0.0604 -0.0346 -0.0039, 0.0739 -0.0367 -0.0079, 0.0739 -0.0367 -0.0039, 0.0785 -0.037 -0.0079, 0.0785 -0.037 -0.0039, 0.0898 -0.0355 -0.0079, 0.0898 -0.0355 -0.0039, 0.0977 -0.0328 -0.0079, 0.0977 -0.0328 -0.0039, 0.105 -0.028 -0.0079, 0.105 -0.028 -0.0039, 0.1116 -0.0208 -0.0079, 0.1116 -0.0208 -0.0039, 0.1164 -0.0122 -0.0079, 0.1164 -0.0122 -0.0039, 0.1191 -0.0024 -0.0079, 0.1191 -0.0024 -0.0039, 0.1202 0.0093 -0.0079, 0.1202 0.0093 -0.0039, 0.119 0.0218 -0.0079, 0.119 0.0218 -0.0039, 0.1161 0.0321 -0.0079, 0.1161 0.0321 -0.0039, 0.111 0.041 -0.0079, 0.111 0.041 -0.0039, 0.1036 0.0489 -0.0079, 0.1036 0.0489 -0.0039, 0.0964 0.0536 -0.0079, 0.0964 0.0536 -0.0039, 0.0877 0.0565 -0.0079, 0.0877 0.0565 -0.0039, 0.2066 -0.0485 -0.0079, 0.2066 -0.0485 -0.0039, 0.2066 0.0696 -0.0079, 0.2066 0.0696 -0.0039, 0.1461 -0.0485 -0.0079, 0.1461 -0.0485 -0.0039, 0.1461 -0.0355 -0.0079, 0.1461 -0.0355 -0.0039, 0.1908 -0.0355 -0.0079, 0.1908 -0.0355 -0.0039, 0.1908 0.0696 -0.0079, 0.1908 0.0696 -0.0039, 0.1908 0.0696 -0.0039
            ]
        }
        coordIndex [
            0,1,2,-1,2,1,3,-1,4,5,0,-1,0,5,1,-1,6,7,4,-1,4,7,5,-1,8,9,6,-1,6,9,7,-1,10,11,8,-1,8,11,9,-1,12,13,10,-1,10,13,11,-1,14,15,12,-1,12,15,13,-1,14,2,15,-1,15,2,3,-1,16,17,13,-1,15,3,1,-1,18,11,19,-1,19,11,13,-1,19,13,20,-1,20,13,17,-1,13,15,16,-1,16,15,1,-1,16,1,21,-1,21,1,5,-1,18,22,11,-1,11,22,21,-1,11,21,9,-1,9,21,5,-1,9,5,7,-1,16,23,17,-1,17,23,24,-1,21,25,16,-1,16,25,23,-1,22,26,21,-1,21,26,25,-1,19,27,28,-1,19,28,18,-1,18,28,26,-1,18,26,22,-1,17,24,29,-1,17,29,20,-1,20,29,27,-1,20,27,19,-1,30,31,32,-1,32,31,33,-1,32,33,34,-1,34,33,35,-1,34,35,36,-1,36,35,37,-1,36,37,38,-1,38,37,39,-1,38,39,40,-1,40,39,41,-1,40,41,42,-1,42,41,43,-1,42,43,44,-1,44,43,45,-1,44,45,46,-1,46,45,47,-1,46,47,48,-1,48,47,49,-1,48,49,50,-1,50,49,51,-1,50,51,52,-1,52,51,53,-1,52,53,54,-1,54,53,55,-1,54,55,56,-1,56,55,57,-1,56,57,58,-1,58,57,59,-1,58,59,60,-1,60,59,61,-1,60,61,62,-1,62,61,63,-1,62,63,64,-1,64,63,30,-1,64,30,32,-1,65,53,66,-1,66,53,51,-1,67,55,65,-1,65,55,53,-1,55,67,68,-1,55,68,57,-1,57,68,69,-1,57,69,59,-1,59,69,70,-1,59,70,61,-1,61,70,71,-1,61,71,63,-1,63,71,72,-1,63,72,30,-1,30,72,73,-1,30,73,31,-1,31,73,74,-1,31,74,33,-1,33,74,75,-1,33,75,35,-1,35,75,76,-1,35,76,37,-1,37,76,77,-1,37,77,39,-1,39,77,78,-1,39,78,41,-1,41,78,79,-1,41,79,43,-1,43,79,80,-1,43,80,45,-1,45,80,81,-1,45,81,47,-1,47,81,82,-1,47,82,49,-1,82,66,49,-1,49,66,51,-1,48,83,84,-1,48,84,46,-1,46,84,85,-1,46,85,44,-1,44,85,86,-1,44,86,42,-1,42,86,87,-1,42,87,40,-1,40,87,88,-1,40,88,38,-1,38,88,89,-1,38,89,36,-1,36,89,90,-1,36,90,34,-1,50,91,48,-1,48,91,83,-1,52,92,50,-1,50,92,91,-1,54,93,52,-1,52,93,92,-1,34,90,94,-1,34,94,32,-1,32,94,95,-1,32,95,64,-1,64,95,96,-1,64,96,62,-1,62,96,97,-1,62,97,60,-1,60,97,98,-1,60,98,58,-1,58,98,99,-1,58,99,56,-1,56,99,93,-1,56,93,54,-1,100,101,102,-1,102,101,103,-1,104,105,100,-1,100,105,101,-1,106,107,104,-1,104,107,105,-1,108,109,106,-1,106,109,107,-1,110,111,108,-1,108,111,109,-1,112,113,110,-1,110,113,111,-1,114,115,112,-1,112,115,113,-1,116,117,114,-1,114,117,115,-1,118,119,116,-1,116,119,117,-1,120,121,118,-1,118,121,119,-1,122,123,120,-1,120,123,121,-1,122,102,123,-1,123,102,103,-1,109,111,107,-1,107,111,113,-1,107,113,105,-1,117,119,115,-1,115,119,121,-1,115,121,123,-1,103,101,123,-1,123,101,105,-1,123,105,115,-1,115,105,113,-1,124,125,126,-1,124,126,127,-1,127,126,128,-1,127,128,129,-1,129,128,130,-1,129,130,131,-1,132,133,130,-1,130,133,131,-1,133,132,134,-1,133,134,135,-1,135,134,136,-1,135,136,137,-1,137,136,138,-1,137,138,139,-1,139,138,140,-1,139,140,141,-1,141,140,142,-1,141,142,143,-1,143,142,144,-1,143,144,145,-1,145,144,146,-1,145,146,147,-1,147,146,148,-1,147,148,149,-1,149,148,150,-1,149,150,151,-1,152,153,154,-1,154,153,155,-1,154,155,156,-1,156,155,157,-1,156,157,158,-1,158,157,159,-1,158,159,160,-1,160,159,161,-1,160,161,162,-1,162,161,163,-1,162,163,164,-1,164,163,165,-1,164,165,166,-1,166,165,151,-1,166,151,150,-1,153,152,167,-1,167,152,168,-1,168,169,167,-1,167,169,170,-1,167,170,171,-1,171,170,172,-1,171,172,173,-1,174,175,172,-1,172,175,173,-1,175,174,176,-1,175,176,177,-1,177,176,178,-1,177,178,179,-1,179,178,180,-1,179,180,181,-1,181,180,182,-1,181,182,183,-1,183,182,184,-1,183,184,185,-1,185,184,186,-1,185,186,187,-1,187,186,188,-1,187,188,189,-1,189,188,190,-1,189,190,191,-1,191,190,192,-1,191,192,193,-1,193,192,194,-1,193,194,195,-1,195,194,196,-1,195,196,197,-1,197,196,198,-1,197,198,199,-1,199,198,200,-1,199,200,201,-1,201,200,202,-1,201,202,203,-1,203,202,204,-1,203,204,205,-1,205,204,206,-1,205,206,207,-1,207,206,125,-1,207,125,124,-1,173,175,171,-1,171,175,177,-1,171,177,167,-1,167,177,179,-1,167,179,153,-1,153,179,181,-1,153,181,155,-1,155,181,183,-1,155,183,157,-1,157,183,185,-1,157,185,159,-1,159,185,187,-1,159,187,161,-1,161,187,189,-1,161,189,163,-1,163,189,191,-1,163,191,165,-1,165,191,193,-1,165,193,151,-1,151,193,195,-1,151,195,149,-1,149,195,197,-1,149,197,147,-1,147,197,199,-1,147,199,145,-1,145,199,201,-1,145,201,143,-1,143,201,203,-1,143,203,141,-1,141,203,205,-1,141,205,139,-1,139,205,207,-1,139,207,137,-1,137,207,124,-1,137,124,135,-1,135,124,127,-1,135,127,133,-1,133,127,129,-1,133,129,131,-1,208,209,210,-1,210,209,211,-1,212,213,208,-1,208,213,209,-1,214,215,212,-1,212,215,213,-1,216,217,214,-1,214,217,215,-1,218,219,216,-1,216,219,217,-1,218,210,219,-1,219,210,211,-1,219,211,217,-1,217,211,209,-1,217,209,215,-1,215,209,213,-1,
        ]
    }
}
Shape{
    appearance Appearance {
        material  Material 	{
            diffuseColor 0.7529411764705882 0.7529411764705882 0.7529411764705882
            specularColor 0.3764705882352941 0.3764705882352941 0.3764705882352941
            ambientIntensity 0.2
            transparency 0
            shininess 0.5
        }
    }
    geometry IndexedFaceSet {
        ccw TRUE
        solid FALSE
        coord DEF co Coordinate {
            point [
                -0.1975 -0.0024 -0.0079, -0.237 -0.0024 -0.0079, -0.2152 0.0469 -0.0079, -0.2193 0.0469 -0.0079, -0.2163 0.051 -0.0079, -0.2182 0.0511 -0.0079, -0.2171 0.0552 -0.0079, -0.0771 0.0567 -0.0079, -0.0771 -0.0355 -0.0079, -0.0946 0.0567 -0.0079, -0.0939 -0.0355 -0.0079, -0.1244 0.0483 -0.0079, -0.1163 0.0527 -0.0079, -0.1064 0.0555 -0.0079, -0.1256 -0.0255 -0.0079, -0.1321 -0.0184 -0.0079, -0.1174 -0.0308 -0.0079, -0.1367 -0.0102 -0.0079, -0.1082 -0.0339 -0.0079, -0.1395 -0.0003 -0.0079, -0.1405 0.0117 -0.0079, -0.139 0.0257 -0.0079, -0.136 0.0344 -0.0079, -0.1311 0.042 -0.0079, -0.1311 0.042 -0.0079
            ]
        }
        coordIndex [
            0,1,2,-1,2,1,3,-1,2,3,4,-1,4,3,5,-1,4,5,6,-1,7,8,9,-1,9,8,10,-1,11,12,10,-1,10,12,13,-1,10,13,9,-1,14,15,16,-1,16,15,17,-1,16,17,18,-1,18,17,19,-1,18,19,10,-1,10,19,20,-1,10,20,21,-1,21,22,10,-1,10,22,23,-1,10,23,11,-1,
        ]
    }
}